M48
; DRILL file {KiCad 8.0.3} date 2025-10-03T16:37:20+0800
; FORMAT={-:-/ absolute / inch / decimal}
; #@! TF.CreationDate,2025-10-03T16:37:20+08:00
; #@! TF.GenerationSoftware,Kicad,Pcbnew,8.0.3
; #@! TF.FileFunction,Plated,1,2,PTH
FMAT,2
INCH
; #@! TA.AperFunction,Plated,PTH,ComponentDrill
T1C0.0120
; #@! TA.AperFunction,Plated,PTH,ViaDrill
T2C0.0157
; #@! TA.AperFunction,Plated,PTH,ComponentDrill
T3C0.0591
; #@! TA.AperFunction,Plated,PTH,ComponentDrill
T4C0.0709
; #@! TA.AperFunction,Plated,PTH,ComponentDrill
T5C0.0787
; #@! TA.AperFunction,Plated,PTH,ComponentDrill
T6C0.0827
%
G90
G05
T1
X1.7236Y-3.6756
T2
X1.238Y-2.9886
X1.2656Y-2.7886
X1.2656Y-2.8886
X1.2844Y-2.6906
X1.3477Y-3.6165
X1.3572Y-3.6896
X1.3985Y-3.5673
X1.5343Y-3.5555
X1.9291Y-3.6736
X1.9791Y-3.5732
X1.9839Y-5.7209
X1.9859Y-3.6012
X2.05Y-2.6535
X2.0835Y-3.5929
X2.1984Y-2.8063
X2.2323Y-3.4256
X2.2854Y-2.3157
X2.635Y-3.4437
X2.6681Y-4.6228
X2.6681Y-4.7295
X2.6709Y-3.4063
X2.6976Y-4.7024
X2.6984Y-4.652
X2.7173Y-2.372
X2.7435Y-3.6455
X2.7726Y-3.9351
X2.7726Y-3.9639
X2.8024Y-4.2335
X2.8039Y-4.3362
X2.814Y-3.8097
X2.8508Y-4.502
X2.8508Y-4.5854
X2.8553Y-4.013
X2.8703Y-2.7516
X2.876Y-3.9929
X2.9161Y-3.8097
X2.9161Y-4.4358
X2.9347Y-5.0725
X2.9373Y-4.5884
X2.9614Y-5.1722
X2.9661Y-4.539
X2.987Y-3.3272
X3.0374Y-3.4087
X3.0519Y-3.7306
X3.5402Y-4.1335
X3.5496Y-2.6366
X3.5547Y-3.2728
X3.5547Y-3.3756
X3.5567Y-3.785
X3.578Y-3.7606
X3.6033Y-3.7476
X3.6171Y-3.7237
X3.6585Y-3.3471
X3.6585Y-3.966
X3.6791Y-3.9453
X3.6806Y-3.3634
X3.7009Y-2.8925
X3.7009Y-2.989
X3.7009Y-3.0854
X3.7009Y-3.1819
X3.7028Y-3.966
X3.7028Y-3.3471
X3.7044Y-4.1006
X3.7261Y-3.3642
X3.7261Y-3.9457
X3.7318Y-4.0978
X3.7525Y-4.0751
X3.765Y-5.0961
X3.7701Y-3.9918
X3.7783Y-4.7665
X3.7811Y-4.8657
X3.7815Y-4.4685
X3.7815Y-4.5701
X3.7827Y-4.6677
X4.1308Y-3.8046
X4.1848Y-4.3852
X4.2829Y-4.3851
X4.2957Y-3.8764
X4.2972Y-3.1295
X4.3004Y-2.3799
X4.3798Y-4.3853
X4.4361Y-3.592
X4.4768Y-4.3858
X5.0303Y-4.113
X5.0311Y-2.6189
X5.0484Y-3.3665
X5.1848Y-3.8943
X5.2437Y-4.3319
X5.7937Y-2.9886
X5.7945Y-3.7461
X5.9355Y-3.8943
X6.5433Y-3.7386
X6.5445Y-2.989
X6.5465Y-4.4827
X8.2878Y-4.4917
X8.289Y-3.7484
X8.2906Y-2.9902
X8.4579Y-4.3461
X8.8439Y-4.1768
X9.0409Y-3.7453
X9.0437Y-2.9965
X9.785Y-3.3669
X9.7874Y-4.1063
X9.7957Y-2.6181
X9.8642Y-4.3783
X9.9301Y-4.0338
X9.961Y-4.3779
X10.0561Y-4.3759
X10.1984Y-4.2913
X10.2Y-4.319
X10.2009Y-4.3473
X10.2707Y-3.489
X10.4844Y-4.4708
X10.4844Y-4.5693
X10.4844Y-4.6677
X10.4844Y-4.7661
X10.5307Y-3.1291
X10.5406Y-3.8752
X10.5413Y-2.3835
X10.5685Y-4.7117
X10.5889Y-3.2383
X10.5921Y-4.6384
X10.6091Y-4.4713
X10.6163Y-3.2361
X10.6285Y-2.9989
X10.6285Y-3.0954
X10.6285Y-3.1918
X10.6287Y-2.9031
X10.6439Y-3.2364
X10.6714Y-3.2346
X10.6728Y-3.6816
X10.6767Y-4.2913
X10.6965Y-3.6618
X10.7122Y-3.7663
X10.7138Y-3.3106
X10.7173Y-2.5386
X10.7384Y-3.7801
X10.7398Y-4.1535
X11.0835Y-5.0417
X11.2685Y-3.7801
X11.2917Y-4.1343
X11.2951Y-3.7663
X11.3111Y-3.8088
X11.3398Y-3.8082
X11.3717Y-5.1521
X11.4268Y-4.572
X11.4524Y-4.6217
X11.4961Y-3.224
X11.5594Y-4.7531
X11.6022Y-4.6521
X11.6022Y-4.7013
X11.6071Y-2.3815
X11.6343Y-4.624
X11.6343Y-4.7291
X11.85Y-3.8579
X11.8854Y-5.2402
X11.9059Y-3.1283
X11.9698Y-3.6919
X11.9753Y-3.7188
X11.9756Y-4.9386
X11.9813Y-2.3157
X11.9813Y-2.3827
X12.0047Y-2.4791
X12.0091Y-3.1272
X12.0098Y-3.8794
X12.0153Y-4.9388
X12.0358Y-4.2346
X12.0363Y-3.887
X12.0457Y-2.7327
X12.0565Y-3.9087
X12.0856Y-3.7972
X12.0866Y-3.7697
X12.0993Y-4.8931
X12.1128Y-4.2346
X12.128Y-3.7686
X12.1549Y-3.7277
X12.164Y-3.0524
X12.1689Y-3.9087
X12.1778Y-2.9886
X12.2053Y-2.7886
X12.2053Y-2.8819
X12.2242Y-2.6886
X12.2382Y-5.611
X12.3041Y-3.5673
X12.3173Y-3.6396
X12.3441Y-3.5939
X12.3493Y-3.6585
X12.5669Y-5.2287
X12.8602Y-3.5519
X12.9112Y-3.6169
X12.9511Y-2.6361
X12.9852Y-2.4886
X12.9882Y-2.8066
X13.0026Y-2.8862
X13.016Y-2.9826
T3
X1.3632Y-2.3886
X1.3632Y-2.4886
X1.3632Y-2.5886
X1.3632Y-2.6886
X1.3632Y-2.7886
X1.3632Y-2.8886
X1.3632Y-2.9886
X1.3632Y-3.0886
X1.3632Y-3.1886
X1.3632Y-3.2886
X1.3632Y-3.3886
X1.3632Y-3.4886
X1.462Y-3.6211
X1.562Y-3.6211
X1.662Y-3.6211
X1.762Y-3.6211
X1.862Y-3.6211
X1.8828Y-5.2841
X1.9632Y-2.3886
X1.9632Y-2.4886
X1.9632Y-2.5886
X1.9632Y-2.6886
X1.9632Y-2.7886
X1.9632Y-2.8886
X1.9632Y-2.9886
X1.9632Y-3.0886
X1.9632Y-3.1886
X1.9632Y-3.2886
X1.9632Y-3.3886
X1.9632Y-3.4886
X2.0173Y-5.2602
X2.0673Y-5.348
X2.094Y-5.5596
X2.0944Y-5.4506
X2.1147Y-5.5197
X2.3165Y-3.5977
X2.3407Y-3.6355
X2.3621Y-2.5978
X2.3621Y-4.0973
X2.4087Y-2.4694
X2.4087Y-3.9689
X2.4107Y-3.6526
X2.4782Y-5.0709
X2.49Y-4.9349
X2.5097Y-2.47
X2.5097Y-3.9695
X2.5131Y-3.6804
X2.5877Y-4.9093
X2.6121Y-2.4978
X2.6121Y-3.9973
X2.6142Y-3.6809
X2.6607Y-3.5526
X2.6821Y-2.5149
X2.6821Y-4.0143
X2.6938Y-4.9096
X2.7063Y-2.5527
X2.7063Y-4.0521
X2.7659Y-4.908
X2.799Y-4.9383
X3.0671Y-3.5012
X3.0912Y-3.539
X3.1126Y-2.501
X3.1126Y-3.9998
X3.1592Y-2.3726
X3.1592Y-3.8714
X3.1612Y-3.5561
X3.2602Y-2.3732
X3.2602Y-3.872
X3.2637Y-3.5839
X3.3047Y-4.8989
X3.3399Y-4.767
X3.3626Y-2.401
X3.3626Y-3.8998
X3.3647Y-3.5844
X3.4112Y-3.4561
X3.4326Y-2.418
X3.4326Y-3.9169
X3.4405Y-4.7588
X3.4568Y-2.4559
X3.4568Y-3.9547
X3.545Y-4.7775
X3.6162Y-4.7884
X3.6436Y-4.824
X3.8625Y-2.2435
X3.8625Y-2.9935
X3.8625Y-3.7443
X3.909Y-2.1151
X3.909Y-2.8651
X3.909Y-3.6159
X4.01Y-2.1157
X4.01Y-2.8657
X4.01Y-3.6165
X4.1125Y-2.1435
X4.1125Y-2.8935
X4.1125Y-3.6443
X4.1825Y-2.1606
X4.1825Y-2.9106
X4.1825Y-3.6614
X4.2066Y-2.1984
X4.2066Y-2.9484
X4.2066Y-3.6992
X4.612Y-2.4801
X4.612Y-3.2297
X4.612Y-3.9799
X4.6585Y-2.3517
X4.6585Y-3.1014
X4.6585Y-3.8515
X4.7595Y-2.3523
X4.7595Y-3.1019
X4.7595Y-3.8521
X4.862Y-2.3801
X4.862Y-3.1297
X4.862Y-3.8799
X4.932Y-2.3972
X4.932Y-3.1468
X4.932Y-3.897
X4.9561Y-2.435
X4.9561Y-3.1846
X4.9561Y-3.9348
X5.3156Y-4.6061
X5.3398Y-4.6439
X5.3612Y-2.8569
X5.3612Y-3.6067
X5.4077Y-2.7285
X5.4077Y-3.4783
X5.4098Y-4.661
X5.5088Y-2.7291
X5.5088Y-3.4789
X5.5122Y-4.6888
X5.6112Y-2.7569
X5.6112Y-3.5067
X5.6133Y-4.6894
X5.6598Y-4.561
X5.6812Y-2.774
X5.6812Y-3.5238
X5.7054Y-2.8118
X5.7054Y-3.5616
X6.1114Y-2.8569
X6.1114Y-3.6067
X6.1114Y-4.3565
X6.1579Y-2.7285
X6.1579Y-3.4783
X6.1579Y-4.2281
X6.2589Y-2.7291
X6.2589Y-3.4789
X6.2589Y-4.2287
X6.3614Y-2.7569
X6.3614Y-3.5067
X6.3614Y-4.2565
X6.4314Y-2.774
X6.4314Y-3.5238
X6.4314Y-4.2736
X6.4555Y-2.8118
X6.4555Y-3.5616
X6.4555Y-4.3114
X7.855Y-2.8569
X7.855Y-3.6067
X7.8551Y-4.3565
X7.9015Y-2.7285
X7.9015Y-3.4783
X7.9016Y-4.2281
X8.0025Y-2.7291
X8.0025Y-3.4789
X8.0026Y-4.2287
X8.105Y-2.7569
X8.105Y-3.5067
X8.1051Y-4.2565
X8.175Y-2.774
X8.175Y-3.5238
X8.1751Y-4.2736
X8.1991Y-2.8118
X8.1991Y-3.5616
X8.1992Y-4.3114
X8.5596Y-4.6061
X8.5838Y-4.6439
X8.6052Y-2.8569
X8.6052Y-3.6067
X8.6517Y-2.7285
X8.6517Y-3.4783
X8.6538Y-4.661
X8.7528Y-2.7291
X8.7528Y-3.4789
X8.7562Y-4.6888
X8.8552Y-2.7569
X8.8552Y-3.5067
X8.8572Y-4.6894
X8.9038Y-4.561
X8.9252Y-2.774
X8.9252Y-3.5238
X8.9494Y-2.8118
X8.9494Y-3.5616
X9.3544Y-2.4801
X9.3544Y-3.2297
X9.3544Y-3.9799
X9.401Y-2.3517
X9.401Y-3.1014
X9.401Y-3.8515
X9.502Y-2.3523
X9.502Y-3.1019
X9.502Y-3.8521
X9.6044Y-2.3801
X9.6044Y-3.1297
X9.6044Y-3.8799
X9.6744Y-2.3972
X9.6744Y-3.1468
X9.6744Y-3.897
X9.6986Y-2.435
X9.6986Y-3.1846
X9.6986Y-3.9348
X10.1042Y-2.2435
X10.1042Y-2.9935
X10.1042Y-3.7443
X10.1508Y-2.1151
X10.1508Y-2.8651
X10.1508Y-3.6159
X10.2518Y-2.1157
X10.2518Y-2.8657
X10.2518Y-3.6165
X10.3542Y-2.1435
X10.3542Y-2.8935
X10.3542Y-3.6443
X10.4242Y-2.1606
X10.4242Y-2.9106
X10.4242Y-3.6614
X10.4484Y-2.1984
X10.4484Y-2.9484
X10.4484Y-3.6992
X10.6658Y-4.8729
X10.7233Y-4.7491
X10.8087Y-3.5012
X10.8239Y-4.7585
X10.8328Y-3.539
X10.8543Y-2.501
X10.8543Y-3.9998
X10.9008Y-2.3726
X10.9008Y-3.8714
X10.9028Y-3.5561
X10.9235Y-4.7951
X10.9918Y-4.8182
X11.0018Y-2.3732
X11.0018Y-3.872
X11.0053Y-3.5839
X11.0126Y-4.8579
X11.1043Y-2.401
X11.1043Y-3.8998
X11.1063Y-3.5844
X11.1528Y-3.4561
X11.1743Y-2.418
X11.1743Y-3.9169
X11.1984Y-2.4559
X11.1984Y-3.9547
X11.5005Y-4.9937
X11.5586Y-3.5977
X11.5787Y-4.8817
X11.5828Y-3.6355
X11.6043Y-2.5978
X11.6043Y-4.0973
X11.6508Y-2.4694
X11.6508Y-3.9689
X11.6528Y-3.6526
X11.6761Y-4.9084
X11.7518Y-2.47
X11.7518Y-3.9695
X11.7552Y-3.6804
X11.7678Y-4.9618
X11.831Y-4.9964
X11.8446Y-5.0392
X11.8543Y-2.4978
X11.8543Y-3.9973
X11.8563Y-3.6809
X11.9028Y-3.5526
X11.9243Y-2.5149
X11.9243Y-4.0143
X11.9484Y-2.5527
X11.9484Y-4.0521
X12.1456Y-5.4382
X12.1966Y-5.351
X12.2335Y-5.5427
X12.2719Y-5.2762
X12.3036Y-2.3886
X12.3036Y-2.4886
X12.3036Y-2.5886
X12.3036Y-2.6886
X12.3036Y-2.7886
X12.3036Y-2.8886
X12.3036Y-2.9886
X12.3036Y-3.0886
X12.3036Y-3.1886
X12.3036Y-3.2886
X12.3036Y-3.3886
X12.3036Y-3.4886
X12.3216Y-5.2241
X12.3665Y-5.222
X12.4024Y-3.6211
X12.5024Y-3.6211
X12.6024Y-3.6211
X12.7024Y-3.6211
X12.8024Y-3.6211
X12.9036Y-2.3886
X12.9036Y-2.4886
X12.9036Y-2.5886
X12.9036Y-2.6886
X12.9036Y-2.7886
X12.9036Y-2.8886
X12.9036Y-2.9886
X12.9036Y-3.0886
X12.9036Y-3.1886
X12.9036Y-3.2886
X12.9036Y-3.3886
X12.9036Y-3.4886
T4
X9.1304Y-2.9358
T5
X1.2576Y-2.3177
X1.2754Y-3.65
X1.3417Y-5.1976
X2.1386Y-2.5547
X2.2327Y-5.2476
X3.6355Y-2.3646
X3.8676Y-4.3079
X5.1346Y-2.9358
X5.1346Y-4.1282
X5.7807Y-3.3345
X5.7807Y-4.0837
X6.4291Y-3.3345
X6.4291Y-4.0837
X7.8357Y-3.3345
X7.8357Y-4.0837
X8.4843Y-3.3345
X8.4843Y-4.0837
X9.1304Y-4.1282
X10.3974Y-4.3079
X10.6293Y-2.3646
X12.0311Y-5.2484
X12.1262Y-2.5547
X12.9231Y-5.1976
X12.9894Y-3.65
X13.0026Y-2.3177
T6
X2.8885Y-2.6683
X2.8885Y-3.4163
X11.3762Y-2.6687
X11.3762Y-3.4167
M30
