G04 #@! TF.GenerationSoftware,KiCad,Pcbnew,8.0.3*
G04 #@! TF.CreationDate,2025-10-03T16:37:16+08:00*
G04 #@! TF.ProjectId,xavien-gateron-millmax,78617669-656e-42d6-9761-7465726f6e2d,rev?*
G04 #@! TF.SameCoordinates,Original*
G04 #@! TF.FileFunction,Soldermask,Bot*
G04 #@! TF.FilePolarity,Negative*
%FSLAX46Y46*%
G04 Gerber Fmt 4.6, Leading zero omitted, Abs format (unit mm)*
G04 Created by KiCad (PCBNEW 8.0.3) date 2025-10-03 16:37:16*
%MOMM*%
%LPD*%
G01*
G04 APERTURE LIST*
G04 Aperture macros list*
%AMRoundRect*
0 Rectangle with rounded corners*
0 $1 Rounding radius*
0 $2 $3 $4 $5 $6 $7 $8 $9 X,Y pos of 4 corners*
0 Add a 4 corners polygon primitive as box body*
4,1,4,$2,$3,$4,$5,$6,$7,$8,$9,$2,$3,0*
0 Add four circle primitives for the rounded corners*
1,1,$1+$1,$2,$3*
1,1,$1+$1,$4,$5*
1,1,$1+$1,$6,$7*
1,1,$1+$1,$8,$9*
0 Add four rect primitives between the rounded corners*
20,1,$1+$1,$2,$3,$4,$5,0*
20,1,$1+$1,$4,$5,$6,$7,0*
20,1,$1+$1,$6,$7,$8,$9,0*
20,1,$1+$1,$8,$9,$2,$3,0*%
%AMRotRect*
0 Rectangle, with rotation*
0 The origin of the aperture is its center*
0 $1 length*
0 $2 width*
0 $3 Rotation angle, in degrees counterclockwise*
0 Add horizontal line*
21,1,$1,$2,0,0,$3*%
%AMOutline5P*
0 Free polygon, 5 corners , with rotation*
0 The origin of the aperture is its center*
0 number of corners: always 5*
0 $1 to $10 corner X, Y*
0 $11 Rotation angle, in degrees counterclockwise*
0 create outline with 5 corners*
4,1,5,$1,$2,$3,$4,$5,$6,$7,$8,$9,$10,$1,$2,$11*%
%AMOutline6P*
0 Free polygon, 6 corners , with rotation*
0 The origin of the aperture is its center*
0 number of corners: always 6*
0 $1 to $12 corner X, Y*
0 $13 Rotation angle, in degrees counterclockwise*
0 create outline with 6 corners*
4,1,6,$1,$2,$3,$4,$5,$6,$7,$8,$9,$10,$11,$12,$1,$2,$13*%
%AMOutline7P*
0 Free polygon, 7 corners , with rotation*
0 The origin of the aperture is its center*
0 number of corners: always 7*
0 $1 to $14 corner X, Y*
0 $15 Rotation angle, in degrees counterclockwise*
0 create outline with 7 corners*
4,1,7,$1,$2,$3,$4,$5,$6,$7,$8,$9,$10,$11,$12,$13,$14,$1,$2,$15*%
%AMOutline8P*
0 Free polygon, 8 corners , with rotation*
0 The origin of the aperture is its center*
0 number of corners: always 8*
0 $1 to $16 corner X, Y*
0 $17 Rotation angle, in degrees counterclockwise*
0 create outline with 8 corners*
4,1,8,$1,$2,$3,$4,$5,$6,$7,$8,$9,$10,$11,$12,$13,$14,$15,$16,$1,$2,$17*%
%AMFreePoly0*
4,1,13,0.095671,0.480970,0.176777,0.426777,0.230970,0.345671,0.250000,0.250000,0.250000,-0.250000,0.230970,-0.345671,0.176777,-0.426777,0.095671,-0.480970,0.000000,-0.500000,-0.250000,-0.500000,-0.250000,0.500000,0.000000,0.500000,0.095671,0.480970,0.095671,0.480970,$1*%
%AMFreePoly1*
4,1,13,0.150000,1.409808,0.229813,1.342836,0.281908,1.252606,0.300000,1.150000,0.300000,-1.150000,-0.300000,-1.150000,-0.300000,1.150000,-0.281908,1.252606,-0.229813,1.342836,-0.150000,1.409808,-0.052094,1.445442,0.052094,1.445442,0.150000,1.409808,0.150000,1.409808,$1*%
G04 Aperture macros list end*
%ADD10C,0.100000*%
%ADD11C,0.500000*%
%ADD12C,1.900000*%
%ADD13C,3.000000*%
%ADD14C,5.100000*%
%ADD15R,2.550000X2.550000*%
%ADD16C,2.500000*%
%ADD17FreePoly0,180.000000*%
%ADD18R,0.500000X1.000000*%
%ADD19FreePoly0,0.000000*%
%ADD20R,2.450000X2.550000*%
%ADD21RotRect,2.550000X2.550000X240.000000*%
%ADD22RotRect,2.550000X2.550000X175.000000*%
%ADD23C,2.700000*%
%ADD24C,2.000000*%
%ADD25C,0.900000*%
%ADD26C,0.300000*%
%ADD27C,2.100000*%
%ADD28O,2.100000X2.500000*%
%ADD29RotRect,2.550000X2.550000X185.000000*%
%ADD30RotRect,2.550000X2.550000X195.000000*%
%ADD31RotRect,2.550000X2.550000X165.000000*%
%ADD32RotRect,2.550000X2.550000X120.000000*%
%ADD33R,2.375000X2.545000*%
%ADD34C,0.700000*%
%ADD35RoundRect,0.240000X0.660000X0.360000X-0.660000X0.360000X-0.660000X-0.360000X0.660000X-0.360000X0*%
%ADD36Outline5P,-1.143000X0.725000X1.143000X0.725000X1.143000X-0.725000X-0.708000X-0.725000X-1.143000X-0.290000X0.000000*%
%ADD37R,2.286000X1.450000*%
%ADD38FreePoly1,90.000000*%
%ADD39FreePoly1,270.000000*%
%ADD40Outline5P,-1.143000X0.725000X1.143000X0.725000X1.143000X-0.725000X-0.708000X-0.725000X-1.143000X-0.290000X180.000000*%
%ADD41Outline5P,-1.143000X0.725000X1.143000X0.725000X1.143000X-0.725000X-0.708000X-0.725000X-1.143000X-0.290000X90.000000*%
%ADD42R,1.450000X2.286000*%
%ADD43RoundRect,0.400000X0.750000X0.400000X-0.750000X0.400000X-0.750000X-0.400000X0.750000X-0.400000X0*%
%ADD44RoundRect,0.400000X0.764300X0.400000X-0.764300X0.400000X-0.764300X-0.400000X0.764300X-0.400000X0*%
G04 #@! TA.AperFunction,Profile*
%ADD45C,0.050000*%
G04 #@! TD*
G04 #@! TA.AperFunction,Profile*
%ADD46C,0.100000*%
G04 #@! TD*
G04 APERTURE END LIST*
D10*
X267927496Y-82694992D02*
X267077505Y-82695004D01*
X267077504Y-81494998D01*
X267927494Y-81494997D01*
X267927496Y-82694992D01*
G36*
X267927496Y-82694992D02*
G01*
X267077505Y-82695004D01*
X267077504Y-81494998D01*
X267927494Y-81494997D01*
X267927496Y-82694992D01*
G37*
X267927502Y-80074995D02*
X267077495Y-80074996D01*
X267077499Y-78875002D01*
X267927500Y-78874992D01*
X267927502Y-80074995D01*
G36*
X267927502Y-80074995D02*
G01*
X267077495Y-80074996D01*
X267077499Y-78875002D01*
X267927500Y-78874992D01*
X267927502Y-80074995D01*
G37*
X147547496Y-79147492D02*
X146697505Y-79147504D01*
X146697504Y-77947498D01*
X147547494Y-77947497D01*
X147547496Y-79147492D01*
G36*
X147547496Y-79147492D02*
G01*
X146697505Y-79147504D01*
X146697504Y-77947498D01*
X147547494Y-77947497D01*
X147547496Y-79147492D01*
G37*
X147547502Y-76527495D02*
X146697495Y-76527496D01*
X146697499Y-75327502D01*
X147547500Y-75327492D01*
X147547502Y-76527495D01*
G36*
X147547502Y-76527495D02*
G01*
X146697495Y-76527496D01*
X146697499Y-75327502D01*
X147547500Y-75327492D01*
X147547502Y-76527495D01*
G37*
X230124996Y-79294992D02*
X229275005Y-79295004D01*
X229275004Y-78094998D01*
X230124994Y-78094997D01*
X230124996Y-79294992D01*
G36*
X230124996Y-79294992D02*
G01*
X229275005Y-79295004D01*
X229275004Y-78094998D01*
X230124994Y-78094997D01*
X230124996Y-79294992D01*
G37*
X230125002Y-76674995D02*
X229274995Y-76674996D01*
X229274999Y-75475002D01*
X230125000Y-75474992D01*
X230125002Y-76674995D01*
G36*
X230125002Y-76674995D02*
G01*
X229274995Y-76674996D01*
X229274999Y-75475002D01*
X230125000Y-75474992D01*
X230125002Y-76674995D01*
G37*
X109459996Y-101684992D02*
X108610005Y-101685004D01*
X108610004Y-100484998D01*
X109459994Y-100484997D01*
X109459996Y-101684992D01*
G36*
X109459996Y-101684992D02*
G01*
X108610005Y-101685004D01*
X108610004Y-100484998D01*
X109459994Y-100484997D01*
X109459996Y-101684992D01*
G37*
X109460002Y-99064995D02*
X108609995Y-99064996D01*
X108609999Y-97865002D01*
X109460000Y-97864992D01*
X109460002Y-99064995D01*
G36*
X109460002Y-99064995D02*
G01*
X108609995Y-99064996D01*
X108609999Y-97865002D01*
X109460000Y-97864992D01*
X109460002Y-99064995D01*
G37*
X166602496Y-117087492D02*
X165752505Y-117087504D01*
X165752504Y-115887498D01*
X166602494Y-115887497D01*
X166602496Y-117087492D01*
G36*
X166602496Y-117087492D02*
G01*
X165752505Y-117087504D01*
X165752504Y-115887498D01*
X166602494Y-115887497D01*
X166602496Y-117087492D01*
G37*
X166602502Y-114467495D02*
X165752495Y-114467496D01*
X165752499Y-113267502D01*
X166602500Y-113267492D01*
X166602502Y-114467495D01*
G36*
X166602502Y-114467495D02*
G01*
X165752495Y-114467496D01*
X165752499Y-113267502D01*
X166602500Y-113267492D01*
X166602502Y-114467495D01*
G37*
X272644996Y-67719992D02*
X271795005Y-67720004D01*
X271795004Y-66519998D01*
X272644994Y-66519997D01*
X272644996Y-67719992D01*
G36*
X272644996Y-67719992D02*
G01*
X271795005Y-67720004D01*
X271795004Y-66519998D01*
X272644994Y-66519997D01*
X272644996Y-67719992D01*
G37*
X272645002Y-65099995D02*
X271794995Y-65099996D01*
X271794999Y-63900002D01*
X272645000Y-63899992D01*
X272645002Y-65099995D01*
G36*
X272645002Y-65099995D02*
G01*
X271794995Y-65099996D01*
X271794999Y-63900002D01*
X272645000Y-63899992D01*
X272645002Y-65099995D01*
G37*
X75106413Y-129311609D02*
X74285386Y-129531604D01*
X73974802Y-128372498D01*
X74795827Y-128152493D01*
X75106413Y-129311609D01*
G36*
X75106413Y-129311609D02*
G01*
X74285386Y-129531604D01*
X73974802Y-128372498D01*
X74795827Y-128152493D01*
X75106413Y-129311609D01*
G37*
X75784523Y-131842330D02*
X74963487Y-132062336D01*
X74652902Y-130903223D01*
X75473945Y-130683224D01*
X75784523Y-131842330D01*
G36*
X75784523Y-131842330D02*
G01*
X74963487Y-132062336D01*
X74652902Y-130903223D01*
X75473945Y-130683224D01*
X75784523Y-131842330D01*
G37*
X249039996Y-88739992D02*
X248190005Y-88740004D01*
X248190004Y-87539998D01*
X249039994Y-87539997D01*
X249039996Y-88739992D01*
G36*
X249039996Y-88739992D02*
G01*
X248190005Y-88740004D01*
X248190004Y-87539998D01*
X249039994Y-87539997D01*
X249039996Y-88739992D01*
G37*
X249040002Y-86119995D02*
X248189995Y-86119996D01*
X248189999Y-84920002D01*
X249040000Y-84919992D01*
X249040002Y-86119995D01*
G36*
X249040002Y-86119995D02*
G01*
X248189995Y-86119996D01*
X248189999Y-84920002D01*
X249040000Y-84919992D01*
X249040002Y-86119995D01*
G37*
X166619996Y-98159992D02*
X165770005Y-98160004D01*
X165770004Y-96959998D01*
X166619994Y-96959997D01*
X166619996Y-98159992D01*
G36*
X166619996Y-98159992D02*
G01*
X165770005Y-98160004D01*
X165770004Y-96959998D01*
X166619994Y-96959997D01*
X166619996Y-98159992D01*
G37*
X166620002Y-95539995D02*
X165769995Y-95539996D01*
X165769999Y-94340002D01*
X166620000Y-94339992D01*
X166620002Y-95539995D01*
G36*
X166620002Y-95539995D02*
G01*
X165769995Y-95539996D01*
X165769999Y-94340002D01*
X166620000Y-94339992D01*
X166620002Y-95539995D01*
G37*
X128229996Y-69734992D02*
X127380005Y-69735004D01*
X127380004Y-68534998D01*
X128229994Y-68534997D01*
X128229996Y-69734992D01*
G36*
X128229996Y-69734992D02*
G01*
X127380005Y-69735004D01*
X127380004Y-68534998D01*
X128229994Y-68534997D01*
X128229996Y-69734992D01*
G37*
X128230002Y-67114995D02*
X127379995Y-67114996D01*
X127379999Y-65915002D01*
X128230000Y-65914992D01*
X128230002Y-67114995D01*
G36*
X128230002Y-67114995D02*
G01*
X127379995Y-67114996D01*
X127379999Y-65915002D01*
X128230000Y-65914992D01*
X128230002Y-67114995D01*
G37*
X210957496Y-98349992D02*
X210107505Y-98350004D01*
X210107504Y-97149998D01*
X210957494Y-97149997D01*
X210957496Y-98349992D01*
G36*
X210957496Y-98349992D02*
G01*
X210107505Y-98350004D01*
X210107504Y-97149998D01*
X210957494Y-97149997D01*
X210957496Y-98349992D01*
G37*
X210957502Y-95729995D02*
X210107495Y-95729996D01*
X210107499Y-94530002D01*
X210957500Y-94529992D01*
X210957502Y-95729995D01*
G36*
X210957502Y-95729995D02*
G01*
X210107495Y-95729996D01*
X210107499Y-94530002D01*
X210957500Y-94529992D01*
X210957502Y-95729995D01*
G37*
X90734996Y-86349992D02*
X89885005Y-86350004D01*
X89885004Y-85149998D01*
X90734994Y-85149997D01*
X90734996Y-86349992D01*
G36*
X90734996Y-86349992D02*
G01*
X89885005Y-86350004D01*
X89885004Y-85149998D01*
X90734994Y-85149997D01*
X90734996Y-86349992D01*
G37*
X90735002Y-83729995D02*
X89884995Y-83729996D01*
X89884999Y-82530002D01*
X90735000Y-82529992D01*
X90735002Y-83729995D01*
G36*
X90735002Y-83729995D02*
G01*
X89884995Y-83729996D01*
X89884999Y-82530002D01*
X90735000Y-82529992D01*
X90735002Y-83729995D01*
G37*
X287234996Y-108264992D02*
X286385005Y-108265004D01*
X286385004Y-107064998D01*
X287234994Y-107064997D01*
X287234996Y-108264992D01*
G36*
X287234996Y-108264992D02*
G01*
X286385005Y-108265004D01*
X286385004Y-107064998D01*
X287234994Y-107064997D01*
X287234996Y-108264992D01*
G37*
X287235002Y-105644995D02*
X286384995Y-105644996D01*
X286384999Y-104445002D01*
X287235000Y-104444992D01*
X287235002Y-105644995D01*
G36*
X287235002Y-105644995D02*
G01*
X286384995Y-105644996D01*
X286384999Y-104445002D01*
X287235000Y-104444992D01*
X287235002Y-105644995D01*
G37*
X95796421Y-127306417D02*
X94949666Y-127380500D01*
X94845077Y-126185071D01*
X95691833Y-126110978D01*
X95796421Y-127306417D01*
G36*
X95796421Y-127306417D02*
G01*
X94949666Y-127380500D01*
X94845077Y-126185071D01*
X95691833Y-126110978D01*
X95796421Y-127306417D01*
G37*
X96024774Y-129916443D02*
X95178008Y-129990533D01*
X95073419Y-128795099D01*
X95920192Y-128721015D01*
X96024774Y-129916443D01*
G36*
X96024774Y-129916443D02*
G01*
X95178008Y-129990533D01*
X95073419Y-128795099D01*
X95920192Y-128721015D01*
X96024774Y-129916443D01*
G37*
X302990003Y-79824994D02*
X301790008Y-79824996D01*
X301789996Y-78975005D01*
X302990002Y-78975004D01*
X302990003Y-79824994D01*
G36*
X302990003Y-79824994D02*
G01*
X301790008Y-79824996D01*
X301789996Y-78975005D01*
X302990002Y-78975004D01*
X302990003Y-79824994D01*
G37*
X305609998Y-78974999D02*
X305610008Y-79825000D01*
X304410005Y-79825002D01*
X304410004Y-78974995D01*
X305609998Y-78974999D01*
G36*
X305609998Y-78974999D02*
G01*
X305610008Y-79825000D01*
X304410005Y-79825002D01*
X304410004Y-78974995D01*
X305609998Y-78974999D01*
G37*
X272545001Y-84832498D02*
X271695000Y-84832508D01*
X271694998Y-83632505D01*
X272545005Y-83632504D01*
X272545001Y-84832498D01*
G36*
X272545001Y-84832498D02*
G01*
X271695000Y-84832508D01*
X271694998Y-83632505D01*
X272545005Y-83632504D01*
X272545001Y-84832498D01*
G37*
X272544996Y-82212502D02*
X271695006Y-82212503D01*
X271695004Y-81012508D01*
X272544995Y-81012496D01*
X272544996Y-82212502D01*
G36*
X272544996Y-82212502D02*
G01*
X271695006Y-82212503D01*
X271695004Y-81012508D01*
X272544995Y-81012496D01*
X272544996Y-82212502D01*
G37*
X249022496Y-107542492D02*
X248172505Y-107542504D01*
X248172504Y-106342498D01*
X249022494Y-106342497D01*
X249022496Y-107542492D01*
G36*
X249022496Y-107542492D02*
G01*
X248172505Y-107542504D01*
X248172504Y-106342498D01*
X249022494Y-106342497D01*
X249022496Y-107542492D01*
G37*
X249022502Y-104922495D02*
X248172495Y-104922496D01*
X248172499Y-103722502D01*
X249022500Y-103722492D01*
X249022502Y-104922495D01*
G36*
X249022502Y-104922495D02*
G01*
X248172495Y-104922496D01*
X248172499Y-103722502D01*
X249022500Y-103722492D01*
X249022502Y-104922495D01*
G37*
X109569996Y-82679992D02*
X108720005Y-82680004D01*
X108720004Y-81479998D01*
X109569994Y-81479997D01*
X109569996Y-82679992D01*
G36*
X109569996Y-82679992D02*
G01*
X108720005Y-82680004D01*
X108720004Y-81479998D01*
X109569994Y-81479997D01*
X109569996Y-82679992D01*
G37*
X109570002Y-80059995D02*
X108719995Y-80059996D01*
X108719999Y-78860002D01*
X109570000Y-78859992D01*
X109570002Y-80059995D01*
G36*
X109570002Y-80059995D02*
G01*
X108719995Y-80059996D01*
X108719999Y-78860002D01*
X109570000Y-78859992D01*
X109570002Y-80059995D01*
G37*
X57097501Y-87559998D02*
X56247500Y-87560008D01*
X56247498Y-86360005D01*
X57097505Y-86360004D01*
X57097501Y-87559998D01*
G36*
X57097501Y-87559998D02*
G01*
X56247500Y-87560008D01*
X56247498Y-86360005D01*
X57097505Y-86360004D01*
X57097501Y-87559998D01*
G37*
X57097496Y-84940002D02*
X56247506Y-84940003D01*
X56247504Y-83740008D01*
X57097495Y-83739996D01*
X57097496Y-84940002D01*
G36*
X57097496Y-84940002D02*
G01*
X56247506Y-84940003D01*
X56247504Y-83740008D01*
X57097495Y-83739996D01*
X57097496Y-84940002D01*
G37*
X306087496Y-110814992D02*
X305237505Y-110815004D01*
X305237504Y-109614998D01*
X306087494Y-109614997D01*
X306087496Y-110814992D01*
G36*
X306087496Y-110814992D02*
G01*
X305237505Y-110815004D01*
X305237504Y-109614998D01*
X306087494Y-109614997D01*
X306087496Y-110814992D01*
G37*
X306087502Y-108194995D02*
X305237495Y-108194996D01*
X305237499Y-106995002D01*
X306087500Y-106994992D01*
X306087502Y-108194995D01*
G36*
X306087502Y-108194995D02*
G01*
X305237495Y-108194996D01*
X305237499Y-106995002D01*
X306087500Y-106994992D01*
X306087502Y-108194995D01*
G37*
X306409996Y-72712492D02*
X305560005Y-72712504D01*
X305560004Y-71512498D01*
X306409994Y-71512497D01*
X306409996Y-72712492D01*
G36*
X306409996Y-72712492D02*
G01*
X305560005Y-72712504D01*
X305560004Y-71512498D01*
X306409994Y-71512497D01*
X306409996Y-72712492D01*
G37*
X306410002Y-70092495D02*
X305559995Y-70092496D01*
X305559999Y-68892502D01*
X306410000Y-68892492D01*
X306410002Y-70092495D01*
G36*
X306410002Y-70092495D02*
G01*
X305559995Y-70092496D01*
X305559999Y-68892502D01*
X306410000Y-68892492D01*
X306410002Y-70092495D01*
G37*
X210957496Y-79174992D02*
X210107505Y-79175004D01*
X210107504Y-77974998D01*
X210957494Y-77974997D01*
X210957496Y-79174992D01*
G36*
X210957496Y-79174992D02*
G01*
X210107505Y-79175004D01*
X210107504Y-77974998D01*
X210957494Y-77974997D01*
X210957496Y-79174992D01*
G37*
X210957502Y-76554995D02*
X210107495Y-76554996D01*
X210107499Y-75355002D01*
X210957500Y-75354992D01*
X210957502Y-76554995D01*
G36*
X210957502Y-76554995D02*
G01*
X210107495Y-76554996D01*
X210107499Y-75355002D01*
X210957500Y-75354992D01*
X210957502Y-76554995D01*
G37*
X65059995Y-60190007D02*
X64160001Y-60190004D01*
X64159995Y-59490003D01*
X65060002Y-59489992D01*
X65059995Y-60190007D01*
G36*
X65059995Y-60190007D02*
G01*
X64160001Y-60190004D01*
X64159995Y-59490003D01*
X65060002Y-59489992D01*
X65059995Y-60190007D01*
G37*
X65059998Y-57290007D02*
X65059995Y-57989993D01*
X64160000Y-57990004D01*
X64160012Y-57289997D01*
X65059998Y-57290007D01*
G36*
X65059998Y-57290007D02*
G01*
X65059995Y-57989993D01*
X64160000Y-57990004D01*
X64160012Y-57289997D01*
X65059998Y-57290007D01*
G37*
X66310007Y-59790000D02*
X66310000Y-61189990D01*
X65710000Y-61190000D01*
X65710000Y-59789997D01*
X66310007Y-59790000D01*
G36*
X66310007Y-59790000D02*
G01*
X66310000Y-61189990D01*
X65710000Y-61190000D01*
X65710000Y-59789997D01*
X66310007Y-59790000D01*
G37*
X69309991Y-61189999D02*
X68710003Y-61189995D01*
X68710003Y-59789999D01*
X69309993Y-59789999D01*
X69309991Y-61189999D01*
G36*
X69309991Y-61189999D02*
G01*
X68710003Y-61189995D01*
X68710003Y-59789999D01*
X69309993Y-59789999D01*
X69309991Y-61189999D01*
G37*
X70809999Y-61189998D02*
X70209998Y-61190007D01*
X70210005Y-59790004D01*
X70809998Y-59790001D01*
X70809999Y-61189998D01*
G36*
X70809999Y-61189998D02*
G01*
X70209998Y-61190007D01*
X70210005Y-59790004D01*
X70809998Y-59790001D01*
X70809999Y-61189998D01*
G37*
X72359999Y-57289996D02*
X72360005Y-57989997D01*
X71459998Y-57990008D01*
X71460005Y-57289993D01*
X72359999Y-57289996D01*
G36*
X72359999Y-57289996D02*
G01*
X72360005Y-57989997D01*
X71459998Y-57990008D01*
X71460005Y-57289993D01*
X72359999Y-57289996D01*
G37*
X72359988Y-60190003D02*
X71460002Y-60189993D01*
X71460005Y-59490007D01*
X72360000Y-59489996D01*
X72359988Y-60190003D01*
G36*
X72359988Y-60190003D02*
G01*
X71460002Y-60189993D01*
X71460005Y-59490007D01*
X72360000Y-59489996D01*
X72359988Y-60190003D01*
G37*
X147602496Y-98264992D02*
X146752505Y-98265004D01*
X146752504Y-97064998D01*
X147602494Y-97064997D01*
X147602496Y-98264992D01*
G36*
X147602496Y-98264992D02*
G01*
X146752505Y-98265004D01*
X146752504Y-97064998D01*
X147602494Y-97064997D01*
X147602496Y-98264992D01*
G37*
X147602502Y-95644995D02*
X146752495Y-95644996D01*
X146752499Y-94445002D01*
X147602500Y-94444992D01*
X147602502Y-95644995D01*
G36*
X147602502Y-95644995D02*
G01*
X146752495Y-95644996D01*
X146752499Y-94445002D01*
X147602500Y-94444992D01*
X147602502Y-95644995D01*
G37*
X230119996Y-98324992D02*
X229270005Y-98325004D01*
X229270004Y-97124998D01*
X230119994Y-97124997D01*
X230119996Y-98324992D01*
G36*
X230119996Y-98324992D02*
G01*
X229270005Y-98325004D01*
X229270004Y-97124998D01*
X230119994Y-97124997D01*
X230119996Y-98324992D01*
G37*
X230120002Y-95704995D02*
X229269995Y-95704996D01*
X229269999Y-94505002D01*
X230120000Y-94504992D01*
X230120002Y-95704995D01*
G36*
X230120002Y-95704995D02*
G01*
X229269995Y-95704996D01*
X229269999Y-94505002D01*
X230120000Y-94504992D01*
X230120002Y-95704995D01*
G37*
X128647496Y-88784992D02*
X127797505Y-88785004D01*
X127797504Y-87584998D01*
X128647494Y-87584997D01*
X128647496Y-88784992D01*
G36*
X128647496Y-88784992D02*
G01*
X127797505Y-88785004D01*
X127797504Y-87584998D01*
X128647494Y-87584997D01*
X128647496Y-88784992D01*
G37*
X128647502Y-86164995D02*
X127797495Y-86164996D01*
X127797499Y-84965002D01*
X128647500Y-84964992D01*
X128647502Y-86164995D01*
G36*
X128647502Y-86164995D02*
G01*
X127797495Y-86164996D01*
X127797499Y-84965002D01*
X128647500Y-84964992D01*
X128647502Y-86164995D01*
G37*
X71644996Y-110739992D02*
X70795005Y-110740004D01*
X70795004Y-109539998D01*
X71644994Y-109539997D01*
X71644996Y-110739992D01*
G36*
X71644996Y-110739992D02*
G01*
X70795005Y-110740004D01*
X70795004Y-109539998D01*
X71644994Y-109539997D01*
X71644996Y-110739992D01*
G37*
X71645002Y-108119995D02*
X70794995Y-108119996D01*
X70794999Y-106920002D01*
X71645000Y-106919992D01*
X71645002Y-108119995D01*
G36*
X71645002Y-108119995D02*
G01*
X70794995Y-108119996D01*
X70794999Y-106920002D01*
X71645000Y-106919992D01*
X71645002Y-108119995D01*
G37*
X56265001Y-71879998D02*
X55415000Y-71880008D01*
X55414998Y-70680005D01*
X56265005Y-70680004D01*
X56265001Y-71879998D01*
G36*
X56265001Y-71879998D02*
G01*
X55415000Y-71880008D01*
X55414998Y-70680005D01*
X56265005Y-70680004D01*
X56265001Y-71879998D01*
G37*
X56264996Y-69260002D02*
X55415006Y-69260003D01*
X55415004Y-68060008D01*
X56264995Y-68059996D01*
X56264996Y-69260002D01*
G36*
X56264996Y-69260002D02*
G01*
X55415006Y-69260003D01*
X55415004Y-68060008D01*
X56264995Y-68059996D01*
X56264996Y-69260002D01*
G37*
X290869995Y-60190007D02*
X289970001Y-60190004D01*
X289969995Y-59490003D01*
X290870002Y-59489992D01*
X290869995Y-60190007D01*
G36*
X290869995Y-60190007D02*
G01*
X289970001Y-60190004D01*
X289969995Y-59490003D01*
X290870002Y-59489992D01*
X290869995Y-60190007D01*
G37*
X290869998Y-57290007D02*
X290869995Y-57989993D01*
X289970000Y-57990004D01*
X289970012Y-57289997D01*
X290869998Y-57290007D01*
G36*
X290869998Y-57290007D02*
G01*
X290869995Y-57989993D01*
X289970000Y-57990004D01*
X289970012Y-57289997D01*
X290869998Y-57290007D01*
G37*
X292120007Y-59790000D02*
X292120000Y-61189990D01*
X291520000Y-61190000D01*
X291520000Y-59789997D01*
X292120007Y-59790000D01*
G36*
X292120007Y-59790000D02*
G01*
X292120000Y-61189990D01*
X291520000Y-61190000D01*
X291520000Y-59789997D01*
X292120007Y-59790000D01*
G37*
X295119991Y-61189999D02*
X294520003Y-61189995D01*
X294520003Y-59789999D01*
X295119993Y-59789999D01*
X295119991Y-61189999D01*
G36*
X295119991Y-61189999D02*
G01*
X294520003Y-61189995D01*
X294520003Y-59789999D01*
X295119993Y-59789999D01*
X295119991Y-61189999D01*
G37*
X296619999Y-61189998D02*
X296019998Y-61190007D01*
X296020005Y-59790004D01*
X296619998Y-59790001D01*
X296619999Y-61189998D01*
G36*
X296619999Y-61189998D02*
G01*
X296019998Y-61190007D01*
X296020005Y-59790004D01*
X296619998Y-59790001D01*
X296619999Y-61189998D01*
G37*
X298169999Y-57289996D02*
X298170005Y-57989997D01*
X297269998Y-57990008D01*
X297270005Y-57289993D01*
X298169999Y-57289996D01*
G36*
X298169999Y-57289996D02*
G01*
X298170005Y-57989997D01*
X297269998Y-57990008D01*
X297270005Y-57289993D01*
X298169999Y-57289996D01*
G37*
X298169988Y-60190003D02*
X297270002Y-60189993D01*
X297270005Y-59490007D01*
X298170000Y-59489996D01*
X298169988Y-60190003D01*
G36*
X298169988Y-60190003D02*
G01*
X297270002Y-60189993D01*
X297270005Y-59490007D01*
X298170000Y-59489996D01*
X298169988Y-60190003D01*
G37*
X128167496Y-107747492D02*
X127317505Y-107747504D01*
X127317504Y-106547498D01*
X128167494Y-106547497D01*
X128167496Y-107747492D01*
G36*
X128167496Y-107747492D02*
G01*
X127317505Y-107747504D01*
X127317504Y-106547498D01*
X128167494Y-106547497D01*
X128167496Y-107747492D01*
G37*
X128167502Y-105127495D02*
X127317495Y-105127496D01*
X127317499Y-103927502D01*
X128167500Y-103927492D01*
X128167502Y-105127495D01*
G36*
X128167502Y-105127495D02*
G01*
X127317495Y-105127496D01*
X127317499Y-103927502D01*
X128167500Y-103927492D01*
X128167502Y-105127495D01*
G37*
X268157496Y-101734992D02*
X267307505Y-101735004D01*
X267307504Y-100534998D01*
X268157494Y-100534997D01*
X268157496Y-101734992D01*
G36*
X268157496Y-101734992D02*
G01*
X267307505Y-101735004D01*
X267307504Y-100534998D01*
X268157494Y-100534997D01*
X268157496Y-101734992D01*
G37*
X268157502Y-99114995D02*
X267307495Y-99114996D01*
X267307499Y-97915002D01*
X268157500Y-97914992D01*
X268157502Y-99114995D01*
G36*
X268157502Y-99114995D02*
G01*
X267307495Y-99114996D01*
X267307499Y-97915002D01*
X268157500Y-97914992D01*
X268157502Y-99114995D01*
G37*
X268209996Y-63704992D02*
X267360005Y-63705004D01*
X267360004Y-62504998D01*
X268209994Y-62504997D01*
X268209996Y-63704992D01*
G36*
X268209996Y-63704992D02*
G01*
X267360005Y-63705004D01*
X267360004Y-62504998D01*
X268209994Y-62504997D01*
X268209996Y-63704992D01*
G37*
X268210002Y-61084995D02*
X267359995Y-61084996D01*
X267359999Y-59885002D01*
X268210000Y-59884992D01*
X268210002Y-61084995D01*
G36*
X268210002Y-61084995D02*
G01*
X267359995Y-61084996D01*
X267359999Y-59885002D01*
X268210000Y-59884992D01*
X268210002Y-61084995D01*
G37*
X319885213Y-132770314D02*
X319473122Y-133513747D01*
X318423585Y-132931975D01*
X318835665Y-132188543D01*
X319885213Y-132770314D01*
G36*
X319885213Y-132770314D02*
G01*
X319473122Y-133513747D01*
X318423585Y-132931975D01*
X318835665Y-132188543D01*
X319885213Y-132770314D01*
G37*
X322176711Y-134040519D02*
X321764637Y-134783944D01*
X320715088Y-134202170D01*
X321127170Y-133458751D01*
X322176711Y-134040519D01*
G36*
X322176711Y-134040519D02*
G01*
X321764637Y-134783944D01*
X320715088Y-134202170D01*
X321127170Y-133458751D01*
X322176711Y-134040519D01*
G37*
X90354996Y-108264992D02*
X89505005Y-108265004D01*
X89505004Y-107064998D01*
X90354994Y-107064997D01*
X90354996Y-108264992D01*
G36*
X90354996Y-108264992D02*
G01*
X89505005Y-108265004D01*
X89505004Y-107064998D01*
X90354994Y-107064997D01*
X90354996Y-108264992D01*
G37*
X90355002Y-105644995D02*
X89504995Y-105644996D01*
X89504999Y-104445002D01*
X90355000Y-104444992D01*
X90355002Y-105644995D01*
G36*
X90355002Y-105644995D02*
G01*
X89504995Y-105644996D01*
X89504999Y-104445002D01*
X90355000Y-104444992D01*
X90355002Y-105644995D01*
G37*
X210929996Y-117322492D02*
X210080005Y-117322504D01*
X210080004Y-116122498D01*
X210929994Y-116122497D01*
X210929996Y-117322492D01*
G36*
X210929996Y-117322492D02*
G01*
X210080005Y-117322504D01*
X210080004Y-116122498D01*
X210929994Y-116122497D01*
X210929996Y-117322492D01*
G37*
X210930002Y-114702495D02*
X210079995Y-114702496D01*
X210079999Y-113502502D01*
X210930000Y-113502492D01*
X210930002Y-114702495D01*
G36*
X210930002Y-114702495D02*
G01*
X210079995Y-114702496D01*
X210079999Y-113502502D01*
X210930000Y-113502492D01*
X210930002Y-114702495D01*
G37*
X301835903Y-135236803D02*
X301545600Y-136401154D01*
X300720854Y-136195534D01*
X301011161Y-135031173D01*
X301835903Y-135236803D01*
G36*
X301835903Y-135236803D02*
G01*
X301545600Y-136401154D01*
X300720854Y-136195534D01*
X301011161Y-135031173D01*
X301835903Y-135236803D01*
G37*
X302469745Y-132694625D02*
X302179440Y-133858983D01*
X301354682Y-133653349D01*
X301644991Y-132489001D01*
X302469745Y-132694625D01*
G36*
X302469745Y-132694625D02*
G01*
X302179440Y-133858983D01*
X301354682Y-133653349D01*
X301644991Y-132489001D01*
X302469745Y-132694625D01*
G37*
X133627496Y-113177492D02*
X132777505Y-113177504D01*
X132777504Y-111977498D01*
X133627494Y-111977497D01*
X133627496Y-113177492D01*
G36*
X133627496Y-113177492D02*
G01*
X132777505Y-113177504D01*
X132777504Y-111977498D01*
X133627494Y-111977497D01*
X133627496Y-113177492D01*
G37*
X133627502Y-110557495D02*
X132777495Y-110557496D01*
X132777499Y-109357502D01*
X133627500Y-109357492D01*
X133627502Y-110557495D01*
G36*
X133627502Y-110557495D02*
G01*
X132777495Y-110557496D01*
X132777499Y-109357502D01*
X133627500Y-109357492D01*
X133627502Y-110557495D01*
G37*
X48875125Y-146660733D02*
X47835899Y-147260732D01*
X47410894Y-146524624D01*
X48450129Y-145924620D01*
X48875125Y-146660733D01*
G36*
X48875125Y-146660733D02*
G01*
X47835899Y-147260732D01*
X47410894Y-146524624D01*
X48450129Y-145924620D01*
X48875125Y-146660733D01*
G37*
X51144118Y-145350736D02*
X50104886Y-145950739D01*
X49679882Y-145214612D01*
X50719109Y-144614618D01*
X51144118Y-145350736D01*
G36*
X51144118Y-145350736D02*
G01*
X50104886Y-145950739D01*
X49679882Y-145214612D01*
X50719109Y-144614618D01*
X51144118Y-145350736D01*
G37*
X281744035Y-130195964D02*
X281639450Y-131391393D01*
X280792692Y-131317324D01*
X280897279Y-130121884D01*
X281744035Y-130195964D01*
G36*
X281744035Y-130195964D02*
G01*
X281639450Y-131391393D01*
X280792692Y-131317324D01*
X280897279Y-130121884D01*
X281744035Y-130195964D01*
G37*
X281972389Y-127585930D02*
X281867804Y-128781367D01*
X281021031Y-128707285D01*
X281125622Y-127511857D01*
X281972389Y-127585930D01*
G36*
X281972389Y-127585930D02*
G01*
X281867804Y-128781367D01*
X281021031Y-128707285D01*
X281125622Y-127511857D01*
X281972389Y-127585930D01*
G37*
X249199996Y-69754992D02*
X248350005Y-69755004D01*
X248350004Y-68554998D01*
X249199994Y-68554997D01*
X249199996Y-69754992D01*
G36*
X249199996Y-69754992D02*
G01*
X248350005Y-69755004D01*
X248350004Y-68554998D01*
X249199994Y-68554997D01*
X249199996Y-69754992D01*
G37*
X249200002Y-67134995D02*
X248349995Y-67134996D01*
X248349999Y-65935002D01*
X249200000Y-65934992D01*
X249200002Y-67134995D01*
G36*
X249200002Y-67134995D02*
G01*
X248349995Y-67134996D01*
X248349999Y-65935002D01*
X249200000Y-65934992D01*
X249200002Y-67134995D01*
G37*
X90512496Y-70182492D02*
X89662505Y-70182504D01*
X89662504Y-68982498D01*
X90512494Y-68982497D01*
X90512496Y-70182492D01*
G36*
X90512496Y-70182492D02*
G01*
X89662505Y-70182504D01*
X89662504Y-68982498D01*
X90512494Y-68982497D01*
X90512496Y-70182492D01*
G37*
X90512502Y-67562495D02*
X89662495Y-67562496D01*
X89662499Y-66362502D01*
X90512500Y-66362492D01*
X90512502Y-67562495D01*
G36*
X90512502Y-67562495D02*
G01*
X89662495Y-67562496D01*
X89662499Y-66362502D01*
X90512500Y-66362492D01*
X90512502Y-67562495D01*
G37*
X166642496Y-79147492D02*
X165792505Y-79147504D01*
X165792504Y-77947498D01*
X166642494Y-77947497D01*
X166642496Y-79147492D01*
G36*
X166642496Y-79147492D02*
G01*
X165792505Y-79147504D01*
X165792504Y-77947498D01*
X166642494Y-77947497D01*
X166642496Y-79147492D01*
G37*
X166642502Y-76527495D02*
X165792495Y-76527496D01*
X165792499Y-75327502D01*
X166642500Y-75327492D01*
X166642502Y-76527495D01*
G36*
X166642502Y-76527495D02*
G01*
X165792495Y-76527496D01*
X165792499Y-75327502D01*
X166642500Y-75327492D01*
X166642502Y-76527495D01*
G37*
X109617496Y-63614992D02*
X108767505Y-63615004D01*
X108767504Y-62414998D01*
X109617494Y-62414997D01*
X109617496Y-63614992D01*
G36*
X109617496Y-63614992D02*
G01*
X108767505Y-63615004D01*
X108767504Y-62414998D01*
X109617494Y-62414997D01*
X109617496Y-63614992D01*
G37*
X109617502Y-60994995D02*
X108767495Y-60994996D01*
X108767499Y-59795002D01*
X109617500Y-59794992D01*
X109617502Y-60994995D01*
G36*
X109617502Y-60994995D02*
G01*
X108767495Y-60994996D01*
X108767499Y-59795002D01*
X109617500Y-59794992D01*
X109617502Y-60994995D01*
G37*
X215254996Y-113619992D02*
X214405005Y-113620004D01*
X214405004Y-112419998D01*
X215254994Y-112419997D01*
X215254996Y-113619992D01*
G36*
X215254996Y-113619992D02*
G01*
X214405005Y-113620004D01*
X214405004Y-112419998D01*
X215254994Y-112419997D01*
X215254996Y-113619992D01*
G37*
X215255002Y-110999995D02*
X214404995Y-110999996D01*
X214404999Y-109800002D01*
X215255000Y-109799992D01*
X215255002Y-110999995D01*
G36*
X215255002Y-110999995D02*
G01*
X214404995Y-110999996D01*
X214404999Y-109800002D01*
X215255000Y-109799992D01*
X215255002Y-110999995D01*
G37*
D11*
X212810000Y-75930000D03*
X149495500Y-75930000D03*
X149495500Y-93920000D03*
D12*
X236314845Y-103685318D03*
D13*
X237034845Y-108395318D03*
D14*
X241349845Y-103700318D03*
D13*
X244034845Y-109445318D03*
D12*
X246474845Y-103685318D03*
D15*
X233134845Y-108395318D03*
D16*
X243952845Y-98550318D03*
X245730845Y-98983318D03*
X246344845Y-99944318D03*
X237602845Y-101090318D03*
X238784845Y-97829318D03*
X241350845Y-97844318D03*
D15*
X247974845Y-109445318D03*
D12*
X236314845Y-65590317D03*
D13*
X237034845Y-70300317D03*
D14*
X241349845Y-65605317D03*
D13*
X244034845Y-71350317D03*
D12*
X246474845Y-65590317D03*
D15*
X233134845Y-70300317D03*
D16*
X243952845Y-60455317D03*
X245730845Y-60888317D03*
X246344845Y-61849317D03*
X237602845Y-62995317D03*
X238784845Y-59734317D03*
X241350845Y-59749317D03*
D15*
X247974845Y-71350317D03*
D17*
X293600000Y-120760000D03*
D18*
X294350000Y-120760000D03*
D19*
X295100000Y-120760000D03*
D12*
X153940849Y-113250725D03*
D13*
X154660849Y-117960725D03*
D14*
X158975849Y-113265725D03*
D13*
X161660849Y-119010725D03*
D12*
X164100849Y-113250725D03*
D15*
X150760849Y-117960725D03*
D16*
X161578849Y-108115725D03*
X163356849Y-108548725D03*
X163970849Y-109509725D03*
X155228849Y-110655725D03*
X156410849Y-107394725D03*
X158976849Y-107409725D03*
D15*
X165600849Y-119010725D03*
D12*
X274410000Y-104190318D03*
D13*
X275130000Y-108900318D03*
D14*
X279445000Y-104205318D03*
D13*
X282130000Y-109950318D03*
D12*
X284570000Y-104190318D03*
D20*
X271320055Y-108900318D03*
D16*
X282048000Y-99055318D03*
X283826000Y-99488318D03*
X284440000Y-100449318D03*
X275698000Y-101595318D03*
X276880000Y-98334318D03*
X279446000Y-98349318D03*
D15*
X286070000Y-109950318D03*
D12*
X115855754Y-103685318D03*
D13*
X116575754Y-108395318D03*
D14*
X120890754Y-103700318D03*
D13*
X123575754Y-109445318D03*
D12*
X126015754Y-103685318D03*
D15*
X112675754Y-108395318D03*
D16*
X123493754Y-98550318D03*
X125271754Y-98983318D03*
X125885754Y-99944318D03*
X117143754Y-101090318D03*
X118325754Y-97829318D03*
X120891754Y-97844318D03*
D15*
X127515754Y-109445318D03*
D16*
X92341425Y-60060000D03*
X56710000Y-133290000D03*
D12*
X217283945Y-94206079D03*
D13*
X218003945Y-98916079D03*
D14*
X222318945Y-94221079D03*
D13*
X225003945Y-99966079D03*
D12*
X227443945Y-94206079D03*
D15*
X214103945Y-98916079D03*
D16*
X224921945Y-89071079D03*
X226699945Y-89504079D03*
X227313945Y-90465079D03*
X218571945Y-91611079D03*
X219753945Y-88350079D03*
X222319945Y-88365079D03*
D15*
X228943945Y-99966079D03*
D11*
X149495500Y-112480000D03*
X149495500Y-114630000D03*
D16*
X163300000Y-84696000D03*
D17*
X67770000Y-121160000D03*
D18*
X68520000Y-121160000D03*
D19*
X69270000Y-121160000D03*
D12*
X217283945Y-75161079D03*
D13*
X218003945Y-79871079D03*
D14*
X222318945Y-75176079D03*
D13*
X225003945Y-80921079D03*
D12*
X227443945Y-75161079D03*
D15*
X214103945Y-79871079D03*
D16*
X224921945Y-70026079D03*
X226699945Y-70459079D03*
X227313945Y-71420079D03*
X218571945Y-72566079D03*
X219753945Y-69305079D03*
X222319945Y-69320079D03*
D15*
X228943945Y-80921079D03*
D12*
X236314845Y-84630316D03*
D13*
X237034845Y-89340316D03*
D14*
X241349845Y-84645316D03*
D13*
X244034845Y-90390316D03*
D12*
X246474845Y-84630316D03*
D15*
X233134845Y-89340316D03*
D16*
X243952845Y-79495316D03*
X245730845Y-79928316D03*
X246344845Y-80889316D03*
X237602845Y-82035316D03*
X238784845Y-78774316D03*
X241350845Y-78789316D03*
D15*
X247974845Y-90390316D03*
D12*
X312333439Y-143196700D03*
D13*
X316772419Y-144928162D03*
D14*
X314863929Y-138843762D03*
D13*
X321181745Y-139390984D03*
D12*
X317413439Y-134397882D03*
D21*
X314822419Y-148305661D03*
D16*
X311705399Y-134014498D03*
X312969388Y-132691205D03*
X314108638Y-132639965D03*
X310730103Y-140783759D03*
X308496994Y-138129617D03*
X309792985Y-135914896D03*
D21*
X323151745Y-135978844D03*
D16*
X330267209Y-58870000D03*
D12*
X87933254Y-85189000D03*
D13*
X87213254Y-80479000D03*
D14*
X82898254Y-85174000D03*
D13*
X80213254Y-79429000D03*
D12*
X77773254Y-85189000D03*
D15*
X91113254Y-80479000D03*
D16*
X80295254Y-90324000D03*
X78517254Y-89891000D03*
X77903254Y-88930000D03*
X86645254Y-87784000D03*
X85463254Y-91045000D03*
X82897254Y-91030000D03*
D15*
X76273254Y-79429000D03*
D11*
X212810000Y-113640000D03*
D12*
X145046848Y-113254000D03*
D13*
X144326848Y-108544000D03*
D14*
X140011848Y-113239000D03*
D13*
X137326848Y-107494000D03*
D12*
X134886848Y-113254000D03*
D15*
X148226848Y-108544000D03*
D16*
X137408848Y-118389000D03*
X135630848Y-117956000D03*
X135016848Y-116995000D03*
X143758848Y-115849000D03*
X142576848Y-119110000D03*
X140010848Y-119095000D03*
D15*
X133386848Y-107494000D03*
D16*
X146830000Y-84696000D03*
D12*
X68870000Y-87640000D03*
D13*
X68150000Y-82930000D03*
D14*
X63835000Y-87625000D03*
D13*
X61150000Y-81880000D03*
D12*
X58710000Y-87640000D03*
D15*
X72050000Y-82930000D03*
D16*
X61232000Y-92775000D03*
X59454000Y-92342000D03*
X58840000Y-91381000D03*
X67582000Y-90235000D03*
X66400000Y-93496000D03*
X63834000Y-93481000D03*
D15*
X57210000Y-81880000D03*
D12*
X96818354Y-78630316D03*
D13*
X97538354Y-83340316D03*
D14*
X101853354Y-78645316D03*
D13*
X104538354Y-84390316D03*
D12*
X106978354Y-78630316D03*
D15*
X93638354Y-83340316D03*
D16*
X104456354Y-73495316D03*
X106234354Y-73928316D03*
X106848354Y-74889316D03*
X98106354Y-76035316D03*
X99288354Y-72774316D03*
X101854354Y-72789316D03*
D15*
X108478354Y-84390316D03*
D12*
X198230342Y-113250725D03*
D13*
X198950342Y-117960725D03*
D14*
X203265342Y-113265725D03*
D13*
X205950342Y-119010725D03*
D12*
X208390342Y-113250725D03*
D15*
X195050342Y-117960725D03*
D16*
X205868342Y-108115725D03*
X207646342Y-108548725D03*
X208260342Y-109509725D03*
X199518342Y-110655725D03*
X200700342Y-107394725D03*
X203266342Y-107409725D03*
D15*
X209890342Y-119010725D03*
D12*
X269400913Y-126244509D03*
D13*
X269707670Y-130999338D03*
D14*
X274415446Y-126698281D03*
D13*
X276589519Y-132655433D03*
D12*
X279522251Y-127130011D03*
D22*
X265822510Y-130659431D03*
D16*
X277457393Y-121794745D03*
X279190889Y-122381060D03*
X279718795Y-123391917D03*
X270910181Y-123771640D03*
X272371898Y-120626067D03*
X274926826Y-120864652D03*
D22*
X280514526Y-132998826D03*
D23*
X73368544Y-67774292D03*
X73368544Y-86774290D03*
D12*
X115855754Y-65590317D03*
D13*
X116575754Y-70300317D03*
D14*
X120890754Y-65605317D03*
D13*
X123575754Y-71350317D03*
D12*
X126015754Y-65590317D03*
D15*
X112675754Y-70300317D03*
D16*
X123493754Y-60455317D03*
X125271754Y-60888317D03*
X125885754Y-61849317D03*
X117143754Y-62995317D03*
X118325754Y-59734317D03*
X120891754Y-59749317D03*
D15*
X127515754Y-71350317D03*
D16*
X199026209Y-103726000D03*
D24*
X231912000Y-74569000D03*
D12*
X255359845Y-59580317D03*
D13*
X256079845Y-64290317D03*
D14*
X260394845Y-59595317D03*
D13*
X263079845Y-65340317D03*
D12*
X265519845Y-59580317D03*
D15*
X252179845Y-64290317D03*
D16*
X262997845Y-54445317D03*
X264775845Y-54878317D03*
X265389845Y-55839317D03*
X256647845Y-56985317D03*
X257829845Y-53724317D03*
X260395845Y-53739317D03*
D15*
X267019845Y-65340317D03*
D11*
X149495500Y-113550000D03*
D12*
X58710000Y-68580000D03*
D13*
X59430000Y-73290000D03*
D14*
X63745000Y-68595000D03*
D13*
X66430000Y-74340000D03*
D12*
X68870000Y-68580000D03*
D15*
X55530000Y-73290000D03*
D16*
X66348000Y-63445000D03*
X68126000Y-63878000D03*
X68740000Y-64839000D03*
X59998000Y-65985000D03*
X61180000Y-62724000D03*
X63746000Y-62739000D03*
D15*
X70370000Y-74340000D03*
D12*
X255359845Y-97700316D03*
D13*
X256079845Y-102410316D03*
D14*
X260394845Y-97715316D03*
D13*
X263079845Y-103460316D03*
D12*
X265519845Y-97700316D03*
D15*
X252179845Y-102410316D03*
D16*
X262997845Y-92565316D03*
X264775845Y-92998316D03*
X265389845Y-93959316D03*
X256647845Y-95105316D03*
X257829845Y-91844316D03*
X260395845Y-91859316D03*
D15*
X267019845Y-103460316D03*
D12*
X255359845Y-78630316D03*
D13*
X256079845Y-83340316D03*
D14*
X260394845Y-78645316D03*
D13*
X263079845Y-84390316D03*
D12*
X265519845Y-78630316D03*
D15*
X252179845Y-83340316D03*
D16*
X262997845Y-73495316D03*
X264775845Y-73928316D03*
X265389845Y-74889316D03*
X256647845Y-76035316D03*
X257829845Y-72774316D03*
X260395845Y-72789316D03*
D15*
X267019845Y-84390316D03*
D25*
X69760000Y-58739997D03*
X69760000Y-58739997D03*
X66760000Y-58740003D03*
X66760000Y-58740003D03*
D26*
X193210002Y-115774999D03*
X193210003Y-115181250D03*
X193210000Y-114587500D03*
X193209996Y-113993749D03*
X193210000Y-113400000D03*
X193210004Y-112806251D03*
X193210000Y-112212500D03*
X193210000Y-111610000D03*
X193209998Y-111025001D03*
D27*
X329930000Y-92710000D03*
D12*
X77773254Y-104190318D03*
D13*
X78493254Y-108900318D03*
D14*
X82808254Y-104205318D03*
D13*
X85493254Y-109950318D03*
D12*
X87933254Y-104190318D03*
D15*
X74593254Y-108900318D03*
D16*
X85411254Y-99055318D03*
X87189254Y-99488318D03*
X87803254Y-100449318D03*
X79061254Y-101595318D03*
X80243254Y-98334318D03*
X82809254Y-98349318D03*
D15*
X89433254Y-109950318D03*
D12*
X115855754Y-84630316D03*
D13*
X116575754Y-89340316D03*
D14*
X120890754Y-84645316D03*
D13*
X123575754Y-90390316D03*
D12*
X126015754Y-84630316D03*
D15*
X112675754Y-89340316D03*
D16*
X123493754Y-79495316D03*
X125271754Y-79928316D03*
X125885754Y-80889316D03*
X117143754Y-82035316D03*
X118325754Y-78774316D03*
X120891754Y-78789316D03*
D15*
X127515754Y-90390316D03*
D12*
X153940849Y-94206079D03*
D13*
X154660849Y-98916079D03*
D14*
X158975849Y-94221079D03*
D13*
X161660849Y-99966079D03*
D12*
X164100849Y-94206079D03*
D15*
X150760849Y-98916079D03*
D16*
X161578849Y-89071079D03*
X163356849Y-89504079D03*
X163970849Y-90465079D03*
X155228849Y-91611079D03*
X156410849Y-88350079D03*
X158976849Y-88365079D03*
D15*
X165600849Y-99966079D03*
D19*
X69270000Y-116660000D03*
D18*
X68520000Y-116660000D03*
D17*
X67770000Y-116660000D03*
D26*
X169040002Y-77844999D03*
X169040003Y-77251250D03*
X169040000Y-76657500D03*
X169039996Y-76063749D03*
X169040000Y-75470000D03*
X169040004Y-74876251D03*
X169040000Y-74282500D03*
X169040000Y-73680000D03*
X169039998Y-73095001D03*
D16*
X328246425Y-132020000D03*
D25*
X295570000Y-58739997D03*
X295570000Y-58739997D03*
X292570000Y-58740003D03*
X292570000Y-58740003D03*
D12*
X303619000Y-87640000D03*
D13*
X302899000Y-82930000D03*
D14*
X298584000Y-87625000D03*
D13*
X295899000Y-81880000D03*
D12*
X293459000Y-87640000D03*
D15*
X306799000Y-82930000D03*
D16*
X295981000Y-92775000D03*
X294203000Y-92342000D03*
X293589000Y-91381000D03*
X302331000Y-90235000D03*
X301149000Y-93496000D03*
X298583000Y-93481000D03*
D15*
X291959000Y-81880000D03*
D28*
X315022000Y-91975000D03*
X317562000Y-91975000D03*
X320102000Y-91975000D03*
X322642000Y-91975000D03*
X325182000Y-91975000D03*
D12*
X58710000Y-106665317D03*
D13*
X59430000Y-111375317D03*
D14*
X63745000Y-106680317D03*
D13*
X66430000Y-112425317D03*
D12*
X68870000Y-106665317D03*
D15*
X55530000Y-111375317D03*
D16*
X66348000Y-101530317D03*
X68126000Y-101963317D03*
X68740000Y-102924317D03*
X59998000Y-104070317D03*
X61180000Y-100809317D03*
X63746000Y-100824317D03*
D15*
X70370000Y-112425317D03*
D12*
X153940849Y-75161079D03*
D13*
X154660849Y-79871079D03*
D14*
X158975849Y-75176079D03*
D13*
X161660849Y-80921079D03*
D12*
X164100849Y-75161079D03*
D15*
X150760849Y-79871079D03*
D16*
X161578849Y-70026079D03*
X163356849Y-70459079D03*
X163970849Y-71420079D03*
X155228849Y-72566079D03*
X156410849Y-69305079D03*
X158976849Y-69320079D03*
D15*
X165600849Y-80921079D03*
D16*
X199026209Y-84696000D03*
D12*
X82882043Y-127130011D03*
D13*
X84009807Y-131759336D03*
D14*
X87899191Y-126706125D03*
D13*
X91074683Y-132195250D03*
D12*
X93003381Y-126244509D03*
D29*
X80124647Y-132099243D03*
D16*
X90043433Y-121348856D03*
X91852406Y-121625245D03*
X92547826Y-122529075D03*
X83938973Y-124432629D03*
X84832260Y-121081020D03*
X87389803Y-120872322D03*
D29*
X94999690Y-131851857D03*
D16*
X130418000Y-104857173D03*
D12*
X134886848Y-94206079D03*
D13*
X135606848Y-98916079D03*
D14*
X139921848Y-94221079D03*
D13*
X142606848Y-99966079D03*
D12*
X145046848Y-94206079D03*
D15*
X131706848Y-98916079D03*
D16*
X142524848Y-89071079D03*
X144302848Y-89504079D03*
X144916848Y-90465079D03*
X136174848Y-91611079D03*
X137356848Y-88350079D03*
X139922848Y-88365079D03*
D15*
X146546848Y-99966079D03*
D12*
X62374649Y-131641949D03*
D13*
X64289153Y-136005110D03*
D14*
X67241968Y-130353284D03*
D13*
X71322394Y-135207598D03*
D12*
X72188455Y-129012347D03*
D30*
X60522042Y-137014504D03*
D16*
X68423354Y-124705060D03*
X70252839Y-124663125D03*
X71094643Y-125432465D03*
X62947126Y-128802012D03*
X63244841Y-125346204D03*
X65727289Y-124696563D03*
D30*
X75128142Y-134187851D03*
D11*
X212810000Y-93920000D03*
D12*
X284570000Y-85189000D03*
D13*
X283850000Y-80479000D03*
D14*
X279535000Y-85174000D03*
D13*
X276850000Y-79429000D03*
D12*
X274410000Y-85189000D03*
D15*
X287750000Y-80479000D03*
D16*
X276932000Y-90324000D03*
X275154000Y-89891000D03*
X274540000Y-88930000D03*
X283282000Y-87784000D03*
X282100000Y-91045000D03*
X279534000Y-91030000D03*
D15*
X272910000Y-79429000D03*
D11*
X212804500Y-94850000D03*
D16*
X231912000Y-104857173D03*
D12*
X290196384Y-129012347D03*
D13*
X289672813Y-133748208D03*
D14*
X295055938Y-130329990D03*
D13*
X296162533Y-136574163D03*
D12*
X300010190Y-131641949D03*
D31*
X285905702Y-132738813D03*
D16*
X298903161Y-126029178D03*
X300508509Y-126907604D03*
X300852862Y-127994774D03*
X292112132Y-126839129D03*
X294097865Y-123995169D03*
X296572548Y-124673787D03*
D31*
X299968281Y-137593910D03*
D11*
X149495500Y-74860000D03*
D12*
X44932223Y-134397882D03*
D13*
X41213243Y-137376420D03*
D14*
X47436733Y-138765820D03*
D13*
X43803917Y-143963598D03*
D12*
X50012223Y-143196700D03*
D32*
X39263243Y-133998921D03*
D16*
X53198263Y-138445084D03*
X53712274Y-140201377D03*
X53187024Y-141213617D03*
X47823559Y-134215823D03*
X51238668Y-133608965D03*
X52508677Y-135838686D03*
D32*
X45773917Y-147375738D03*
D28*
X37135000Y-91975000D03*
X39675000Y-91975000D03*
X42215000Y-91975000D03*
X44755000Y-91975000D03*
X47295000Y-91975000D03*
D17*
X293600000Y-116790000D03*
D18*
X294350000Y-116790000D03*
D19*
X295100000Y-116790000D03*
D16*
X31943000Y-58870000D03*
D12*
X96818354Y-97700316D03*
D13*
X97538354Y-102410316D03*
D14*
X101853354Y-97715316D03*
D13*
X104538354Y-103460316D03*
D12*
X106978354Y-97700316D03*
D15*
X93638354Y-102410316D03*
D16*
X104456354Y-92565316D03*
X106234354Y-92998316D03*
X106848354Y-93959316D03*
X98106354Y-95105316D03*
X99288354Y-91844316D03*
X101854354Y-91859316D03*
D15*
X108478354Y-103460316D03*
D12*
X293460000Y-68580000D03*
D13*
X294180000Y-73290000D03*
D14*
X298495000Y-68595000D03*
D13*
X301180000Y-74340000D03*
D12*
X303620000Y-68580000D03*
D15*
X290280000Y-73290000D03*
D16*
X301098000Y-63445000D03*
X302876000Y-63878000D03*
X303490000Y-64839000D03*
X294748000Y-65985000D03*
X295930000Y-62724000D03*
X298496000Y-62739000D03*
D15*
X305120000Y-74340000D03*
D16*
X146830000Y-103726000D03*
D11*
X212810000Y-74860000D03*
D16*
X130418000Y-74569000D03*
D11*
X149490000Y-94850000D03*
D12*
X96818354Y-59580317D03*
D13*
X97538354Y-64290317D03*
D14*
X101853354Y-59595317D03*
D13*
X104538354Y-65340317D03*
D12*
X106978354Y-59580317D03*
D15*
X93638354Y-64290317D03*
D16*
X104456354Y-54445317D03*
X106234354Y-54878317D03*
X106848354Y-55839317D03*
X98106354Y-56985317D03*
X99288354Y-53724317D03*
X101854354Y-53739317D03*
D15*
X108478354Y-65340317D03*
D12*
X198228342Y-75161079D03*
D13*
X198948342Y-79871079D03*
D14*
X203263342Y-75176079D03*
D13*
X205948342Y-80921079D03*
D12*
X208388342Y-75161079D03*
D15*
X195048342Y-79871079D03*
D16*
X205866342Y-70026079D03*
X207644342Y-70459079D03*
X208258342Y-71420079D03*
X199516342Y-72566079D03*
X200698342Y-69305079D03*
X203264342Y-69320079D03*
D15*
X209888342Y-80921079D03*
D11*
X212810000Y-114670000D03*
D12*
X77773254Y-66120000D03*
D13*
X78493254Y-70830000D03*
D14*
X82808254Y-66135000D03*
D13*
X85493254Y-71880000D03*
D12*
X87933254Y-66120000D03*
D15*
X74593254Y-70830000D03*
D16*
X85411254Y-60985000D03*
X87189254Y-61418000D03*
X87803254Y-62379000D03*
X79061254Y-63525000D03*
X80243254Y-60264000D03*
X82809254Y-60279000D03*
D15*
X89433254Y-71880000D03*
D16*
X32396209Y-92710000D03*
D12*
X134886848Y-75161079D03*
D13*
X135606848Y-79871079D03*
D14*
X139921848Y-75176079D03*
D13*
X142606848Y-80921079D03*
D12*
X145046848Y-75161079D03*
D15*
X131706848Y-79871079D03*
D16*
X142524848Y-70026079D03*
X144302848Y-70459079D03*
X144916848Y-71420079D03*
X136174848Y-72566079D03*
X137356848Y-69305079D03*
X139922848Y-69320079D03*
D15*
X146546848Y-80921079D03*
D12*
X274410000Y-66120000D03*
D13*
X275130000Y-70830000D03*
D14*
X279445000Y-66135000D03*
D13*
X282130000Y-71880000D03*
D12*
X284570000Y-66120000D03*
D15*
X271230000Y-70830000D03*
D16*
X282048000Y-60985000D03*
X283826000Y-61418000D03*
X284440000Y-62379000D03*
X275698000Y-63525000D03*
X276880000Y-60264000D03*
X279446000Y-60279000D03*
D15*
X286070000Y-71880000D03*
D11*
X212810000Y-112630000D03*
D16*
X98236896Y-109420000D03*
D26*
X169050002Y-115754999D03*
X169050003Y-115161250D03*
X169050000Y-114567500D03*
X169049996Y-113973749D03*
X169050000Y-113380000D03*
X169050004Y-112786251D03*
X169050000Y-112192500D03*
X169050000Y-111590000D03*
X169049998Y-111005001D03*
D16*
X34080000Y-132020000D03*
D26*
X193220002Y-77834999D03*
X193220003Y-77241250D03*
X193220000Y-76647500D03*
X193219996Y-76053749D03*
X193220000Y-75460000D03*
X193220004Y-74866251D03*
X193220000Y-74272500D03*
X193220000Y-73670000D03*
X193219998Y-73085001D03*
D16*
X163300000Y-103726000D03*
D12*
X293460000Y-106665317D03*
D13*
X294180000Y-111375317D03*
D14*
X298495000Y-106680317D03*
D13*
X301180000Y-112425317D03*
D12*
X303620000Y-106665317D03*
D15*
X290280000Y-111375317D03*
D16*
X301098000Y-101530317D03*
X302876000Y-101963317D03*
X303490000Y-102924317D03*
X294748000Y-104070317D03*
X295930000Y-100809317D03*
X298496000Y-100824317D03*
D15*
X305120000Y-112425317D03*
D12*
X198228342Y-94206079D03*
D13*
X198948342Y-98916079D03*
D14*
X203263342Y-94221079D03*
D13*
X205948342Y-99966079D03*
D12*
X208388342Y-94206079D03*
D15*
X195048342Y-98916079D03*
D16*
X205866342Y-89071079D03*
X207644342Y-89504079D03*
X208258342Y-90465079D03*
X199516342Y-91611079D03*
X200698342Y-88350079D03*
X203264342Y-88365079D03*
D15*
X209888342Y-99966079D03*
D16*
X54320216Y-64890000D03*
D12*
X227443945Y-113254000D03*
D13*
X226723945Y-108544000D03*
D14*
X222408945Y-113239000D03*
D13*
X219723945Y-107494000D03*
D12*
X217283945Y-113254000D03*
D33*
X230476445Y-108551500D03*
D16*
X219805945Y-118389000D03*
X218027945Y-117956000D03*
X217413945Y-116995000D03*
X226155945Y-115849000D03*
X224973945Y-119110000D03*
X222407945Y-119095000D03*
D15*
X215783945Y-107494000D03*
D16*
X264093104Y-109420000D03*
X215500000Y-84696000D03*
X34625000Y-60670000D03*
X34625000Y-63210000D03*
X34625000Y-65750000D03*
X34625000Y-68290000D03*
X34625000Y-70830000D03*
X34625000Y-73370000D03*
X34625000Y-75910000D03*
X34625000Y-78450000D03*
X34625000Y-80990000D03*
X34625000Y-83530000D03*
X34625000Y-86070000D03*
X34625000Y-88610000D03*
X49865000Y-88610000D03*
X49865000Y-86070000D03*
X49865000Y-83530000D03*
X49865000Y-80990000D03*
X49865000Y-78450000D03*
X49865000Y-75910000D03*
X49865000Y-73370000D03*
X49865000Y-70830000D03*
X49865000Y-68290000D03*
X49865000Y-65750000D03*
X49865000Y-63210000D03*
X49865000Y-60670000D03*
D23*
X288954606Y-86784595D03*
X288954606Y-67784597D03*
D16*
X312511000Y-60670000D03*
X312511000Y-63210000D03*
X312511000Y-65750000D03*
X312511000Y-68290000D03*
X312511000Y-70830000D03*
X312511000Y-73370000D03*
X312511000Y-75910000D03*
X312511000Y-78450000D03*
X312511000Y-80990000D03*
X312511000Y-83530000D03*
X312511000Y-86070000D03*
X312511000Y-88610000D03*
X327751000Y-88610000D03*
X327751000Y-86070000D03*
X327751000Y-83530000D03*
X327751000Y-80990000D03*
X327751000Y-78450000D03*
X327751000Y-75910000D03*
X327751000Y-73370000D03*
X327751000Y-70830000D03*
X327751000Y-68290000D03*
X327751000Y-65750000D03*
X327751000Y-63210000D03*
X327751000Y-60670000D03*
X305590000Y-133310000D03*
D34*
X306976000Y-61045000D03*
X306976000Y-58295000D03*
D35*
X309626000Y-60520000D03*
X304326000Y-60520000D03*
X309626000Y-58820000D03*
X304326000Y-58820000D03*
D36*
X269964656Y-81072592D03*
D37*
X269964656Y-78622593D03*
X269964656Y-76172593D03*
X269964656Y-73722594D03*
D38*
X294694999Y-119413995D03*
X294694999Y-118163995D03*
D16*
X215500000Y-103726000D03*
D39*
X67626001Y-118171005D03*
X67626001Y-119421005D03*
D40*
X94002500Y-73470001D03*
D37*
X94002500Y-75920000D03*
X94002500Y-78370000D03*
X94002500Y-80819999D03*
D41*
X257910008Y-110302489D03*
D42*
X255460002Y-110302495D03*
X253009998Y-110302505D03*
X250559992Y-110302511D03*
D43*
X266304845Y-113559118D03*
D44*
X266304845Y-116059118D03*
D43*
X266304845Y-118559118D03*
X266304845Y-121059118D03*
X266304845Y-123559118D03*
D16*
X308006209Y-64890000D03*
D34*
X55400000Y-61045000D03*
X55400000Y-58295000D03*
D35*
X58050000Y-60520000D03*
X52750000Y-60520000D03*
X58050000Y-58820000D03*
X52750000Y-58820000D03*
D16*
X269985000Y-60060000D03*
D39*
X287730000Y-115290000D03*
X287730000Y-116540000D03*
D38*
X74607500Y-116545000D03*
X74607500Y-115295000D03*
D45*
X295880000Y-116290000D02*
X295880000Y-121296005D01*
X171810135Y-122933990D02*
X171589157Y-122939353D01*
X213203988Y-73841798D02*
X213203988Y-66160000D01*
X212180342Y-65863500D02*
X193750302Y-65863500D01*
X168846932Y-115828698D02*
X169008004Y-115828698D01*
X309606448Y-127952333D02*
X309606448Y-95779543D01*
X212375308Y-93051789D02*
X212375308Y-77417118D01*
X170651885Y-122448377D02*
X170791593Y-122618551D01*
X286523000Y-118420000D02*
X286523000Y-113420000D01*
X191750665Y-110080638D02*
X191730342Y-109857118D01*
X231764208Y-56635644D02*
G75*
G02*
X232029349Y-56366382I265492J3744D01*
G01*
X275023000Y-118420000D02*
G75*
G02*
X274523000Y-117920000I0J500000D01*
G01*
X149910318Y-96600291D02*
X149910267Y-111407449D01*
X170288148Y-110484693D02*
X170392287Y-110289113D01*
X149081638Y-66150000D02*
X149081638Y-73841798D01*
X193464716Y-66190501D02*
G75*
G02*
X193750301Y-65863477I299684J26501D01*
G01*
X193464716Y-73098698D02*
X193464716Y-66190501D01*
X192065623Y-78178276D02*
X192238342Y-78036037D01*
X233370042Y-135014522D02*
G75*
G02*
X213203979Y-122527714I8109358J35623922D01*
G01*
X191542385Y-66677161D02*
X191600000Y-66860000D01*
X317430736Y-155661791D02*
G75*
G02*
X314321675Y-156311846I-1857936J1126091D01*
G01*
X191730342Y-109857118D02*
X191730344Y-78983451D01*
X97588354Y-133070000D02*
X97588354Y-112064291D01*
X66426001Y-121296005D02*
X66426001Y-116296005D01*
X92474283Y-56510290D02*
G75*
G02*
X92141045Y-56836484I-329783J3590D01*
G01*
X326431425Y-89882210D02*
X313731425Y-89879710D01*
X192647285Y-77868388D02*
X193464716Y-77837358D01*
X148814219Y-65863500D02*
G75*
G02*
X149081625Y-66150000I-17419J-284300D01*
G01*
X168865284Y-66180291D02*
X168861643Y-73098698D01*
X213203988Y-73841798D02*
G75*
G02*
X212379026Y-73841798I-412481J3046D01*
G01*
X212375308Y-122527707D02*
X212375308Y-115892237D01*
X132498544Y-112064291D02*
X132498544Y-129050000D01*
X212375308Y-96600291D02*
G75*
G02*
X213203988Y-96600291I414340J-3152D01*
G01*
X130970457Y-65863500D02*
G75*
G02*
X130552449Y-65423426I12043J430000D01*
G01*
X169569318Y-110969833D02*
X169780146Y-110903795D01*
X54926001Y-121296005D02*
X66426001Y-121296005D01*
X191753205Y-78754848D02*
X191819243Y-78544037D01*
X130970457Y-65863500D02*
X148814394Y-65863500D01*
X149910318Y-122527707D02*
G75*
G02*
X129800000Y-135005000I-28233718J23060707D01*
G01*
X130296283Y-56366406D02*
G75*
G02*
X130552251Y-56628817I-1483J-257494D01*
G01*
X171273664Y-66060136D02*
X171078084Y-66164275D01*
X264740000Y-133070000D02*
X233740000Y-133070000D01*
X169968105Y-78033692D02*
X169772524Y-77932081D01*
X191050000Y-122867278D02*
X190836646Y-122933316D01*
X48005688Y-156311791D02*
X62033662Y-148371408D01*
X231764208Y-65545626D02*
G75*
G02*
X231442994Y-65863505I-319308J1426D01*
G01*
X75807500Y-113420000D02*
X75807500Y-118420000D01*
X170547752Y-122250253D02*
X170651885Y-122448377D01*
X191414854Y-122620896D02*
X191244674Y-122763134D01*
X192230726Y-110801997D02*
X192060544Y-110659758D01*
X192060544Y-110659758D02*
X191918299Y-110487038D01*
X192853025Y-73100000D02*
G75*
G02*
X191628807Y-71861284I245875J1467300D01*
G01*
X171484488Y-65997118D02*
X171693827Y-65997117D01*
X250827731Y-50507117D02*
G75*
G02*
X250954169Y-50366412I127469J12617D01*
G01*
X307880000Y-120790000D02*
G75*
G02*
X307380000Y-121296000I-503000J-3000D01*
G01*
X30236000Y-95779543D02*
X30236000Y-57198239D01*
X247506227Y-135014522D02*
X233370042Y-135014522D01*
X332090216Y-129669879D02*
G75*
G02*
X331760728Y-130911785I-2236416J-71321D01*
G01*
X171810135Y-122933990D02*
X190614758Y-122938679D01*
X169345802Y-110988698D02*
X169569318Y-110969833D01*
X169475877Y-115857073D02*
X169707012Y-115928197D01*
X190835744Y-122933316D02*
X190614758Y-122938679D01*
X191745055Y-117068462D02*
G75*
G02*
X192969335Y-115828709I1260345J-20238D01*
G01*
X97588354Y-112064291D02*
X132498544Y-112064291D01*
X307880000Y-120790000D02*
X307880000Y-116790000D01*
X170577705Y-71858949D02*
G75*
G02*
X169343267Y-73095959I-1546305J308649D01*
G01*
X229823354Y-129050000D02*
X229823354Y-112064291D01*
X169707012Y-115928197D02*
X169917828Y-116045036D01*
X149081638Y-122527707D02*
G75*
G02*
X129000002Y-135014533I-28233238J23014107D01*
G01*
X168846932Y-110986868D02*
X169022618Y-110988698D01*
X213203988Y-66160000D02*
G75*
G02*
X213471336Y-65863518I287312J9700D01*
G01*
X149910267Y-66150000D02*
X149910267Y-73841798D01*
X213203988Y-111407449D02*
X213203988Y-96600291D01*
X44895688Y-155661791D02*
X30565687Y-130911791D01*
X87807500Y-117920000D02*
G75*
G02*
X87307500Y-118420000I-500000J0D01*
G01*
X169780146Y-110903795D02*
X169975721Y-110799652D01*
X170961773Y-122760789D02*
X171157349Y-122864933D01*
X92141046Y-56836406D02*
X48595000Y-56836406D01*
X270184586Y-56836406D02*
G75*
G02*
X269851397Y-56517116I-6886J326306D01*
G01*
X170140824Y-78175931D02*
X169968105Y-78033692D01*
X171370703Y-122930971D02*
X171589157Y-122939353D01*
X170369951Y-116601294D02*
X170438532Y-116832442D01*
X307380000Y-116290000D02*
X295880000Y-116290000D01*
X191745055Y-117068462D02*
X191745055Y-121818258D01*
X52719768Y-95779543D02*
X52719768Y-127952333D01*
X169338181Y-77845728D02*
X168846932Y-77837358D01*
X193464716Y-110986868D02*
X192868264Y-110991043D01*
X213203988Y-93051789D02*
X213203988Y-77427536D01*
X170387204Y-78541692D02*
X170283063Y-78346103D01*
X193464716Y-123230291D02*
X193464716Y-115828698D01*
X149910267Y-93051789D02*
G75*
G02*
X149081639Y-93051789I-414314J3211D01*
G01*
X170283063Y-78346103D02*
X170140824Y-78175931D01*
X170255650Y-116387931D02*
X170369951Y-116601294D01*
X130552247Y-56628817D02*
X130552247Y-65423427D01*
X191730342Y-78978376D02*
X191753205Y-78754848D01*
X171078084Y-66164275D02*
X170907901Y-66306523D01*
X149081638Y-77420709D02*
G75*
G02*
X149910282Y-77410291I414362J2009D01*
G01*
X111371463Y-50366406D02*
G75*
G02*
X111497872Y-50500288I2037J-124694D01*
G01*
X192860645Y-110991043D02*
X192637129Y-110972178D01*
X169226953Y-115829142D02*
X169475877Y-115857073D01*
X191814160Y-110291458D02*
X191750665Y-110080638D01*
X169022618Y-110988698D02*
X169338183Y-110988698D01*
X275023000Y-113420000D02*
X286523000Y-113420000D01*
X191298546Y-66308868D02*
X191438244Y-66479045D01*
X192853025Y-73100000D02*
X193464716Y-73098698D01*
X54926001Y-121296005D02*
G75*
G02*
X54425995Y-120796005I-1J500005D01*
G01*
X170476105Y-78976031D02*
X170453242Y-78752503D01*
X168535559Y-65863500D02*
X150114997Y-65863500D01*
X149910318Y-115902655D02*
X149910318Y-122527707D01*
X130296283Y-56366406D02*
X111831138Y-56366406D01*
X191600000Y-66860000D02*
X191628744Y-67010000D01*
X191438244Y-66479045D02*
X191542385Y-66677161D01*
X269724911Y-50366406D02*
X250954169Y-50366406D01*
X111497901Y-50500290D02*
X111497901Y-56034099D01*
X128088354Y-133070000D02*
X97588354Y-133070000D01*
X149081638Y-115902655D02*
X149081638Y-122527707D01*
X307380000Y-121296005D02*
X295880000Y-121296005D01*
X212375308Y-111407449D02*
X212375308Y-96600291D01*
X250827731Y-56040926D02*
G75*
G02*
X250494494Y-56366432I-329431J3926D01*
G01*
X190932783Y-66062481D02*
X191128363Y-66166620D01*
X213203988Y-93051789D02*
G75*
G02*
X212375308Y-93051789I-414340J3238D01*
G01*
X269851349Y-56517117D02*
X269851349Y-50497117D01*
X231764208Y-65545626D02*
X231764208Y-56635644D01*
X212180342Y-65863500D02*
G75*
G02*
X212377925Y-66075782I-12042J-209300D01*
G01*
X149910267Y-111407449D02*
G75*
G02*
X149081639Y-111407449I-414314J3170D01*
G01*
X168535559Y-65863500D02*
G75*
G02*
X168865260Y-66180291I12841J-316600D01*
G01*
X191745055Y-121818258D02*
X191724736Y-122041777D01*
X191724736Y-122041777D02*
X191658695Y-122252598D01*
X111371463Y-50366406D02*
X92600721Y-50366406D01*
X326431425Y-56836406D02*
X326431425Y-89882210D01*
X149081638Y-115902655D02*
G75*
G02*
X149910283Y-115892238I414362J2055D01*
G01*
X169772524Y-77932081D02*
X169559162Y-77866043D01*
X170392287Y-110289113D02*
X170455782Y-110078293D01*
X191923384Y-78348448D02*
X192065623Y-78178276D01*
X170907901Y-66306523D02*
X170768203Y-66476700D01*
X87307500Y-113420000D02*
X75807500Y-113420000D01*
X191244674Y-122763134D02*
X191049098Y-122867278D01*
X250494494Y-56366406D02*
X232029349Y-56366406D01*
X307380000Y-116290000D02*
G75*
G02*
X307880000Y-116790000I0J-500000D01*
G01*
X170438532Y-116832442D02*
X170461392Y-117066117D01*
X213203988Y-111407449D02*
G75*
G02*
X212375308Y-111407449I-414340J3198D01*
G01*
X193464716Y-110986868D02*
X193464716Y-77837358D01*
X219361100Y-133580740D02*
G75*
G02*
X193464703Y-123230307I2045200J42688140D01*
G01*
X171157349Y-122864933D02*
X171370703Y-122930971D01*
X192426301Y-110906140D02*
X192230726Y-110801997D01*
X129800000Y-135005000D02*
X142924514Y-133580740D01*
X168846932Y-77837358D02*
X168846932Y-110986868D01*
X191819243Y-78544037D02*
X191923384Y-78348448D01*
X212375308Y-77420709D02*
G75*
G02*
X213203988Y-77420709I414340J-3173D01*
G01*
X274523000Y-113920000D02*
G75*
G02*
X275023000Y-113420000I500000J0D01*
G01*
X168865284Y-123230291D02*
G75*
G02*
X142924525Y-133580722I-27963784J32401991D01*
G01*
X219355770Y-133580740D02*
X232570042Y-135005000D01*
X169343261Y-73095932D02*
X168861643Y-73098698D01*
X233740000Y-133070000D02*
G75*
G02*
X229823400Y-129050001I51700J3968300D01*
G01*
X170145903Y-110657413D02*
X170288148Y-110484693D01*
X52719768Y-127952333D02*
X30236000Y-127952333D01*
X149081638Y-96600291D02*
G75*
G02*
X149910318Y-96600291I414340J-3178D01*
G01*
X170577703Y-67109161D02*
X170577705Y-71858949D01*
X326431425Y-56836406D02*
X331725255Y-56836406D01*
X193464716Y-115828698D02*
X192969335Y-115834023D01*
X191658695Y-122252598D02*
X191554562Y-122450722D01*
X170791593Y-122618551D02*
X170961773Y-122760789D01*
X192433923Y-77934426D02*
X192647285Y-77868388D01*
X169559162Y-77866043D02*
X169338181Y-77845728D01*
X30601170Y-56836406D02*
X35895000Y-56836406D01*
X92474283Y-50490290D02*
X92474283Y-56510290D01*
X191628744Y-67010000D02*
X191628742Y-71861294D01*
X274523000Y-113920000D02*
X274523000Y-117920000D01*
X129000000Y-135014522D02*
X114863815Y-135014522D01*
X170598021Y-66885635D02*
X170577703Y-67109161D01*
X171480342Y-65997118D02*
X171273664Y-66063155D01*
X149910267Y-73841798D02*
G75*
G02*
X149081639Y-73841798I-414314J3119D01*
G01*
X191554562Y-122450722D02*
X191414854Y-122620896D01*
X190720342Y-65997118D02*
X190932783Y-66062481D01*
X332090216Y-95779543D02*
X309606448Y-95779543D01*
X52719768Y-95779543D02*
X30236000Y-95779543D01*
X168846932Y-115828698D02*
X168865284Y-123230291D01*
X170453242Y-78752503D02*
X170387204Y-78541692D01*
X269724911Y-50366406D02*
G75*
G02*
X269851412Y-50497156I3489J-123194D01*
G01*
X332090216Y-127952333D02*
X332090216Y-129669879D01*
X62033662Y-148371408D02*
G75*
G02*
X114863815Y-135014522I53176388J-99169892D01*
G01*
X170481711Y-122039432D02*
X170547752Y-122250253D01*
X30236000Y-129669879D02*
X30236000Y-127952333D01*
X87807500Y-117920000D02*
X87807500Y-113920000D01*
X192238342Y-78036037D02*
X192433923Y-77934426D01*
X171693827Y-65997117D02*
X190720342Y-65997118D01*
X132498542Y-129050000D02*
G75*
G02*
X128088197Y-133069963I-4214342J194300D01*
G01*
X92474283Y-50490325D02*
G75*
G02*
X92600722Y-50366392I119817J4225D01*
G01*
X313731425Y-56836406D02*
X313731425Y-89879710D01*
X332090216Y-57198239D02*
X332090216Y-95779543D01*
X264735168Y-112064291D02*
X264740000Y-133070000D01*
X300291970Y-148371408D02*
X314319820Y-156305075D01*
X170455782Y-110078293D02*
X170476105Y-109854773D01*
X331760738Y-130911791D02*
X317430737Y-155661791D01*
X232570042Y-135005000D02*
G75*
G02*
X212375290Y-122527722I8081158J35661000D01*
G01*
X212375308Y-115902655D02*
G75*
G02*
X213203988Y-115902655I414340J-3109D01*
G01*
X54926001Y-116290000D02*
X66426001Y-116290000D01*
X48005688Y-156311791D02*
G75*
G02*
X44895720Y-155661772I-1250688J1780891D01*
G01*
X313731425Y-56836406D02*
X270184586Y-56836406D01*
X48595000Y-89880000D02*
X35895000Y-89882500D01*
X149910267Y-66079982D02*
G75*
G02*
X150114997Y-65863539I204533J11582D01*
G01*
X170476105Y-109854773D02*
X170476103Y-78981106D01*
X169917828Y-116045036D02*
X170105789Y-116199977D01*
X250827731Y-56040926D02*
X250827731Y-50507117D01*
X191128363Y-66166620D02*
X191298546Y-66308868D01*
X170105789Y-116199977D02*
X170255650Y-116387931D01*
X48595000Y-89880000D02*
X48595000Y-56836406D01*
X149081638Y-77420709D02*
X149081638Y-93051789D01*
X192637129Y-110972178D02*
X192426301Y-110906140D01*
X35895000Y-89882500D02*
X35895000Y-56836406D01*
X111831138Y-56366406D02*
G75*
G02*
X111497994Y-56034099I-338J332806D01*
G01*
X169008004Y-115828698D02*
X169226953Y-115829142D01*
X170461392Y-117066117D02*
X170461392Y-121815913D01*
X170768203Y-66476700D02*
X170664062Y-66674816D01*
X149910267Y-77420709D02*
X149910267Y-93051789D01*
X191918299Y-110487038D02*
X191814160Y-110291458D01*
X169975721Y-110799652D02*
X170145903Y-110657413D01*
X229824810Y-112064291D02*
X264735000Y-112064291D01*
X54426001Y-116796005D02*
G75*
G02*
X54926001Y-116296001I499999J5D01*
G01*
X170461392Y-121815913D02*
X170481711Y-122039432D01*
X213471232Y-65863500D02*
X231442994Y-65863500D01*
X149081638Y-96600291D02*
X149081638Y-111407449D01*
X87307500Y-113420000D02*
G75*
G02*
X87807500Y-113920000I0J-500000D01*
G01*
X30565688Y-130911791D02*
G75*
G02*
X30236183Y-129669878I1907212J1170691D01*
G01*
X170664062Y-66674816D02*
X170598021Y-66885635D01*
X87307500Y-118420000D02*
X75807500Y-118420000D01*
X332090000Y-127952333D02*
X309606448Y-127952333D01*
X54426001Y-116796005D02*
X54426001Y-120796005D01*
X30236209Y-57198239D02*
G75*
G02*
X30601169Y-56836427I349791J12139D01*
G01*
X213203988Y-122527707D02*
X213203988Y-115902655D01*
X247506227Y-135022114D02*
G75*
G02*
X300298871Y-148371428I-418127J-112717986D01*
G01*
X331725255Y-56836406D02*
G75*
G02*
X332090211Y-57198239I15145J-349694D01*
G01*
X275023000Y-118420000D02*
X286523000Y-118420000D01*
X212379025Y-73841798D02*
X212378075Y-66066114D01*
D46*
X76968543Y-77274291D02*
G75*
G02*
X69768545Y-77274291I-3599999J0D01*
G01*
X69768545Y-77274291D02*
G75*
G02*
X76968543Y-77274291I3599999J0D01*
G01*
X292554605Y-77284596D02*
G75*
G02*
X285354607Y-77284596I-3599999J0D01*
G01*
X285354607Y-77284596D02*
G75*
G02*
X292554605Y-77284596I3599999J0D01*
G01*
M02*
