M48
; DRILL file KiCad 10.0.1 date 2026-04-27T23:01:58
; FORMAT={-:-/ absolute / metric / decimal}
; #@! TF.CreationDate,2026-04-27T23:01:58+08:00
; #@! TF.GenerationSoftware,Kicad,Pcbnew,10.0.1
; #@! TF.FileFunction,NonPlated,1,2,NPTH
FMAT,2
METRIC
; #@! TA.AperFunction,NonPlated,NPTH,ComponentDrill
T1C0.300
; #@! TA.AperFunction,NonPlated,NPTH,ComponentDrill
T2C0.500
; #@! TA.AperFunction,NonPlated,NPTH,ComponentDrill
T3C0.700
; #@! TA.AperFunction,NonPlated,NPTH,ComponentDrill
T4C0.900
; #@! TA.AperFunction,NonPlated,NPTH,ComponentDrill
T5C1.900
; #@! TA.AperFunction,NonPlated,NPTH,ComponentDrill
T6C3.000
; #@! TA.AperFunction,NonPlated,NPTH,ComponentDrill
T7C4.100
; #@! TA.AperFunction,NonPlated,NPTH,ComponentDrill
T8C5.000
%
G90
G05
T1
X169.04Y-76.064
X169.04Y-73.095
X169.04Y-73.68
X169.04Y-74.282
X169.04Y-75.47
X169.04Y-76.657
X169.04Y-77.845
X169.04Y-77.251
X169.04Y-74.876
X169.05Y-113.974
X169.05Y-111.005
X169.05Y-111.59
X169.05Y-112.192
X169.05Y-113.38
X169.05Y-114.567
X169.05Y-115.755
X169.05Y-115.161
X169.05Y-112.786
X193.21Y-113.994
X193.21Y-111.025
X193.21Y-111.61
X193.21Y-112.212
X193.21Y-113.4
X193.21Y-114.587
X193.21Y-115.775
X193.21Y-115.181
X193.21Y-112.806
X193.22Y-76.054
X193.22Y-73.085
X193.22Y-73.67
X193.22Y-74.272
X193.22Y-75.46
X193.22Y-76.647
X193.22Y-77.835
X193.22Y-77.241
X193.22Y-74.866
T2
X149.49Y-94.85
X149.495Y-74.86
X149.495Y-75.93
X149.495Y-93.92
X149.495Y-112.48
X149.495Y-113.55
X149.495Y-114.63
X212.804Y-94.85
X212.81Y-74.86
X212.81Y-75.93
X212.81Y-93.92
X212.81Y-112.63
X212.81Y-113.64
X212.81Y-114.67
T3
X55.4Y-58.295
X55.4Y-61.045
X306.976Y-58.295
X306.976Y-61.045
T4
X66.76Y-58.74
X66.76Y-58.74
X69.76Y-58.74
X69.76Y-58.74
X292.57Y-58.74
X292.57Y-58.74
X295.57Y-58.74
X295.57Y-58.74
T5
X44.722Y-134.034
X44.932Y-134.398
X50.012Y-143.197
X50.222Y-143.56
X58.29Y-68.58
X58.29Y-87.64
X58.29Y-106.665
X58.71Y-68.58
X58.71Y-87.64
X58.71Y-106.665
X61.969Y-131.751
X62.375Y-131.642
X68.87Y-68.58
X68.87Y-87.64
X68.87Y-106.665
X69.29Y-68.58
X69.29Y-87.64
X69.29Y-106.665
X72.188Y-129.012
X72.594Y-128.904
X77.353Y-66.12
X77.353Y-85.189
X77.353Y-104.19
X77.773Y-66.12
X77.773Y-85.189
X77.773Y-104.19
X82.464Y-127.167
X82.882Y-127.13
X87.933Y-66.12
X87.933Y-85.189
X87.933Y-104.19
X88.353Y-66.12
X88.353Y-85.189
X88.353Y-104.19
X93.003Y-126.245
X93.422Y-126.208
X96.398Y-59.58
X96.398Y-78.63
X96.398Y-97.7
X96.818Y-59.58
X96.818Y-78.63
X96.818Y-97.7
X106.978Y-59.58
X106.978Y-78.63
X106.978Y-97.7
X107.398Y-59.58
X107.398Y-78.63
X107.398Y-97.7
X115.436Y-65.59
X115.436Y-84.63
X115.436Y-103.685
X115.856Y-65.59
X115.856Y-84.63
X115.856Y-103.685
X126.016Y-65.59
X126.016Y-84.63
X126.016Y-103.685
X126.436Y-65.59
X126.436Y-84.63
X126.436Y-103.685
X134.467Y-75.161
X134.467Y-94.206
X134.467Y-113.254
X134.887Y-75.161
X134.887Y-94.206
X134.887Y-113.254
X145.047Y-75.161
X145.047Y-94.206
X145.047Y-113.254
X145.467Y-75.161
X145.467Y-94.206
X145.467Y-113.254
X153.521Y-75.161
X153.521Y-94.206
X153.521Y-113.251
X153.941Y-75.161
X153.941Y-94.206
X153.941Y-113.251
X164.101Y-75.161
X164.101Y-94.206
X164.101Y-113.251
X164.521Y-75.161
X164.521Y-94.206
X164.521Y-113.251
X197.808Y-75.161
X197.808Y-94.206
X197.81Y-113.251
X198.228Y-75.161
X198.228Y-94.206
X198.23Y-113.251
X208.388Y-75.161
X208.388Y-94.206
X208.39Y-113.251
X208.808Y-75.161
X208.808Y-94.206
X208.81Y-113.251
X216.864Y-75.161
X216.864Y-94.206
X216.864Y-113.254
X217.284Y-75.161
X217.284Y-94.206
X217.284Y-113.254
X227.444Y-75.161
X227.444Y-94.206
X227.444Y-113.254
X227.864Y-75.161
X227.864Y-94.206
X227.864Y-113.254
X235.895Y-65.59
X235.895Y-84.63
X235.895Y-103.685
X236.315Y-65.59
X236.315Y-84.63
X236.315Y-103.685
X246.475Y-65.59
X246.475Y-84.63
X246.475Y-103.685
X246.895Y-65.59
X246.895Y-84.63
X246.895Y-103.685
X254.94Y-59.58
X254.94Y-78.63
X254.94Y-97.7
X255.36Y-59.58
X255.36Y-78.63
X255.36Y-97.7
X265.52Y-59.58
X265.52Y-78.63
X265.52Y-97.7
X265.94Y-59.58
X265.94Y-78.63
X265.94Y-97.7
X268.983Y-126.208
X269.401Y-126.245
X273.99Y-66.12
X273.99Y-85.189
X273.99Y-104.19
X274.41Y-66.12
X274.41Y-85.189
X274.41Y-104.19
X279.522Y-127.13
X279.941Y-127.167
X284.57Y-66.12
X284.57Y-85.189
X284.57Y-104.19
X284.99Y-66.12
X284.99Y-85.189
X284.99Y-104.19
X289.791Y-128.904
X290.196Y-129.012
X293.039Y-87.64
X293.04Y-68.58
X293.04Y-106.665
X293.459Y-87.64
X293.46Y-68.58
X293.46Y-106.665
X300.01Y-131.642
X300.416Y-131.751
X303.619Y-87.64
X303.62Y-68.58
X303.62Y-106.665
X304.039Y-87.64
X304.04Y-68.58
X304.04Y-106.665
X312.123Y-143.56
X312.333Y-143.197
X317.413Y-134.398
X317.623Y-134.034
T6
X41.768Y-136.317
X42.363Y-141.747
X47.767Y-134.228
X53.142Y-138.457
X58.79Y-72.28
X58.79Y-91.34
X58.79Y-110.365
X59.98Y-66.04
X59.98Y-85.1
X59.98Y-104.125
X62.944Y-128.86
X63.41Y-135.195
X63.79Y-74.48
X63.79Y-93.54
X63.79Y-112.565
X66.33Y-63.5
X66.33Y-82.56
X66.33Y-101.585
X68.42Y-124.763
X68.809Y-136.026
X77.853Y-69.82
X77.853Y-88.889
X77.853Y-107.89
X79.043Y-63.58
X79.043Y-82.649
X79.043Y-101.65
X82.853Y-72.02
X82.853Y-91.089
X82.853Y-110.09
X83.284Y-130.809
X83.926Y-124.489
X85.393Y-61.04
X85.393Y-80.109
X85.393Y-99.11
X88.457Y-132.565
X90.03Y-121.405
X96.898Y-63.28
X96.898Y-82.33
X96.898Y-101.4
X98.088Y-57.04
X98.088Y-76.09
X98.088Y-95.16
X101.898Y-65.48
X101.898Y-84.53
X101.898Y-103.6
X104.438Y-54.5
X104.438Y-73.55
X104.438Y-92.62
X115.936Y-69.29
X115.936Y-88.33
X115.936Y-107.385
X117.126Y-63.05
X117.126Y-82.09
X117.126Y-101.145
X120.936Y-71.49
X120.936Y-90.53
X120.936Y-109.585
X123.476Y-60.51
X123.476Y-79.55
X123.476Y-98.605
X134.967Y-78.861
X134.967Y-97.906
X136.157Y-72.621
X136.157Y-91.666
X137.427Y-118.334
X139.967Y-81.061
X139.967Y-100.106
X139.967Y-107.354
X142.507Y-70.081
X142.507Y-89.126
X143.777Y-115.794
X144.967Y-109.554
X154.021Y-78.861
X154.021Y-97.906
X154.021Y-116.951
X155.211Y-72.621
X155.211Y-91.666
X155.211Y-110.711
X159.021Y-81.061
X159.021Y-100.106
X159.021Y-119.151
X161.561Y-70.081
X161.561Y-89.126
X161.561Y-108.171
X198.308Y-78.861
X198.308Y-97.906
X198.31Y-116.951
X199.498Y-72.621
X199.498Y-91.666
X199.5Y-110.711
X203.308Y-81.061
X203.308Y-100.106
X203.31Y-119.151
X205.848Y-70.081
X205.848Y-89.126
X205.85Y-108.171
X217.364Y-78.861
X217.364Y-97.906
X217.364Y-116.954
X218.554Y-72.621
X218.554Y-91.666
X218.554Y-110.714
X222.364Y-81.061
X222.364Y-100.106
X222.364Y-119.154
X224.904Y-70.081
X224.904Y-89.126
X224.904Y-108.174
X236.395Y-69.29
X236.395Y-88.33
X236.395Y-107.385
X237.585Y-63.05
X237.585Y-82.09
X237.585Y-101.145
X241.395Y-71.49
X241.395Y-90.53
X241.395Y-109.585
X243.935Y-60.51
X243.935Y-79.55
X243.935Y-98.605
X255.44Y-63.28
X255.44Y-82.33
X255.44Y-101.4
X256.63Y-57.04
X256.63Y-76.09
X256.63Y-95.16
X260.44Y-65.48
X260.44Y-84.53
X260.44Y-103.6
X262.98Y-54.5
X262.98Y-73.55
X262.98Y-92.62
X269.158Y-129.937
X270.887Y-123.825
X273.947Y-132.565
X274.49Y-69.82
X274.49Y-88.889
X274.49Y-107.89
X275.68Y-63.58
X275.68Y-82.649
X275.68Y-101.65
X277.435Y-121.848
X279.49Y-72.02
X279.49Y-91.089
X279.49Y-110.09
X282.03Y-61.04
X282.03Y-80.109
X282.03Y-99.11
X289.316Y-132.607
X292.081Y-126.888
X293.539Y-91.34
X293.54Y-72.28
X293.54Y-110.365
X293.576Y-136.026
X294.729Y-85.1
X294.73Y-66.04
X294.73Y-104.125
X298.539Y-93.54
X298.54Y-74.48
X298.54Y-112.565
X298.872Y-126.078
X301.079Y-82.56
X301.08Y-63.5
X301.08Y-101.585
X310.769Y-140.827
X311.744Y-134.058
X315.578Y-144.977
X319.983Y-141.747
T7
X47.472Y-138.797
X63.79Y-68.58
X63.79Y-87.64
X63.79Y-106.665
X67.282Y-130.327
X82.853Y-66.12
X82.853Y-85.189
X82.853Y-104.19
X87.943Y-126.687
X101.898Y-59.58
X101.898Y-78.63
X101.898Y-97.7
X120.936Y-65.59
X120.936Y-84.63
X120.936Y-103.685
X139.967Y-75.161
X139.967Y-94.206
X139.967Y-113.254
X159.021Y-75.161
X159.021Y-94.206
X159.021Y-113.251
X203.308Y-75.161
X203.308Y-94.206
X203.31Y-113.251
X222.364Y-75.161
X222.364Y-94.206
X222.364Y-113.254
X241.395Y-65.59
X241.395Y-84.63
X241.395Y-103.685
X260.44Y-59.58
X260.44Y-78.63
X260.44Y-97.7
X274.462Y-126.687
X279.49Y-66.12
X279.49Y-85.189
X279.49Y-104.19
X295.103Y-130.327
X298.539Y-87.64
X298.54Y-68.58
X298.54Y-106.665
X314.873Y-138.797
T8
X47.472Y-138.797
X63.79Y-68.58
X63.79Y-87.64
X63.79Y-106.665
X67.282Y-130.327
X82.853Y-66.12
X82.853Y-85.189
X82.853Y-104.19
X87.943Y-126.687
X101.898Y-59.58
X101.898Y-78.63
X101.898Y-97.7
X120.936Y-65.59
X120.936Y-84.63
X120.936Y-103.685
X139.967Y-75.161
X139.967Y-94.206
X139.967Y-113.254
X159.021Y-75.161
X159.021Y-94.206
X159.021Y-113.251
X203.308Y-75.161
X203.308Y-94.206
X203.31Y-113.251
X222.364Y-75.161
X222.364Y-94.206
X222.364Y-113.254
X241.395Y-65.59
X241.395Y-84.63
X241.395Y-103.685
X260.44Y-59.58
X260.44Y-78.63
X260.44Y-97.7
X274.462Y-126.687
X279.49Y-66.12
X279.49Y-85.189
X279.49Y-104.19
X295.103Y-130.327
X298.539Y-87.64
X298.54Y-68.58
X298.54Y-106.665
X314.873Y-138.797
M30
