G04 #@! TF.GenerationSoftware,KiCad,Pcbnew,8.0.3*
G04 #@! TF.CreationDate,2025-10-03T16:37:16+08:00*
G04 #@! TF.ProjectId,xavien-gateron-millmax,78617669-656e-42d6-9761-7465726f6e2d,rev?*
G04 #@! TF.SameCoordinates,Original*
G04 #@! TF.FileFunction,Paste,Bot*
G04 #@! TF.FilePolarity,Positive*
%FSLAX46Y46*%
G04 Gerber Fmt 4.6, Leading zero omitted, Abs format (unit mm)*
G04 Created by KiCad (PCBNEW 8.0.3) date 2025-10-03 16:37:16*
%MOMM*%
%LPD*%
G01*
G04 APERTURE LIST*
G04 Aperture macros list*
%AMRoundRect*
0 Rectangle with rounded corners*
0 $1 Rounding radius*
0 $2 $3 $4 $5 $6 $7 $8 $9 X,Y pos of 4 corners*
0 Add a 4 corners polygon primitive as box body*
4,1,4,$2,$3,$4,$5,$6,$7,$8,$9,$2,$3,0*
0 Add four circle primitives for the rounded corners*
1,1,$1+$1,$2,$3*
1,1,$1+$1,$4,$5*
1,1,$1+$1,$6,$7*
1,1,$1+$1,$8,$9*
0 Add four rect primitives between the rounded corners*
20,1,$1+$1,$2,$3,$4,$5,0*
20,1,$1+$1,$4,$5,$6,$7,0*
20,1,$1+$1,$6,$7,$8,$9,0*
20,1,$1+$1,$8,$9,$2,$3,0*%
%AMRotRect*
0 Rectangle, with rotation*
0 The origin of the aperture is its center*
0 $1 length*
0 $2 width*
0 $3 Rotation angle, in degrees counterclockwise*
0 Add horizontal line*
21,1,$1,$2,0,0,$3*%
%AMOutline5P*
0 Free polygon, 5 corners , with rotation*
0 The origin of the aperture is its center*
0 number of corners: always 5*
0 $1 to $10 corner X, Y*
0 $11 Rotation angle, in degrees counterclockwise*
0 create outline with 5 corners*
4,1,5,$1,$2,$3,$4,$5,$6,$7,$8,$9,$10,$1,$2,$11*%
%AMOutline6P*
0 Free polygon, 6 corners , with rotation*
0 The origin of the aperture is its center*
0 number of corners: always 6*
0 $1 to $12 corner X, Y*
0 $13 Rotation angle, in degrees counterclockwise*
0 create outline with 6 corners*
4,1,6,$1,$2,$3,$4,$5,$6,$7,$8,$9,$10,$11,$12,$1,$2,$13*%
%AMOutline7P*
0 Free polygon, 7 corners , with rotation*
0 The origin of the aperture is its center*
0 number of corners: always 7*
0 $1 to $14 corner X, Y*
0 $15 Rotation angle, in degrees counterclockwise*
0 create outline with 7 corners*
4,1,7,$1,$2,$3,$4,$5,$6,$7,$8,$9,$10,$11,$12,$13,$14,$1,$2,$15*%
%AMOutline8P*
0 Free polygon, 8 corners , with rotation*
0 The origin of the aperture is its center*
0 number of corners: always 8*
0 $1 to $16 corner X, Y*
0 $17 Rotation angle, in degrees counterclockwise*
0 create outline with 8 corners*
4,1,8,$1,$2,$3,$4,$5,$6,$7,$8,$9,$10,$11,$12,$13,$14,$15,$16,$1,$2,$17*%
%AMFreePoly0*
4,1,13,0.150000,1.409808,0.229813,1.342836,0.281908,1.252606,0.300000,1.150000,0.300000,-1.150000,-0.300000,-1.150000,-0.300000,1.150000,-0.281908,1.252606,-0.229813,1.342836,-0.150000,1.409808,-0.052094,1.445442,0.052094,1.445442,0.150000,1.409808,0.150000,1.409808,$1*%
G04 Aperture macros list end*
%ADD10R,2.550000X2.550000*%
%ADD11R,2.450000X2.550000*%
%ADD12RotRect,2.550000X2.550000X240.000000*%
%ADD13RotRect,2.550000X2.550000X175.000000*%
%ADD14RotRect,2.550000X2.550000X185.000000*%
%ADD15RotRect,2.550000X2.550000X195.000000*%
%ADD16RotRect,2.550000X2.550000X165.000000*%
%ADD17RotRect,2.550000X2.550000X120.000000*%
%ADD18R,2.375000X2.545000*%
%ADD19RoundRect,0.240000X0.660000X0.360000X-0.660000X0.360000X-0.660000X-0.360000X0.660000X-0.360000X0*%
%ADD20Outline5P,-1.143000X0.725000X1.143000X0.725000X1.143000X-0.725000X-0.708000X-0.725000X-1.143000X-0.290000X0.000000*%
%ADD21R,2.286000X1.450000*%
%ADD22FreePoly0,90.000000*%
%ADD23FreePoly0,270.000000*%
%ADD24Outline5P,-1.143000X0.725000X1.143000X0.725000X1.143000X-0.725000X-0.708000X-0.725000X-1.143000X-0.290000X180.000000*%
%ADD25Outline5P,-1.143000X0.725000X1.143000X0.725000X1.143000X-0.725000X-0.708000X-0.725000X-1.143000X-0.290000X90.000000*%
%ADD26R,1.450000X2.286000*%
%ADD27RoundRect,0.400000X0.750000X0.400000X-0.750000X0.400000X-0.750000X-0.400000X0.750000X-0.400000X0*%
%ADD28RoundRect,0.400000X0.764300X0.400000X-0.764300X0.400000X-0.764300X-0.400000X0.764300X-0.400000X0*%
G04 #@! TA.AperFunction,Profile*
%ADD29C,0.050000*%
G04 #@! TD*
G04 #@! TA.AperFunction,Profile*
%ADD30C,0.100000*%
G04 #@! TD*
G04 APERTURE END LIST*
D10*
X233134845Y-108395318D03*
X247974845Y-109445318D03*
X233134845Y-70300317D03*
X247974845Y-71350317D03*
X150760849Y-117960725D03*
X165600849Y-119010725D03*
D11*
X271320055Y-108900318D03*
D10*
X286070000Y-109950318D03*
X112675754Y-108395318D03*
X127515754Y-109445318D03*
X214103945Y-98916079D03*
X228943945Y-99966079D03*
X214103945Y-79871079D03*
X228943945Y-80921079D03*
X233134845Y-89340316D03*
X247974845Y-90390316D03*
D12*
X314822419Y-148305661D03*
X323151745Y-135978844D03*
D10*
X91113254Y-80479000D03*
X76273254Y-79429000D03*
X148226848Y-108544000D03*
X133386848Y-107494000D03*
X72050000Y-82930000D03*
X57210000Y-81880000D03*
X93638354Y-83340316D03*
X108478354Y-84390316D03*
X195050342Y-117960725D03*
X209890342Y-119010725D03*
D13*
X265822510Y-130659431D03*
X280514526Y-132998826D03*
D10*
X112675754Y-70300317D03*
X127515754Y-71350317D03*
X252179845Y-64290317D03*
X267019845Y-65340317D03*
X55530000Y-73290000D03*
X70370000Y-74340000D03*
X252179845Y-102410316D03*
X267019845Y-103460316D03*
X252179845Y-83340316D03*
X267019845Y-84390316D03*
X74593254Y-108900318D03*
X89433254Y-109950318D03*
X112675754Y-89340316D03*
X127515754Y-90390316D03*
X150760849Y-98916079D03*
X165600849Y-99966079D03*
X306799000Y-82930000D03*
X291959000Y-81880000D03*
X55530000Y-111375317D03*
X70370000Y-112425317D03*
X150760849Y-79871079D03*
X165600849Y-80921079D03*
D14*
X80124647Y-132099243D03*
X94999690Y-131851857D03*
D10*
X131706848Y-98916079D03*
X146546848Y-99966079D03*
D15*
X60522042Y-137014504D03*
X75128142Y-134187851D03*
D10*
X287750000Y-80479000D03*
X272910000Y-79429000D03*
D16*
X285905702Y-132738813D03*
X299968281Y-137593910D03*
D17*
X39263243Y-133998921D03*
X45773917Y-147375738D03*
D10*
X93638354Y-102410316D03*
X108478354Y-103460316D03*
X290280000Y-73290000D03*
X305120000Y-74340000D03*
X93638354Y-64290317D03*
X108478354Y-65340317D03*
X195048342Y-79871079D03*
X209888342Y-80921079D03*
X74593254Y-70830000D03*
X89433254Y-71880000D03*
X131706848Y-79871079D03*
X146546848Y-80921079D03*
X271230000Y-70830000D03*
X286070000Y-71880000D03*
X290280000Y-111375317D03*
X305120000Y-112425317D03*
X195048342Y-98916079D03*
X209888342Y-99966079D03*
D18*
X230476445Y-108551500D03*
D10*
X215783945Y-107494000D03*
D19*
X309626000Y-60520000D03*
X304326000Y-60520000D03*
X309626000Y-58820000D03*
X304326000Y-58820000D03*
D20*
X269964656Y-81072592D03*
D21*
X269964656Y-78622593D03*
X269964656Y-76172593D03*
X269964656Y-73722594D03*
D22*
X294694999Y-119413995D03*
X294694999Y-118163995D03*
D23*
X67626001Y-118171005D03*
X67626001Y-119421005D03*
D24*
X94002500Y-73470001D03*
D21*
X94002500Y-75920000D03*
X94002500Y-78370000D03*
X94002500Y-80819999D03*
D25*
X257910008Y-110302489D03*
D26*
X255460002Y-110302495D03*
X253009998Y-110302505D03*
X250559992Y-110302511D03*
D27*
X266304845Y-113559118D03*
D28*
X266304845Y-116059118D03*
D27*
X266304845Y-118559118D03*
X266304845Y-121059118D03*
X266304845Y-123559118D03*
D19*
X58050000Y-60520000D03*
X52750000Y-60520000D03*
X58050000Y-58820000D03*
X52750000Y-58820000D03*
D23*
X287730000Y-115290000D03*
X287730000Y-116540000D03*
D22*
X74607500Y-116545000D03*
X74607500Y-115295000D03*
D29*
X295880000Y-116290000D02*
X295880000Y-121296005D01*
X171810135Y-122933990D02*
X171589157Y-122939353D01*
X213203988Y-73841798D02*
X213203988Y-66160000D01*
X212180342Y-65863500D02*
X193750302Y-65863500D01*
X168846932Y-115828698D02*
X169008004Y-115828698D01*
X309606448Y-127952333D02*
X309606448Y-95779543D01*
X212375308Y-93051789D02*
X212375308Y-77417118D01*
X170651885Y-122448377D02*
X170791593Y-122618551D01*
X286523000Y-118420000D02*
X286523000Y-113420000D01*
X191750665Y-110080638D02*
X191730342Y-109857118D01*
X231764208Y-56635644D02*
G75*
G02*
X232029349Y-56366382I265492J3744D01*
G01*
X275023000Y-118420000D02*
G75*
G02*
X274523000Y-117920000I0J500000D01*
G01*
X149910318Y-96600291D02*
X149910267Y-111407449D01*
X170288148Y-110484693D02*
X170392287Y-110289113D01*
X149081638Y-66150000D02*
X149081638Y-73841798D01*
X193464716Y-66190501D02*
G75*
G02*
X193750301Y-65863477I299684J26501D01*
G01*
X193464716Y-73098698D02*
X193464716Y-66190501D01*
X192065623Y-78178276D02*
X192238342Y-78036037D01*
X233370042Y-135014522D02*
G75*
G02*
X213203979Y-122527714I8109358J35623922D01*
G01*
X191542385Y-66677161D02*
X191600000Y-66860000D01*
X317430736Y-155661791D02*
G75*
G02*
X314321675Y-156311846I-1857936J1126091D01*
G01*
X191730342Y-109857118D02*
X191730344Y-78983451D01*
X97588354Y-133070000D02*
X97588354Y-112064291D01*
X66426001Y-121296005D02*
X66426001Y-116296005D01*
X92474283Y-56510290D02*
G75*
G02*
X92141045Y-56836484I-329783J3590D01*
G01*
X326431425Y-89882210D02*
X313731425Y-89879710D01*
X192647285Y-77868388D02*
X193464716Y-77837358D01*
X148814219Y-65863500D02*
G75*
G02*
X149081625Y-66150000I-17419J-284300D01*
G01*
X168865284Y-66180291D02*
X168861643Y-73098698D01*
X213203988Y-73841798D02*
G75*
G02*
X212379026Y-73841798I-412481J3046D01*
G01*
X212375308Y-122527707D02*
X212375308Y-115892237D01*
X132498544Y-112064291D02*
X132498544Y-129050000D01*
X212375308Y-96600291D02*
G75*
G02*
X213203988Y-96600291I414340J-3152D01*
G01*
X130970457Y-65863500D02*
G75*
G02*
X130552449Y-65423426I12043J430000D01*
G01*
X169569318Y-110969833D02*
X169780146Y-110903795D01*
X54926001Y-121296005D02*
X66426001Y-121296005D01*
X191753205Y-78754848D02*
X191819243Y-78544037D01*
X130970457Y-65863500D02*
X148814394Y-65863500D01*
X149910318Y-122527707D02*
G75*
G02*
X129800000Y-135005000I-28233718J23060707D01*
G01*
X130296283Y-56366406D02*
G75*
G02*
X130552251Y-56628817I-1483J-257494D01*
G01*
X171273664Y-66060136D02*
X171078084Y-66164275D01*
X264740000Y-133070000D02*
X233740000Y-133070000D01*
X169968105Y-78033692D02*
X169772524Y-77932081D01*
X191050000Y-122867278D02*
X190836646Y-122933316D01*
X48005688Y-156311791D02*
X62033662Y-148371408D01*
X231764208Y-65545626D02*
G75*
G02*
X231442994Y-65863505I-319308J1426D01*
G01*
X75807500Y-113420000D02*
X75807500Y-118420000D01*
X170547752Y-122250253D02*
X170651885Y-122448377D01*
X191414854Y-122620896D02*
X191244674Y-122763134D01*
X192230726Y-110801997D02*
X192060544Y-110659758D01*
X192060544Y-110659758D02*
X191918299Y-110487038D01*
X192853025Y-73100000D02*
G75*
G02*
X191628807Y-71861284I245875J1467300D01*
G01*
X171484488Y-65997118D02*
X171693827Y-65997117D01*
X250827731Y-50507117D02*
G75*
G02*
X250954169Y-50366412I127469J12617D01*
G01*
X307880000Y-120790000D02*
G75*
G02*
X307380000Y-121296000I-503000J-3000D01*
G01*
X30236000Y-95779543D02*
X30236000Y-57198239D01*
X247506227Y-135014522D02*
X233370042Y-135014522D01*
X332090216Y-129669879D02*
G75*
G02*
X331760728Y-130911785I-2236416J-71321D01*
G01*
X171810135Y-122933990D02*
X190614758Y-122938679D01*
X169345802Y-110988698D02*
X169569318Y-110969833D01*
X169475877Y-115857073D02*
X169707012Y-115928197D01*
X190835744Y-122933316D02*
X190614758Y-122938679D01*
X191745055Y-117068462D02*
G75*
G02*
X192969335Y-115828709I1260345J-20238D01*
G01*
X97588354Y-112064291D02*
X132498544Y-112064291D01*
X307880000Y-120790000D02*
X307880000Y-116790000D01*
X170577705Y-71858949D02*
G75*
G02*
X169343267Y-73095959I-1546305J308649D01*
G01*
X229823354Y-129050000D02*
X229823354Y-112064291D01*
X169707012Y-115928197D02*
X169917828Y-116045036D01*
X149081638Y-122527707D02*
G75*
G02*
X129000002Y-135014533I-28233238J23014107D01*
G01*
X168846932Y-110986868D02*
X169022618Y-110988698D01*
X213203988Y-66160000D02*
G75*
G02*
X213471336Y-65863518I287312J9700D01*
G01*
X149910267Y-66150000D02*
X149910267Y-73841798D01*
X213203988Y-111407449D02*
X213203988Y-96600291D01*
X44895688Y-155661791D02*
X30565687Y-130911791D01*
X87807500Y-117920000D02*
G75*
G02*
X87307500Y-118420000I-500000J0D01*
G01*
X169780146Y-110903795D02*
X169975721Y-110799652D01*
X170961773Y-122760789D02*
X171157349Y-122864933D01*
X92141046Y-56836406D02*
X48595000Y-56836406D01*
X270184586Y-56836406D02*
G75*
G02*
X269851397Y-56517116I-6886J326306D01*
G01*
X170140824Y-78175931D02*
X169968105Y-78033692D01*
X171370703Y-122930971D02*
X171589157Y-122939353D01*
X170369951Y-116601294D02*
X170438532Y-116832442D01*
X307380000Y-116290000D02*
X295880000Y-116290000D01*
X191745055Y-117068462D02*
X191745055Y-121818258D01*
X52719768Y-95779543D02*
X52719768Y-127952333D01*
X169338181Y-77845728D02*
X168846932Y-77837358D01*
X193464716Y-110986868D02*
X192868264Y-110991043D01*
X213203988Y-93051789D02*
X213203988Y-77427536D01*
X170387204Y-78541692D02*
X170283063Y-78346103D01*
X193464716Y-123230291D02*
X193464716Y-115828698D01*
X149910267Y-93051789D02*
G75*
G02*
X149081639Y-93051789I-414314J3211D01*
G01*
X170283063Y-78346103D02*
X170140824Y-78175931D01*
X170255650Y-116387931D02*
X170369951Y-116601294D01*
X130552247Y-56628817D02*
X130552247Y-65423427D01*
X191730342Y-78978376D02*
X191753205Y-78754848D01*
X171078084Y-66164275D02*
X170907901Y-66306523D01*
X149081638Y-77420709D02*
G75*
G02*
X149910282Y-77410291I414362J2009D01*
G01*
X111371463Y-50366406D02*
G75*
G02*
X111497872Y-50500288I2037J-124694D01*
G01*
X192860645Y-110991043D02*
X192637129Y-110972178D01*
X169226953Y-115829142D02*
X169475877Y-115857073D01*
X191814160Y-110291458D02*
X191750665Y-110080638D01*
X169022618Y-110988698D02*
X169338183Y-110988698D01*
X275023000Y-113420000D02*
X286523000Y-113420000D01*
X191298546Y-66308868D02*
X191438244Y-66479045D01*
X192853025Y-73100000D02*
X193464716Y-73098698D01*
X54926001Y-121296005D02*
G75*
G02*
X54425995Y-120796005I-1J500005D01*
G01*
X170476105Y-78976031D02*
X170453242Y-78752503D01*
X168535559Y-65863500D02*
X150114997Y-65863500D01*
X149910318Y-115902655D02*
X149910318Y-122527707D01*
X130296283Y-56366406D02*
X111831138Y-56366406D01*
X191600000Y-66860000D02*
X191628744Y-67010000D01*
X191438244Y-66479045D02*
X191542385Y-66677161D01*
X269724911Y-50366406D02*
X250954169Y-50366406D01*
X111497901Y-50500290D02*
X111497901Y-56034099D01*
X128088354Y-133070000D02*
X97588354Y-133070000D01*
X149081638Y-115902655D02*
X149081638Y-122527707D01*
X307380000Y-121296005D02*
X295880000Y-121296005D01*
X212375308Y-111407449D02*
X212375308Y-96600291D01*
X250827731Y-56040926D02*
G75*
G02*
X250494494Y-56366432I-329431J3926D01*
G01*
X190932783Y-66062481D02*
X191128363Y-66166620D01*
X213203988Y-93051789D02*
G75*
G02*
X212375308Y-93051789I-414340J3238D01*
G01*
X269851349Y-56517117D02*
X269851349Y-50497117D01*
X231764208Y-65545626D02*
X231764208Y-56635644D01*
X212180342Y-65863500D02*
G75*
G02*
X212377925Y-66075782I-12042J-209300D01*
G01*
X149910267Y-111407449D02*
G75*
G02*
X149081639Y-111407449I-414314J3170D01*
G01*
X168535559Y-65863500D02*
G75*
G02*
X168865260Y-66180291I12841J-316600D01*
G01*
X191745055Y-121818258D02*
X191724736Y-122041777D01*
X191724736Y-122041777D02*
X191658695Y-122252598D01*
X111371463Y-50366406D02*
X92600721Y-50366406D01*
X326431425Y-56836406D02*
X326431425Y-89882210D01*
X149081638Y-115902655D02*
G75*
G02*
X149910283Y-115892238I414362J2055D01*
G01*
X169772524Y-77932081D02*
X169559162Y-77866043D01*
X170392287Y-110289113D02*
X170455782Y-110078293D01*
X191923384Y-78348448D02*
X192065623Y-78178276D01*
X170907901Y-66306523D02*
X170768203Y-66476700D01*
X87307500Y-113420000D02*
X75807500Y-113420000D01*
X191244674Y-122763134D02*
X191049098Y-122867278D01*
X250494494Y-56366406D02*
X232029349Y-56366406D01*
X307380000Y-116290000D02*
G75*
G02*
X307880000Y-116790000I0J-500000D01*
G01*
X170438532Y-116832442D02*
X170461392Y-117066117D01*
X213203988Y-111407449D02*
G75*
G02*
X212375308Y-111407449I-414340J3198D01*
G01*
X193464716Y-110986868D02*
X193464716Y-77837358D01*
X219361100Y-133580740D02*
G75*
G02*
X193464703Y-123230307I2045200J42688140D01*
G01*
X171157349Y-122864933D02*
X171370703Y-122930971D01*
X192426301Y-110906140D02*
X192230726Y-110801997D01*
X129800000Y-135005000D02*
X142924514Y-133580740D01*
X168846932Y-77837358D02*
X168846932Y-110986868D01*
X191819243Y-78544037D02*
X191923384Y-78348448D01*
X212375308Y-77420709D02*
G75*
G02*
X213203988Y-77420709I414340J-3173D01*
G01*
X274523000Y-113920000D02*
G75*
G02*
X275023000Y-113420000I500000J0D01*
G01*
X168865284Y-123230291D02*
G75*
G02*
X142924525Y-133580722I-27963784J32401991D01*
G01*
X219355770Y-133580740D02*
X232570042Y-135005000D01*
X169343261Y-73095932D02*
X168861643Y-73098698D01*
X233740000Y-133070000D02*
G75*
G02*
X229823400Y-129050001I51700J3968300D01*
G01*
X170145903Y-110657413D02*
X170288148Y-110484693D01*
X52719768Y-127952333D02*
X30236000Y-127952333D01*
X149081638Y-96600291D02*
G75*
G02*
X149910318Y-96600291I414340J-3178D01*
G01*
X170577703Y-67109161D02*
X170577705Y-71858949D01*
X326431425Y-56836406D02*
X331725255Y-56836406D01*
X193464716Y-115828698D02*
X192969335Y-115834023D01*
X191658695Y-122252598D02*
X191554562Y-122450722D01*
X170791593Y-122618551D02*
X170961773Y-122760789D01*
X192433923Y-77934426D02*
X192647285Y-77868388D01*
X169559162Y-77866043D02*
X169338181Y-77845728D01*
X30601170Y-56836406D02*
X35895000Y-56836406D01*
X92474283Y-50490290D02*
X92474283Y-56510290D01*
X191628744Y-67010000D02*
X191628742Y-71861294D01*
X274523000Y-113920000D02*
X274523000Y-117920000D01*
X129000000Y-135014522D02*
X114863815Y-135014522D01*
X170598021Y-66885635D02*
X170577703Y-67109161D01*
X171480342Y-65997118D02*
X171273664Y-66063155D01*
X149910267Y-73841798D02*
G75*
G02*
X149081639Y-73841798I-414314J3119D01*
G01*
X191554562Y-122450722D02*
X191414854Y-122620896D01*
X190720342Y-65997118D02*
X190932783Y-66062481D01*
X332090216Y-95779543D02*
X309606448Y-95779543D01*
X52719768Y-95779543D02*
X30236000Y-95779543D01*
X168846932Y-115828698D02*
X168865284Y-123230291D01*
X170453242Y-78752503D02*
X170387204Y-78541692D01*
X269724911Y-50366406D02*
G75*
G02*
X269851412Y-50497156I3489J-123194D01*
G01*
X332090216Y-127952333D02*
X332090216Y-129669879D01*
X62033662Y-148371408D02*
G75*
G02*
X114863815Y-135014522I53176388J-99169892D01*
G01*
X170481711Y-122039432D02*
X170547752Y-122250253D01*
X30236000Y-129669879D02*
X30236000Y-127952333D01*
X87807500Y-117920000D02*
X87807500Y-113920000D01*
X192238342Y-78036037D02*
X192433923Y-77934426D01*
X171693827Y-65997117D02*
X190720342Y-65997118D01*
X132498542Y-129050000D02*
G75*
G02*
X128088197Y-133069963I-4214342J194300D01*
G01*
X92474283Y-50490325D02*
G75*
G02*
X92600722Y-50366392I119817J4225D01*
G01*
X313731425Y-56836406D02*
X313731425Y-89879710D01*
X332090216Y-57198239D02*
X332090216Y-95779543D01*
X264735168Y-112064291D02*
X264740000Y-133070000D01*
X300291970Y-148371408D02*
X314319820Y-156305075D01*
X170455782Y-110078293D02*
X170476105Y-109854773D01*
X331760738Y-130911791D02*
X317430737Y-155661791D01*
X232570042Y-135005000D02*
G75*
G02*
X212375290Y-122527722I8081158J35661000D01*
G01*
X212375308Y-115902655D02*
G75*
G02*
X213203988Y-115902655I414340J-3109D01*
G01*
X54926001Y-116290000D02*
X66426001Y-116290000D01*
X48005688Y-156311791D02*
G75*
G02*
X44895720Y-155661772I-1250688J1780891D01*
G01*
X313731425Y-56836406D02*
X270184586Y-56836406D01*
X48595000Y-89880000D02*
X35895000Y-89882500D01*
X149910267Y-66079982D02*
G75*
G02*
X150114997Y-65863539I204533J11582D01*
G01*
X170476105Y-109854773D02*
X170476103Y-78981106D01*
X169917828Y-116045036D02*
X170105789Y-116199977D01*
X250827731Y-56040926D02*
X250827731Y-50507117D01*
X191128363Y-66166620D02*
X191298546Y-66308868D01*
X170105789Y-116199977D02*
X170255650Y-116387931D01*
X48595000Y-89880000D02*
X48595000Y-56836406D01*
X149081638Y-77420709D02*
X149081638Y-93051789D01*
X192637129Y-110972178D02*
X192426301Y-110906140D01*
X35895000Y-89882500D02*
X35895000Y-56836406D01*
X111831138Y-56366406D02*
G75*
G02*
X111497994Y-56034099I-338J332806D01*
G01*
X169008004Y-115828698D02*
X169226953Y-115829142D01*
X170461392Y-117066117D02*
X170461392Y-121815913D01*
X170768203Y-66476700D02*
X170664062Y-66674816D01*
X149910267Y-77420709D02*
X149910267Y-93051789D01*
X191918299Y-110487038D02*
X191814160Y-110291458D01*
X169975721Y-110799652D02*
X170145903Y-110657413D01*
X229824810Y-112064291D02*
X264735000Y-112064291D01*
X54426001Y-116796005D02*
G75*
G02*
X54926001Y-116296001I499999J5D01*
G01*
X170461392Y-121815913D02*
X170481711Y-122039432D01*
X213471232Y-65863500D02*
X231442994Y-65863500D01*
X149081638Y-96600291D02*
X149081638Y-111407449D01*
X87307500Y-113420000D02*
G75*
G02*
X87807500Y-113920000I0J-500000D01*
G01*
X30565688Y-130911791D02*
G75*
G02*
X30236183Y-129669878I1907212J1170691D01*
G01*
X170664062Y-66674816D02*
X170598021Y-66885635D01*
X87307500Y-118420000D02*
X75807500Y-118420000D01*
X332090000Y-127952333D02*
X309606448Y-127952333D01*
X54426001Y-116796005D02*
X54426001Y-120796005D01*
X30236209Y-57198239D02*
G75*
G02*
X30601169Y-56836427I349791J12139D01*
G01*
X213203988Y-122527707D02*
X213203988Y-115902655D01*
X247506227Y-135022114D02*
G75*
G02*
X300298871Y-148371428I-418127J-112717986D01*
G01*
X331725255Y-56836406D02*
G75*
G02*
X332090211Y-57198239I15145J-349694D01*
G01*
X275023000Y-118420000D02*
X286523000Y-118420000D01*
X212379025Y-73841798D02*
X212378075Y-66066114D01*
D30*
X76968543Y-77274291D02*
G75*
G02*
X69768545Y-77274291I-3599999J0D01*
G01*
X69768545Y-77274291D02*
G75*
G02*
X76968543Y-77274291I3599999J0D01*
G01*
X292554605Y-77284596D02*
G75*
G02*
X285354607Y-77284596I-3599999J0D01*
G01*
X285354607Y-77284596D02*
G75*
G02*
X292554605Y-77284596I3599999J0D01*
G01*
M02*
