G04 #@! TF.GenerationSoftware,KiCad,Pcbnew,10.0.1*
G04 #@! TF.CreationDate,2026-04-27T23:01:55+08:00*
G04 #@! TF.ProjectId,xavien-gateron-millmax,78617669-656e-42d6-9761-7465726f6e2d,rev?*
G04 #@! TF.SameCoordinates,Original*
G04 #@! TF.FileFunction,Copper,L2,Bot*
G04 #@! TF.FilePolarity,Positive*
%FSLAX46Y46*%
G04 Gerber Fmt 4.6, Leading zero omitted, Abs format (unit mm)*
G04 Created by KiCad (PCBNEW 10.0.1) date 2026-04-27 23:01:55*
%MOMM*%
%LPD*%
G01*
G04 APERTURE LIST*
G04 Aperture macros list*
%AMRoundRect*
0 Rectangle with rounded corners*
0 $1 Rounding radius*
0 $2 $3 $4 $5 $6 $7 $8 $9 X,Y pos of 4 corners*
0 Add a 4 corners polygon primitive as box body*
4,1,4,$2,$3,$4,$5,$6,$7,$8,$9,$2,$3,0*
0 Add four circle primitives for the rounded corners*
1,1,$1+$1,$2,$3*
1,1,$1+$1,$4,$5*
1,1,$1+$1,$6,$7*
1,1,$1+$1,$8,$9*
0 Add four rect primitives between the rounded corners*
20,1,$1+$1,$2,$3,$4,$5,0*
20,1,$1+$1,$4,$5,$6,$7,0*
20,1,$1+$1,$6,$7,$8,$9,0*
20,1,$1+$1,$8,$9,$2,$3,0*%
%AMRotRect*
0 Rectangle, with rotation*
0 The origin of the aperture is its center*
0 $1 length*
0 $2 width*
0 $3 Rotation angle, in degrees counterclockwise*
0 Add horizontal line*
21,1,$1,$2,0,0,$3*%
%AMFreePoly0*
4,1,5,0.650000,-0.475000,-0.650000,-0.475000,-0.650000,0.475000,0.650000,0.475000,0.650000,-0.475000,0.650000,-0.475000,$1*%
%AMFreePoly1*
4,1,19,0.000000,0.495196,0.048773,0.495196,0.138893,0.457867,0.207867,0.388893,0.245196,0.298773,0.245196,0.250000,0.250000,0.250000,0.250000,-0.250000,0.245196,-0.250000,0.245196,-0.298773,0.207867,-0.388893,0.138893,-0.457867,0.048773,-0.495196,0.000000,-0.495196,0.000000,-0.500000,-0.250000,-0.500000,-0.250000,0.500000,0.000000,0.500000,0.000000,0.495196,0.000000,0.495196,
$1*%
%AMFreePoly2*
4,1,19,0.114805,1.427164,0.182628,1.388006,0.238006,1.332628,0.277164,1.264805,0.297433,1.189158,0.297433,1.150000,0.300000,1.150000,0.300000,-1.150000,-0.300000,-1.150000,-0.300000,1.150000,-0.297433,1.150000,-0.297433,1.189158,-0.277164,1.264805,-0.238006,1.332628,-0.182628,1.388006,-0.114805,1.427164,-0.039158,1.447433,0.039158,1.447433,0.114805,1.427164,0.114805,1.427164,
$1*%
G04 Aperture macros list end*
G04 #@! TA.AperFunction,EtchedComponent*
%ADD10C,0.100000*%
G04 #@! TD*
G04 #@! TA.AperFunction,SMDPad,CuDef*
%ADD11FreePoly0,270.000000*%
G04 #@! TD*
G04 #@! TA.AperFunction,ComponentPad*
%ADD12C,0.457200*%
G04 #@! TD*
G04 #@! TA.AperFunction,SMDPad,CuDef*
%ADD13R,2.300000X2.600000*%
G04 #@! TD*
G04 #@! TA.AperFunction,SMDPad,CuDef*
%ADD14R,2.550000X2.500000*%
G04 #@! TD*
G04 #@! TA.AperFunction,SMDPad,CuDef*
%ADD15FreePoly1,270.000000*%
G04 #@! TD*
G04 #@! TA.AperFunction,SMDPad,CuDef*
%ADD16R,1.000000X0.500000*%
G04 #@! TD*
G04 #@! TA.AperFunction,SMDPad,CuDef*
%ADD17FreePoly1,90.000000*%
G04 #@! TD*
G04 #@! TA.AperFunction,SMDPad,CuDef*
%ADD18FreePoly0,285.000000*%
G04 #@! TD*
G04 #@! TA.AperFunction,ComponentPad*
%ADD19C,2.500000*%
G04 #@! TD*
G04 #@! TA.AperFunction,SMDPad,CuDef*
%ADD20FreePoly0,275.000000*%
G04 #@! TD*
G04 #@! TA.AperFunction,SMDPad,CuDef*
%ADD21RotRect,2.300000X2.600000X240.000000*%
G04 #@! TD*
G04 #@! TA.AperFunction,SMDPad,CuDef*
%ADD22RotRect,2.550000X2.500000X240.000000*%
G04 #@! TD*
G04 #@! TA.AperFunction,SMDPad,CuDef*
%ADD23RotRect,2.300000X2.600000X175.000000*%
G04 #@! TD*
G04 #@! TA.AperFunction,SMDPad,CuDef*
%ADD24RotRect,2.550000X2.500000X175.000000*%
G04 #@! TD*
G04 #@! TA.AperFunction,ComponentPad*
%ADD25C,2.000000*%
G04 #@! TD*
G04 #@! TA.AperFunction,SMDPad,CuDef*
%ADD26R,1.695906X1.272260*%
G04 #@! TD*
G04 #@! TA.AperFunction,SMDPad,CuDef*
%ADD27R,2.014437X2.501159*%
G04 #@! TD*
G04 #@! TA.AperFunction,SMDPad,CuDef*
%ADD28R,1.000000X0.800000*%
G04 #@! TD*
G04 #@! TA.AperFunction,SMDPad,CuDef*
%ADD29R,0.700000X1.500000*%
G04 #@! TD*
G04 #@! TA.AperFunction,ComponentPad*
%ADD30O,2.100000X2.500000*%
G04 #@! TD*
G04 #@! TA.AperFunction,SMDPad,CuDef*
%ADD31FreePoly0,331.000000*%
G04 #@! TD*
G04 #@! TA.AperFunction,SMDPad,CuDef*
%ADD32RotRect,2.300000X2.600000X185.000000*%
G04 #@! TD*
G04 #@! TA.AperFunction,SMDPad,CuDef*
%ADD33RotRect,2.550000X2.500000X185.000000*%
G04 #@! TD*
G04 #@! TA.AperFunction,SMDPad,CuDef*
%ADD34RotRect,2.300000X2.600000X195.000000*%
G04 #@! TD*
G04 #@! TA.AperFunction,SMDPad,CuDef*
%ADD35RotRect,2.550000X2.500000X195.000000*%
G04 #@! TD*
G04 #@! TA.AperFunction,SMDPad,CuDef*
%ADD36RotRect,2.300000X2.600000X165.000000*%
G04 #@! TD*
G04 #@! TA.AperFunction,SMDPad,CuDef*
%ADD37RotRect,2.550000X2.500000X165.000000*%
G04 #@! TD*
G04 #@! TA.AperFunction,SMDPad,CuDef*
%ADD38FreePoly0,256.000000*%
G04 #@! TD*
G04 #@! TA.AperFunction,SMDPad,CuDef*
%ADD39FreePoly0,90.000000*%
G04 #@! TD*
G04 #@! TA.AperFunction,SMDPad,CuDef*
%ADD40RotRect,2.300000X2.600000X120.000000*%
G04 #@! TD*
G04 #@! TA.AperFunction,SMDPad,CuDef*
%ADD41RotRect,2.550000X2.500000X120.000000*%
G04 #@! TD*
G04 #@! TA.AperFunction,SMDPad,CuDef*
%ADD42FreePoly0,210.000000*%
G04 #@! TD*
G04 #@! TA.AperFunction,SMDPad,CuDef*
%ADD43FreePoly0,265.000000*%
G04 #@! TD*
G04 #@! TA.AperFunction,SMDPad,CuDef*
%ADD44RoundRect,0.240000X0.660000X0.360000X-0.660000X0.360000X-0.660000X-0.360000X0.660000X-0.360000X0*%
G04 #@! TD*
G04 #@! TA.AperFunction,SMDPad,CuDef*
%ADD45R,4.000000X0.500000*%
G04 #@! TD*
G04 #@! TA.AperFunction,SMDPad,CuDef*
%ADD46FreePoly2,90.000000*%
G04 #@! TD*
G04 #@! TA.AperFunction,SMDPad,CuDef*
%ADD47FreePoly2,270.000000*%
G04 #@! TD*
G04 #@! TA.AperFunction,ViaPad*
%ADD48C,0.600000*%
G04 #@! TD*
G04 #@! TA.AperFunction,Conductor*
%ADD49C,0.250000*%
G04 #@! TD*
G04 #@! TA.AperFunction,Conductor*
%ADD50C,0.400000*%
G04 #@! TD*
G04 #@! TA.AperFunction,Conductor*
%ADD51C,0.380000*%
G04 #@! TD*
G04 #@! TA.AperFunction,Conductor*
%ADD52C,0.350000*%
G04 #@! TD*
G04 #@! TA.AperFunction,Profile*
%ADD53C,0.050000*%
G04 #@! TD*
G04 APERTURE END LIST*
D10*
X57979407Y-64790000D02*
X57979407Y-67290000D01*
X55339407Y-67290000D01*
X55339407Y-66020000D01*
X55899407Y-65460000D01*
X55899407Y-64780000D01*
X57969407Y-64780000D01*
X57979407Y-64790000D01*
G04 #@! TA.AperFunction,EtchedComponent*
G36*
X57979407Y-64790000D02*
G01*
X57979407Y-67290000D01*
X55339407Y-67290000D01*
X55339407Y-66020000D01*
X55899407Y-65460000D01*
X55899407Y-64780000D01*
X57969407Y-64780000D01*
X57979407Y-64790000D01*
G37*
G04 #@! TD.AperFunction*
D11*
X266639999Y-82290005D03*
X266640002Y-84910001D03*
D12*
X43780000Y-93360000D03*
D11*
X145989999Y-78690005D03*
X145990002Y-81310001D03*
X228539999Y-78690005D03*
X228540002Y-81310001D03*
X107989999Y-101190005D03*
X107990002Y-103810001D03*
X164989999Y-116690005D03*
X164990002Y-119310001D03*
D13*
X233294845Y-107385318D03*
D14*
X234309845Y-101145318D03*
D13*
X244494845Y-109585318D03*
D14*
X247236845Y-98605318D03*
D13*
X233294845Y-69290317D03*
D14*
X234309845Y-63050317D03*
D13*
X244494845Y-71490317D03*
D14*
X247236845Y-60510317D03*
D11*
X285689999Y-69690005D03*
X285690002Y-72310001D03*
D15*
X294250000Y-119375000D03*
D16*
X294250000Y-118625000D03*
D17*
X294250000Y-117875000D03*
D18*
X74151288Y-132237230D03*
X74829396Y-134767951D03*
D11*
X247439999Y-88240005D03*
X247440002Y-90860001D03*
D13*
X150920849Y-116950725D03*
D14*
X151935849Y-110710725D03*
D13*
X162120849Y-119150725D03*
D14*
X164862849Y-108170725D03*
D13*
X271390000Y-107890318D03*
D14*
X272405000Y-101650318D03*
D13*
X282590000Y-110090318D03*
D14*
X285332000Y-99110318D03*
D11*
X164989999Y-97690005D03*
X164990002Y-100310001D03*
D13*
X112835754Y-107385318D03*
D14*
X113850754Y-101145318D03*
D13*
X124035754Y-109585318D03*
D14*
X126777754Y-98605318D03*
D11*
X126989999Y-69190005D03*
X126990002Y-71810001D03*
D19*
X56710000Y-133290000D03*
D11*
X209389999Y-97640005D03*
X209390002Y-100260001D03*
X88989999Y-88690005D03*
X88990002Y-91310001D03*
D13*
X214263945Y-97906079D03*
D14*
X215278945Y-91666079D03*
D13*
X225463945Y-100106079D03*
D14*
X228205945Y-89126079D03*
D11*
X285539999Y-107890005D03*
X285540002Y-110510001D03*
D20*
X94375861Y-129695862D03*
X94604214Y-132305887D03*
D19*
X163300000Y-84696000D03*
D15*
X70350000Y-119600000D03*
D16*
X70350000Y-118850000D03*
D17*
X70350000Y-118100000D03*
D13*
X214263945Y-78861079D03*
D14*
X215278945Y-72621079D03*
D13*
X225463945Y-81061079D03*
D14*
X228205945Y-70081079D03*
D13*
X233294845Y-88330316D03*
D14*
X234309845Y-82090316D03*
D13*
X244494845Y-90530316D03*
D14*
X247236845Y-79550316D03*
D21*
X314027733Y-147662097D03*
D22*
X309131234Y-143663081D03*
D21*
X321532989Y-139062612D03*
D22*
X313395030Y-131197971D03*
D11*
X304539999Y-91240005D03*
X304540002Y-93860001D03*
D19*
X330267209Y-58870000D03*
D13*
X74753254Y-88889000D03*
D14*
X75768254Y-82649000D03*
D13*
X85953254Y-91089000D03*
D14*
X88695254Y-80109000D03*
D13*
X148066848Y-109554000D03*
D14*
X147051848Y-115794000D03*
D13*
X136866848Y-107354000D03*
D14*
X134124848Y-118334000D03*
D13*
X55690000Y-91340000D03*
D14*
X56705000Y-85100000D03*
D13*
X66890000Y-93540000D03*
D14*
X69632000Y-82560000D03*
D13*
X93798354Y-82330316D03*
D14*
X94813354Y-76090316D03*
D13*
X104998354Y-84530316D03*
D14*
X107740354Y-73550316D03*
D13*
X195210342Y-116950725D03*
D14*
X196225342Y-110710725D03*
D13*
X206410342Y-119150725D03*
D14*
X209152342Y-108170725D03*
D23*
X266069929Y-129667219D03*
D24*
X267624918Y-123539427D03*
D23*
X277035567Y-132834992D03*
D24*
X280724103Y-122135755D03*
D11*
X285639999Y-88840005D03*
X285640002Y-91460001D03*
D25*
X231880000Y-74569000D03*
D13*
X112835754Y-69290317D03*
D14*
X113850754Y-63050317D03*
D13*
X124035754Y-71490317D03*
D14*
X126777754Y-60510317D03*
D11*
X247589999Y-107340005D03*
X247590002Y-109960001D03*
X107989999Y-82190005D03*
X107990002Y-84810001D03*
D19*
X199026209Y-103726000D03*
D11*
X69989999Y-91190005D03*
X69990002Y-93810001D03*
D13*
X252339845Y-63280317D03*
D14*
X253354845Y-57040317D03*
D13*
X263539845Y-65480317D03*
D14*
X266281845Y-54500317D03*
D13*
X55690000Y-72280000D03*
D26*
X56182047Y-66656304D03*
D27*
X56972782Y-66039421D03*
D13*
X66890000Y-74480000D03*
D14*
X69632000Y-63500000D03*
D11*
X304699997Y-110430004D03*
X304700000Y-113050000D03*
D13*
X252339845Y-101400316D03*
D14*
X253354845Y-95160316D03*
D13*
X263539845Y-103600316D03*
D14*
X266281845Y-92620316D03*
D11*
X304739999Y-72190005D03*
X304740002Y-74810001D03*
D13*
X252339845Y-82330316D03*
D14*
X253354845Y-76090316D03*
D13*
X263539845Y-84530316D03*
D14*
X266281845Y-73550316D03*
D11*
X209489999Y-78740005D03*
X209490002Y-81360001D03*
D28*
X71910000Y-57640008D03*
X71909994Y-59840001D03*
X64610006Y-57639999D03*
X64610000Y-59839992D03*
D29*
X66009998Y-60489996D03*
X69010002Y-60489999D03*
X70509996Y-60490009D03*
D13*
X74753254Y-107890318D03*
D14*
X75768254Y-101650318D03*
D13*
X85953254Y-110090318D03*
D14*
X88695254Y-99110318D03*
D11*
X145989999Y-97690005D03*
X145990002Y-100310001D03*
D13*
X112835754Y-88330316D03*
D14*
X113850754Y-82090316D03*
D13*
X124035754Y-90530316D03*
D14*
X126777754Y-79550316D03*
D11*
X228489999Y-97740005D03*
X228490002Y-100360001D03*
D13*
X150920849Y-97906079D03*
D14*
X151935849Y-91666079D03*
D13*
X162120849Y-100106079D03*
D14*
X164862849Y-89126079D03*
D15*
X81900000Y-116200000D03*
D16*
X81900000Y-115450000D03*
D17*
X81900000Y-114700000D03*
D11*
X126989999Y-88190005D03*
X126990002Y-90810001D03*
X69989999Y-110190005D03*
X69990002Y-112810001D03*
X69989999Y-72190005D03*
X69990002Y-74810001D03*
D28*
X297720000Y-57640008D03*
X297719994Y-59840001D03*
X290420006Y-57639999D03*
X290420000Y-59839992D03*
D29*
X291819998Y-60489996D03*
X294820002Y-60489999D03*
X296319996Y-60490009D03*
D11*
X126989999Y-107190005D03*
X126990002Y-109810001D03*
D13*
X290439000Y-91340000D03*
D14*
X291454000Y-85100000D03*
D13*
X301639000Y-93540000D03*
D14*
X304381000Y-82560000D03*
D30*
X315022000Y-91975000D03*
X317562000Y-91975000D03*
X320102000Y-91975000D03*
X322642000Y-91975000D03*
X325182000Y-91975000D03*
D11*
X266589999Y-101340005D03*
X266590002Y-103960001D03*
D13*
X55690000Y-110365317D03*
D14*
X56705000Y-104125317D03*
D13*
X66890000Y-112565317D03*
D14*
X69632000Y-101585317D03*
D11*
X266639999Y-63140005D03*
X266640002Y-65760001D03*
D13*
X150920849Y-78861079D03*
D14*
X151935849Y-72621079D03*
D13*
X162120849Y-81061079D03*
D14*
X164862849Y-70081079D03*
D19*
X199026209Y-84696000D03*
D31*
X320999404Y-135323649D03*
X323290906Y-136593846D03*
D32*
X80196011Y-131079142D03*
D33*
X80663297Y-124774424D03*
D32*
X91545134Y-132294626D03*
D33*
X93319730Y-121117427D03*
D11*
X88989999Y-107690005D03*
X88990002Y-110310001D03*
D19*
X130418000Y-104857173D03*
D13*
X131866848Y-97906079D03*
D14*
X132881848Y-91666079D03*
D13*
X143066848Y-100106079D03*
D14*
X145808848Y-89126079D03*
D34*
X60415183Y-135997508D03*
D35*
X59780567Y-129707429D03*
D34*
X71802954Y-135223771D03*
D35*
X71609690Y-123908224D03*
D13*
X271390000Y-88889000D03*
D14*
X272405000Y-82649000D03*
D13*
X282590000Y-91089000D03*
D14*
X285332000Y-80109000D03*
D11*
X209489999Y-116740005D03*
X209490002Y-119360001D03*
D36*
X286321657Y-131804639D03*
D37*
X288917103Y-126039963D03*
D36*
X296570625Y-136828449D03*
D37*
X302061026Y-126932266D03*
D38*
X300007213Y-135376498D03*
X299373381Y-137918670D03*
D39*
X133910001Y-109609995D03*
X133909998Y-106989999D03*
D40*
X40217929Y-133632485D03*
D41*
X46129428Y-131391501D03*
D40*
X43912673Y-144431970D03*
D41*
X54792632Y-141316611D03*
D30*
X37135000Y-91975000D03*
X39675000Y-91975000D03*
X42215000Y-91975000D03*
X44755000Y-91975000D03*
X47295000Y-91975000D03*
D15*
X280050000Y-116650000D03*
D16*
X280050000Y-115900000D03*
D17*
X280050000Y-115150000D03*
D42*
X47129488Y-145836341D03*
X44860507Y-147146342D03*
D13*
X93798354Y-101400316D03*
D14*
X94813354Y-95160316D03*
D13*
X104998354Y-103600316D03*
D14*
X107740354Y-92620316D03*
D43*
X280204211Y-130794118D03*
X279975866Y-133404145D03*
D13*
X290440000Y-72280000D03*
D14*
X291455000Y-66040000D03*
D13*
X301640000Y-74480000D03*
D14*
X304382000Y-63500000D03*
D11*
X247589999Y-69090005D03*
X247590002Y-71710001D03*
D19*
X130418000Y-74569000D03*
D11*
X88989999Y-69690005D03*
X88990002Y-72310001D03*
D19*
X231912000Y-104857173D03*
D13*
X93798354Y-63280317D03*
D14*
X94813354Y-57040317D03*
D13*
X104998354Y-65480317D03*
D14*
X107740354Y-54500317D03*
D13*
X195208342Y-78861079D03*
D14*
X196223342Y-72621079D03*
D13*
X206408342Y-81061079D03*
D14*
X209150342Y-70081079D03*
D13*
X74753254Y-69820000D03*
D14*
X75768254Y-63580000D03*
D13*
X85953254Y-72020000D03*
D14*
X88695254Y-61040000D03*
D11*
X164989999Y-78690005D03*
X164990002Y-81310001D03*
D13*
X131866848Y-78861079D03*
D14*
X132881848Y-72621079D03*
D13*
X143066848Y-81061079D03*
D14*
X145808848Y-70081079D03*
D13*
X271390000Y-69820000D03*
D14*
X272405000Y-63580000D03*
D13*
X282590000Y-72020000D03*
D14*
X285332000Y-61040000D03*
D11*
X107989999Y-63190005D03*
X107990002Y-65810001D03*
D19*
X163300000Y-103726000D03*
D13*
X290440000Y-110365317D03*
D14*
X291455000Y-104125317D03*
D13*
X301640000Y-112565317D03*
D14*
X304382000Y-101585317D03*
D13*
X195208342Y-97906079D03*
D14*
X196223342Y-91666079D03*
D13*
X206408342Y-100106079D03*
D14*
X209150342Y-89126079D03*
D19*
X54320216Y-64890000D03*
D13*
X214263945Y-116954000D03*
D14*
X215278945Y-110714000D03*
D13*
X225463945Y-119154000D03*
D14*
X228205945Y-108174000D03*
D11*
X228389999Y-116740005D03*
X228390002Y-119360001D03*
D19*
X34625000Y-60670000D03*
X34625000Y-63210000D03*
X34625000Y-65750000D03*
X34625000Y-68290000D03*
X34625000Y-70830000D03*
X34625000Y-73370000D03*
X34625000Y-75910000D03*
X34625000Y-78450000D03*
X34625000Y-80990000D03*
X34625000Y-83530000D03*
X34625000Y-86070000D03*
X34625000Y-88610000D03*
X49865000Y-88610000D03*
X49865000Y-86070000D03*
X49865000Y-83530000D03*
X49865000Y-80990000D03*
X49865000Y-78450000D03*
X49865000Y-75910000D03*
X49865000Y-73370000D03*
X49865000Y-70830000D03*
X49865000Y-68290000D03*
X49865000Y-65750000D03*
X49865000Y-63210000D03*
X49865000Y-60670000D03*
X312511000Y-60670000D03*
X312511000Y-63210000D03*
X312511000Y-65750000D03*
X312511000Y-68290000D03*
X312511000Y-70830000D03*
X312511000Y-73370000D03*
X312511000Y-75910000D03*
X312511000Y-78450000D03*
X312511000Y-80990000D03*
X312511000Y-83530000D03*
X312511000Y-86070000D03*
X312511000Y-88610000D03*
X327751000Y-88610000D03*
X327751000Y-86070000D03*
X327751000Y-83530000D03*
X327751000Y-80990000D03*
X327751000Y-78450000D03*
X327751000Y-75910000D03*
X327751000Y-73370000D03*
X327751000Y-70830000D03*
X327751000Y-68290000D03*
X327751000Y-65750000D03*
X327751000Y-63210000D03*
X327751000Y-60670000D03*
X305590000Y-133310000D03*
D44*
X309626000Y-60520000D03*
D45*
X306976000Y-60170000D03*
D44*
X304326000Y-60520000D03*
X309626000Y-58820000D03*
D45*
X306976000Y-59170000D03*
D44*
X304326000Y-58820000D03*
D46*
X296914999Y-119413995D03*
X296914999Y-118163995D03*
D47*
X67626001Y-118171005D03*
X67626001Y-119421005D03*
D19*
X308006209Y-64890000D03*
D44*
X58050000Y-60520000D03*
D45*
X55400000Y-60170000D03*
D44*
X52750000Y-60520000D03*
X58050000Y-58820000D03*
D45*
X55400000Y-59170000D03*
D44*
X52750000Y-58820000D03*
D47*
X277507000Y-115290000D03*
X277507000Y-116540000D03*
D46*
X84400000Y-116125000D03*
X84400000Y-114875000D03*
D48*
X247439999Y-88240005D03*
X309315000Y-77550000D03*
X228489999Y-97740005D03*
X266639999Y-82290005D03*
X285639999Y-88840005D03*
X304539999Y-91240005D03*
X209389999Y-97640005D03*
X69989999Y-72190005D03*
X71717224Y-95098141D03*
X107989999Y-63190005D03*
X145989999Y-78690005D03*
X88989999Y-69690005D03*
X31445000Y-75910000D03*
X126989999Y-69190005D03*
X164989999Y-78690005D03*
X71214999Y-72190005D03*
X266639999Y-63140005D03*
X285689999Y-69690005D03*
X247589999Y-69090005D03*
X309315000Y-75910000D03*
X209489999Y-78740005D03*
X304739999Y-72190005D03*
X228539999Y-78690005D03*
X133910001Y-109609995D03*
X71275000Y-110190005D03*
X107989999Y-101190005D03*
X88989999Y-107690005D03*
X69989999Y-110190005D03*
X71017489Y-95117489D03*
X126989999Y-107190005D03*
X34232538Y-91860000D03*
X164989999Y-116690005D03*
X233294845Y-98250000D03*
X330607000Y-75757163D03*
X291819998Y-60489996D03*
X292700000Y-118400000D03*
X310207115Y-61520000D03*
X280050000Y-116650000D03*
X294250000Y-119375000D03*
X277507000Y-115290000D03*
X294250000Y-118625000D03*
X280050000Y-115150000D03*
X294250000Y-117875000D03*
X47129488Y-145836341D03*
X72115935Y-109546014D03*
X75700000Y-132767953D03*
X74151288Y-132237230D03*
X72767224Y-95067500D03*
X94375861Y-129695862D03*
X35800000Y-95115000D03*
X75278254Y-109665005D03*
X151935849Y-91666079D03*
X329651718Y-91401718D03*
X271390000Y-95850000D03*
X164989999Y-97690005D03*
X107989999Y-82190005D03*
X71214999Y-91190005D03*
X145989999Y-96625000D03*
X34472539Y-93715000D03*
X69989999Y-91190005D03*
X70287507Y-95105007D03*
X88989999Y-88690005D03*
X126989999Y-88190005D03*
X145989999Y-97690005D03*
X112835754Y-90032500D03*
X215278945Y-110714000D03*
X330267000Y-73309000D03*
X285539999Y-107890005D03*
X228389999Y-116740005D03*
X307665000Y-107560000D03*
X209489999Y-116740005D03*
X304699997Y-110430004D03*
X247589999Y-107340005D03*
X266589999Y-101340005D03*
X72439999Y-92595000D03*
X70350000Y-119600000D03*
X81900000Y-114700000D03*
X70350000Y-118850000D03*
X84400000Y-114875000D03*
X67626001Y-119421005D03*
X81900000Y-116200000D03*
X70350000Y-118100000D03*
X290439000Y-98000000D03*
X308050291Y-95722452D03*
X74753254Y-94800000D03*
X148066848Y-109554000D03*
X131866848Y-97906079D03*
X51650000Y-91750000D03*
X93798354Y-92000000D03*
X329901000Y-71288527D03*
X195210342Y-116950725D03*
X308735538Y-94683000D03*
X252339845Y-89100000D03*
X35522538Y-90610000D03*
X32625000Y-68340000D03*
X50269490Y-90760000D03*
X81900000Y-115450000D03*
X67626001Y-118171005D03*
X329450000Y-63210000D03*
X327575000Y-92475000D03*
X310495000Y-68290000D03*
X324100000Y-94325000D03*
X310015000Y-70830000D03*
X310015000Y-73200000D03*
X313540000Y-91285000D03*
X326650000Y-90218000D03*
X320999404Y-135323649D03*
X310950000Y-136000000D03*
X300007213Y-135376498D03*
X280204211Y-130794118D03*
X32145000Y-70830000D03*
X32145000Y-73370000D03*
X38970000Y-90310000D03*
X296914999Y-118163995D03*
X280050000Y-115900000D03*
X52070000Y-67400000D03*
X306275000Y-96320435D03*
X328956750Y-66955750D03*
D49*
X311591000Y-77530000D02*
X312511000Y-78450000D01*
X309335000Y-77530000D02*
X311591000Y-77530000D01*
X309315000Y-77550000D02*
X309335000Y-77530000D01*
X267339999Y-74608470D02*
X267339999Y-84210004D01*
X266281845Y-73550316D02*
X267339999Y-74608470D01*
X267339999Y-84210004D02*
X266640002Y-84910001D01*
X266260317Y-84530316D02*
X266640002Y-84910001D01*
X263539845Y-84530316D02*
X266260317Y-84530316D01*
D50*
X50507032Y-90160000D02*
X51415000Y-89252032D01*
X51415000Y-69840000D02*
X49865000Y-68290000D01*
X49669490Y-90511471D02*
X50020961Y-90160000D01*
X48845000Y-92617032D02*
X47697032Y-93765000D01*
X47697032Y-93765000D02*
X44185000Y-93765000D01*
X50020961Y-90160000D02*
X50507032Y-90160000D01*
X48845000Y-91335961D02*
X48845000Y-92617032D01*
X44185000Y-93765000D02*
X43780000Y-93360000D01*
X51415000Y-89252032D02*
X51415000Y-69840000D01*
X50020961Y-90160000D02*
X48845000Y-91335961D01*
D49*
X71132000Y-90364543D02*
X71132000Y-72273004D01*
X71739999Y-90972542D02*
X71132000Y-90364543D01*
X71700000Y-95080917D02*
X71700000Y-94457490D01*
X31445000Y-75910000D02*
X34625000Y-75910000D01*
X71564999Y-91582468D02*
X71739999Y-91407468D01*
X71717224Y-95098141D02*
X71700000Y-95080917D01*
X71739999Y-91407468D02*
X71739999Y-90972542D01*
X71700000Y-94457490D02*
X71564999Y-94322489D01*
X71564999Y-94322489D02*
X71564999Y-91582468D01*
X71132000Y-72273004D02*
X71214999Y-72190005D01*
X146741848Y-71014079D02*
X146741848Y-80558155D01*
X145741080Y-81061079D02*
X145990002Y-81310001D01*
X143066848Y-81061079D02*
X145741080Y-81061079D01*
X146741848Y-80558155D02*
X145990002Y-81310001D01*
X145808848Y-70081079D02*
X146741848Y-71014079D01*
X309315000Y-75910000D02*
X312511000Y-75910000D01*
X229239999Y-71115133D02*
X229239999Y-80610004D01*
X228291080Y-81061079D02*
X228540002Y-81310001D01*
X225463945Y-81061079D02*
X228291080Y-81061079D01*
X228205945Y-70081079D02*
X229239999Y-71115133D01*
X229239999Y-80610004D02*
X228540002Y-81310001D01*
X33135000Y-84950025D02*
X33135000Y-82480000D01*
X71275000Y-110190005D02*
X71192224Y-110107229D01*
X34232538Y-91142486D02*
X32955026Y-89864974D01*
X71192224Y-110107229D02*
X71192224Y-95292224D01*
X32750000Y-85335025D02*
X33135000Y-84950025D01*
X32955026Y-89864974D02*
X32955025Y-89864974D01*
X71192224Y-95292224D02*
X71017489Y-95117489D01*
X34232538Y-91860000D02*
X34232538Y-91142486D01*
X33135000Y-82480000D02*
X34625000Y-80990000D01*
X32955025Y-89864974D02*
X32750000Y-89659949D01*
X32750000Y-89659949D02*
X32750000Y-85335025D01*
X107780317Y-103600316D02*
X107990002Y-103810001D01*
X108689999Y-93569961D02*
X108689999Y-103110004D01*
X107740354Y-92620316D02*
X108689999Y-93569961D01*
X104998354Y-103600316D02*
X107780317Y-103600316D01*
X108689999Y-103110004D02*
X107990002Y-103810001D01*
X165795849Y-109103725D02*
X165795849Y-118504154D01*
X162120849Y-119150725D02*
X164830726Y-119150725D01*
X165795849Y-118504154D02*
X164990002Y-119310001D01*
X164830726Y-119150725D02*
X164990002Y-119310001D01*
X164862849Y-108170725D02*
X165795849Y-109103725D01*
X233650000Y-107030163D02*
X233650000Y-101805163D01*
X233294845Y-83105316D02*
X234309845Y-82090316D01*
X233300000Y-75164255D02*
X233300000Y-81080471D01*
X233294845Y-69290317D02*
X233294845Y-64065317D01*
X233300000Y-73973745D02*
X233305000Y-73978745D01*
X233294845Y-69290317D02*
X233300000Y-69295472D01*
X327768000Y-75893000D02*
X327751000Y-75910000D01*
X330607000Y-75757163D02*
X330471163Y-75893000D01*
X233305000Y-75159255D02*
X233300000Y-75164255D01*
X233305000Y-73978745D02*
X233305000Y-75159255D01*
X233294845Y-64065317D02*
X234309845Y-63050317D01*
X233294845Y-98250000D02*
X233294845Y-100130318D01*
X233294845Y-107385318D02*
X233650000Y-107030163D01*
X233294845Y-88330316D02*
X233294845Y-98250000D01*
X330471163Y-75893000D02*
X327768000Y-75893000D01*
X233294845Y-100130318D02*
X234309845Y-101145318D01*
X233300000Y-81080471D02*
X234309845Y-82090316D01*
X233294845Y-88330316D02*
X233294845Y-83105316D01*
X233650000Y-101805163D02*
X234309845Y-101145318D01*
X233300000Y-69295472D02*
X233300000Y-73973745D01*
X248289999Y-99658472D02*
X248289999Y-109260004D01*
X247236845Y-98605318D02*
X248289999Y-99658472D01*
X248289999Y-109260004D02*
X247590002Y-109960001D01*
X247215319Y-109585318D02*
X247590002Y-109960001D01*
X244494845Y-109585318D02*
X247215319Y-109585318D01*
X248289999Y-61563471D02*
X248289999Y-71010004D01*
X247236845Y-60510317D02*
X248289999Y-61563471D01*
X247370318Y-71490317D02*
X247590002Y-71710001D01*
X244494845Y-71490317D02*
X247370318Y-71490317D01*
X248289999Y-71010004D02*
X247590002Y-71710001D01*
X285332000Y-61040000D02*
X286389999Y-62097999D01*
X286389999Y-71610004D02*
X285690002Y-72310001D01*
X282590000Y-72020000D02*
X285400001Y-72020000D01*
X285400001Y-72020000D02*
X285690002Y-72310001D01*
X286389999Y-62097999D02*
X286389999Y-71610004D01*
X293050000Y-118250000D02*
X293050000Y-117505026D01*
X297805026Y-115000000D02*
X304250000Y-115000000D01*
X308440000Y-77980000D02*
X308440000Y-77312537D01*
X293955026Y-116600000D02*
X296205026Y-116600000D01*
X307140000Y-107780000D02*
X307140000Y-98034974D01*
X308790000Y-76962537D02*
X308790000Y-75692537D01*
X293050000Y-117505025D02*
X293255025Y-117300000D01*
X307140000Y-98034974D02*
X306800000Y-97694974D01*
X292900000Y-118400000D02*
X293050000Y-118250000D01*
X293050000Y-117505026D02*
X293050000Y-117505025D01*
X310650000Y-64851040D02*
X310401000Y-64602041D01*
X308790000Y-75692537D02*
X309450000Y-75032537D01*
X309450000Y-75032537D02*
X309450000Y-70650000D01*
X310650000Y-67392537D02*
X310650000Y-64851040D01*
X308440000Y-77312537D02*
X308790000Y-76962537D01*
X309450000Y-70650000D02*
X309970000Y-70130000D01*
X310401000Y-64602041D02*
X310401000Y-61713885D01*
X306800000Y-94360051D02*
X310336000Y-90824052D01*
X310336000Y-79876000D02*
X308440000Y-77980000D01*
X310401000Y-61713885D02*
X310207115Y-61520000D01*
X296205026Y-116600000D02*
X297805026Y-115000000D01*
X310336000Y-90824052D02*
X310336000Y-79876000D01*
X292700000Y-118400000D02*
X292900000Y-118400000D01*
X309970000Y-70130000D02*
X309970000Y-68072537D01*
X304250000Y-115000000D02*
X307940000Y-111310000D01*
X309970000Y-68072537D02*
X310650000Y-67392537D01*
X307940000Y-108580000D02*
X307140000Y-107780000D01*
X307940000Y-111310000D02*
X307940000Y-108580000D01*
X306800000Y-97694974D02*
X306800000Y-94360051D01*
X293255025Y-117300000D02*
X293255026Y-117300000D01*
X293255026Y-117300000D02*
X293955026Y-116600000D01*
X294520000Y-118895000D02*
X294250000Y-118625000D01*
X296914999Y-119413995D02*
X296396004Y-118895000D01*
X296396004Y-118895000D02*
X294520000Y-118895000D01*
X308950000Y-106987562D02*
X308950000Y-96050000D01*
X331050000Y-84636971D02*
X330875000Y-84461971D01*
X331175000Y-72767430D02*
X331175000Y-67724431D01*
X331292000Y-72884431D02*
X331175000Y-72767430D01*
X308640000Y-111604974D02*
X308640000Y-107297562D01*
X295304458Y-117875000D02*
X295545463Y-117633995D01*
X327751000Y-60768537D02*
X327751000Y-60670000D01*
X330875000Y-76938732D02*
X331632000Y-76181732D01*
X323592588Y-95550000D02*
X324689949Y-95550000D01*
X296266005Y-117633995D02*
X298200000Y-115700000D01*
X322342589Y-94300000D02*
X323592588Y-95550000D01*
X310700000Y-94300000D02*
X322342589Y-94300000D01*
X327189948Y-93050000D02*
X327750000Y-93050000D01*
X308950000Y-96050000D02*
X310700000Y-94300000D01*
X304544975Y-115700000D02*
X308640000Y-111604974D01*
X331175000Y-67724431D02*
X329875000Y-66424431D01*
X329875000Y-66424431D02*
X329875000Y-63527463D01*
X295545463Y-117633995D02*
X296266005Y-117633995D01*
X327750000Y-93050000D02*
X327900000Y-92900000D01*
X298200000Y-115700000D02*
X304544975Y-115700000D01*
X331632000Y-75332594D02*
X331292000Y-74992594D01*
X327900000Y-92900000D02*
X330097980Y-92900000D01*
X331632000Y-76181732D02*
X331632000Y-75332594D01*
X294250000Y-117875000D02*
X295304458Y-117875000D01*
X331292000Y-74992594D02*
X331292000Y-72884431D01*
X330875000Y-84461971D02*
X330875000Y-76938732D01*
X324689949Y-95550000D02*
X327189948Y-93050000D01*
X330097980Y-92900000D02*
X331050000Y-91947980D01*
X329875000Y-63527463D02*
X329975000Y-63427463D01*
X329975000Y-63427463D02*
X329975000Y-62992537D01*
X329975000Y-62992537D02*
X327751000Y-60768537D01*
X308640000Y-107297562D02*
X308950000Y-106987562D01*
X331050000Y-91947980D02*
X331050000Y-84636971D01*
X33100000Y-85480000D02*
X34625000Y-83955000D01*
X71900000Y-109330079D02*
X71900000Y-96152802D01*
X75353335Y-131584731D02*
X75353335Y-132421288D01*
X75278254Y-109665005D02*
X75278254Y-110750000D01*
X34757538Y-91172512D02*
X33100000Y-89514974D01*
X72592224Y-95242500D02*
X72767224Y-95067500D01*
X75100000Y-131331396D02*
X75353335Y-131584731D01*
X75103254Y-116623714D02*
X75100000Y-116626969D01*
X75278254Y-110750000D02*
X75103254Y-110925000D01*
X35800000Y-95115000D02*
X35800000Y-94300000D01*
X35800000Y-94300000D02*
X34757538Y-93257538D01*
X75353335Y-132421288D02*
X75700000Y-132767953D01*
X72592224Y-95460579D02*
X72592224Y-95242500D01*
X72115935Y-109546014D02*
X71900000Y-109330079D01*
X75103254Y-110925000D02*
X75103254Y-116623714D01*
X71900000Y-96152802D02*
X72592224Y-95460579D01*
X34625000Y-83955000D02*
X34625000Y-83530000D01*
X75100000Y-116626969D02*
X75100000Y-131331396D01*
X34757538Y-93257538D02*
X34757538Y-91172512D01*
X33100000Y-89514974D02*
X33100000Y-85480000D01*
X75003335Y-131729705D02*
X75003335Y-132835341D01*
X74750000Y-131476370D02*
X75003335Y-131729705D01*
X74750000Y-133088676D02*
X74750000Y-134688555D01*
X74750000Y-134688555D02*
X74829396Y-134767951D01*
X74750000Y-127048534D02*
X74750000Y-131476370D01*
X74373576Y-135223771D02*
X74829396Y-134767951D01*
X75003335Y-132835341D02*
X74750000Y-133088676D01*
X71609690Y-123908224D02*
X74750000Y-127048534D01*
X71802954Y-135223771D02*
X74373576Y-135223771D01*
X248169845Y-90130158D02*
X247440002Y-90860001D01*
X244494845Y-90530316D02*
X247110317Y-90530316D01*
X248169845Y-80483316D02*
X248169845Y-90130158D01*
X247110317Y-90530316D02*
X247440002Y-90860001D01*
X247236845Y-79550316D02*
X248169845Y-80483316D01*
X151935849Y-91435849D02*
X150920849Y-90420849D01*
X150920849Y-78861079D02*
X150920849Y-73636079D01*
X151935849Y-91666079D02*
X151935849Y-91435849D01*
X151935849Y-110435849D02*
X151935849Y-110710725D01*
X150920849Y-116950725D02*
X150920849Y-111725725D01*
X150920849Y-73636079D02*
X151935849Y-72621079D01*
X150920849Y-92681079D02*
X150920849Y-109420849D01*
X150920849Y-111725725D02*
X151935849Y-110710725D01*
X150920849Y-109420849D02*
X151935849Y-110435849D01*
X150920849Y-90420849D02*
X150920849Y-78861079D01*
X151935849Y-91666079D02*
X150920849Y-92681079D01*
X275749682Y-112250000D02*
X276094974Y-112250000D01*
X329850000Y-91203436D02*
X329850000Y-85134026D01*
X271390000Y-81634000D02*
X272405000Y-82649000D01*
X281300000Y-119600000D02*
X287739963Y-126039963D01*
X271390000Y-69820000D02*
X271390000Y-81634000D01*
X276094974Y-112250000D02*
X276144975Y-112300000D01*
X271390000Y-64595000D02*
X272405000Y-63580000D01*
X271390000Y-100635318D02*
X272405000Y-101650318D01*
X271390000Y-107890318D02*
X271390000Y-102665318D01*
X329651718Y-91401718D02*
X329850000Y-91203436D01*
X281300000Y-114976202D02*
X281300000Y-119600000D01*
X271390000Y-95850000D02*
X271390000Y-100635318D01*
X287739963Y-126039963D02*
X288917103Y-126039963D01*
X271390000Y-107890318D02*
X275749682Y-112250000D01*
X287950000Y-130176296D02*
X287950000Y-128650000D01*
X329500000Y-84784026D02*
X329500000Y-82739000D01*
X271390000Y-102665318D02*
X272405000Y-101650318D01*
X271390000Y-69820000D02*
X271390000Y-64595000D01*
X271390000Y-88889000D02*
X271390000Y-95850000D01*
X287950000Y-128650000D02*
X288917103Y-127682897D01*
X329850000Y-85134026D02*
X329500000Y-84784026D01*
X286321657Y-131804639D02*
X287950000Y-130176296D01*
X276144975Y-112300000D02*
X276150000Y-112300000D01*
X280523798Y-114200000D02*
X281300000Y-114976202D01*
X276150000Y-112300000D02*
X278050000Y-114200000D01*
X278050000Y-114200000D02*
X280523798Y-114200000D01*
X271390000Y-83664000D02*
X272405000Y-82649000D01*
X288917103Y-127682897D02*
X288917103Y-126039963D01*
X271390000Y-88889000D02*
X271390000Y-83664000D01*
X329500000Y-82739000D02*
X327751000Y-80990000D01*
X285540002Y-110510001D02*
X286265000Y-109785003D01*
X285120319Y-110090318D02*
X285540002Y-110510001D01*
X282590000Y-110090318D02*
X285120319Y-110090318D01*
X286265000Y-100043318D02*
X285332000Y-99110318D01*
X286265000Y-109785003D02*
X286265000Y-100043318D01*
X34407538Y-92797463D02*
X33707538Y-92097463D01*
X32400000Y-80675000D02*
X34625000Y-78450000D01*
X145989999Y-96625000D02*
X145989999Y-97690005D01*
X32400000Y-89804923D02*
X32400000Y-80675000D01*
X71214999Y-91190005D02*
X71214999Y-94177515D01*
X33707538Y-92097463D02*
X33707538Y-91112461D01*
X34407538Y-93649999D02*
X34407538Y-92797463D01*
X34472539Y-93715000D02*
X34407538Y-93649999D01*
X33707538Y-91112461D02*
X32400000Y-89804923D01*
X71214999Y-94177515D02*
X70287507Y-95105007D01*
X164786080Y-100106079D02*
X164990002Y-100310001D01*
X165795849Y-99504154D02*
X164990002Y-100310001D01*
X164862849Y-89126079D02*
X165795849Y-90059079D01*
X165795849Y-90059079D02*
X165795849Y-99504154D01*
X162120849Y-100106079D02*
X164786080Y-100106079D01*
X112835754Y-64065317D02*
X113850754Y-63050317D01*
X112835754Y-83105316D02*
X113850754Y-82090316D01*
X112835754Y-81075316D02*
X112835754Y-69290317D01*
X112835754Y-88330316D02*
X112835754Y-83105316D01*
X112835754Y-100130318D02*
X113850754Y-101145318D01*
X112835754Y-90032500D02*
X112835754Y-88330316D01*
X113850754Y-82090316D02*
X112835754Y-81075316D01*
X112835754Y-90032500D02*
X112835754Y-100130318D01*
X112835754Y-107385318D02*
X112835754Y-102160318D01*
X112835754Y-69290317D02*
X112835754Y-64065317D01*
X112835754Y-102160318D02*
X113850754Y-101145318D01*
X127710754Y-99538318D02*
X127710754Y-109089249D01*
X127710754Y-109089249D02*
X126990002Y-109810001D01*
X124035754Y-109585318D02*
X126765319Y-109585318D01*
X126765319Y-109585318D02*
X126990002Y-109810001D01*
X126777754Y-98605318D02*
X127710754Y-99538318D01*
X126670318Y-71490317D02*
X126990002Y-71810001D01*
X127710754Y-71089249D02*
X126990002Y-71810001D01*
X126777754Y-60510317D02*
X127710754Y-61443317D01*
X127710754Y-61443317D02*
X127710754Y-71089249D01*
X124035754Y-71490317D02*
X126670318Y-71490317D01*
X210089999Y-90065736D02*
X210089999Y-99560004D01*
X210089999Y-99560004D02*
X209390002Y-100260001D01*
X209236080Y-100106079D02*
X209390002Y-100260001D01*
X206408342Y-100106079D02*
X209236080Y-100106079D01*
X209150342Y-89126079D02*
X210089999Y-90065736D01*
X88769001Y-91089000D02*
X88990002Y-91310001D01*
X89689999Y-81103745D02*
X89689999Y-90610004D01*
X88695254Y-80109000D02*
X89689999Y-81103745D01*
X85953254Y-91089000D02*
X88769001Y-91089000D01*
X89689999Y-90610004D02*
X88990002Y-91310001D01*
X214263945Y-78861079D02*
X214263945Y-73636079D01*
X213825000Y-109260055D02*
X213825000Y-98345024D01*
X213825000Y-82525000D02*
X214263945Y-82086055D01*
X214263945Y-73636079D02*
X215278945Y-72621079D01*
X330267000Y-73309000D02*
X330206000Y-73370000D01*
X214263945Y-82086055D02*
X214263945Y-78861079D01*
X214263945Y-92681079D02*
X215278945Y-91666079D01*
X330206000Y-73370000D02*
X327751000Y-73370000D01*
X214263945Y-111729000D02*
X215278945Y-110714000D01*
X214263945Y-97906079D02*
X214263945Y-92681079D01*
X215278945Y-110714000D02*
X213825000Y-109260055D01*
X213825000Y-98345024D02*
X214263945Y-97906079D01*
X213825000Y-90212134D02*
X213825000Y-82525000D01*
X215278945Y-91666079D02*
X213825000Y-90212134D01*
X214263945Y-116954000D02*
X214263945Y-111729000D01*
X229189999Y-90110133D02*
X229189999Y-99660004D01*
X225463945Y-100106079D02*
X228236080Y-100106079D01*
X228236080Y-100106079D02*
X228490002Y-100360001D01*
X229189999Y-99660004D02*
X228490002Y-100360001D01*
X228205945Y-89126079D02*
X229189999Y-90110133D01*
X310686000Y-82815000D02*
X312511000Y-80990000D01*
X307492513Y-97887486D02*
X307150000Y-97544974D01*
X307150000Y-94505025D02*
X310686000Y-90969026D01*
X307490000Y-107385000D02*
X307490000Y-97889999D01*
X310686000Y-90969026D02*
X310686000Y-82815000D01*
X307665000Y-107560000D02*
X307490000Y-107385000D01*
X307490000Y-97889999D02*
X307492513Y-97887486D01*
X307150000Y-97544974D02*
X307150000Y-94505025D01*
X95130705Y-131779396D02*
X94604214Y-132305887D01*
X93319730Y-121117427D02*
X95130705Y-122928402D01*
X95130705Y-122928402D02*
X95130705Y-131779396D01*
X91545134Y-132294626D02*
X94592953Y-132294626D01*
X94592953Y-132294626D02*
X94604214Y-132305887D01*
X71200000Y-117744974D02*
X71200000Y-119255000D01*
X70855000Y-119600000D02*
X70350000Y-119600000D01*
X72250000Y-108937616D02*
X72640935Y-109328551D01*
X71200000Y-119255000D02*
X70855000Y-119600000D01*
X72300000Y-93857813D02*
X73292224Y-94850037D01*
X72640935Y-109328551D02*
X72640935Y-109763477D01*
X73292224Y-94850037D02*
X73292224Y-95307776D01*
X72150000Y-110600000D02*
X71900000Y-110850000D01*
X72150000Y-110254412D02*
X72150000Y-110600000D01*
X73292224Y-95307776D02*
X72250000Y-96350000D01*
X72250000Y-96350000D02*
X72250000Y-108937616D01*
X71900000Y-110850000D02*
X71900000Y-117044974D01*
X71900000Y-117044974D02*
X71200000Y-117744974D01*
X72640935Y-109763477D02*
X72150000Y-110254412D01*
X72300000Y-92734999D02*
X72300000Y-93857813D01*
X72439999Y-92595000D02*
X72300000Y-92734999D01*
X71550000Y-96007828D02*
X71550000Y-109722542D01*
X71739999Y-71972542D02*
X71739999Y-72407468D01*
X72089999Y-91552443D02*
X71914999Y-91727443D01*
X72050000Y-94688454D02*
X72242224Y-94880678D01*
X72242224Y-94880678D02*
X72242224Y-95315604D01*
X72089999Y-90827568D02*
X72089999Y-91552443D01*
X71550000Y-109722542D02*
X71800000Y-109972542D01*
X71914999Y-94177514D02*
X72050000Y-94312515D01*
X71450000Y-62343000D02*
X71450000Y-71682543D01*
X71550000Y-116900000D02*
X70350000Y-118100000D01*
X71450000Y-71682543D02*
X71739999Y-71972542D01*
X71800000Y-110407468D02*
X71550000Y-110657468D01*
X71482000Y-72665467D02*
X71482000Y-90219569D01*
X71739999Y-72407468D02*
X71482000Y-72665467D01*
X67120002Y-61600000D02*
X70707000Y-61600000D01*
X71550000Y-110657468D02*
X71550000Y-116900000D01*
X72050000Y-94312515D02*
X72050000Y-94688454D01*
X71800000Y-109972542D02*
X71800000Y-110407468D01*
X71482000Y-90219569D02*
X72089999Y-90827568D01*
X70707000Y-61600000D02*
X71450000Y-62343000D01*
X72242224Y-95315604D02*
X71550000Y-96007828D01*
X66009998Y-60489996D02*
X67120002Y-61600000D01*
X71914999Y-91727443D02*
X71914999Y-94177514D01*
X290440000Y-72280000D02*
X290440000Y-84086000D01*
X314027733Y-147662097D02*
X310028717Y-143663081D01*
X290440000Y-84086000D02*
X291454000Y-85100000D01*
X301105026Y-121950000D02*
X309550000Y-130394974D01*
X290440000Y-72280000D02*
X290440000Y-67055000D01*
X324450000Y-94800000D02*
X326700000Y-92550000D01*
X324400000Y-94850000D02*
X324450000Y-94800000D01*
X310373564Y-93600000D02*
X322632537Y-93600000D01*
X296505026Y-120800000D02*
X297655026Y-121950000D01*
X290439000Y-103109317D02*
X291455000Y-104125317D01*
X290440000Y-67055000D02*
X291455000Y-66040000D01*
X308050000Y-95423497D02*
X308050000Y-94626075D01*
X308050291Y-95423788D02*
X308050000Y-95423497D01*
X309150000Y-141789054D02*
X309150000Y-143644315D01*
X308943734Y-140070908D02*
X308943734Y-141582788D01*
X308943734Y-141582788D02*
X309150000Y-141789054D01*
X309550000Y-139464642D02*
X308943734Y-140070908D01*
X329500000Y-89000000D02*
X329500000Y-85279000D01*
X308050291Y-95722452D02*
X308050291Y-95423788D01*
X323882537Y-94850000D02*
X324400000Y-94850000D01*
X290440000Y-117284974D02*
X293955026Y-120800000D01*
X290440000Y-110365317D02*
X290440000Y-117284974D01*
X326700000Y-92550000D02*
X326700000Y-91800000D01*
X293955026Y-120800000D02*
X296505026Y-120800000D01*
X290440000Y-105140317D02*
X291455000Y-104125317D01*
X308518075Y-94158000D02*
X309815564Y-94158000D01*
X310028717Y-143663081D02*
X309131234Y-143663081D01*
X290439000Y-91340000D02*
X290439000Y-86115000D01*
X309150000Y-143644315D02*
X309131234Y-143663081D01*
X329500000Y-85279000D02*
X327751000Y-83530000D01*
X290440000Y-110365317D02*
X290440000Y-105140317D01*
X322632537Y-93600000D02*
X323882537Y-94850000D01*
X309550000Y-130394974D02*
X309550000Y-139464642D01*
X326700000Y-91800000D02*
X329500000Y-89000000D01*
X290439000Y-86115000D02*
X291454000Y-85100000D01*
X308050000Y-94626075D02*
X308518075Y-94158000D01*
X297655026Y-121950000D02*
X301105026Y-121950000D01*
X290439000Y-91340000D02*
X290439000Y-103109317D01*
X309815564Y-94158000D02*
X310373564Y-93600000D01*
X323290906Y-137304695D02*
X323290906Y-136593846D01*
X313395030Y-131197971D02*
X313395030Y-132670214D01*
X321532989Y-139062612D02*
X323290906Y-137304695D01*
X317318662Y-136593846D02*
X323290906Y-136593846D01*
X313395030Y-132670214D02*
X317318662Y-136593846D01*
X304381000Y-82560000D02*
X305314000Y-83493000D01*
X305314000Y-93086003D02*
X304540002Y-93860001D01*
X304220001Y-93540000D02*
X304540002Y-93860001D01*
X305314000Y-83493000D02*
X305314000Y-93086003D01*
X301639000Y-93540000D02*
X304220001Y-93540000D01*
X74753254Y-64595000D02*
X75768254Y-63580000D01*
X75768254Y-82649000D02*
X74753254Y-81634000D01*
X68294150Y-122937844D02*
X65256057Y-122937844D01*
X60415183Y-135997508D02*
X60415183Y-130342045D01*
X75768254Y-101650318D02*
X74753254Y-100635318D01*
X74753254Y-102665318D02*
X75768254Y-101650318D01*
X74753254Y-116478740D02*
X68294150Y-122937844D01*
X74753254Y-100635318D02*
X74753254Y-94800000D01*
X74753254Y-94800000D02*
X74753254Y-88889000D01*
X74753254Y-88889000D02*
X74753254Y-83664000D01*
X74753254Y-81634000D02*
X74753254Y-69820000D01*
X60415183Y-130342045D02*
X59780567Y-129707429D01*
X59780567Y-128413334D02*
X59780567Y-129707429D01*
X74753254Y-83664000D02*
X75768254Y-82649000D01*
X65256057Y-122937844D02*
X59780567Y-128413334D01*
X74753254Y-107890318D02*
X74753254Y-116478740D01*
X74753254Y-69820000D02*
X74753254Y-64595000D01*
X74753254Y-107890318D02*
X74753254Y-102665318D01*
X131866848Y-92681079D02*
X132881848Y-91666079D01*
X132881848Y-72621079D02*
X132881848Y-77846079D01*
X132881848Y-77846079D02*
X131866848Y-78861079D01*
X148066848Y-114779000D02*
X147051848Y-115794000D01*
X131866848Y-78861079D02*
X131866848Y-90651079D01*
X131866848Y-90651079D02*
X132881848Y-91666079D01*
X148066848Y-109554000D02*
X148066848Y-114779000D01*
X131866848Y-97906079D02*
X131866848Y-92681079D01*
X136502847Y-106989999D02*
X136866848Y-107354000D01*
X134124848Y-118334000D02*
X133100000Y-117309152D01*
X133100000Y-107799997D02*
X133909998Y-106989999D01*
X133100000Y-117309152D02*
X133100000Y-107799997D01*
X133909998Y-106989999D02*
X136502847Y-106989999D01*
X42458913Y-131391501D02*
X46129428Y-131391501D01*
X51650000Y-91750000D02*
X52590000Y-91750000D01*
X53000000Y-91340000D02*
X55690000Y-91340000D01*
X55690000Y-91340000D02*
X55690000Y-86115000D01*
X58792278Y-127945027D02*
X59753900Y-127945027D01*
X65111083Y-122587844D02*
X68149176Y-122587844D01*
X55690000Y-110365317D02*
X55690000Y-105140317D01*
X56705000Y-104055000D02*
X55690000Y-103040000D01*
X55690000Y-103040000D02*
X55690000Y-91340000D01*
X68390317Y-114390317D02*
X59715000Y-114390317D01*
X52590000Y-91750000D02*
X53000000Y-91340000D01*
X46129428Y-131391501D02*
X55345804Y-131391501D01*
X55690000Y-83990000D02*
X55690000Y-72280000D01*
X68149176Y-122587844D02*
X69350000Y-121387020D01*
X56705000Y-104125317D02*
X56705000Y-104055000D01*
X69350000Y-121387020D02*
X69350000Y-115350000D01*
X55690000Y-72280000D02*
X55690000Y-67055000D01*
X59753900Y-127945027D02*
X65111083Y-122587844D01*
X40217929Y-133632485D02*
X42458913Y-131391501D01*
X55345804Y-131391501D02*
X58792278Y-127945027D01*
X55690000Y-86115000D02*
X56705000Y-85100000D01*
X59715000Y-114390317D02*
X55690000Y-110365317D01*
X56705000Y-85005000D02*
X55690000Y-83990000D01*
X55690000Y-105140317D02*
X56705000Y-104125317D01*
X56705000Y-85100000D02*
X56705000Y-85005000D01*
X69350000Y-115350000D02*
X68390317Y-114390317D01*
X55690000Y-67055000D02*
X56705000Y-66040000D01*
X66890000Y-93540000D02*
X69720001Y-93540000D01*
X70689999Y-83617999D02*
X70689999Y-93110004D01*
X70689999Y-93110004D02*
X69990002Y-93810001D01*
X69720001Y-93540000D02*
X69990002Y-93810001D01*
X69632000Y-82560000D02*
X70689999Y-83617999D01*
X94813354Y-76090316D02*
X93798354Y-75075316D01*
X93050000Y-102148670D02*
X93050000Y-109900000D01*
X93798354Y-101400316D02*
X93050000Y-102148670D01*
X93798354Y-77105316D02*
X94813354Y-76090316D01*
X93050000Y-109900000D02*
X90650000Y-112300000D01*
X94813354Y-62265317D02*
X94813354Y-57040317D01*
X80663297Y-114186703D02*
X80663297Y-124774424D01*
X90650000Y-112300000D02*
X82550000Y-112300000D01*
X80196011Y-131079142D02*
X80196011Y-125241710D01*
X93798354Y-75075316D02*
X93798354Y-63280317D01*
X80196011Y-125241710D02*
X80663297Y-124774424D01*
X93798354Y-92000000D02*
X93798354Y-82330316D01*
X93798354Y-92000000D02*
X93798354Y-101400316D01*
X93798354Y-82330316D02*
X93798354Y-77105316D01*
X93798354Y-63280317D02*
X94813354Y-62265317D01*
X82550000Y-112300000D02*
X80663297Y-114186703D01*
X108689999Y-84110004D02*
X107990002Y-84810001D01*
X107710317Y-84530316D02*
X107990002Y-84810001D01*
X108689999Y-74499961D02*
X108689999Y-84110004D01*
X104998354Y-84530316D02*
X107710317Y-84530316D01*
X107740354Y-73550316D02*
X108689999Y-74499961D01*
X195208342Y-97906079D02*
X195208342Y-109693725D01*
X328209527Y-71288527D02*
X327751000Y-70830000D01*
X195210342Y-116950725D02*
X195210342Y-111725725D01*
X195208342Y-78861079D02*
X195208342Y-90651079D01*
X329901000Y-71288527D02*
X328209527Y-71288527D01*
X195208342Y-109693725D02*
X196225342Y-110710725D01*
X195208342Y-90651079D02*
X196223342Y-91666079D01*
X195210342Y-111725725D02*
X196225342Y-110710725D01*
X195208342Y-73636079D02*
X196223342Y-72621079D01*
X195208342Y-78861079D02*
X195208342Y-73636079D01*
X195208342Y-97906079D02*
X195208342Y-92681079D01*
X195208342Y-92681079D02*
X196223342Y-91666079D01*
X206410342Y-119150725D02*
X209280726Y-119150725D01*
X210189999Y-118660004D02*
X209490002Y-119360001D01*
X209152342Y-108170725D02*
X210189999Y-109208382D01*
X209280726Y-119150725D02*
X209490002Y-119360001D01*
X210189999Y-109208382D02*
X210189999Y-118660004D01*
X260389529Y-109450000D02*
X252339845Y-101400316D01*
X267624918Y-123539427D02*
X272619345Y-118545000D01*
X252339845Y-63280317D02*
X252339845Y-75075316D01*
X252339845Y-101400316D02*
X252339845Y-96175316D01*
X252339845Y-82330316D02*
X252339845Y-77105316D01*
X324544975Y-95200000D02*
X327050000Y-92694974D01*
X276351777Y-118545000D02*
X277396777Y-117500000D01*
X277900000Y-114550000D02*
X275950000Y-112600000D01*
X272619345Y-118545000D02*
X276351777Y-118545000D01*
X252339845Y-77105316D02*
X253354845Y-76090316D01*
X266069929Y-129667219D02*
X266069929Y-125094416D01*
X327055026Y-91950000D02*
X329845899Y-91950000D01*
X252339845Y-96175316D02*
X253354845Y-95160316D01*
X277396777Y-117500000D02*
X280500000Y-117500000D01*
X310555026Y-93950000D02*
X322487563Y-93950000D01*
X330200000Y-91595899D02*
X330200000Y-84989052D01*
X327050000Y-92694974D02*
X327050000Y-91944974D01*
X308735538Y-94683000D02*
X309822026Y-94683000D01*
X252339845Y-89100000D02*
X252339845Y-94145316D01*
X330200000Y-84989052D02*
X330000000Y-84789051D01*
X252339845Y-75075316D02*
X253354845Y-76090316D01*
X263150000Y-109450000D02*
X260389529Y-109450000D01*
X323737562Y-95200000D02*
X324544975Y-95200000D01*
X266069929Y-125094416D02*
X267624918Y-123539427D01*
X252339845Y-58055317D02*
X253354845Y-57040317D01*
X266300000Y-112600000D02*
X263150000Y-109450000D01*
X280950000Y-117050000D02*
X280950000Y-115121176D01*
X330000000Y-84789051D02*
X330000000Y-80699000D01*
X252339845Y-94145316D02*
X253354845Y-95160316D01*
X329845899Y-91950000D02*
X330200000Y-91595899D01*
X280378824Y-114550000D02*
X277900000Y-114550000D01*
X330000000Y-80699000D02*
X327751000Y-78450000D01*
X309822026Y-94683000D02*
X310555026Y-93950000D01*
X322487563Y-93950000D02*
X323737562Y-95200000D01*
X280500000Y-117500000D02*
X280950000Y-117050000D01*
X252339845Y-63280317D02*
X252339845Y-58055317D01*
X280950000Y-115121176D02*
X280378824Y-114550000D01*
X252339845Y-82330316D02*
X252339845Y-89100000D01*
X327050000Y-91944974D02*
X327055026Y-91950000D01*
X275950000Y-112600000D02*
X266300000Y-112600000D01*
X278247251Y-124612607D02*
X280724103Y-122135755D01*
X279975866Y-133404145D02*
X278247251Y-131675530D01*
X279975866Y-133404145D02*
X279406713Y-132834992D01*
X278247251Y-131675530D02*
X278247251Y-124612607D01*
X279406713Y-132834992D02*
X277035567Y-132834992D01*
X282590000Y-91089000D02*
X285269001Y-91089000D01*
X285332000Y-80109000D02*
X286339999Y-81116999D01*
X286339999Y-90760004D02*
X285640002Y-91460001D01*
X285269001Y-91089000D02*
X285640002Y-91460001D01*
X286339999Y-81116999D02*
X286339999Y-90760004D01*
X263539845Y-65480317D02*
X266360318Y-65480317D01*
X266281845Y-54500317D02*
X267339999Y-55558471D01*
X267339999Y-65060004D02*
X266640002Y-65760001D01*
X266360318Y-65480317D02*
X266640002Y-65760001D01*
X267339999Y-55558471D02*
X267339999Y-65060004D01*
X66890000Y-74480000D02*
X69660001Y-74480000D01*
X69660001Y-74480000D02*
X69990002Y-74810001D01*
X70689999Y-64557999D02*
X70689999Y-74110004D01*
X69632000Y-63500000D02*
X70689999Y-64557999D01*
X70689999Y-74110004D02*
X69990002Y-74810001D01*
X304215317Y-112565317D02*
X304700000Y-113050000D01*
X305399997Y-102603314D02*
X305399997Y-112350003D01*
X301640000Y-112565317D02*
X304215317Y-112565317D01*
X304382000Y-101585317D02*
X305399997Y-102603314D01*
X305399997Y-112350003D02*
X304700000Y-113050000D01*
X266590002Y-103960001D02*
X267289999Y-103260004D01*
X267289999Y-93628470D02*
X266281845Y-92620316D01*
X266230317Y-103600316D02*
X266590002Y-103960001D01*
X267289999Y-103260004D02*
X267289999Y-93628470D01*
X263539845Y-103600316D02*
X266230317Y-103600316D01*
X305439999Y-64557999D02*
X305439999Y-74110004D01*
X301640000Y-74480000D02*
X304410001Y-74480000D01*
X304382000Y-63500000D02*
X305439999Y-64557999D01*
X304410001Y-74480000D02*
X304740002Y-74810001D01*
X305439999Y-74110004D02*
X304740002Y-74810001D01*
X206408342Y-81061079D02*
X209191080Y-81061079D01*
X209150342Y-70081079D02*
X210189999Y-71120736D01*
X210189999Y-71120736D02*
X210189999Y-80660004D01*
X209191080Y-81061079D02*
X209490002Y-81360001D01*
X210189999Y-80660004D02*
X209490002Y-81360001D01*
D50*
X69010002Y-59560002D02*
X67100000Y-57650000D01*
X51915000Y-89459139D02*
X51915000Y-69632893D01*
D51*
X36403721Y-93773721D02*
X42594168Y-93773721D01*
X35522538Y-92892538D02*
X36403721Y-93773721D01*
X42594168Y-93773721D02*
X44537889Y-91830000D01*
X44537889Y-91830000D02*
X44755000Y-91830000D01*
D50*
X65210006Y-58789994D02*
X58080006Y-58789994D01*
X51460000Y-61615000D02*
X51460000Y-60019674D01*
X58080006Y-58789994D02*
X58050000Y-58820000D01*
X51470000Y-69187893D02*
X51470000Y-65162968D01*
D51*
X32625000Y-68340000D02*
X34575000Y-68340000D01*
D50*
X69010002Y-60489999D02*
X69010002Y-59560002D01*
X51470000Y-65162968D02*
X49865000Y-63557968D01*
X52659674Y-58820000D02*
X52750000Y-58820000D01*
X49865000Y-63210000D02*
X51460000Y-61615000D01*
X67100000Y-57650000D02*
X66350000Y-57650000D01*
X50269490Y-90760000D02*
X50614139Y-90760000D01*
X51460000Y-60019674D02*
X52659674Y-58820000D01*
X50614139Y-90760000D02*
X51915000Y-89459139D01*
X49865000Y-63557968D02*
X49865000Y-63210000D01*
X51915000Y-69632893D02*
X51470000Y-69187893D01*
D49*
X34625000Y-65750000D02*
X34625000Y-68290000D01*
D51*
X35522538Y-90610000D02*
X35522538Y-92892538D01*
D50*
X66350000Y-57650000D02*
X65210006Y-58789994D01*
D51*
X34575000Y-68340000D02*
X34625000Y-68290000D01*
D49*
X88695254Y-99110318D02*
X89689999Y-100105063D01*
X88770319Y-110090318D02*
X88990002Y-110310001D01*
X89689999Y-109610004D02*
X88990002Y-110310001D01*
X89689999Y-100105063D02*
X89689999Y-109610004D01*
X85953254Y-110090318D02*
X88770319Y-110090318D01*
X143066848Y-100106079D02*
X145786080Y-100106079D01*
X146741848Y-90059079D02*
X146741848Y-99558155D01*
X146741848Y-99558155D02*
X145990002Y-100310001D01*
X145786080Y-100106079D02*
X145990002Y-100310001D01*
X145808848Y-89126079D02*
X146741848Y-90059079D01*
X126710317Y-90530316D02*
X126990002Y-90810001D01*
X127710754Y-90089249D02*
X126990002Y-90810001D01*
X127710754Y-80483316D02*
X127710754Y-90089249D01*
X124035754Y-90530316D02*
X126710317Y-90530316D01*
X126777754Y-79550316D02*
X127710754Y-80483316D01*
X83725000Y-115450000D02*
X84400000Y-116125000D01*
X81900000Y-115450000D02*
X83725000Y-115450000D01*
X69745318Y-112565317D02*
X69990002Y-112810001D01*
X66890000Y-112565317D02*
X69745318Y-112565317D01*
X70750000Y-112050003D02*
X69990002Y-112810001D01*
X69632000Y-101585317D02*
X70750000Y-102703317D01*
X70750000Y-102703317D02*
X70750000Y-112050003D01*
D50*
X301320000Y-58820000D02*
X304326000Y-58820000D01*
X294900000Y-57850000D02*
X296500000Y-57850000D01*
X310056107Y-58820000D02*
X310826000Y-59589893D01*
X330625000Y-84813012D02*
X330450000Y-84638011D01*
X312150000Y-65750000D02*
X312511000Y-65750000D01*
X296500000Y-57850000D02*
X297150000Y-58500000D01*
X301000000Y-58500000D02*
X301320000Y-58820000D01*
X330450000Y-84638011D02*
X330450000Y-76762692D01*
X310495000Y-68290000D02*
X312511000Y-68290000D01*
X330450000Y-76762692D02*
X331207000Y-76005692D01*
D52*
X324100000Y-94325000D02*
X323975000Y-94325000D01*
X323975000Y-94325000D02*
X322642000Y-92992000D01*
D50*
X294550000Y-60219997D02*
X294550000Y-58200000D01*
X329921940Y-92475000D02*
X330625000Y-91771940D01*
X330625000Y-91771940D02*
X330625000Y-84813012D01*
X327575000Y-92475000D02*
X329921940Y-92475000D01*
X297150000Y-58500000D02*
X301000000Y-58500000D01*
X309626000Y-58820000D02*
X310056107Y-58820000D01*
X331207000Y-75508634D02*
X330867000Y-75168634D01*
X330867000Y-73060471D02*
X330750000Y-72943471D01*
D52*
X322642000Y-92992000D02*
X322642000Y-91975000D01*
D50*
X330867000Y-75134634D02*
X330867000Y-73060471D01*
X331207000Y-76005692D02*
X331207000Y-75508634D01*
X310826000Y-59589893D02*
X310826000Y-64426000D01*
X310826000Y-64426000D02*
X312150000Y-65750000D01*
X330750000Y-72943471D02*
X330750000Y-67900471D01*
X330867000Y-75168634D02*
X330867000Y-75134634D01*
X329450000Y-66600471D02*
X329450000Y-63210000D01*
X294820002Y-60489999D02*
X294550000Y-60219997D01*
X330750000Y-67900471D02*
X329450000Y-66600471D01*
X294550000Y-58200000D02*
X294900000Y-57850000D01*
D49*
X310015000Y-70830000D02*
X312511000Y-70830000D01*
X312341000Y-73200000D02*
X312511000Y-73370000D01*
X313540000Y-91285000D02*
X314325000Y-90500000D01*
X314325000Y-90500000D02*
X316087000Y-90500000D01*
X316087000Y-90500000D02*
X317562000Y-91975000D01*
X310015000Y-73200000D02*
X312341000Y-73200000D01*
D50*
X326518000Y-90350000D02*
X321727000Y-90350000D01*
X321727000Y-90350000D02*
X320102000Y-91975000D01*
X326650000Y-90218000D02*
X326518000Y-90350000D01*
D49*
X162120849Y-81061079D02*
X164741080Y-81061079D01*
X164862849Y-70081079D02*
X165795849Y-71014079D01*
X165795849Y-80504154D02*
X164990002Y-81310001D01*
X165795849Y-71014079D02*
X165795849Y-80504154D01*
X164741080Y-81061079D02*
X164990002Y-81310001D01*
X311036000Y-85005000D02*
X312511000Y-83530000D01*
X307850000Y-107002537D02*
X307850000Y-97750000D01*
X309919030Y-134813526D02*
X309919030Y-130269030D01*
X309919030Y-130269030D02*
X301250000Y-121600000D01*
X310950000Y-136000000D02*
X310950000Y-135844496D01*
X308290000Y-111460000D02*
X308290000Y-107442537D01*
X310950000Y-135844496D02*
X309919030Y-134813526D01*
X297950000Y-115350000D02*
X304400000Y-115350000D01*
X296650000Y-120450000D02*
X294100000Y-120450000D01*
X311036000Y-91114000D02*
X311036000Y-85005000D01*
X307500000Y-94650000D02*
X311036000Y-91114000D01*
X293400000Y-119750000D02*
X293400000Y-117650000D01*
X301250000Y-121600000D02*
X297800000Y-121600000D01*
X304400000Y-115350000D02*
X308290000Y-111460000D01*
X297800000Y-121600000D02*
X296650000Y-120450000D01*
X307500000Y-97400000D02*
X307500000Y-94650000D01*
X296350000Y-116950000D02*
X297950000Y-115350000D01*
X307850000Y-97750000D02*
X307500000Y-97400000D01*
X294100000Y-116950000D02*
X296350000Y-116950000D01*
X293400000Y-117650000D02*
X294100000Y-116950000D01*
X294100000Y-120450000D02*
X293400000Y-119750000D01*
X308290000Y-107442537D02*
X307850000Y-107002537D01*
X297660846Y-137918670D02*
X299373381Y-137918670D01*
X296570625Y-136828449D02*
X297660846Y-137918670D01*
X302061026Y-126932266D02*
X298735190Y-130258102D01*
X298735190Y-130258102D02*
X298735190Y-137280479D01*
X298735190Y-137280479D02*
X299373381Y-137918670D01*
X54792632Y-141316611D02*
X48962901Y-147146342D01*
X43912673Y-144431970D02*
X43912673Y-146198508D01*
X43912673Y-146198508D02*
X44860507Y-147146342D01*
X48962901Y-147146342D02*
X44860507Y-147146342D01*
X32145000Y-70830000D02*
X34625000Y-70830000D01*
X32145000Y-73370000D02*
X34625000Y-73370000D01*
X45630000Y-90310000D02*
X47295000Y-91975000D01*
X38970000Y-90310000D02*
X45630000Y-90310000D01*
X278147000Y-115900000D02*
X277507000Y-116540000D01*
X280050000Y-115900000D02*
X278147000Y-115900000D01*
X85953254Y-72020000D02*
X88700001Y-72020000D01*
X89689999Y-62034745D02*
X89689999Y-71610004D01*
X89689999Y-71610004D02*
X88990002Y-72310001D01*
X88695254Y-61040000D02*
X89689999Y-62034745D01*
X88700001Y-72020000D02*
X88990002Y-72310001D01*
X108689999Y-65110004D02*
X107990002Y-65810001D01*
X108689999Y-55449962D02*
X108689999Y-65110004D01*
X107660318Y-65480317D02*
X107990002Y-65810001D01*
X107740354Y-54500317D02*
X108689999Y-55449962D01*
X104998354Y-65480317D02*
X107660318Y-65480317D01*
X229138945Y-109107000D02*
X229138945Y-118611058D01*
X228184001Y-119154000D02*
X228390002Y-119360001D01*
X228205945Y-108174000D02*
X229138945Y-109107000D01*
X229138945Y-118611058D02*
X228390002Y-119360001D01*
X225463945Y-119154000D02*
X228184001Y-119154000D01*
X34625000Y-63664034D02*
X34625000Y-63210000D01*
X52070000Y-67400000D02*
X51895000Y-67225000D01*
X51895000Y-67225000D02*
X51895000Y-64986927D01*
X51340000Y-64431927D02*
X51340000Y-62462463D01*
X51340000Y-62462463D02*
X52750000Y-61052463D01*
X51895000Y-64986927D02*
X51340000Y-64431927D01*
X52750000Y-61052463D02*
X52750000Y-60520000D01*
X312451000Y-63150000D02*
X312511000Y-63210000D01*
X311574974Y-88610000D02*
X312511000Y-88610000D01*
X327470000Y-88891000D02*
X327751000Y-88610000D01*
X309620000Y-67927563D02*
X310300000Y-67247563D01*
X309850000Y-60744000D02*
X309626000Y-60520000D01*
X328956750Y-66955750D02*
X327751000Y-65750000D01*
X310300000Y-64996015D02*
X310051000Y-64747016D01*
X309986000Y-90679078D02*
X309986000Y-80108500D01*
X306450000Y-94215077D02*
X309986000Y-90679078D01*
X309989652Y-62045000D02*
X309682115Y-61737463D01*
X310051000Y-62106348D02*
X309989652Y-62045000D01*
X309620000Y-69985026D02*
X309620000Y-67927563D01*
X309682115Y-61737463D02*
X309682115Y-61302537D01*
X309986000Y-80108500D02*
X308040000Y-78162500D01*
X309850000Y-61134652D02*
X309850000Y-60744000D01*
X310300000Y-67247563D02*
X310300000Y-64996015D01*
X306450000Y-96145435D02*
X306450000Y-94215077D01*
X306275000Y-96320435D02*
X306450000Y-96145435D01*
X308040000Y-73410000D02*
X309100000Y-72350000D01*
X310051000Y-64747016D02*
X310051000Y-62106348D01*
X309100000Y-72350000D02*
X309100000Y-70505026D01*
X309100000Y-70505026D02*
X309620000Y-69985026D01*
X308040000Y-78162500D02*
X308040000Y-73410000D01*
X309682115Y-61302537D02*
X309850000Y-61134652D01*
G04 #@! TA.AperFunction,Conductor*
G36*
X70909579Y-119386578D02*
G01*
X70912867Y-119388890D01*
X71069603Y-119545626D01*
X71073030Y-119553899D01*
X71069603Y-119562172D01*
X70945033Y-119686742D01*
X70941237Y-119689278D01*
X70860235Y-119722831D01*
X70859516Y-119722831D01*
X70858949Y-119723279D01*
X70855121Y-119722831D01*
X70851281Y-119722831D01*
X70850055Y-119722238D01*
X70841617Y-119717527D01*
X70841525Y-119717475D01*
X70832704Y-119712445D01*
X70826227Y-119708752D01*
X70826226Y-119708752D01*
X70812290Y-119716292D01*
X70801151Y-119740468D01*
X70794577Y-119746548D01*
X70786808Y-119746666D01*
X70383983Y-119611719D01*
X70377227Y-119605842D01*
X70376606Y-119596908D01*
X70382483Y-119590152D01*
X70384333Y-119589420D01*
X70834972Y-119454499D01*
X70843879Y-119455409D01*
X70849534Y-119462351D01*
X70850026Y-119465687D01*
X70850062Y-119486479D01*
X70850063Y-119486479D01*
X70850063Y-119486480D01*
X70854929Y-119475163D01*
X70855066Y-119474858D01*
X70894009Y-119392177D01*
X70900635Y-119386153D01*
X70909579Y-119386578D01*
G37*
G04 #@! TD.AperFunction*
G04 #@! TA.AperFunction,Conductor*
G36*
X58940823Y-58434977D02*
G01*
X58947090Y-58441374D01*
X58947514Y-58442631D01*
X58962512Y-58497050D01*
X58962514Y-58497054D01*
X58996066Y-58545358D01*
X59041595Y-58577686D01*
X59096013Y-58596816D01*
X59219146Y-58606598D01*
X59219149Y-58606598D01*
X59219153Y-58606598D01*
X59268979Y-58602640D01*
X59340736Y-58596940D01*
X59340754Y-58596946D01*
X59340754Y-58596939D01*
X59342335Y-58596816D01*
X59417392Y-58590975D01*
X59425906Y-58593750D01*
X59429965Y-58601732D01*
X59430000Y-58602640D01*
X59430000Y-58978200D01*
X59426573Y-58986473D01*
X59418300Y-58989900D01*
X59418212Y-58989900D01*
X59394762Y-58989713D01*
X59394758Y-58989713D01*
X59394755Y-58989713D01*
X59269642Y-58990566D01*
X59116740Y-59007385D01*
X59020960Y-59040693D01*
X59020958Y-59040694D01*
X58968496Y-59086583D01*
X58968495Y-59086584D01*
X58954814Y-59115666D01*
X58954813Y-59115670D01*
X58954812Y-59115673D01*
X58952072Y-59135217D01*
X58947529Y-59142934D01*
X58938860Y-59145179D01*
X58936144Y-59144457D01*
X58076102Y-58800822D01*
X58069691Y-58794570D01*
X58069578Y-58785616D01*
X58075830Y-58779205D01*
X58076004Y-58779132D01*
X58931870Y-58434885D01*
X58940823Y-58434977D01*
G37*
G04 #@! TD.AperFunction*
G04 #@! TA.AperFunction,Conductor*
G36*
X296541632Y-118864497D02*
G01*
X296541942Y-118864819D01*
X296583981Y-118910199D01*
X296707625Y-119036095D01*
X296707628Y-119036097D01*
X296796470Y-119096019D01*
X296796471Y-119096019D01*
X296796473Y-119096020D01*
X296861970Y-119112129D01*
X296869186Y-119117432D01*
X296870741Y-119121715D01*
X296912133Y-119391423D01*
X296910000Y-119400120D01*
X296902343Y-119404763D01*
X296894996Y-119403486D01*
X296391231Y-119130669D01*
X296385588Y-119123716D01*
X296386515Y-119114809D01*
X296393468Y-119109166D01*
X296395058Y-119108812D01*
X296411363Y-119106372D01*
X296417637Y-119087814D01*
X296371082Y-119043756D01*
X296371071Y-119043747D01*
X296367324Y-119040818D01*
X296362916Y-119033023D01*
X296365311Y-119024395D01*
X296366248Y-119023335D01*
X296525087Y-118864496D01*
X296533359Y-118861070D01*
X296541632Y-118864497D01*
G37*
G04 #@! TD.AperFunction*
G04 #@! TA.AperFunction,Conductor*
G36*
X310521237Y-58985937D02*
G01*
X310528739Y-58990820D01*
X310626000Y-59132629D01*
X310726000Y-59268833D01*
X310825999Y-59395437D01*
X310847775Y-59420916D01*
X310925998Y-59512441D01*
X311007683Y-59600172D01*
X311010813Y-59608562D01*
X311007093Y-59616708D01*
X310999120Y-59619845D01*
X310628230Y-59619845D01*
X310623927Y-59619025D01*
X310476413Y-59560679D01*
X310476395Y-59560673D01*
X310326818Y-59511109D01*
X310326809Y-59511106D01*
X310177213Y-59471138D01*
X310177204Y-59471136D01*
X310177196Y-59471134D01*
X310177190Y-59471133D01*
X310027610Y-59440767D01*
X309884626Y-59420916D01*
X309876903Y-59416384D01*
X309875445Y-59413852D01*
X309634388Y-58839003D01*
X309634349Y-58830048D01*
X309640653Y-58823688D01*
X309647322Y-58822976D01*
X310521237Y-58985937D01*
G37*
G04 #@! TD.AperFunction*
G04 #@! TA.AperFunction,Conductor*
G36*
X52752255Y-60533766D02*
G01*
X52755073Y-60539179D01*
X52880860Y-61112007D01*
X52879287Y-61120822D01*
X52875709Y-61124390D01*
X52831577Y-61152443D01*
X52792380Y-61177359D01*
X52792375Y-61177362D01*
X52792372Y-61177365D01*
X52702146Y-61248818D01*
X52702140Y-61248823D01*
X52611912Y-61334377D01*
X52521670Y-61434045D01*
X52439598Y-61537515D01*
X52431772Y-61541867D01*
X52423161Y-61539410D01*
X52422159Y-61538517D01*
X52256139Y-61372497D01*
X52253789Y-61369127D01*
X52237752Y-61334377D01*
X52223299Y-61303059D01*
X52194508Y-61248823D01*
X52191942Y-61243989D01*
X52191936Y-61243979D01*
X52160568Y-61193767D01*
X52129203Y-61152443D01*
X52106174Y-61128620D01*
X52102889Y-61120292D01*
X52106455Y-61112078D01*
X52106622Y-61111920D01*
X52735726Y-60533076D01*
X52744131Y-60529998D01*
X52752255Y-60533766D01*
G37*
G04 #@! TD.AperFunction*
G04 #@! TA.AperFunction,Conductor*
G36*
X294698318Y-117728091D02*
G01*
X294701889Y-117730841D01*
X294723170Y-117755075D01*
X294769101Y-117765841D01*
X294882518Y-117756775D01*
X294882519Y-117756774D01*
X294882530Y-117756774D01*
X294898245Y-117755075D01*
X294932239Y-117751400D01*
X294940832Y-117753918D01*
X294945128Y-117761774D01*
X294945196Y-117763032D01*
X294945196Y-117986696D01*
X294941769Y-117994969D01*
X294933496Y-117998396D01*
X294932002Y-117998300D01*
X294893562Y-117993349D01*
X294893562Y-117993350D01*
X294814130Y-117983709D01*
X294814128Y-117983709D01*
X294766600Y-117992382D01*
X294766599Y-117992383D01*
X294754068Y-118005065D01*
X294752559Y-118012461D01*
X294747546Y-118019882D01*
X294738755Y-118021585D01*
X294737739Y-118021329D01*
X294284344Y-117885582D01*
X294277402Y-117879927D01*
X294276492Y-117871018D01*
X294282147Y-117864076D01*
X294283976Y-117863282D01*
X294689386Y-117727470D01*
X294698318Y-117728091D01*
G37*
G04 #@! TD.AperFunction*
G04 #@! TA.AperFunction,Conductor*
G36*
X84026633Y-115575502D02*
G01*
X84026943Y-115575824D01*
X84068982Y-115621204D01*
X84192626Y-115747100D01*
X84192629Y-115747102D01*
X84281471Y-115807024D01*
X84281472Y-115807024D01*
X84281474Y-115807025D01*
X84346971Y-115823134D01*
X84354187Y-115828437D01*
X84355742Y-115832720D01*
X84397134Y-116102428D01*
X84395001Y-116111125D01*
X84387344Y-116115768D01*
X84379997Y-116114491D01*
X83876232Y-115841674D01*
X83870589Y-115834721D01*
X83871516Y-115825814D01*
X83878469Y-115820171D01*
X83880059Y-115819817D01*
X83896364Y-115817377D01*
X83902638Y-115798819D01*
X83856083Y-115754761D01*
X83856072Y-115754752D01*
X83852325Y-115751823D01*
X83847917Y-115744028D01*
X83850312Y-115735400D01*
X83851249Y-115734340D01*
X84010088Y-115575501D01*
X84018360Y-115572075D01*
X84026633Y-115575502D01*
G37*
G04 #@! TD.AperFunction*
G04 #@! TA.AperFunction,Conductor*
G36*
X70661308Y-117628522D02*
G01*
X70662018Y-117629176D01*
X70820040Y-117787198D01*
X70820427Y-117788134D01*
X70821289Y-117788672D01*
X70822096Y-117792161D01*
X70823467Y-117795471D01*
X70823078Y-117796408D01*
X70823307Y-117797397D01*
X70821410Y-117800435D01*
X70820040Y-117803744D01*
X70818566Y-117804993D01*
X70798161Y-117819562D01*
X70798105Y-117819602D01*
X70753428Y-117851106D01*
X70730509Y-117880515D01*
X70734153Y-117895159D01*
X70736170Y-117896404D01*
X70741410Y-117903666D01*
X70739980Y-117912506D01*
X70735056Y-117916923D01*
X70369250Y-118091198D01*
X70360307Y-118091662D01*
X70353655Y-118085667D01*
X70352654Y-118078859D01*
X70386708Y-117857533D01*
X70391353Y-117849879D01*
X70395227Y-117848017D01*
X70413090Y-117843206D01*
X70445915Y-117834365D01*
X70445915Y-117834364D01*
X70445917Y-117834364D01*
X70501097Y-117794486D01*
X70598837Y-117684164D01*
X70644820Y-117629884D01*
X70652780Y-117625789D01*
X70661308Y-117628522D01*
G37*
G04 #@! TD.AperFunction*
G04 #@! TA.AperFunction,Conductor*
G36*
X277896590Y-115990192D02*
G01*
X277896912Y-115990502D01*
X278055742Y-116149332D01*
X278059169Y-116157605D01*
X278055742Y-116165878D01*
X278054676Y-116166822D01*
X278050914Y-116169763D01*
X278013670Y-116200743D01*
X278013668Y-116200745D01*
X278004671Y-116220157D01*
X278003003Y-116223756D01*
X278018150Y-116235469D01*
X278023964Y-116236075D01*
X278031835Y-116240342D01*
X278034385Y-116248927D01*
X278030118Y-116256799D01*
X278028320Y-116258000D01*
X277527002Y-116529491D01*
X277518095Y-116530418D01*
X277511142Y-116524775D01*
X277509865Y-116517429D01*
X277551271Y-116247627D01*
X277555914Y-116239971D01*
X277559912Y-116238074D01*
X277629450Y-116220157D01*
X277704837Y-116170103D01*
X277838024Y-116036198D01*
X277880057Y-115990823D01*
X277888192Y-115987084D01*
X277896590Y-115990192D01*
G37*
G04 #@! TD.AperFunction*
G04 #@! TA.AperFunction,Conductor*
G36*
X309851162Y-60531324D02*
G01*
X309851943Y-60531128D01*
X309852210Y-60531168D01*
X309858745Y-60534465D01*
X309859014Y-60534734D01*
X309860778Y-60536995D01*
X310197241Y-61098701D01*
X310198777Y-61102996D01*
X310199024Y-61104661D01*
X310196849Y-61113348D01*
X310190165Y-61117759D01*
X310189318Y-61117961D01*
X310185762Y-61118250D01*
X310053328Y-61108695D01*
X310053273Y-61108691D01*
X310009526Y-61105327D01*
X309997954Y-61104437D01*
X309997953Y-61104437D01*
X309997952Y-61104437D01*
X309997949Y-61104437D01*
X309980369Y-61112503D01*
X309980366Y-61112506D01*
X309975314Y-61133341D01*
X309975068Y-61134209D01*
X309974790Y-61135062D01*
X309974475Y-61135914D01*
X309940218Y-61218616D01*
X309939140Y-61220635D01*
X309937883Y-61222518D01*
X309936425Y-61224295D01*
X309886631Y-61274089D01*
X309886630Y-61274091D01*
X309886408Y-61274423D01*
X309886398Y-61274416D01*
X309885961Y-61275047D01*
X309885045Y-61276240D01*
X309884038Y-61277388D01*
X309780421Y-61381005D01*
X309776629Y-61383540D01*
X309774984Y-61384222D01*
X309766029Y-61384224D01*
X309764377Y-61383540D01*
X309760584Y-61381005D01*
X309605923Y-61226344D01*
X309603389Y-61222554D01*
X309602705Y-61220904D01*
X309602703Y-61211955D01*
X309603030Y-61211163D01*
X309607774Y-61205640D01*
X309725000Y-61134652D01*
X309720865Y-61114309D01*
X309718172Y-61112506D01*
X309716432Y-61111340D01*
X309716429Y-61111337D01*
X309707453Y-61105328D01*
X309707452Y-61105327D01*
X309707451Y-61105327D01*
X309707450Y-61105327D01*
X309707449Y-61105327D01*
X309646770Y-61108688D01*
X309514759Y-61118212D01*
X309510228Y-61117645D01*
X309508633Y-61117115D01*
X309501862Y-61111254D01*
X309500940Y-61103304D01*
X309501142Y-61102455D01*
X309502485Y-61099155D01*
X309838770Y-60537745D01*
X309841827Y-60534371D01*
X309843262Y-60533306D01*
X309847659Y-60532203D01*
X309850472Y-60531038D01*
X309851162Y-60531324D01*
G37*
G04 #@! TD.AperFunction*
G04 #@! TA.AperFunction,Conductor*
G36*
X303439855Y-58465536D02*
G01*
X304299807Y-58809135D01*
X304306218Y-58815387D01*
X304306331Y-58824341D01*
X304300079Y-58830752D01*
X304299807Y-58830865D01*
X303438553Y-59174984D01*
X303429599Y-59174871D01*
X303423347Y-59168460D01*
X303422837Y-59166857D01*
X303412905Y-59125590D01*
X303412905Y-59125588D01*
X303412903Y-59125586D01*
X303412903Y-59125585D01*
X303377134Y-59084993D01*
X303377131Y-59084991D01*
X303323949Y-59056213D01*
X303323946Y-59056212D01*
X303258618Y-59037256D01*
X303196041Y-59030212D01*
X303112610Y-59020822D01*
X303046922Y-59020270D01*
X302981238Y-59019719D01*
X302981235Y-59019719D01*
X302981234Y-59019719D01*
X302971041Y-59019800D01*
X302957792Y-59019905D01*
X302949493Y-59016545D01*
X302946000Y-59008299D01*
X302946000Y-58631793D01*
X302949427Y-58623520D01*
X302957699Y-58620093D01*
X302981238Y-58620281D01*
X303106357Y-58619427D01*
X303259262Y-58602608D01*
X303355040Y-58569300D01*
X303407503Y-58523411D01*
X303421188Y-58494321D01*
X303423928Y-58474774D01*
X303428469Y-58467059D01*
X303437138Y-58464814D01*
X303439855Y-58465536D01*
G37*
G04 #@! TD.AperFunction*
G04 #@! TA.AperFunction,Conductor*
G36*
X52733688Y-58826748D02*
G01*
X52734994Y-58826797D01*
X52735219Y-58826900D01*
X52735457Y-58826823D01*
X52739259Y-58828752D01*
X52743134Y-58830528D01*
X52743443Y-58830875D01*
X52743455Y-58830889D01*
X52746238Y-58837617D01*
X52746293Y-58838341D01*
X52746227Y-58839367D01*
X52746238Y-58839400D01*
X52746223Y-58839429D01*
X52746084Y-58841601D01*
X52627868Y-59412168D01*
X52626087Y-59416371D01*
X52623986Y-59419462D01*
X52619543Y-59423350D01*
X52474322Y-59495968D01*
X52322404Y-59581536D01*
X52170540Y-59676670D01*
X52018610Y-59781446D01*
X51893460Y-59875664D01*
X51892704Y-59876188D01*
X51892693Y-59876195D01*
X51891850Y-59876658D01*
X51891681Y-59876777D01*
X51891338Y-59877120D01*
X51890129Y-59878172D01*
X51889793Y-59878426D01*
X51889774Y-59878440D01*
X51876697Y-59888285D01*
X51872585Y-59890266D01*
X51870401Y-59890830D01*
X51862252Y-59889971D01*
X51861228Y-59889460D01*
X51858179Y-59887264D01*
X51592609Y-59621694D01*
X51590074Y-59617901D01*
X51589191Y-59615771D01*
X51588880Y-59607666D01*
X51589216Y-59606637D01*
X51590892Y-59603368D01*
X51637098Y-59540256D01*
X51690323Y-59457954D01*
X51743549Y-59366053D01*
X51796774Y-59264551D01*
X51846973Y-59159766D01*
X51849636Y-59156181D01*
X51852754Y-59153336D01*
X51856567Y-59151012D01*
X52728709Y-58827453D01*
X52733211Y-58826731D01*
X52733688Y-58826748D01*
G37*
G04 #@! TD.AperFunction*
D53*
X30236000Y-95779543D02*
X30236000Y-57198239D01*
X30236000Y-129669879D02*
X30236000Y-127952333D01*
X30236209Y-57198239D02*
G75*
G02*
X30601169Y-56836427I349791J12139D01*
G01*
X30565688Y-130911791D02*
G75*
G02*
X30236183Y-129669878I1907212J1170691D01*
G01*
X30601170Y-56836406D02*
X35895000Y-56836406D01*
X35895000Y-89882500D02*
X35895000Y-56836406D01*
X44895688Y-155661791D02*
X30565687Y-130911791D01*
X48005688Y-156311791D02*
G75*
G02*
X44895720Y-155661772I-1250688J1780891D01*
G01*
X48005688Y-156311791D02*
X62033662Y-148371408D01*
X48595000Y-89880000D02*
X35895000Y-89882500D01*
X48595000Y-89880000D02*
X48595000Y-56836406D01*
X52719768Y-95779543D02*
X30236000Y-95779543D01*
X52719768Y-95779543D02*
X52719768Y-116290000D01*
X52719768Y-116290000D02*
X66426001Y-116290000D01*
X52719768Y-121296005D02*
X52719768Y-127952333D01*
X52719768Y-121296005D02*
X66426001Y-121296005D01*
X52719768Y-127952333D02*
X30236000Y-127952333D01*
X62033662Y-148371408D02*
G75*
G02*
X114863815Y-135014522I53176388J-99169892D01*
G01*
X66426001Y-121296005D02*
X66426001Y-116296005D01*
X85600000Y-113000000D02*
X85600000Y-118000000D01*
X92141046Y-56836406D02*
X48595000Y-56836406D01*
X92474283Y-50490290D02*
X92474283Y-56510290D01*
X92474283Y-50490325D02*
G75*
G02*
X92600722Y-50366392I119817J4225D01*
G01*
X92474283Y-56510290D02*
G75*
G02*
X92141045Y-56836484I-329783J3590D01*
G01*
X97588354Y-112064291D02*
X132498544Y-112064291D01*
X97588354Y-113000000D02*
X85600000Y-113000000D01*
X97588354Y-113000000D02*
X97588354Y-112064291D01*
X97588354Y-118000000D02*
X85600000Y-118000000D01*
X97588354Y-133070000D02*
X97588354Y-118000000D01*
X111371463Y-50366406D02*
X92600721Y-50366406D01*
X111371463Y-50366406D02*
G75*
G02*
X111497872Y-50500288I2037J-124694D01*
G01*
X111497901Y-50500290D02*
X111497901Y-56034099D01*
X111831138Y-56366406D02*
G75*
G02*
X111497994Y-56034099I-338J332806D01*
G01*
X128088354Y-133070000D02*
X97588354Y-133070000D01*
X129000000Y-135014522D02*
X114863815Y-135014522D01*
X129800000Y-135005000D02*
X142924514Y-133580740D01*
X130296283Y-56366406D02*
X111831138Y-56366406D01*
X130296283Y-56366406D02*
G75*
G02*
X130552251Y-56628817I-1483J-257494D01*
G01*
X130552247Y-56628817D02*
X130552247Y-65423427D01*
X130970457Y-65863500D02*
G75*
G02*
X130552449Y-65423426I12043J430000D01*
G01*
X130970457Y-65863500D02*
X148814394Y-65863500D01*
X132498544Y-112064291D02*
X132498544Y-129050000D01*
X132498542Y-129050000D02*
G75*
G02*
X128088197Y-133069963I-4214342J194300D01*
G01*
X148814219Y-65863500D02*
G75*
G02*
X149081625Y-66150000I-17419J-284300D01*
G01*
X149081638Y-66150000D02*
X149081638Y-73841798D01*
X149081638Y-77420709D02*
X149081638Y-93051789D01*
X149081638Y-77420709D02*
G75*
G02*
X149910282Y-77410291I414362J2009D01*
G01*
X149081638Y-96600291D02*
X149081638Y-111407449D01*
X149081638Y-96600291D02*
G75*
G02*
X149910318Y-96600291I414340J-3178D01*
G01*
X149081638Y-115902655D02*
X149081638Y-122527707D01*
X149081638Y-115902655D02*
G75*
G02*
X149910283Y-115892238I414362J2055D01*
G01*
X149081638Y-122527707D02*
G75*
G02*
X129000002Y-135014533I-28233238J23014107D01*
G01*
X149910267Y-66079982D02*
G75*
G02*
X150114997Y-65863539I204533J11582D01*
G01*
X149910267Y-66150000D02*
X149910267Y-73841798D01*
X149910267Y-73841798D02*
G75*
G02*
X149081639Y-73841798I-414314J3119D01*
G01*
X149910267Y-77420709D02*
X149910267Y-93051789D01*
X149910267Y-93051789D02*
G75*
G02*
X149081639Y-93051789I-414314J3211D01*
G01*
X149910267Y-111407449D02*
G75*
G02*
X149081639Y-111407449I-414314J3170D01*
G01*
X149910318Y-96600291D02*
X149910267Y-111407449D01*
X149910318Y-115902655D02*
X149910318Y-122527707D01*
X149910318Y-122527707D02*
G75*
G02*
X129800000Y-135005000I-28233718J23060707D01*
G01*
X168535559Y-65863500D02*
X150114997Y-65863500D01*
X168535559Y-65863500D02*
G75*
G02*
X168865260Y-66180291I12841J-316600D01*
G01*
X168846932Y-77837358D02*
X168846932Y-110986868D01*
X168846932Y-110986868D02*
X169022618Y-110988698D01*
X168846932Y-115828698D02*
X168865284Y-123230291D01*
X168846932Y-115828698D02*
X169008004Y-115828698D01*
X168865284Y-66180291D02*
X168861643Y-73098698D01*
X168865284Y-123230291D02*
G75*
G02*
X142924525Y-133580722I-27963784J32401991D01*
G01*
X169008004Y-115828698D02*
X169226953Y-115829142D01*
X169022618Y-110988698D02*
X169338183Y-110988698D01*
X169226953Y-115829142D02*
X169475877Y-115857073D01*
X169338181Y-77845728D02*
X168846932Y-77837358D01*
X169343261Y-73095932D02*
X168861643Y-73098698D01*
X169345802Y-110988698D02*
X169569318Y-110969833D01*
X169475877Y-115857073D02*
X169707012Y-115928197D01*
X169559162Y-77866043D02*
X169338181Y-77845728D01*
X169569318Y-110969833D02*
X169780146Y-110903795D01*
X169707012Y-115928197D02*
X169917828Y-116045036D01*
X169772524Y-77932081D02*
X169559162Y-77866043D01*
X169780146Y-110903795D02*
X169975721Y-110799652D01*
X169917828Y-116045036D02*
X170105789Y-116199977D01*
X169968105Y-78033692D02*
X169772524Y-77932081D01*
X169975721Y-110799652D02*
X170145903Y-110657413D01*
X170105789Y-116199977D02*
X170255650Y-116387931D01*
X170140824Y-78175931D02*
X169968105Y-78033692D01*
X170145903Y-110657413D02*
X170288148Y-110484693D01*
X170255650Y-116387931D02*
X170369951Y-116601294D01*
X170283063Y-78346103D02*
X170140824Y-78175931D01*
X170288148Y-110484693D02*
X170392287Y-110289113D01*
X170369951Y-116601294D02*
X170438532Y-116832442D01*
X170387204Y-78541692D02*
X170283063Y-78346103D01*
X170392287Y-110289113D02*
X170455782Y-110078293D01*
X170438532Y-116832442D02*
X170461392Y-117066117D01*
X170453242Y-78752503D02*
X170387204Y-78541692D01*
X170455782Y-110078293D02*
X170476105Y-109854773D01*
X170461392Y-117066117D02*
X170461392Y-121815913D01*
X170461392Y-121815913D02*
X170481711Y-122039432D01*
X170476105Y-78976031D02*
X170453242Y-78752503D01*
X170476105Y-109854773D02*
X170476103Y-78981106D01*
X170481711Y-122039432D02*
X170547752Y-122250253D01*
X170547752Y-122250253D02*
X170651885Y-122448377D01*
X170577703Y-67109161D02*
X170577705Y-71858949D01*
X170577705Y-71858949D02*
G75*
G02*
X169343267Y-73095959I-1546305J308649D01*
G01*
X170598021Y-66885635D02*
X170577703Y-67109161D01*
X170651885Y-122448377D02*
X170791593Y-122618551D01*
X170664062Y-66674816D02*
X170598021Y-66885635D01*
X170768203Y-66476700D02*
X170664062Y-66674816D01*
X170791593Y-122618551D02*
X170961773Y-122760789D01*
X170907901Y-66306523D02*
X170768203Y-66476700D01*
X170961773Y-122760789D02*
X171157349Y-122864933D01*
X171078084Y-66164275D02*
X170907901Y-66306523D01*
X171157349Y-122864933D02*
X171370703Y-122930971D01*
X171273664Y-66060136D02*
X171078084Y-66164275D01*
X171370703Y-122930971D02*
X171589157Y-122939353D01*
X171480342Y-65997118D02*
X171273664Y-66063155D01*
X171484488Y-65997118D02*
X171693827Y-65997117D01*
X171693827Y-65997117D02*
X190720342Y-65997118D01*
X171810135Y-122933990D02*
X171589157Y-122939353D01*
X171810135Y-122933990D02*
X190614758Y-122938679D01*
X190720342Y-65997118D02*
X190932783Y-66062481D01*
X190835744Y-122933316D02*
X190614758Y-122938679D01*
X190932783Y-66062481D02*
X191128363Y-66166620D01*
X191050000Y-122867278D02*
X190836646Y-122933316D01*
X191128363Y-66166620D02*
X191298546Y-66308868D01*
X191244674Y-122763134D02*
X191049098Y-122867278D01*
X191298546Y-66308868D02*
X191438244Y-66479045D01*
X191414854Y-122620896D02*
X191244674Y-122763134D01*
X191438244Y-66479045D02*
X191542385Y-66677161D01*
X191542385Y-66677161D02*
X191600000Y-66860000D01*
X191554562Y-122450722D02*
X191414854Y-122620896D01*
X191600000Y-66860000D02*
X191628744Y-67010000D01*
X191628744Y-67010000D02*
X191628742Y-71861294D01*
X191658695Y-122252598D02*
X191554562Y-122450722D01*
X191724736Y-122041777D02*
X191658695Y-122252598D01*
X191730342Y-78978376D02*
X191753205Y-78754848D01*
X191730342Y-109857118D02*
X191730344Y-78983451D01*
X191745055Y-117068462D02*
X191745055Y-121818258D01*
X191745055Y-117068462D02*
G75*
G02*
X192969335Y-115828709I1260345J-20238D01*
G01*
X191745055Y-121818258D02*
X191724736Y-122041777D01*
X191750665Y-110080638D02*
X191730342Y-109857118D01*
X191753205Y-78754848D02*
X191819243Y-78544037D01*
X191814160Y-110291458D02*
X191750665Y-110080638D01*
X191819243Y-78544037D02*
X191923384Y-78348448D01*
X191918299Y-110487038D02*
X191814160Y-110291458D01*
X191923384Y-78348448D02*
X192065623Y-78178276D01*
X192060544Y-110659758D02*
X191918299Y-110487038D01*
X192065623Y-78178276D02*
X192238342Y-78036037D01*
X192230726Y-110801997D02*
X192060544Y-110659758D01*
X192238342Y-78036037D02*
X192433923Y-77934426D01*
X192426301Y-110906140D02*
X192230726Y-110801997D01*
X192433923Y-77934426D02*
X192647285Y-77868388D01*
X192637129Y-110972178D02*
X192426301Y-110906140D01*
X192647285Y-77868388D02*
X193464716Y-77837358D01*
X192853025Y-73100000D02*
G75*
G02*
X191628807Y-71861284I245875J1467300D01*
G01*
X192853025Y-73100000D02*
X193464716Y-73098698D01*
X192860645Y-110991043D02*
X192637129Y-110972178D01*
X193464716Y-66190501D02*
G75*
G02*
X193750301Y-65863477I299684J26501D01*
G01*
X193464716Y-73098698D02*
X193464716Y-66190501D01*
X193464716Y-110986868D02*
X192868264Y-110991043D01*
X193464716Y-110986868D02*
X193464716Y-77837358D01*
X193464716Y-115828698D02*
X192969335Y-115834023D01*
X193464716Y-123230291D02*
X193464716Y-115828698D01*
X212180342Y-65863500D02*
X193750302Y-65863500D01*
X212180342Y-65863500D02*
G75*
G02*
X212377925Y-66075782I-12042J-209300D01*
G01*
X212375308Y-77420709D02*
G75*
G02*
X213203988Y-77420709I414340J-3173D01*
G01*
X212375308Y-93051789D02*
X212375308Y-77417118D01*
X212375308Y-96600291D02*
G75*
G02*
X213203988Y-96600291I414340J-3152D01*
G01*
X212375308Y-111407449D02*
X212375308Y-96600291D01*
X212375308Y-115902655D02*
G75*
G02*
X213203988Y-115902655I414340J-3109D01*
G01*
X212375308Y-122527707D02*
X212375308Y-115892237D01*
X212379025Y-73841798D02*
X212378075Y-66066114D01*
X213203988Y-66160000D02*
G75*
G02*
X213471336Y-65863518I287312J9700D01*
G01*
X213203988Y-73841798D02*
G75*
G02*
X212379026Y-73841798I-412481J3046D01*
G01*
X213203988Y-73841798D02*
X213203988Y-66160000D01*
X213203988Y-93051789D02*
G75*
G02*
X212375308Y-93051789I-414340J3238D01*
G01*
X213203988Y-93051789D02*
X213203988Y-77427536D01*
X213203988Y-111407449D02*
G75*
G02*
X212375308Y-111407449I-414340J3198D01*
G01*
X213203988Y-111407449D02*
X213203988Y-96600291D01*
X213203988Y-122527707D02*
X213203988Y-115902655D01*
X213471232Y-65863500D02*
X231442994Y-65863500D01*
X219355770Y-133580740D02*
X232570042Y-135005000D01*
X219361100Y-133580740D02*
G75*
G02*
X193464703Y-123230307I2045200J42688140D01*
G01*
X229823354Y-129050000D02*
X229823354Y-112064291D01*
X229824810Y-112064291D02*
X264735000Y-112064291D01*
X231764208Y-56635644D02*
G75*
G02*
X232029349Y-56366382I265492J3744D01*
G01*
X231764208Y-65545626D02*
G75*
G02*
X231442994Y-65863505I-319308J1426D01*
G01*
X231764208Y-65545626D02*
X231764208Y-56635644D01*
X232570042Y-135005000D02*
G75*
G02*
X212375290Y-122527722I8081158J35661000D01*
G01*
X233370042Y-135014522D02*
G75*
G02*
X213203979Y-122527714I8109358J35623922D01*
G01*
X233740000Y-133070000D02*
G75*
G02*
X229823400Y-129050001I51700J3968300D01*
G01*
X247506227Y-135014522D02*
X233370042Y-135014522D01*
X247506227Y-135022114D02*
G75*
G02*
X300298871Y-148371428I-418127J-112717986D01*
G01*
X250494494Y-56366406D02*
X232029349Y-56366406D01*
X250827731Y-50507117D02*
G75*
G02*
X250954169Y-50366412I127469J12617D01*
G01*
X250827731Y-56040926D02*
G75*
G02*
X250494494Y-56366432I-329431J3926D01*
G01*
X250827731Y-56040926D02*
X250827731Y-50507117D01*
X264735168Y-112064291D02*
X264740000Y-133070000D01*
X264740000Y-133070000D02*
X233740000Y-133070000D01*
X264800000Y-113420000D02*
X276300000Y-113420000D01*
X264800000Y-118420000D02*
X276300000Y-118420000D01*
X269724911Y-50366406D02*
X250954169Y-50366406D01*
X269724911Y-50366406D02*
G75*
G02*
X269851412Y-50497156I3489J-123194D01*
G01*
X269851349Y-56517117D02*
X269851349Y-50497117D01*
X270184586Y-56836406D02*
G75*
G02*
X269851397Y-56517116I-6886J326306D01*
G01*
X276300000Y-118420000D02*
X276300000Y-113420000D01*
X298100000Y-116290000D02*
X298100000Y-121296005D01*
X300291970Y-148371408D02*
X314319820Y-156305075D01*
X309600000Y-116290000D02*
X298100000Y-116290000D01*
X309600000Y-121296005D02*
X298100000Y-121296005D01*
X309606448Y-127952333D02*
X309606448Y-95779543D01*
X313731425Y-56836406D02*
X270184586Y-56836406D01*
X313731425Y-56836406D02*
X313731425Y-89879710D01*
X317430736Y-155661791D02*
G75*
G02*
X314321675Y-156311846I-1857936J1126091D01*
G01*
X326431425Y-56836406D02*
X326431425Y-89882210D01*
X326431425Y-56836406D02*
X331725255Y-56836406D01*
X326431425Y-89882210D02*
X313731425Y-89879710D01*
X331725255Y-56836406D02*
G75*
G02*
X332090211Y-57198239I15145J-349694D01*
G01*
X331760738Y-130911791D02*
X317430737Y-155661791D01*
X332090000Y-127952333D02*
X309606448Y-127952333D01*
X332090216Y-57198239D02*
X332090216Y-95779543D01*
X332090216Y-95779543D02*
X309606448Y-95779543D01*
X332090216Y-127952333D02*
X332090216Y-129669879D01*
X332090216Y-129669879D02*
G75*
G02*
X331760728Y-130911785I-2236416J-71321D01*
G01*
M02*
