%TF.GenerationSoftware,KiCad,Pcbnew,8.0.3*%
%TF.CreationDate,2025-10-03T16:37:21+08:00*%
%TF.ProjectId,xavien-gateron-millmax,78617669-656e-42d6-9761-7465726f6e2d,rev?*%
%TF.SameCoordinates,Original*%
%TF.FileFunction,Drillmap*%
%TF.FilePolarity,Positive*%
%FSLAX45Y45*%
G04 Gerber Fmt 4.5, Leading zero omitted, Abs format (unit mm)*
G04 Created by KiCad (PCBNEW 8.0.3) date 2025-10-03 16:37:21*
%MOMM*%
%LPD*%
G01*
G04 APERTURE LIST*
%ADD10C,0.050000*%
%ADD11C,0.100000*%
%ADD12C,0.200000*%
%ADD13C,0.150000*%
%ADD14C,0.180000*%
%ADD15C,0.210000*%
G04 APERTURE END LIST*
D10*
X29588000Y-11629000D02*
X29588000Y-12129600D01*
X17181014Y-12293399D02*
X17158916Y-12293935D01*
X21320399Y-7384180D02*
X21320399Y-6616000D01*
X21218034Y-6586350D02*
X19375030Y-6586350D01*
X16884693Y-11582870D02*
X16900800Y-11582870D01*
X30960645Y-12795233D02*
X30960645Y-9577954D01*
X21237531Y-9305179D02*
X21237531Y-7741712D01*
X17065189Y-12244838D02*
X17079159Y-12261855D01*
X28652300Y-11842000D02*
X28652300Y-11342000D01*
X19175067Y-11008064D02*
X19173034Y-10985712D01*
X23176421Y-5663564D02*
G75*
G02*
X23202935Y-5636638I26549J374D01*
G01*
X27502300Y-11842000D02*
G75*
G02*
X27452300Y-11792000I0J50000D01*
G01*
X14991032Y-9660029D02*
X14991027Y-11140745D01*
X17028815Y-11048469D02*
X17039229Y-11028911D01*
X14908164Y-6615000D02*
X14908164Y-7384180D01*
X19346472Y-6619050D02*
G75*
G02*
X19375030Y-6586348I29968J2650D01*
G01*
X19346472Y-7309870D02*
X19346472Y-6619050D01*
X19206562Y-7817828D02*
X19223834Y-7803604D01*
X23337004Y-13501452D02*
G75*
G02*
X21320398Y-12252771I810936J3562392D01*
G01*
X19154239Y-6667716D02*
X19160000Y-6686000D01*
X31743074Y-15566179D02*
G75*
G02*
X31432167Y-15631185I-185794J112609D01*
G01*
X19173034Y-10985712D02*
X19173034Y-7898345D01*
X9758835Y-13307000D02*
X9758835Y-11206429D01*
X6642600Y-12129600D02*
X6642600Y-11629600D01*
X9247428Y-5651029D02*
G75*
G02*
X9214105Y-5683648I-32978J359D01*
G01*
X32643142Y-8988221D02*
X31373142Y-8987971D01*
X19264729Y-7786839D02*
X19346472Y-7783736D01*
X14881422Y-6586350D02*
G75*
G02*
X14908162Y-6615000I-1742J-28430D01*
G01*
X16886528Y-6618029D02*
X16886164Y-7309870D01*
X21320399Y-7384180D02*
G75*
G02*
X21237903Y-7384180I-41248J305D01*
G01*
X21237531Y-12252771D02*
X21237531Y-11589224D01*
X13249854Y-11206429D02*
X13249854Y-12905000D01*
X21237531Y-9660029D02*
G75*
G02*
X21320399Y-9660029I41434J-315D01*
G01*
X13097046Y-6586350D02*
G75*
G02*
X13055245Y-6542343I1204J43000D01*
G01*
X16956932Y-11096983D02*
X16978015Y-11090380D01*
X5492600Y-12129600D02*
X6642600Y-12129600D01*
X19175321Y-7875485D02*
X19181924Y-7854404D01*
X13097046Y-6586350D02*
X14881439Y-6586350D01*
X14991032Y-12252771D02*
G75*
G02*
X12980000Y-13500500I-2823372J2306071D01*
G01*
X13029628Y-5636641D02*
G75*
G02*
X13055225Y-5662882I-148J-25749D01*
G01*
X17127366Y-6606014D02*
X17107808Y-6616427D01*
X26474000Y-13307000D02*
X23374000Y-13307000D01*
X16996811Y-7803369D02*
X16977252Y-7793208D01*
X19105000Y-12286728D02*
X19083665Y-12293332D01*
X4800569Y-15631179D02*
X6203366Y-14837141D01*
X23176421Y-6554563D02*
G75*
G02*
X23144299Y-6586350I-31931J143D01*
G01*
X7580750Y-11342000D02*
X7580750Y-11842000D01*
X17054775Y-12225025D02*
X17065189Y-12244838D01*
X19141485Y-12262090D02*
X19124467Y-12276313D01*
X19223073Y-11080200D02*
X19206054Y-11065976D01*
X19206054Y-11065976D02*
X19191830Y-11048704D01*
X19285303Y-7310000D02*
G75*
G02*
X19162881Y-7186128I24588J146730D01*
G01*
X17148449Y-6599712D02*
X17169383Y-6599712D01*
X25082773Y-5050712D02*
G75*
G02*
X25095417Y-5036641I12747J1262D01*
G01*
X30788000Y-12079000D02*
G75*
G02*
X30738000Y-12129600I-50300J-300D01*
G01*
X3023600Y-9577954D02*
X3023600Y-5719824D01*
X24750623Y-13501452D02*
X23337004Y-13501452D01*
X33209022Y-12966988D02*
G75*
G02*
X33176073Y-13091178I-223642J-7132D01*
G01*
X17181014Y-12293399D02*
X19061476Y-12293868D01*
X16934580Y-11098870D02*
X16956932Y-11096983D01*
X16947588Y-11585707D02*
X16970701Y-11592820D01*
X19083574Y-12293332D02*
X19061476Y-12293868D01*
X19174506Y-11706846D02*
G75*
G02*
X19296934Y-11582871I126035J-2024D01*
G01*
X9758835Y-11206429D02*
X13249854Y-11206429D01*
X30788000Y-12079000D02*
X30788000Y-11679000D01*
X17057771Y-7185895D02*
G75*
G02*
X16934327Y-7309596I-154631J30865D01*
G01*
X22982335Y-12905000D02*
X22982335Y-11206429D01*
X16970701Y-11592820D02*
X16991783Y-11604504D01*
X14908164Y-12252771D02*
G75*
G02*
X12900000Y-13501453I-2823324J2301411D01*
G01*
X16884693Y-11098687D02*
X16902262Y-11098870D01*
X21320399Y-6616000D02*
G75*
G02*
X21347134Y-6586352I28731J970D01*
G01*
X14991027Y-6615000D02*
X14991027Y-7384180D01*
X21320399Y-11140745D02*
X21320399Y-9660029D01*
X4489569Y-15566179D02*
X3056569Y-13091179D01*
X8780750Y-11792000D02*
G75*
G02*
X8730750Y-11842000I-50000J0D01*
G01*
X16978015Y-11090380D02*
X16997572Y-11079965D01*
X17096177Y-12276079D02*
X17115735Y-12286493D01*
X9214105Y-5683641D02*
X4859500Y-5683641D01*
X27018459Y-5683641D02*
G75*
G02*
X26985140Y-5651712I-689J32631D01*
G01*
X17014082Y-7817593D02*
X16996811Y-7803369D01*
X17137070Y-12293097D02*
X17158916Y-12293935D01*
X17036995Y-11660129D02*
X17043853Y-11683244D01*
X30738000Y-11629000D02*
X29588000Y-11629000D01*
X19174506Y-11706846D02*
X19174506Y-12181826D01*
X5271977Y-9577954D02*
X5271977Y-12795233D01*
X16933818Y-7784573D02*
X16884693Y-7783736D01*
X19346472Y-11098687D02*
X19286826Y-11099104D01*
X21320399Y-9305179D02*
X21320399Y-7742754D01*
X17038720Y-7854169D02*
X17028306Y-7834610D01*
X19346472Y-12323029D02*
X19346472Y-11582870D01*
X14991027Y-9305179D02*
G75*
G02*
X14908164Y-9305179I-41431J321D01*
G01*
X17028306Y-7834610D02*
X17014082Y-7817593D01*
X17025565Y-11638793D02*
X17036995Y-11660129D01*
X13055225Y-5662882D02*
X13055225Y-6542343D01*
X19173034Y-7897838D02*
X19175321Y-7875485D01*
X17107808Y-6616427D02*
X17090790Y-6630652D01*
X14908164Y-7742071D02*
G75*
G02*
X14991028Y-7741029I41436J201D01*
G01*
X11137146Y-5036641D02*
G75*
G02*
X11149787Y-5050029I204J-12469D01*
G01*
X19286065Y-11099104D02*
X19263713Y-11097218D01*
X16922695Y-11582914D02*
X16947588Y-11585707D01*
X19181416Y-11029146D02*
X19175067Y-11008064D01*
X16902262Y-11098870D02*
X16933818Y-11098870D01*
X27502300Y-11342000D02*
X28652300Y-11342000D01*
X19129855Y-6630887D02*
X19143824Y-6647904D01*
X19285303Y-7310000D02*
X19346472Y-7309870D01*
X5492600Y-12129600D02*
G75*
G02*
X5442600Y-12079600I0J50001D01*
G01*
X17047611Y-7897603D02*
X17045324Y-7875250D01*
X16853556Y-6586350D02*
X15011500Y-6586350D01*
X14991032Y-11590265D02*
X14991032Y-12252771D01*
X13029628Y-5636641D02*
X11183114Y-5636641D01*
X19160000Y-6686000D02*
X19162874Y-6701000D01*
X19143824Y-6647904D02*
X19154239Y-6667716D01*
X26972491Y-5036641D02*
X25095417Y-5036641D01*
X11149790Y-5050029D02*
X11149790Y-5603410D01*
X12808835Y-13307000D02*
X9758835Y-13307000D01*
X14908164Y-11590265D02*
X14908164Y-12252771D01*
X30738000Y-12129600D02*
X29588000Y-12129600D01*
X21237531Y-11140745D02*
X21237531Y-9660029D01*
X25082773Y-5604093D02*
G75*
G02*
X25049449Y-5636643I-32943J393D01*
G01*
X19093278Y-6606248D02*
X19112836Y-6616662D01*
X21320399Y-9305179D02*
G75*
G02*
X21237531Y-9305179I-41434J324D01*
G01*
X26985135Y-5651712D02*
X26985135Y-5049712D01*
X23176421Y-6554563D02*
X23176421Y-5663564D01*
X21218034Y-6586350D02*
G75*
G02*
X21237793Y-6607578I-1204J-20930D01*
G01*
X14991027Y-11140745D02*
G75*
G02*
X14908164Y-11140745I-41431J317D01*
G01*
X16853556Y-6586350D02*
G75*
G02*
X16886526Y-6618029I1284J-31660D01*
G01*
X19174506Y-12181826D02*
X19172474Y-12204178D01*
X19172474Y-12204178D02*
X19165870Y-12225260D01*
X11137146Y-5036641D02*
X9260072Y-5036641D01*
X32643142Y-5683641D02*
X32643142Y-8988221D01*
X14908164Y-11590265D02*
G75*
G02*
X14991028Y-11589224I41436J206D01*
G01*
X16977252Y-7793208D02*
X16955916Y-7786604D01*
X17039229Y-11028911D02*
X17045578Y-11007829D01*
X19192338Y-7834845D02*
X19206562Y-7817828D01*
X17090790Y-6630652D02*
X17076820Y-6647670D01*
X8730750Y-11342000D02*
X7580750Y-11342000D01*
X19124467Y-12276313D02*
X19104910Y-12286728D01*
X25049449Y-5636641D02*
X23202935Y-5636641D01*
X30738000Y-11629000D02*
G75*
G02*
X30788000Y-11679000I0J-50000D01*
G01*
X17043853Y-11683244D02*
X17046139Y-11706612D01*
X21320399Y-11140745D02*
G75*
G02*
X21237531Y-11140745I-41434J320D01*
G01*
X19346472Y-11098687D02*
X19346472Y-7783736D01*
X21936110Y-13358074D02*
G75*
G02*
X19346470Y-12323031I204520J4268814D01*
G01*
X17115735Y-12286493D02*
X17137070Y-12293097D01*
X19242630Y-11090614D02*
X19223073Y-11080200D01*
X12980000Y-13500500D02*
X14292451Y-13358074D01*
X16884693Y-7783736D02*
X16884693Y-11098687D01*
X19181924Y-7854404D02*
X19192338Y-7834845D01*
X21237531Y-7742071D02*
G75*
G02*
X21320399Y-7742071I41434J-317D01*
G01*
X27452300Y-11392000D02*
G75*
G02*
X27502300Y-11342000I50000J0D01*
G01*
X16886528Y-12323029D02*
G75*
G02*
X14292452Y-13358072I-2796378J3240199D01*
G01*
X21935577Y-13358074D02*
X23257004Y-13500500D01*
X16934326Y-7309593D02*
X16886164Y-7309870D01*
X23374000Y-13307000D02*
G75*
G02*
X22982340Y-12905000I5170J396830D01*
G01*
X17014590Y-11065741D02*
X17028815Y-11048469D01*
X5271977Y-12795233D02*
X3023600Y-12795233D01*
X14908164Y-9660029D02*
G75*
G02*
X14991032Y-9660029I41434J-318D01*
G01*
X17057770Y-6710916D02*
X17057771Y-7185895D01*
X32643142Y-5683641D02*
X33172525Y-5683641D01*
X19346472Y-11582870D02*
X19296934Y-11583402D01*
X19165870Y-12225260D02*
X19155456Y-12245072D01*
X17079159Y-12261855D02*
X17096177Y-12276079D01*
X19243392Y-7793443D02*
X19264729Y-7786839D01*
X16955916Y-7786604D02*
X16933818Y-7784573D01*
X3060117Y-5683641D02*
X3589500Y-5683641D01*
X9247428Y-5049029D02*
X9247428Y-5651029D01*
X19162874Y-6701000D02*
X19162874Y-7186129D01*
X27452300Y-11392000D02*
X27452300Y-11792000D01*
X12900000Y-13501452D02*
X11486381Y-13501452D01*
X17059802Y-6688563D02*
X17057770Y-6710916D01*
X17148034Y-6599712D02*
X17127366Y-6606315D01*
X14991027Y-7384180D02*
G75*
G02*
X14908164Y-7384180I-41431J312D01*
G01*
X19155456Y-12245072D02*
X19141485Y-12262090D01*
X19072034Y-6599712D02*
X19093278Y-6606248D01*
X33209022Y-9577954D02*
X30960645Y-9577954D01*
X5271977Y-9577954D02*
X3023600Y-9577954D01*
X16884693Y-11582870D02*
X16886528Y-12323029D01*
X17045324Y-7875250D02*
X17038720Y-7854169D01*
X26972491Y-5036641D02*
G75*
G02*
X26985141Y-5049716I349J-12319D01*
G01*
X33209022Y-12795233D02*
X33209022Y-12966988D01*
X6203366Y-14837141D02*
G75*
G02*
X11486381Y-13501452I5317639J-9916989D01*
G01*
X17048171Y-12203943D02*
X17054775Y-12225025D01*
X3023600Y-12966988D02*
X3023600Y-12795233D01*
X8780750Y-11792000D02*
X8780750Y-11392000D01*
X19223834Y-7803604D02*
X19243392Y-7793443D01*
X17169383Y-6599712D02*
X19072034Y-6599712D01*
X13249854Y-12905000D02*
G75*
G02*
X12808820Y-13306996I-421434J19430D01*
G01*
X9247428Y-5049033D02*
G75*
G02*
X9260072Y-5036639I11982J423D01*
G01*
X31373142Y-5683641D02*
X31373142Y-8987971D01*
X33209022Y-5719824D02*
X33209022Y-9577954D01*
X26473517Y-11206429D02*
X26474000Y-13307000D01*
X30029197Y-14837141D02*
X31431982Y-15630507D01*
X17045578Y-11007829D02*
X17047611Y-10985477D01*
X33176074Y-13091179D02*
X31743074Y-15566179D01*
X23257004Y-13500500D02*
G75*
G02*
X21237529Y-12252772I808116J3566100D01*
G01*
X21237531Y-11590265D02*
G75*
G02*
X21320399Y-11590265I41434J-311D01*
G01*
X5492600Y-11629000D02*
X6642600Y-11629000D01*
X4800569Y-15631179D02*
G75*
G02*
X4489572Y-15566177I-125069J178089D01*
G01*
X31373142Y-5683641D02*
X27018459Y-5683641D01*
X4859500Y-8988000D02*
X3589500Y-8988250D01*
X14991027Y-6607998D02*
G75*
G02*
X15011500Y-6586354I20453J1158D01*
G01*
X17047611Y-10985477D02*
X17047610Y-7898111D01*
X16991783Y-11604504D02*
X17010579Y-11619998D01*
X25082773Y-5604093D02*
X25082773Y-5050712D01*
X19112836Y-6616662D02*
X19129855Y-6630887D01*
X17010579Y-11619998D02*
X17025565Y-11638793D01*
X4859500Y-8988000D02*
X4859500Y-5683641D01*
X14908164Y-7742071D02*
X14908164Y-9305179D01*
X19263713Y-11097218D02*
X19242630Y-11090614D01*
X3589500Y-8988250D02*
X3589500Y-5683641D01*
X11183114Y-5636641D02*
G75*
G02*
X11149799Y-5603410I-34J33281D01*
G01*
X16900800Y-11582870D02*
X16922695Y-11582914D01*
X17046139Y-11706612D02*
X17046139Y-12181591D01*
X17076820Y-6647670D02*
X17066406Y-6667482D01*
X14991027Y-7742071D02*
X14991027Y-9305179D01*
X19191830Y-11048704D02*
X19181416Y-11029146D01*
X16997572Y-11079965D02*
X17014590Y-11065741D01*
X22982481Y-11206429D02*
X26473500Y-11206429D01*
X5442600Y-11679600D02*
G75*
G02*
X5492600Y-11629600I50000J1D01*
G01*
X17046139Y-12181591D02*
X17048171Y-12203943D01*
X21347123Y-6586350D02*
X23144299Y-6586350D01*
X14908164Y-9660029D02*
X14908164Y-11140745D01*
X8730750Y-11342000D02*
G75*
G02*
X8780750Y-11392000I0J-50000D01*
G01*
X3056569Y-13091179D02*
G75*
G02*
X3023618Y-12966988I190721J117069D01*
G01*
X17066406Y-6667482D02*
X17059802Y-6688563D01*
X8730750Y-11842000D02*
X7580750Y-11842000D01*
X33209000Y-12795233D02*
X30960645Y-12795233D01*
X5442600Y-11679600D02*
X5442600Y-12079600D01*
X3023621Y-5719824D02*
G75*
G02*
X3060117Y-5683643I34979J1214D01*
G01*
X21320399Y-12252771D02*
X21320399Y-11590265D01*
X24750623Y-13502211D02*
G75*
G02*
X30029887Y-14837143I-41813J-11271799D01*
G01*
X33172525Y-5683641D02*
G75*
G02*
X33209021Y-5719824I1515J-34969D01*
G01*
X27502300Y-11842000D02*
X28652300Y-11842000D01*
X21237903Y-7384180D02*
X21237808Y-6606611D01*
D11*
X7696854Y-7727429D02*
G75*
G02*
X6976854Y-7727429I-360000J0D01*
G01*
X6976854Y-7727429D02*
G75*
G02*
X7696854Y-7727429I360000J0D01*
G01*
X29255460Y-7728460D02*
G75*
G02*
X28535461Y-7728460I-360000J0D01*
G01*
X28535461Y-7728460D02*
G75*
G02*
X29255460Y-7728460I360000J0D01*
G01*
D12*
D11*
X4362760Y-9320760D02*
X4393240Y-9351240D01*
X4393240Y-9320760D02*
X4362760Y-9351240D01*
X3164500Y-7591000D02*
G75*
G02*
X3124500Y-7591000I-20000J0D01*
G01*
X3124500Y-7591000D02*
G75*
G02*
X3164500Y-7591000I20000J0D01*
G01*
X3234500Y-7083000D02*
G75*
G02*
X3194500Y-7083000I-20000J0D01*
G01*
X3194500Y-7083000D02*
G75*
G02*
X3234500Y-7083000I20000J0D01*
G01*
X3234500Y-7337000D02*
G75*
G02*
X3194500Y-7337000I-20000J0D01*
G01*
X3194500Y-7337000D02*
G75*
G02*
X3234500Y-7337000I20000J0D01*
G01*
X3282500Y-6834000D02*
G75*
G02*
X3242500Y-6834000I-20000J0D01*
G01*
X3242500Y-6834000D02*
G75*
G02*
X3282500Y-6834000I20000J0D01*
G01*
X3443254Y-9186000D02*
G75*
G02*
X3403254Y-9186000I-20000J0D01*
G01*
X3403254Y-9186000D02*
G75*
G02*
X3443254Y-9186000I20000J0D01*
G01*
X3467254Y-9371500D02*
G75*
G02*
X3427254Y-9371500I-20000J0D01*
G01*
X3427254Y-9371500D02*
G75*
G02*
X3467254Y-9371500I20000J0D01*
G01*
X3572254Y-9061000D02*
G75*
G02*
X3532254Y-9061000I-20000J0D01*
G01*
X3532254Y-9061000D02*
G75*
G02*
X3572254Y-9061000I20000J0D01*
G01*
X3917000Y-9031000D02*
G75*
G02*
X3877000Y-9031000I-20000J0D01*
G01*
X3877000Y-9031000D02*
G75*
G02*
X3917000Y-9031000I20000J0D01*
G01*
X4920028Y-9331028D02*
G75*
G02*
X4880028Y-9331028I-20000J0D01*
G01*
X4880028Y-9331028D02*
G75*
G02*
X4920028Y-9331028I20000J0D01*
G01*
X5046949Y-9076000D02*
G75*
G02*
X5006949Y-9076000I-20000J0D01*
G01*
X5006949Y-9076000D02*
G75*
G02*
X5046949Y-9076000I20000J0D01*
G01*
X5059000Y-14531000D02*
G75*
G02*
X5019000Y-14531000I-20000J0D01*
G01*
X5019000Y-14531000D02*
G75*
G02*
X5059000Y-14531000I20000J0D01*
G01*
X5064243Y-9146944D02*
G75*
G02*
X5024243Y-9146944I-20000J0D01*
G01*
X5024243Y-9146944D02*
G75*
G02*
X5064243Y-9146944I20000J0D01*
G01*
X5227000Y-6740000D02*
G75*
G02*
X5187000Y-6740000I-20000J0D01*
G01*
X5187000Y-6740000D02*
G75*
G02*
X5227000Y-6740000I20000J0D01*
G01*
X5312000Y-9126000D02*
G75*
G02*
X5272000Y-9126000I-20000J0D01*
G01*
X5272000Y-9126000D02*
G75*
G02*
X5312000Y-9126000I20000J0D01*
G01*
X5604000Y-7127999D02*
G75*
G02*
X5564000Y-7127999I-20000J0D01*
G01*
X5564000Y-7127999D02*
G75*
G02*
X5604000Y-7127999I20000J0D01*
G01*
X5690000Y-8701000D02*
G75*
G02*
X5650000Y-8701000I-20000J0D01*
G01*
X5650000Y-8701000D02*
G75*
G02*
X5690000Y-8701000I20000J0D01*
G01*
X5825000Y-5882000D02*
G75*
G02*
X5785000Y-5882000I-20000J0D01*
G01*
X5785000Y-5882000D02*
G75*
G02*
X5825000Y-5882000I20000J0D01*
G01*
X6713000Y-8747000D02*
G75*
G02*
X6673000Y-8747000I-20000J0D01*
G01*
X6673000Y-8747000D02*
G75*
G02*
X6713000Y-8747000I20000J0D01*
G01*
X6797000Y-11742000D02*
G75*
G02*
X6757000Y-11742000I-20000J0D01*
G01*
X6757000Y-11742000D02*
G75*
G02*
X6797000Y-11742000I20000J0D01*
G01*
X6797000Y-12013000D02*
G75*
G02*
X6757000Y-12013000I-20000J0D01*
G01*
X6757000Y-12013000D02*
G75*
G02*
X6797000Y-12013000I20000J0D01*
G01*
X6804033Y-8652037D02*
G75*
G02*
X6764033Y-8652037I-20000J0D01*
G01*
X6764033Y-8652037D02*
G75*
G02*
X6804033Y-8652037I20000J0D01*
G01*
X6872000Y-11944000D02*
G75*
G02*
X6832000Y-11944000I-20000J0D01*
G01*
X6832000Y-11944000D02*
G75*
G02*
X6872000Y-11944000I20000J0D01*
G01*
X6874000Y-11816000D02*
G75*
G02*
X6834000Y-11816000I-20000J0D01*
G01*
X6834000Y-11816000D02*
G75*
G02*
X6874000Y-11816000I20000J0D01*
G01*
X6922000Y-6025000D02*
G75*
G02*
X6882000Y-6025000I-20000J0D01*
G01*
X6882000Y-6025000D02*
G75*
G02*
X6922000Y-6025000I20000J0D01*
G01*
X6988506Y-9259500D02*
G75*
G02*
X6948506Y-9259500I-20000J0D01*
G01*
X6948506Y-9259500D02*
G75*
G02*
X6988506Y-9259500I20000J0D01*
G01*
X7062500Y-9995254D02*
G75*
G02*
X7022500Y-9995254I-20000J0D01*
G01*
X7022500Y-9995254D02*
G75*
G02*
X7062500Y-9995254I20000J0D01*
G01*
X7062500Y-10068377D02*
G75*
G02*
X7022500Y-10068377I-20000J0D01*
G01*
X7022500Y-10068377D02*
G75*
G02*
X7062500Y-10068377I20000J0D01*
G01*
X7138000Y-10753000D02*
G75*
G02*
X7098000Y-10753000I-20000J0D01*
G01*
X7098000Y-10753000D02*
G75*
G02*
X7138000Y-10753000I20000J0D01*
G01*
X7142000Y-11014000D02*
G75*
G02*
X7102000Y-11014000I-20000J0D01*
G01*
X7102000Y-11014000D02*
G75*
G02*
X7142000Y-11014000I20000J0D01*
G01*
X7167500Y-9676750D02*
G75*
G02*
X7127500Y-9676750I-20000J0D01*
G01*
X7127500Y-9676750D02*
G75*
G02*
X7167500Y-9676750I20000J0D01*
G01*
X7261000Y-11435000D02*
G75*
G02*
X7221000Y-11435000I-20000J0D01*
G01*
X7221000Y-11435000D02*
G75*
G02*
X7261000Y-11435000I20000J0D01*
G01*
X7261000Y-11647000D02*
G75*
G02*
X7221000Y-11647000I-20000J0D01*
G01*
X7221000Y-11647000D02*
G75*
G02*
X7261000Y-11647000I20000J0D01*
G01*
X7272500Y-10193000D02*
G75*
G02*
X7232500Y-10193000I-20000J0D01*
G01*
X7232500Y-10193000D02*
G75*
G02*
X7272500Y-10193000I20000J0D01*
G01*
X7310500Y-6989000D02*
G75*
G02*
X7270500Y-6989000I-20000J0D01*
G01*
X7270500Y-6989000D02*
G75*
G02*
X7310500Y-6989000I20000J0D01*
G01*
X7325000Y-10142008D02*
G75*
G02*
X7285000Y-10142008I-20000J0D01*
G01*
X7285000Y-10142008D02*
G75*
G02*
X7325000Y-10142008I20000J0D01*
G01*
X7426777Y-9676750D02*
G75*
G02*
X7386777Y-9676750I-20000J0D01*
G01*
X7386777Y-9676750D02*
G75*
G02*
X7426777Y-9676750I20000J0D01*
G01*
X7426825Y-11267000D02*
G75*
G02*
X7386825Y-11267000I-20000J0D01*
G01*
X7386825Y-11267000D02*
G75*
G02*
X7426825Y-11267000I20000J0D01*
G01*
X7474060Y-12884205D02*
G75*
G02*
X7434060Y-12884205I-20000J0D01*
G01*
X7434060Y-12884205D02*
G75*
G02*
X7474060Y-12884205I20000J0D01*
G01*
X7480750Y-11654500D02*
G75*
G02*
X7440750Y-11654500I-20000J0D01*
G01*
X7440750Y-11654500D02*
G75*
G02*
X7480750Y-11654500I20000J0D01*
G01*
X7541871Y-13137277D02*
G75*
G02*
X7501871Y-13137277I-20000J0D01*
G01*
X7501871Y-13137277D02*
G75*
G02*
X7541871Y-13137277I20000J0D01*
G01*
X7554000Y-11529000D02*
G75*
G02*
X7514000Y-11529000I-20000J0D01*
G01*
X7514000Y-11529000D02*
G75*
G02*
X7554000Y-11529000I20000J0D01*
G01*
X7607000Y-8451000D02*
G75*
G02*
X7567000Y-8451000I-20000J0D01*
G01*
X7567000Y-8451000D02*
G75*
G02*
X7607000Y-8451000I20000J0D01*
G01*
X7735000Y-8658000D02*
G75*
G02*
X7695000Y-8658000I-20000J0D01*
G01*
X7695000Y-8658000D02*
G75*
G02*
X7735000Y-8658000I20000J0D01*
G01*
X7771750Y-9475750D02*
G75*
G02*
X7731750Y-9475750I-20000J0D01*
G01*
X7731750Y-9475750D02*
G75*
G02*
X7771750Y-9475750I20000J0D01*
G01*
X9012000Y-10499000D02*
G75*
G02*
X8972000Y-10499000I-20000J0D01*
G01*
X8972000Y-10499000D02*
G75*
G02*
X9012000Y-10499000I20000J0D01*
G01*
X9036000Y-6697000D02*
G75*
G02*
X8996000Y-6697000I-20000J0D01*
G01*
X8996000Y-6697000D02*
G75*
G02*
X9036000Y-6697000I20000J0D01*
G01*
X9049000Y-8313000D02*
G75*
G02*
X9009000Y-8313000I-20000J0D01*
G01*
X9009000Y-8313000D02*
G75*
G02*
X9049000Y-8313000I20000J0D01*
G01*
X9049000Y-8574000D02*
G75*
G02*
X9009000Y-8574000I-20000J0D01*
G01*
X9009000Y-8574000D02*
G75*
G02*
X9049000Y-8574000I20000J0D01*
G01*
X9054000Y-9614000D02*
G75*
G02*
X9014000Y-9614000I-20000J0D01*
G01*
X9014000Y-9614000D02*
G75*
G02*
X9054000Y-9614000I20000J0D01*
G01*
X9108000Y-9552000D02*
G75*
G02*
X9068000Y-9552000I-20000J0D01*
G01*
X9068000Y-9552000D02*
G75*
G02*
X9108000Y-9552000I20000J0D01*
G01*
X9172500Y-9518973D02*
G75*
G02*
X9132500Y-9518973I-20000J0D01*
G01*
X9132500Y-9518973D02*
G75*
G02*
X9172500Y-9518973I20000J0D01*
G01*
X9207313Y-9458243D02*
G75*
G02*
X9167313Y-9458243I-20000J0D01*
G01*
X9167313Y-9458243D02*
G75*
G02*
X9207313Y-9458243I20000J0D01*
G01*
X9312500Y-8501532D02*
G75*
G02*
X9272500Y-8501532I-20000J0D01*
G01*
X9272500Y-8501532D02*
G75*
G02*
X9312500Y-8501532I20000J0D01*
G01*
X9312500Y-10073531D02*
G75*
G02*
X9272500Y-10073531I-20000J0D01*
G01*
X9272500Y-10073531D02*
G75*
G02*
X9312500Y-10073531I20000J0D01*
G01*
X9365000Y-10021056D02*
G75*
G02*
X9325000Y-10021056I-20000J0D01*
G01*
X9325000Y-10021056D02*
G75*
G02*
X9365000Y-10021056I20000J0D01*
G01*
X9368837Y-8543080D02*
G75*
G02*
X9328837Y-8543080I-20000J0D01*
G01*
X9328837Y-8543080D02*
G75*
G02*
X9368837Y-8543080I20000J0D01*
G01*
X9420250Y-7347000D02*
G75*
G02*
X9380250Y-7347000I-20000J0D01*
G01*
X9380250Y-7347000D02*
G75*
G02*
X9420250Y-7347000I20000J0D01*
G01*
X9420250Y-7592000D02*
G75*
G02*
X9380250Y-7592000I-20000J0D01*
G01*
X9380250Y-7592000D02*
G75*
G02*
X9420250Y-7592000I20000J0D01*
G01*
X9420250Y-7837000D02*
G75*
G02*
X9380250Y-7837000I-20000J0D01*
G01*
X9380250Y-7837000D02*
G75*
G02*
X9420250Y-7837000I20000J0D01*
G01*
X9420250Y-8082000D02*
G75*
G02*
X9380250Y-8082000I-20000J0D01*
G01*
X9380250Y-8082000D02*
G75*
G02*
X9420250Y-8082000I20000J0D01*
G01*
X9425000Y-10073531D02*
G75*
G02*
X9385000Y-10073531I-20000J0D01*
G01*
X9385000Y-10073531D02*
G75*
G02*
X9425000Y-10073531I20000J0D01*
G01*
X9425173Y-8501532D02*
G75*
G02*
X9385173Y-8501532I-20000J0D01*
G01*
X9385173Y-8501532D02*
G75*
G02*
X9425173Y-8501532I20000J0D01*
G01*
X9429159Y-10415481D02*
G75*
G02*
X9389159Y-10415481I-20000J0D01*
G01*
X9389159Y-10415481D02*
G75*
G02*
X9429159Y-10415481I20000J0D01*
G01*
X9484250Y-8545000D02*
G75*
G02*
X9444250Y-8545000I-20000J0D01*
G01*
X9444250Y-8545000D02*
G75*
G02*
X9484250Y-8545000I20000J0D01*
G01*
X9484250Y-10022000D02*
G75*
G02*
X9444250Y-10022000I-20000J0D01*
G01*
X9444250Y-10022000D02*
G75*
G02*
X9484250Y-10022000I20000J0D01*
G01*
X9498813Y-10408532D02*
G75*
G02*
X9458813Y-10408532I-20000J0D01*
G01*
X9458813Y-10408532D02*
G75*
G02*
X9498813Y-10408532I20000J0D01*
G01*
X9551335Y-10350629D02*
G75*
G02*
X9511335Y-10350629I-20000J0D01*
G01*
X9511335Y-10350629D02*
G75*
G02*
X9551335Y-10350629I20000J0D01*
G01*
X9583000Y-12944000D02*
G75*
G02*
X9543000Y-12944000I-20000J0D01*
G01*
X9543000Y-12944000D02*
G75*
G02*
X9583000Y-12944000I20000J0D01*
G01*
X9596123Y-10139123D02*
G75*
G02*
X9556123Y-10139123I-20000J0D01*
G01*
X9556123Y-10139123D02*
G75*
G02*
X9596123Y-10139123I20000J0D01*
G01*
X9617000Y-12107000D02*
G75*
G02*
X9577000Y-12107000I-20000J0D01*
G01*
X9577000Y-12107000D02*
G75*
G02*
X9617000Y-12107000I20000J0D01*
G01*
X9624000Y-12359000D02*
G75*
G02*
X9584000Y-12359000I-20000J0D01*
G01*
X9584000Y-12359000D02*
G75*
G02*
X9624000Y-12359000I20000J0D01*
G01*
X9625000Y-11350000D02*
G75*
G02*
X9585000Y-11350000I-20000J0D01*
G01*
X9585000Y-11350000D02*
G75*
G02*
X9625000Y-11350000I20000J0D01*
G01*
X9625000Y-11608000D02*
G75*
G02*
X9585000Y-11608000I-20000J0D01*
G01*
X9585000Y-11608000D02*
G75*
G02*
X9625000Y-11608000I20000J0D01*
G01*
X9628000Y-11856000D02*
G75*
G02*
X9588000Y-11856000I-20000J0D01*
G01*
X9588000Y-11856000D02*
G75*
G02*
X9628000Y-11856000I20000J0D01*
G01*
X10512250Y-9663750D02*
G75*
G02*
X10472250Y-9663750I-20000J0D01*
G01*
X10472250Y-9663750D02*
G75*
G02*
X10512250Y-9663750I20000J0D01*
G01*
X10649500Y-11138500D02*
G75*
G02*
X10609500Y-11138500I-20000J0D01*
G01*
X10609500Y-11138500D02*
G75*
G02*
X10649500Y-11138500I20000J0D01*
G01*
X10898500Y-11138250D02*
G75*
G02*
X10858500Y-11138250I-20000J0D01*
G01*
X10858500Y-11138250D02*
G75*
G02*
X10898500Y-11138250I20000J0D01*
G01*
X10931000Y-9846000D02*
G75*
G02*
X10891000Y-9846000I-20000J0D01*
G01*
X10891000Y-9846000D02*
G75*
G02*
X10931000Y-9846000I20000J0D01*
G01*
X10935000Y-7949000D02*
G75*
G02*
X10895000Y-7949000I-20000J0D01*
G01*
X10895000Y-7949000D02*
G75*
G02*
X10935000Y-7949000I20000J0D01*
G01*
X10943000Y-6045000D02*
G75*
G02*
X10903000Y-6045000I-20000J0D01*
G01*
X10903000Y-6045000D02*
G75*
G02*
X10943000Y-6045000I20000J0D01*
G01*
X11144750Y-11138750D02*
G75*
G02*
X11104750Y-11138750I-20000J0D01*
G01*
X11104750Y-11138750D02*
G75*
G02*
X11144750Y-11138750I20000J0D01*
G01*
X11287575Y-9123750D02*
G75*
G02*
X11247575Y-9123750I-20000J0D01*
G01*
X11247575Y-9123750D02*
G75*
G02*
X11287575Y-9123750I20000J0D01*
G01*
X11391000Y-11140000D02*
G75*
G02*
X11351000Y-11140000I-20000J0D01*
G01*
X11351000Y-11140000D02*
G75*
G02*
X11391000Y-11140000I20000J0D01*
G01*
X12797000Y-10447000D02*
G75*
G02*
X12757000Y-10447000I-20000J0D01*
G01*
X12757000Y-10447000D02*
G75*
G02*
X12797000Y-10447000I20000J0D01*
G01*
X12799000Y-6652000D02*
G75*
G02*
X12759000Y-6652000I-20000J0D01*
G01*
X12759000Y-6652000D02*
G75*
G02*
X12799000Y-6652000I20000J0D01*
G01*
X12843000Y-8551000D02*
G75*
G02*
X12803000Y-8551000I-20000J0D01*
G01*
X12803000Y-8551000D02*
G75*
G02*
X12843000Y-8551000I20000J0D01*
G01*
X13189425Y-9891608D02*
G75*
G02*
X13149425Y-9891608I-20000J0D01*
G01*
X13149425Y-9891608D02*
G75*
G02*
X13189425Y-9891608I20000J0D01*
G01*
X13339000Y-11003000D02*
G75*
G02*
X13299000Y-11003000I-20000J0D01*
G01*
X13299000Y-11003000D02*
G75*
G02*
X13339000Y-11003000I20000J0D01*
G01*
X14736000Y-7591000D02*
G75*
G02*
X14696000Y-7591000I-20000J0D01*
G01*
X14696000Y-7591000D02*
G75*
G02*
X14736000Y-7591000I20000J0D01*
G01*
X14738000Y-9515000D02*
G75*
G02*
X14698000Y-9515000I-20000J0D01*
G01*
X14698000Y-9515000D02*
G75*
G02*
X14738000Y-9515000I20000J0D01*
G01*
X15096085Y-9891608D02*
G75*
G02*
X15056085Y-9891608I-20000J0D01*
G01*
X15056085Y-9891608D02*
G75*
G02*
X15096085Y-9891608I20000J0D01*
G01*
X16640000Y-9496000D02*
G75*
G02*
X16600000Y-9496000I-20000J0D01*
G01*
X16600000Y-9496000D02*
G75*
G02*
X16640000Y-9496000I20000J0D01*
G01*
X16643000Y-7592000D02*
G75*
G02*
X16603000Y-7592000I-20000J0D01*
G01*
X16603000Y-7592000D02*
G75*
G02*
X16643000Y-7592000I20000J0D01*
G01*
X16648000Y-11386000D02*
G75*
G02*
X16608000Y-11386000I-20000J0D01*
G01*
X16608000Y-11386000D02*
G75*
G02*
X16648000Y-11386000I20000J0D01*
G01*
X21071000Y-11409000D02*
G75*
G02*
X21031000Y-11409000I-20000J0D01*
G01*
X21031000Y-11409000D02*
G75*
G02*
X21071000Y-11409000I20000J0D01*
G01*
X21074000Y-9521000D02*
G75*
G02*
X21034000Y-9521000I-20000J0D01*
G01*
X21034000Y-9521000D02*
G75*
G02*
X21074000Y-9521000I20000J0D01*
G01*
X21078000Y-7595000D02*
G75*
G02*
X21038000Y-7595000I-20000J0D01*
G01*
X21038000Y-7595000D02*
G75*
G02*
X21078000Y-7595000I20000J0D01*
G01*
X21503000Y-11039000D02*
G75*
G02*
X21463000Y-11039000I-20000J0D01*
G01*
X21463000Y-11039000D02*
G75*
G02*
X21503000Y-11039000I20000J0D01*
G01*
X22483497Y-10609000D02*
G75*
G02*
X22443497Y-10609000I-20000J0D01*
G01*
X22443497Y-10609000D02*
G75*
G02*
X22483497Y-10609000I20000J0D01*
G01*
X22984000Y-9513000D02*
G75*
G02*
X22944000Y-9513000I-20000J0D01*
G01*
X22944000Y-9513000D02*
G75*
G02*
X22984000Y-9513000I20000J0D01*
G01*
X22991000Y-7611000D02*
G75*
G02*
X22951000Y-7611000I-20000J0D01*
G01*
X22951000Y-7611000D02*
G75*
G02*
X22991000Y-7611000I20000J0D01*
G01*
X24874000Y-8552000D02*
G75*
G02*
X24834000Y-8552000I-20000J0D01*
G01*
X24834000Y-8552000D02*
G75*
G02*
X24874000Y-8552000I20000J0D01*
G01*
X24880000Y-10430000D02*
G75*
G02*
X24840000Y-10430000I-20000J0D01*
G01*
X24840000Y-10430000D02*
G75*
G02*
X24880000Y-10430000I20000J0D01*
G01*
X24901000Y-6650000D02*
G75*
G02*
X24861000Y-6650000I-20000J0D01*
G01*
X24861000Y-6650000D02*
G75*
G02*
X24901000Y-6650000I20000J0D01*
G01*
X25075000Y-11121000D02*
G75*
G02*
X25035000Y-11121000I-20000J0D01*
G01*
X25035000Y-11121000D02*
G75*
G02*
X25075000Y-11121000I20000J0D01*
G01*
X25242500Y-10245750D02*
G75*
G02*
X25202500Y-10245750I-20000J0D01*
G01*
X25202500Y-10245750D02*
G75*
G02*
X25242500Y-10245750I20000J0D01*
G01*
X25321000Y-11119750D02*
G75*
G02*
X25281000Y-11119750I-20000J0D01*
G01*
X25281000Y-11119750D02*
G75*
G02*
X25321000Y-11119750I20000J0D01*
G01*
X25562500Y-11114750D02*
G75*
G02*
X25522500Y-11114750I-20000J0D01*
G01*
X25522500Y-11114750D02*
G75*
G02*
X25562500Y-11114750I20000J0D01*
G01*
X25924000Y-10900000D02*
G75*
G02*
X25884000Y-10900000I-20000J0D01*
G01*
X25884000Y-10900000D02*
G75*
G02*
X25924000Y-10900000I20000J0D01*
G01*
X25928045Y-10970201D02*
G75*
G02*
X25888045Y-10970201I-20000J0D01*
G01*
X25888045Y-10970201D02*
G75*
G02*
X25928045Y-10970201I20000J0D01*
G01*
X25930377Y-11042115D02*
G75*
G02*
X25890377Y-11042115I-20000J0D01*
G01*
X25890377Y-11042115D02*
G75*
G02*
X25930377Y-11042115I20000J0D01*
G01*
X26107500Y-8862000D02*
G75*
G02*
X26067500Y-8862000I-20000J0D01*
G01*
X26067500Y-8862000D02*
G75*
G02*
X26107500Y-8862000I20000J0D01*
G01*
X26650484Y-11355912D02*
G75*
G02*
X26610484Y-11355912I-20000J0D01*
G01*
X26610484Y-11355912D02*
G75*
G02*
X26650484Y-11355912I20000J0D01*
G01*
X26650484Y-11605912D02*
G75*
G02*
X26610484Y-11605912I-20000J0D01*
G01*
X26610484Y-11605912D02*
G75*
G02*
X26650484Y-11605912I20000J0D01*
G01*
X26650484Y-11855912D02*
G75*
G02*
X26610484Y-11855912I-20000J0D01*
G01*
X26610484Y-11855912D02*
G75*
G02*
X26650484Y-11855912I20000J0D01*
G01*
X26650484Y-12105912D02*
G75*
G02*
X26610484Y-12105912I-20000J0D01*
G01*
X26610484Y-12105912D02*
G75*
G02*
X26650484Y-12105912I20000J0D01*
G01*
X26768000Y-7948000D02*
G75*
G02*
X26728000Y-7948000I-20000J0D01*
G01*
X26728000Y-7948000D02*
G75*
G02*
X26768000Y-7948000I20000J0D01*
G01*
X26793000Y-9843000D02*
G75*
G02*
X26753000Y-9843000I-20000J0D01*
G01*
X26753000Y-9843000D02*
G75*
G02*
X26793000Y-9843000I20000J0D01*
G01*
X26795000Y-6054000D02*
G75*
G02*
X26755000Y-6054000I-20000J0D01*
G01*
X26755000Y-6054000D02*
G75*
G02*
X26795000Y-6054000I20000J0D01*
G01*
X26864000Y-11967698D02*
G75*
G02*
X26824000Y-11967698I-20000J0D01*
G01*
X26824000Y-11967698D02*
G75*
G02*
X26864000Y-11967698I20000J0D01*
G01*
X26915710Y-8225178D02*
G75*
G02*
X26875710Y-8225178I-20000J0D01*
G01*
X26875710Y-8225178D02*
G75*
G02*
X26915710Y-8225178I20000J0D01*
G01*
X26924000Y-11781564D02*
G75*
G02*
X26884000Y-11781564I-20000J0D01*
G01*
X26884000Y-11781564D02*
G75*
G02*
X26924000Y-11781564I20000J0D01*
G01*
X26967000Y-11357000D02*
G75*
G02*
X26927000Y-11357000I-20000J0D01*
G01*
X26927000Y-11357000D02*
G75*
G02*
X26967000Y-11357000I20000J0D01*
G01*
X26985500Y-8219759D02*
G75*
G02*
X26945500Y-8219759I-20000J0D01*
G01*
X26945500Y-8219759D02*
G75*
G02*
X26985500Y-8219759I20000J0D01*
G01*
X27016466Y-7617259D02*
G75*
G02*
X26976466Y-7617259I-20000J0D01*
G01*
X26976466Y-7617259D02*
G75*
G02*
X27016466Y-7617259I20000J0D01*
G01*
X27016466Y-7862259D02*
G75*
G02*
X26976466Y-7862259I-20000J0D01*
G01*
X26976466Y-7862259D02*
G75*
G02*
X27016466Y-7862259I20000J0D01*
G01*
X27016466Y-8107259D02*
G75*
G02*
X26976466Y-8107259I-20000J0D01*
G01*
X26976466Y-8107259D02*
G75*
G02*
X27016466Y-8107259I20000J0D01*
G01*
X27017000Y-7374000D02*
G75*
G02*
X26977000Y-7374000I-20000J0D01*
G01*
X26977000Y-7374000D02*
G75*
G02*
X27017000Y-7374000I20000J0D01*
G01*
X27055495Y-8220535D02*
G75*
G02*
X27015495Y-8220535I-20000J0D01*
G01*
X27015495Y-8220535D02*
G75*
G02*
X27055495Y-8220535I20000J0D01*
G01*
X27125348Y-8215995D02*
G75*
G02*
X27085348Y-8215995I-20000J0D01*
G01*
X27085348Y-8215995D02*
G75*
G02*
X27125348Y-8215995I20000J0D01*
G01*
X27128994Y-9351250D02*
G75*
G02*
X27088994Y-9351250I-20000J0D01*
G01*
X27088994Y-9351250D02*
G75*
G02*
X27128994Y-9351250I20000J0D01*
G01*
X27138750Y-10900000D02*
G75*
G02*
X27098750Y-10900000I-20000J0D01*
G01*
X27098750Y-10900000D02*
G75*
G02*
X27138750Y-10900000I20000J0D01*
G01*
X27189000Y-9301000D02*
G75*
G02*
X27149000Y-9301000I-20000J0D01*
G01*
X27149000Y-9301000D02*
G75*
G02*
X27189000Y-9301000I20000J0D01*
G01*
X27228994Y-9566500D02*
G75*
G02*
X27188994Y-9566500I-20000J0D01*
G01*
X27188994Y-9566500D02*
G75*
G02*
X27228994Y-9566500I20000J0D01*
G01*
X27233000Y-8409000D02*
G75*
G02*
X27193000Y-8409000I-20000J0D01*
G01*
X27193000Y-8409000D02*
G75*
G02*
X27233000Y-8409000I20000J0D01*
G01*
X27242000Y-6448000D02*
G75*
G02*
X27202000Y-6448000I-20000J0D01*
G01*
X27202000Y-6448000D02*
G75*
G02*
X27242000Y-6448000I20000J0D01*
G01*
X27295599Y-9601500D02*
G75*
G02*
X27255599Y-9601500I-20000J0D01*
G01*
X27255599Y-9601500D02*
G75*
G02*
X27295599Y-9601500I20000J0D01*
G01*
X27298994Y-10549776D02*
G75*
G02*
X27258994Y-10549776I-20000J0D01*
G01*
X27258994Y-10549776D02*
G75*
G02*
X27298994Y-10549776I20000J0D01*
G01*
X28172000Y-12806000D02*
G75*
G02*
X28132000Y-12806000I-20000J0D01*
G01*
X28132000Y-12806000D02*
G75*
G02*
X28172000Y-12806000I20000J0D01*
G01*
X28641965Y-9601500D02*
G75*
G02*
X28601965Y-9601500I-20000J0D01*
G01*
X28601965Y-9601500D02*
G75*
G02*
X28641965Y-9601500I20000J0D01*
G01*
X28701000Y-10501000D02*
G75*
G02*
X28661000Y-10501000I-20000J0D01*
G01*
X28661000Y-10501000D02*
G75*
G02*
X28701000Y-10501000I20000J0D01*
G01*
X28709510Y-9566500D02*
G75*
G02*
X28669510Y-9566500I-20000J0D01*
G01*
X28669510Y-9566500D02*
G75*
G02*
X28709510Y-9566500I20000J0D01*
G01*
X28750254Y-9674249D02*
G75*
G02*
X28710254Y-9674249I-20000J0D01*
G01*
X28710254Y-9674249D02*
G75*
G02*
X28750254Y-9674249I20000J0D01*
G01*
X28823126Y-9672874D02*
G75*
G02*
X28783126Y-9672874I-20000J0D01*
G01*
X28783126Y-9672874D02*
G75*
G02*
X28823126Y-9672874I20000J0D01*
G01*
X28904000Y-13086269D02*
G75*
G02*
X28864000Y-13086269I-20000J0D01*
G01*
X28864000Y-13086269D02*
G75*
G02*
X28904000Y-13086269I20000J0D01*
G01*
X29044000Y-11613000D02*
G75*
G02*
X29004000Y-11613000I-20000J0D01*
G01*
X29004000Y-11613000D02*
G75*
G02*
X29044000Y-11613000I20000J0D01*
G01*
X29109000Y-11739000D02*
G75*
G02*
X29069000Y-11739000I-20000J0D01*
G01*
X29069000Y-11739000D02*
G75*
G02*
X29109000Y-11739000I20000J0D01*
G01*
X29220000Y-8189000D02*
G75*
G02*
X29180000Y-8189000I-20000J0D01*
G01*
X29180000Y-8189000D02*
G75*
G02*
X29220000Y-8189000I20000J0D01*
G01*
X29381000Y-12073000D02*
G75*
G02*
X29341000Y-12073000I-20000J0D01*
G01*
X29341000Y-12073000D02*
G75*
G02*
X29381000Y-12073000I20000J0D01*
G01*
X29489500Y-11816399D02*
G75*
G02*
X29449500Y-11816399I-20000J0D01*
G01*
X29449500Y-11816399D02*
G75*
G02*
X29489500Y-11816399I20000J0D01*
G01*
X29489500Y-11941399D02*
G75*
G02*
X29449500Y-11941399I-20000J0D01*
G01*
X29449500Y-11941399D02*
G75*
G02*
X29489500Y-11941399I20000J0D01*
G01*
X29502000Y-6049000D02*
G75*
G02*
X29462000Y-6049000I-20000J0D01*
G01*
X29462000Y-6049000D02*
G75*
G02*
X29502000Y-6049000I20000J0D01*
G01*
X29571000Y-11745000D02*
G75*
G02*
X29531000Y-11745000I-20000J0D01*
G01*
X29531000Y-11745000D02*
G75*
G02*
X29571000Y-11745000I20000J0D01*
G01*
X29571000Y-12012000D02*
G75*
G02*
X29531000Y-12012000I-20000J0D01*
G01*
X29531000Y-12012000D02*
G75*
G02*
X29571000Y-12012000I20000J0D01*
G01*
X30119000Y-9799000D02*
G75*
G02*
X30079000Y-9799000I-20000J0D01*
G01*
X30079000Y-9799000D02*
G75*
G02*
X30119000Y-9799000I20000J0D01*
G01*
X30209000Y-13310000D02*
G75*
G02*
X30169000Y-13310000I-20000J0D01*
G01*
X30169000Y-13310000D02*
G75*
G02*
X30209000Y-13310000I20000J0D01*
G01*
X30261000Y-7946000D02*
G75*
G02*
X30221000Y-7946000I-20000J0D01*
G01*
X30221000Y-7946000D02*
G75*
G02*
X30261000Y-7946000I20000J0D01*
G01*
X30423324Y-9377302D02*
G75*
G02*
X30383324Y-9377302I-20000J0D01*
G01*
X30383324Y-9377302D02*
G75*
G02*
X30423324Y-9377302I20000J0D01*
G01*
X30437377Y-9445877D02*
G75*
G02*
X30397377Y-9445877I-20000J0D01*
G01*
X30397377Y-9445877D02*
G75*
G02*
X30437377Y-9445877I20000J0D01*
G01*
X30438000Y-12544000D02*
G75*
G02*
X30398000Y-12544000I-20000J0D01*
G01*
X30398000Y-12544000D02*
G75*
G02*
X30438000Y-12544000I20000J0D01*
G01*
X30452600Y-5882000D02*
G75*
G02*
X30412600Y-5882000I-20000J0D01*
G01*
X30412600Y-5882000D02*
G75*
G02*
X30452600Y-5882000I20000J0D01*
G01*
X30452600Y-6052000D02*
G75*
G02*
X30412600Y-6052000I-20000J0D01*
G01*
X30412600Y-6052000D02*
G75*
G02*
X30452600Y-6052000I20000J0D01*
G01*
X30512000Y-6297000D02*
G75*
G02*
X30472000Y-6297000I-20000J0D01*
G01*
X30472000Y-6297000D02*
G75*
G02*
X30512000Y-6297000I20000J0D01*
G01*
X30523000Y-7943000D02*
G75*
G02*
X30483000Y-7943000I-20000J0D01*
G01*
X30483000Y-7943000D02*
G75*
G02*
X30523000Y-7943000I20000J0D01*
G01*
X30524895Y-9853644D02*
G75*
G02*
X30484895Y-9853644I-20000J0D01*
G01*
X30484895Y-9853644D02*
G75*
G02*
X30524895Y-9853644I20000J0D01*
G01*
X30538932Y-12544482D02*
G75*
G02*
X30498932Y-12544482I-20000J0D01*
G01*
X30498932Y-12544482D02*
G75*
G02*
X30538932Y-12544482I20000J0D01*
G01*
X30591000Y-10756000D02*
G75*
G02*
X30551000Y-10756000I-20000J0D01*
G01*
X30551000Y-10756000D02*
G75*
G02*
X30591000Y-10756000I20000J0D01*
G01*
X30592187Y-9872926D02*
G75*
G02*
X30552187Y-9872926I-20000J0D01*
G01*
X30552187Y-9872926D02*
G75*
G02*
X30592187Y-9872926I20000J0D01*
G01*
X30616000Y-6941000D02*
G75*
G02*
X30576000Y-6941000I-20000J0D01*
G01*
X30576000Y-6941000D02*
G75*
G02*
X30616000Y-6941000I20000J0D01*
G01*
X30643612Y-9928000D02*
G75*
G02*
X30603612Y-9928000I-20000J0D01*
G01*
X30603612Y-9928000D02*
G75*
G02*
X30643612Y-9928000I20000J0D01*
G01*
X30717500Y-9644954D02*
G75*
G02*
X30677500Y-9644954I-20000J0D01*
G01*
X30677500Y-9644954D02*
G75*
G02*
X30717500Y-9644954I20000J0D01*
G01*
X30720029Y-9575000D02*
G75*
G02*
X30680029Y-9575000I-20000J0D01*
G01*
X30680029Y-9575000D02*
G75*
G02*
X30720029Y-9575000I20000J0D01*
G01*
X30752128Y-12428500D02*
G75*
G02*
X30712128Y-12428500I-20000J0D01*
G01*
X30712128Y-12428500D02*
G75*
G02*
X30752128Y-12428500I20000J0D01*
G01*
X30786500Y-10756000D02*
G75*
G02*
X30746500Y-10756000I-20000J0D01*
G01*
X30746500Y-10756000D02*
G75*
G02*
X30786500Y-10756000I20000J0D01*
G01*
X30825029Y-9572245D02*
G75*
G02*
X30785029Y-9572245I-20000J0D01*
G01*
X30785029Y-9572245D02*
G75*
G02*
X30825029Y-9572245I20000J0D01*
G01*
X30893554Y-9468300D02*
G75*
G02*
X30853554Y-9468300I-20000J0D01*
G01*
X30853554Y-9468300D02*
G75*
G02*
X30893554Y-9468300I20000J0D01*
G01*
X30916500Y-7753000D02*
G75*
G02*
X30876500Y-7753000I-20000J0D01*
G01*
X30876500Y-7753000D02*
G75*
G02*
X30916500Y-7753000I20000J0D01*
G01*
X30929000Y-9928000D02*
G75*
G02*
X30889000Y-9928000I-20000J0D01*
G01*
X30889000Y-9928000D02*
G75*
G02*
X30929000Y-9928000I20000J0D01*
G01*
X30951500Y-7591000D02*
G75*
G02*
X30911500Y-7591000I-20000J0D01*
G01*
X30911500Y-7591000D02*
G75*
G02*
X30951500Y-7591000I20000J0D01*
G01*
X31021500Y-7083000D02*
G75*
G02*
X30981500Y-7083000I-20000J0D01*
G01*
X30981500Y-7083000D02*
G75*
G02*
X31021500Y-7083000I20000J0D01*
G01*
X31021500Y-7320000D02*
G75*
G02*
X30981500Y-7320000I-20000J0D01*
G01*
X30981500Y-7320000D02*
G75*
G02*
X31021500Y-7320000I20000J0D01*
G01*
X31069500Y-6829000D02*
G75*
G02*
X31029500Y-6829000I-20000J0D01*
G01*
X31029500Y-6829000D02*
G75*
G02*
X31069500Y-6829000I20000J0D01*
G01*
X31105000Y-14252000D02*
G75*
G02*
X31065000Y-14252000I-20000J0D01*
G01*
X31065000Y-14252000D02*
G75*
G02*
X31105000Y-14252000I20000J0D01*
G01*
X31272381Y-9061000D02*
G75*
G02*
X31232381Y-9061000I-20000J0D01*
G01*
X31232381Y-9061000D02*
G75*
G02*
X31272381Y-9061000I20000J0D01*
G01*
X31306000Y-9244500D02*
G75*
G02*
X31266000Y-9244500I-20000J0D01*
G01*
X31266000Y-9244500D02*
G75*
G02*
X31306000Y-9244500I20000J0D01*
G01*
X31374000Y-9128500D02*
G75*
G02*
X31334000Y-9128500I-20000J0D01*
G01*
X31334000Y-9128500D02*
G75*
G02*
X31374000Y-9128500I20000J0D01*
G01*
X31387292Y-9292500D02*
G75*
G02*
X31347292Y-9292500I-20000J0D01*
G01*
X31347292Y-9292500D02*
G75*
G02*
X31387292Y-9292500I20000J0D01*
G01*
X31940000Y-13281000D02*
G75*
G02*
X31900000Y-13281000I-20000J0D01*
G01*
X31900000Y-13281000D02*
G75*
G02*
X31940000Y-13281000I20000J0D01*
G01*
X32685000Y-9021800D02*
G75*
G02*
X32645000Y-9021800I-20000J0D01*
G01*
X32645000Y-9021800D02*
G75*
G02*
X32685000Y-9021800I20000J0D01*
G01*
X32814500Y-9186800D02*
G75*
G02*
X32774500Y-9186800I-20000J0D01*
G01*
X32774500Y-9186800D02*
G75*
G02*
X32814500Y-9186800I20000J0D01*
G01*
X32915675Y-6695575D02*
G75*
G02*
X32875675Y-6695575I-20000J0D01*
G01*
X32875675Y-6695575D02*
G75*
G02*
X32915675Y-6695575I20000J0D01*
G01*
X33002500Y-6321000D02*
G75*
G02*
X32962500Y-6321000I-20000J0D01*
G01*
X32962500Y-6321000D02*
G75*
G02*
X33002500Y-6321000I20000J0D01*
G01*
X33010100Y-7128853D02*
G75*
G02*
X32970100Y-7128853I-20000J0D01*
G01*
X32970100Y-7128853D02*
G75*
G02*
X33010100Y-7128853I20000J0D01*
G01*
X33046700Y-7330900D02*
G75*
G02*
X33006700Y-7330900I-20000J0D01*
G01*
X33006700Y-7330900D02*
G75*
G02*
X33046700Y-7330900I20000J0D01*
G01*
X33080700Y-7575716D02*
G75*
G02*
X33040700Y-7575716I-20000J0D01*
G01*
X33040700Y-7575716D02*
G75*
G02*
X33080700Y-7575716I20000J0D01*
G01*
D13*
X3462500Y-5992000D02*
X3462500Y-6142000D01*
X3387500Y-6067000D02*
X3537500Y-6067000D01*
X3462500Y-6246000D02*
X3462500Y-6396000D01*
X3387500Y-6321000D02*
X3537500Y-6321000D01*
X3462500Y-6500000D02*
X3462500Y-6650000D01*
X3387500Y-6575000D02*
X3537500Y-6575000D01*
X3462500Y-6754000D02*
X3462500Y-6904000D01*
X3387500Y-6829000D02*
X3537500Y-6829000D01*
X3462500Y-7008000D02*
X3462500Y-7158000D01*
X3387500Y-7083000D02*
X3537500Y-7083000D01*
X3462500Y-7262000D02*
X3462500Y-7412000D01*
X3387500Y-7337000D02*
X3537500Y-7337000D01*
X3462500Y-7516000D02*
X3462500Y-7666000D01*
X3387500Y-7591000D02*
X3537500Y-7591000D01*
X3462500Y-7770000D02*
X3462500Y-7920000D01*
X3387500Y-7845000D02*
X3537500Y-7845000D01*
X3462500Y-8024000D02*
X3462500Y-8174000D01*
X3387500Y-8099000D02*
X3537500Y-8099000D01*
X3462500Y-8278000D02*
X3462500Y-8428000D01*
X3387500Y-8353000D02*
X3537500Y-8353000D01*
X3462500Y-8532000D02*
X3462500Y-8682000D01*
X3387500Y-8607000D02*
X3537500Y-8607000D01*
X3462500Y-8786000D02*
X3462500Y-8936000D01*
X3387500Y-8861000D02*
X3537500Y-8861000D01*
X3713500Y-9122500D02*
X3713500Y-9272500D01*
X3638500Y-9197500D02*
X3788500Y-9197500D01*
X3967500Y-9122500D02*
X3967500Y-9272500D01*
X3892500Y-9197500D02*
X4042500Y-9197500D01*
X4221500Y-9122500D02*
X4221500Y-9272500D01*
X4146500Y-9197500D02*
X4296500Y-9197500D01*
X4475500Y-9122500D02*
X4475500Y-9272500D01*
X4400500Y-9197500D02*
X4550500Y-9197500D01*
X4729500Y-9122500D02*
X4729500Y-9272500D01*
X4654500Y-9197500D02*
X4804500Y-9197500D01*
X4782356Y-13346582D02*
X4782356Y-13496582D01*
X4707356Y-13421582D02*
X4857356Y-13421582D01*
X4986500Y-5992000D02*
X4986500Y-6142000D01*
X4911500Y-6067000D02*
X5061500Y-6067000D01*
X4986500Y-6246000D02*
X4986500Y-6396000D01*
X4911500Y-6321000D02*
X5061500Y-6321000D01*
X4986500Y-6500000D02*
X4986500Y-6650000D01*
X4911500Y-6575000D02*
X5061500Y-6575000D01*
X4986500Y-6754000D02*
X4986500Y-6904000D01*
X4911500Y-6829000D02*
X5061500Y-6829000D01*
X4986500Y-7008000D02*
X4986500Y-7158000D01*
X4911500Y-7083000D02*
X5061500Y-7083000D01*
X4986500Y-7262000D02*
X4986500Y-7412000D01*
X4911500Y-7337000D02*
X5061500Y-7337000D01*
X4986500Y-7516000D02*
X4986500Y-7666000D01*
X4911500Y-7591000D02*
X5061500Y-7591000D01*
X4986500Y-7770000D02*
X4986500Y-7920000D01*
X4911500Y-7845000D02*
X5061500Y-7845000D01*
X4986500Y-8024000D02*
X4986500Y-8174000D01*
X4911500Y-8099000D02*
X5061500Y-8099000D01*
X4986500Y-8278000D02*
X4986500Y-8428000D01*
X4911500Y-8353000D02*
X5061500Y-8353000D01*
X4986500Y-8532000D02*
X4986500Y-8682000D01*
X4911500Y-8607000D02*
X5061500Y-8607000D01*
X4986500Y-8786000D02*
X4986500Y-8936000D01*
X4911500Y-8861000D02*
X5061500Y-8861000D01*
X5123867Y-13285896D02*
X5123867Y-13435896D01*
X5048867Y-13360896D02*
X5198867Y-13360896D01*
X5250868Y-13508869D02*
X5250868Y-13658869D01*
X5175868Y-13583869D02*
X5325868Y-13583869D01*
X5318702Y-14046362D02*
X5318702Y-14196362D01*
X5243702Y-14121362D02*
X5393702Y-14121362D01*
X5319826Y-13769508D02*
X5319826Y-13919508D01*
X5244826Y-13844508D02*
X5394826Y-13844508D01*
X5371227Y-13945138D02*
X5371227Y-14095138D01*
X5296227Y-14020138D02*
X5446227Y-14020138D01*
X5884000Y-9063100D02*
X5884000Y-9213100D01*
X5809000Y-9138100D02*
X5959000Y-9138100D01*
X5945400Y-9159200D02*
X5945400Y-9309200D01*
X5870400Y-9234200D02*
X6020400Y-9234200D01*
X5999800Y-6523500D02*
X5999800Y-6673500D01*
X5924800Y-6598500D02*
X6074800Y-6598500D01*
X5999800Y-10332032D02*
X5999800Y-10482032D01*
X5924800Y-10407032D02*
X6074800Y-10407032D01*
X6118000Y-6197400D02*
X6118000Y-6347400D01*
X6043000Y-6272400D02*
X6193000Y-6272400D01*
X6118000Y-10005932D02*
X6118000Y-10155932D01*
X6043000Y-10080932D02*
X6193000Y-10080932D01*
X6123200Y-9202500D02*
X6123200Y-9352500D01*
X6048200Y-9277500D02*
X6198200Y-9277500D01*
X6294713Y-12805201D02*
X6294713Y-12955201D01*
X6219713Y-12880201D02*
X6369713Y-12880201D01*
X6324484Y-12459620D02*
X6324484Y-12609620D01*
X6249484Y-12534620D02*
X6399484Y-12534620D01*
X6374600Y-6198900D02*
X6374600Y-6348900D01*
X6299600Y-6273900D02*
X6449600Y-6273900D01*
X6374600Y-10007432D02*
X6374600Y-10157432D01*
X6299600Y-10082432D02*
X6449600Y-10082432D01*
X6383400Y-9273100D02*
X6383400Y-9423100D01*
X6308400Y-9348100D02*
X6458400Y-9348100D01*
X6572729Y-12394656D02*
X6572729Y-12544656D01*
X6497729Y-12469656D02*
X6647729Y-12469656D01*
X6634800Y-6269500D02*
X6634800Y-6419500D01*
X6559800Y-6344500D02*
X6709800Y-6344500D01*
X6634800Y-10078032D02*
X6634800Y-10228032D01*
X6559800Y-10153032D02*
X6709800Y-10153032D01*
X6640000Y-9274600D02*
X6640000Y-9424600D01*
X6565000Y-9349600D02*
X6715000Y-9349600D01*
X6758200Y-8948500D02*
X6758200Y-9098500D01*
X6683200Y-9023500D02*
X6833200Y-9023500D01*
X6812600Y-6312800D02*
X6812600Y-6462800D01*
X6737600Y-6387800D02*
X6887600Y-6387800D01*
X6812600Y-10121332D02*
X6812600Y-10271332D01*
X6737600Y-10196332D02*
X6887600Y-10196332D01*
X6842335Y-12395506D02*
X6842335Y-12545506D01*
X6767335Y-12470506D02*
X6917335Y-12470506D01*
X6874000Y-6408900D02*
X6874000Y-6558900D01*
X6799000Y-6483900D02*
X6949000Y-6483900D01*
X6874000Y-10217432D02*
X6874000Y-10367432D01*
X6799000Y-10292432D02*
X6949000Y-10292432D01*
X7025284Y-12391312D02*
X7025284Y-12541312D01*
X6950284Y-12466312D02*
X7100284Y-12466312D01*
X7109464Y-12468246D02*
X7109464Y-12618246D01*
X7034464Y-12543246D02*
X7184464Y-12543246D01*
X7790325Y-8818000D02*
X7790325Y-8968000D01*
X7715325Y-8893000D02*
X7865325Y-8893000D01*
X7851725Y-8914100D02*
X7851725Y-9064100D01*
X7776725Y-8989100D02*
X7926725Y-8989100D01*
X7906125Y-6277500D02*
X7906125Y-6427500D01*
X7831125Y-6352500D02*
X7981125Y-6352500D01*
X7906125Y-10084532D02*
X7906125Y-10234532D01*
X7831125Y-10159532D02*
X7981125Y-10159532D01*
X8024325Y-5951400D02*
X8024325Y-6101400D01*
X7949325Y-6026400D02*
X8099325Y-6026400D01*
X8024325Y-9758432D02*
X8024325Y-9908432D01*
X7949325Y-9833432D02*
X8099325Y-9833432D01*
X8029525Y-8957400D02*
X8029525Y-9107400D01*
X7954525Y-9032400D02*
X8104525Y-9032400D01*
X8280925Y-5952900D02*
X8280925Y-6102900D01*
X8205925Y-6027900D02*
X8355925Y-6027900D01*
X8280925Y-9759932D02*
X8280925Y-9909932D01*
X8205925Y-9834932D02*
X8355925Y-9834932D01*
X8289725Y-9028000D02*
X8289725Y-9178000D01*
X8214725Y-9103000D02*
X8364725Y-9103000D01*
X8393897Y-12368263D02*
X8393897Y-12518263D01*
X8318897Y-12443263D02*
X8468897Y-12443263D01*
X8483226Y-12033102D02*
X8483226Y-12183102D01*
X8408226Y-12108102D02*
X8558226Y-12108102D01*
X8541125Y-6023500D02*
X8541125Y-6173500D01*
X8466125Y-6098500D02*
X8616125Y-6098500D01*
X8541125Y-9830532D02*
X8541125Y-9980532D01*
X8466125Y-9905532D02*
X8616125Y-9905532D01*
X8546325Y-9029500D02*
X8546325Y-9179500D01*
X8471325Y-9104500D02*
X8621325Y-9104500D01*
X8664525Y-8703400D02*
X8664525Y-8853400D01*
X8589525Y-8778400D02*
X8739525Y-8778400D01*
X8718925Y-6066800D02*
X8718925Y-6216800D01*
X8643925Y-6141800D02*
X8793925Y-6141800D01*
X8718925Y-9873832D02*
X8718925Y-10023832D01*
X8643925Y-9948832D02*
X8793925Y-9948832D01*
X8738980Y-12012232D02*
X8738980Y-12162232D01*
X8663980Y-12087232D02*
X8813980Y-12087232D01*
X8780325Y-6162900D02*
X8780325Y-6312900D01*
X8705325Y-6237900D02*
X8855325Y-6237900D01*
X8780325Y-9969932D02*
X8780325Y-10119932D01*
X8705325Y-10044932D02*
X8855325Y-10044932D01*
X9004343Y-12059886D02*
X9004343Y-12209886D01*
X8929343Y-12134886D02*
X9079343Y-12134886D01*
X9185241Y-12087524D02*
X9185241Y-12237524D01*
X9110241Y-12162524D02*
X9260241Y-12162524D01*
X9254783Y-12177907D02*
X9254783Y-12327907D01*
X9179783Y-12252907D02*
X9329783Y-12252907D01*
X9810635Y-5623532D02*
X9810635Y-5773532D01*
X9735635Y-5698532D02*
X9885635Y-5698532D01*
X9810635Y-7528532D02*
X9810635Y-7678532D01*
X9735635Y-7603532D02*
X9885635Y-7603532D01*
X9810635Y-9435532D02*
X9810635Y-9585532D01*
X9735635Y-9510532D02*
X9885635Y-9510532D01*
X9928835Y-5297432D02*
X9928835Y-5447432D01*
X9853835Y-5372432D02*
X10003835Y-5372432D01*
X9928835Y-7202432D02*
X9928835Y-7352432D01*
X9853835Y-7277432D02*
X10003835Y-7277432D01*
X9928835Y-9109432D02*
X9928835Y-9259432D01*
X9853835Y-9184432D02*
X10003835Y-9184432D01*
X10185435Y-5298932D02*
X10185435Y-5448932D01*
X10110435Y-5373932D02*
X10260435Y-5373932D01*
X10185435Y-7203932D02*
X10185435Y-7353932D01*
X10110435Y-7278932D02*
X10260435Y-7278932D01*
X10185435Y-9110932D02*
X10185435Y-9260932D01*
X10110435Y-9185932D02*
X10260435Y-9185932D01*
X10445635Y-5369532D02*
X10445635Y-5519532D01*
X10370635Y-5444532D02*
X10520635Y-5444532D01*
X10445635Y-7274532D02*
X10445635Y-7424532D01*
X10370635Y-7349532D02*
X10520635Y-7349532D01*
X10445635Y-9181532D02*
X10445635Y-9331532D01*
X10370635Y-9256532D02*
X10520635Y-9256532D01*
X10623435Y-5412832D02*
X10623435Y-5562832D01*
X10548435Y-5487832D02*
X10698435Y-5487832D01*
X10623435Y-7317832D02*
X10623435Y-7467832D01*
X10548435Y-7392832D02*
X10698435Y-7392832D01*
X10623435Y-9224832D02*
X10623435Y-9374832D01*
X10548435Y-9299832D02*
X10698435Y-9299832D01*
X10684835Y-5508932D02*
X10684835Y-5658932D01*
X10609835Y-5583932D02*
X10759835Y-5583932D01*
X10684835Y-7413932D02*
X10684835Y-7563932D01*
X10609835Y-7488932D02*
X10759835Y-7488932D01*
X10684835Y-9320932D02*
X10684835Y-9470932D01*
X10609835Y-9395932D02*
X10759835Y-9395932D01*
X11714375Y-6224532D02*
X11714375Y-6374532D01*
X11639375Y-6299532D02*
X11789375Y-6299532D01*
X11714375Y-8128532D02*
X11714375Y-8278532D01*
X11639375Y-8203532D02*
X11789375Y-8203532D01*
X11714375Y-10034032D02*
X11714375Y-10184032D01*
X11639375Y-10109032D02*
X11789375Y-10109032D01*
X11832575Y-5898432D02*
X11832575Y-6048432D01*
X11757575Y-5973432D02*
X11907575Y-5973432D01*
X11832575Y-7802432D02*
X11832575Y-7952432D01*
X11757575Y-7877432D02*
X11907575Y-7877432D01*
X11832575Y-9707932D02*
X11832575Y-9857932D01*
X11757575Y-9782932D02*
X11907575Y-9782932D01*
X12089175Y-5899932D02*
X12089175Y-6049932D01*
X12014175Y-5974932D02*
X12164175Y-5974932D01*
X12089175Y-7803932D02*
X12089175Y-7953932D01*
X12014175Y-7878932D02*
X12164175Y-7878932D01*
X12089175Y-9709432D02*
X12089175Y-9859432D01*
X12014175Y-9784432D02*
X12164175Y-9784432D01*
X12349375Y-5970532D02*
X12349375Y-6120532D01*
X12274375Y-6045532D02*
X12424375Y-6045532D01*
X12349375Y-7874532D02*
X12349375Y-8024532D01*
X12274375Y-7949532D02*
X12424375Y-7949532D01*
X12349375Y-9780032D02*
X12349375Y-9930032D01*
X12274375Y-9855032D02*
X12424375Y-9855032D01*
X12527175Y-6013832D02*
X12527175Y-6163832D01*
X12452175Y-6088832D02*
X12602175Y-6088832D01*
X12527175Y-7917832D02*
X12527175Y-8067832D01*
X12452175Y-7992832D02*
X12602175Y-7992832D01*
X12527175Y-9823332D02*
X12527175Y-9973332D01*
X12452175Y-9898332D02*
X12602175Y-9898332D01*
X12588575Y-6109932D02*
X12588575Y-6259932D01*
X12513575Y-6184932D02*
X12663575Y-6184932D01*
X12588575Y-8013932D02*
X12588575Y-8163932D01*
X12513575Y-8088932D02*
X12663575Y-8088932D01*
X12588575Y-9919432D02*
X12588575Y-10069432D01*
X12513575Y-9994432D02*
X12663575Y-9994432D01*
X13501685Y-11624500D02*
X13501685Y-11774500D01*
X13426685Y-11699500D02*
X13576685Y-11699500D01*
X13563085Y-11720600D02*
X13563085Y-11870600D01*
X13488085Y-11795600D02*
X13638085Y-11795600D01*
X13617485Y-7181608D02*
X13617485Y-7331608D01*
X13542485Y-7256608D02*
X13692485Y-7256608D01*
X13617485Y-9086108D02*
X13617485Y-9236108D01*
X13542485Y-9161108D02*
X13692485Y-9161108D01*
X13735685Y-6855508D02*
X13735685Y-7005508D01*
X13660685Y-6930508D02*
X13810685Y-6930508D01*
X13735685Y-8760008D02*
X13735685Y-8910008D01*
X13660685Y-8835008D02*
X13810685Y-8835008D01*
X13740885Y-11763900D02*
X13740885Y-11913900D01*
X13665885Y-11838900D02*
X13815885Y-11838900D01*
X13992285Y-6857008D02*
X13992285Y-7007008D01*
X13917285Y-6932008D02*
X14067285Y-6932008D01*
X13992285Y-8761508D02*
X13992285Y-8911508D01*
X13917285Y-8836508D02*
X14067285Y-8836508D01*
X14001085Y-11834500D02*
X14001085Y-11984500D01*
X13926085Y-11909500D02*
X14076085Y-11909500D01*
X14252485Y-6927608D02*
X14252485Y-7077608D01*
X14177485Y-7002608D02*
X14327485Y-7002608D01*
X14252485Y-8832108D02*
X14252485Y-8982108D01*
X14177485Y-8907108D02*
X14327485Y-8907108D01*
X14257685Y-11836000D02*
X14257685Y-11986000D01*
X14182685Y-11911000D02*
X14332685Y-11911000D01*
X14375885Y-11509900D02*
X14375885Y-11659900D01*
X14300885Y-11584900D02*
X14450885Y-11584900D01*
X14430285Y-6970908D02*
X14430285Y-7120908D01*
X14355285Y-7045908D02*
X14505285Y-7045908D01*
X14430285Y-8875408D02*
X14430285Y-9025408D01*
X14355285Y-8950408D02*
X14505285Y-8950408D01*
X14491685Y-7067008D02*
X14491685Y-7217008D01*
X14416685Y-7142008D02*
X14566685Y-7142008D01*
X14491685Y-8971508D02*
X14491685Y-9121508D01*
X14416685Y-9046508D02*
X14566685Y-9046508D01*
X15522885Y-7181608D02*
X15522885Y-7331608D01*
X15447885Y-7256608D02*
X15597885Y-7256608D01*
X15522885Y-9086108D02*
X15522885Y-9236108D01*
X15447885Y-9161108D02*
X15597885Y-9161108D01*
X15522885Y-10990573D02*
X15522885Y-11140573D01*
X15447885Y-11065573D02*
X15597885Y-11065573D01*
X15641085Y-6855508D02*
X15641085Y-7005508D01*
X15566085Y-6930508D02*
X15716085Y-6930508D01*
X15641085Y-8760008D02*
X15641085Y-8910008D01*
X15566085Y-8835008D02*
X15716085Y-8835008D01*
X15641085Y-10664473D02*
X15641085Y-10814473D01*
X15566085Y-10739473D02*
X15716085Y-10739473D01*
X15897685Y-6857008D02*
X15897685Y-7007008D01*
X15822685Y-6932008D02*
X15972685Y-6932008D01*
X15897685Y-8761508D02*
X15897685Y-8911508D01*
X15822685Y-8836508D02*
X15972685Y-8836508D01*
X15897685Y-10665973D02*
X15897685Y-10815973D01*
X15822685Y-10740973D02*
X15972685Y-10740973D01*
X16157885Y-6927608D02*
X16157885Y-7077608D01*
X16082885Y-7002608D02*
X16232885Y-7002608D01*
X16157885Y-8832108D02*
X16157885Y-8982108D01*
X16082885Y-8907108D02*
X16232885Y-8907108D01*
X16157885Y-10736573D02*
X16157885Y-10886573D01*
X16082885Y-10811573D02*
X16232885Y-10811573D01*
X16335685Y-6970908D02*
X16335685Y-7120908D01*
X16260685Y-7045908D02*
X16410685Y-7045908D01*
X16335685Y-8875408D02*
X16335685Y-9025408D01*
X16260685Y-8950408D02*
X16410685Y-8950408D01*
X16335685Y-10779873D02*
X16335685Y-10929873D01*
X16260685Y-10854873D02*
X16410685Y-10854873D01*
X16397085Y-7067008D02*
X16397085Y-7217008D01*
X16322085Y-7142008D02*
X16472085Y-7142008D01*
X16397085Y-8971508D02*
X16397085Y-9121508D01*
X16322085Y-9046508D02*
X16472085Y-9046508D01*
X16397085Y-10875973D02*
X16397085Y-11025973D01*
X16322085Y-10950973D02*
X16472085Y-10950973D01*
X19951634Y-7181608D02*
X19951634Y-7331608D01*
X19876634Y-7256608D02*
X20026634Y-7256608D01*
X19951634Y-9086108D02*
X19951634Y-9236108D01*
X19876634Y-9161108D02*
X20026634Y-9161108D01*
X19951834Y-10990573D02*
X19951834Y-11140573D01*
X19876834Y-11065573D02*
X20026834Y-11065573D01*
X20069834Y-6855508D02*
X20069834Y-7005508D01*
X19994834Y-6930508D02*
X20144834Y-6930508D01*
X20069834Y-8760008D02*
X20069834Y-8910008D01*
X19994834Y-8835008D02*
X20144834Y-8835008D01*
X20070034Y-10664473D02*
X20070034Y-10814473D01*
X19995034Y-10739473D02*
X20145034Y-10739473D01*
X20326434Y-6857008D02*
X20326434Y-7007008D01*
X20251434Y-6932008D02*
X20401434Y-6932008D01*
X20326434Y-8761508D02*
X20326434Y-8911508D01*
X20251434Y-8836508D02*
X20401434Y-8836508D01*
X20326634Y-10665973D02*
X20326634Y-10815973D01*
X20251634Y-10740973D02*
X20401634Y-10740973D01*
X20586634Y-6927608D02*
X20586634Y-7077608D01*
X20511634Y-7002608D02*
X20661634Y-7002608D01*
X20586634Y-8832108D02*
X20586634Y-8982108D01*
X20511634Y-8907108D02*
X20661634Y-8907108D01*
X20586834Y-10736573D02*
X20586834Y-10886573D01*
X20511834Y-10811573D02*
X20661834Y-10811573D01*
X20764434Y-6970908D02*
X20764434Y-7120908D01*
X20689434Y-7045908D02*
X20839434Y-7045908D01*
X20764434Y-8875408D02*
X20764434Y-9025408D01*
X20689434Y-8950408D02*
X20839434Y-8950408D01*
X20764634Y-10779873D02*
X20764634Y-10929873D01*
X20689634Y-10854873D02*
X20839634Y-10854873D01*
X20825834Y-7067008D02*
X20825834Y-7217008D01*
X20750834Y-7142008D02*
X20900834Y-7142008D01*
X20825834Y-8971508D02*
X20825834Y-9121508D01*
X20750834Y-9046508D02*
X20900834Y-9046508D01*
X20826034Y-10875973D02*
X20826034Y-11025973D01*
X20751034Y-10950973D02*
X20901034Y-10950973D01*
X21741395Y-11624500D02*
X21741395Y-11774500D01*
X21666395Y-11699500D02*
X21816395Y-11699500D01*
X21802795Y-11720600D02*
X21802795Y-11870600D01*
X21727795Y-11795600D02*
X21877795Y-11795600D01*
X21857195Y-7181608D02*
X21857195Y-7331608D01*
X21782195Y-7256608D02*
X21932195Y-7256608D01*
X21857195Y-9086108D02*
X21857195Y-9236108D01*
X21782195Y-9161108D02*
X21932195Y-9161108D01*
X21975395Y-6855508D02*
X21975395Y-7005508D01*
X21900395Y-6930508D02*
X22050395Y-6930508D01*
X21975395Y-8760008D02*
X21975395Y-8910008D01*
X21900395Y-8835008D02*
X22050395Y-8835008D01*
X21980595Y-11763900D02*
X21980595Y-11913900D01*
X21905595Y-11838900D02*
X22055595Y-11838900D01*
X22231995Y-6857008D02*
X22231995Y-7007008D01*
X22156995Y-6932008D02*
X22306995Y-6932008D01*
X22231995Y-8761508D02*
X22231995Y-8911508D01*
X22156995Y-8836508D02*
X22306995Y-8836508D01*
X22240795Y-11834500D02*
X22240795Y-11984500D01*
X22165795Y-11909500D02*
X22315795Y-11909500D01*
X22492194Y-6927608D02*
X22492194Y-7077608D01*
X22417194Y-7002608D02*
X22567194Y-7002608D01*
X22492194Y-8832108D02*
X22492194Y-8982108D01*
X22417194Y-8907108D02*
X22567194Y-8907108D01*
X22497394Y-11836000D02*
X22497394Y-11986000D01*
X22422394Y-11911000D02*
X22572394Y-11911000D01*
X22615594Y-11509900D02*
X22615594Y-11659900D01*
X22540594Y-11584900D02*
X22690594Y-11584900D01*
X22669994Y-6970908D02*
X22669994Y-7120908D01*
X22594994Y-7045908D02*
X22744994Y-7045908D01*
X22669994Y-8875408D02*
X22669994Y-9025408D01*
X22594994Y-8950408D02*
X22744994Y-8950408D01*
X22731394Y-7067008D02*
X22731394Y-7217008D01*
X22656394Y-7142008D02*
X22806394Y-7142008D01*
X22731394Y-8971508D02*
X22731394Y-9121508D01*
X22656394Y-9046508D02*
X22806394Y-9046508D01*
X23760284Y-6224532D02*
X23760284Y-6374532D01*
X23685284Y-6299532D02*
X23835284Y-6299532D01*
X23760284Y-8128532D02*
X23760284Y-8278532D01*
X23685284Y-8203532D02*
X23835284Y-8203532D01*
X23760284Y-10034032D02*
X23760284Y-10184032D01*
X23685284Y-10109032D02*
X23835284Y-10109032D01*
X23878484Y-5898432D02*
X23878484Y-6048432D01*
X23803484Y-5973432D02*
X23953484Y-5973432D01*
X23878484Y-7802432D02*
X23878484Y-7952432D01*
X23803484Y-7877432D02*
X23953484Y-7877432D01*
X23878484Y-9707932D02*
X23878484Y-9857932D01*
X23803484Y-9782932D02*
X23953484Y-9782932D01*
X24135084Y-5899932D02*
X24135084Y-6049932D01*
X24060084Y-5974932D02*
X24210084Y-5974932D01*
X24135084Y-7803932D02*
X24135084Y-7953932D01*
X24060084Y-7878932D02*
X24210084Y-7878932D01*
X24135084Y-9709432D02*
X24135084Y-9859432D01*
X24060084Y-9784432D02*
X24210084Y-9784432D01*
X24395284Y-5970532D02*
X24395284Y-6120532D01*
X24320284Y-6045532D02*
X24470284Y-6045532D01*
X24395284Y-7874532D02*
X24395284Y-8024532D01*
X24320284Y-7949532D02*
X24470284Y-7949532D01*
X24395284Y-9780032D02*
X24395284Y-9930032D01*
X24320284Y-9855032D02*
X24470284Y-9855032D01*
X24573084Y-6013832D02*
X24573084Y-6163832D01*
X24498084Y-6088832D02*
X24648084Y-6088832D01*
X24573084Y-7917832D02*
X24573084Y-8067832D01*
X24498084Y-7992832D02*
X24648084Y-7992832D01*
X24573084Y-9823332D02*
X24573084Y-9973332D01*
X24498084Y-9898332D02*
X24648084Y-9898332D01*
X24634484Y-6109932D02*
X24634484Y-6259932D01*
X24559484Y-6184932D02*
X24709484Y-6184932D01*
X24634484Y-8013932D02*
X24634484Y-8163932D01*
X24559484Y-8088932D02*
X24709484Y-8088932D01*
X24634484Y-9919432D02*
X24634484Y-10069432D01*
X24559484Y-9994432D02*
X24709484Y-9994432D01*
X25664784Y-5623532D02*
X25664784Y-5773532D01*
X25589784Y-5698532D02*
X25739784Y-5698532D01*
X25664784Y-7528532D02*
X25664784Y-7678532D01*
X25589784Y-7603532D02*
X25739784Y-7603532D01*
X25664784Y-9435532D02*
X25664784Y-9585532D01*
X25589784Y-9510532D02*
X25739784Y-9510532D01*
X25782984Y-5297432D02*
X25782984Y-5447432D01*
X25707984Y-5372432D02*
X25857984Y-5372432D01*
X25782984Y-7202432D02*
X25782984Y-7352432D01*
X25707984Y-7277432D02*
X25857984Y-7277432D01*
X25782984Y-9109432D02*
X25782984Y-9259432D01*
X25707984Y-9184432D02*
X25857984Y-9184432D01*
X26039584Y-5298932D02*
X26039584Y-5448932D01*
X25964584Y-5373932D02*
X26114584Y-5373932D01*
X26039584Y-7203932D02*
X26039584Y-7353932D01*
X25964584Y-7278932D02*
X26114584Y-7278932D01*
X26039584Y-9110932D02*
X26039584Y-9260932D01*
X25964584Y-9185932D02*
X26114584Y-9185932D01*
X26299784Y-5369532D02*
X26299784Y-5519532D01*
X26224784Y-5444532D02*
X26374784Y-5444532D01*
X26299784Y-7274532D02*
X26299784Y-7424532D01*
X26224784Y-7349532D02*
X26374784Y-7349532D01*
X26299784Y-9181532D02*
X26299784Y-9331532D01*
X26224784Y-9256532D02*
X26374784Y-9256532D01*
X26477584Y-5412832D02*
X26477584Y-5562832D01*
X26402584Y-5487832D02*
X26552584Y-5487832D01*
X26477584Y-7317832D02*
X26477584Y-7467832D01*
X26402584Y-7392832D02*
X26552584Y-7392832D01*
X26477584Y-9224832D02*
X26477584Y-9374832D01*
X26402584Y-9299832D02*
X26552584Y-9299832D01*
X26538984Y-5508932D02*
X26538984Y-5658932D01*
X26463984Y-5583932D02*
X26613984Y-5583932D01*
X26538984Y-7413932D02*
X26538984Y-7563932D01*
X26463984Y-7488932D02*
X26613984Y-7488932D01*
X26538984Y-9320932D02*
X26538984Y-9470932D01*
X26463984Y-9395932D02*
X26613984Y-9395932D01*
X27091018Y-12302164D02*
X27091018Y-12452164D01*
X27016018Y-12377164D02*
X27166018Y-12377164D01*
X27237190Y-11987607D02*
X27237190Y-12137607D01*
X27162190Y-12062607D02*
X27312190Y-12062607D01*
X27454000Y-8818000D02*
X27454000Y-8968000D01*
X27379000Y-8893000D02*
X27529000Y-8893000D01*
X27492683Y-12011465D02*
X27492683Y-12161465D01*
X27417683Y-12086465D02*
X27567683Y-12086465D01*
X27515400Y-8914100D02*
X27515400Y-9064100D01*
X27440400Y-8989100D02*
X27590400Y-8989100D01*
X27569800Y-6277500D02*
X27569800Y-6427500D01*
X27494800Y-6352500D02*
X27644800Y-6352500D01*
X27569800Y-10084532D02*
X27569800Y-10234532D01*
X27494800Y-10159532D02*
X27644800Y-10159532D01*
X27688000Y-5951400D02*
X27688000Y-6101400D01*
X27613000Y-6026400D02*
X27763000Y-6026400D01*
X27688000Y-9758432D02*
X27688000Y-9908432D01*
X27613000Y-9833432D02*
X27763000Y-9833432D01*
X27693200Y-8957400D02*
X27693200Y-9107400D01*
X27618200Y-9032400D02*
X27768200Y-9032400D01*
X27745739Y-12104474D02*
X27745739Y-12254474D01*
X27670739Y-12179474D02*
X27820739Y-12179474D01*
X27919089Y-12163106D02*
X27919089Y-12313106D01*
X27844089Y-12238106D02*
X27994089Y-12238106D01*
X27944600Y-5952900D02*
X27944600Y-6102900D01*
X27869600Y-6027900D02*
X28019600Y-6027900D01*
X27944600Y-9759932D02*
X27944600Y-9909932D01*
X27869600Y-9834932D02*
X28019600Y-9834932D01*
X27953400Y-9028000D02*
X27953400Y-9178000D01*
X27878400Y-9103000D02*
X28028400Y-9103000D01*
X27971879Y-12264192D02*
X27971879Y-12414192D01*
X27896879Y-12339192D02*
X28046879Y-12339192D01*
X28204800Y-6023500D02*
X28204800Y-6173500D01*
X28129800Y-6098500D02*
X28279800Y-6098500D01*
X28204800Y-9830532D02*
X28204800Y-9980532D01*
X28129800Y-9905532D02*
X28279800Y-9905532D01*
X28210000Y-9029500D02*
X28210000Y-9179500D01*
X28135000Y-9104500D02*
X28285000Y-9104500D01*
X28328200Y-8703400D02*
X28328200Y-8853400D01*
X28253200Y-8778400D02*
X28403200Y-8778400D01*
X28382600Y-6066800D02*
X28382600Y-6216800D01*
X28307600Y-6141800D02*
X28457600Y-6141800D01*
X28382600Y-9873832D02*
X28382600Y-10023832D01*
X28307600Y-9948832D02*
X28457600Y-9948832D01*
X28444000Y-6162900D02*
X28444000Y-6312900D01*
X28369000Y-6237900D02*
X28519000Y-6237900D01*
X28444000Y-9969932D02*
X28444000Y-10119932D01*
X28369000Y-10044932D02*
X28519000Y-10044932D01*
X29211213Y-12608913D02*
X29211213Y-12758913D01*
X29136213Y-12683913D02*
X29286213Y-12683913D01*
X29358900Y-9063100D02*
X29358900Y-9213100D01*
X29283900Y-9138100D02*
X29433900Y-9138100D01*
X29409786Y-12324517D02*
X29409786Y-12474517D01*
X29334786Y-12399517D02*
X29484786Y-12399517D01*
X29420300Y-9159200D02*
X29420300Y-9309200D01*
X29345300Y-9234200D02*
X29495300Y-9234200D01*
X29474800Y-6523500D02*
X29474800Y-6673500D01*
X29399800Y-6598500D02*
X29549800Y-6598500D01*
X29474800Y-10332032D02*
X29474800Y-10482032D01*
X29399800Y-10407032D02*
X29549800Y-10407032D01*
X29593000Y-6197400D02*
X29593000Y-6347400D01*
X29518000Y-6272400D02*
X29668000Y-6272400D01*
X29593000Y-10005932D02*
X29593000Y-10155932D01*
X29518000Y-10080932D02*
X29668000Y-10080932D01*
X29598100Y-9202500D02*
X29598100Y-9352500D01*
X29523100Y-9277500D02*
X29673100Y-9277500D01*
X29657255Y-12392379D02*
X29657255Y-12542379D01*
X29582255Y-12467379D02*
X29732255Y-12467379D01*
X29849600Y-6198900D02*
X29849600Y-6348900D01*
X29774600Y-6273900D02*
X29924600Y-6273900D01*
X29849600Y-10007432D02*
X29849600Y-10157432D01*
X29774600Y-10082432D02*
X29924600Y-10082432D01*
X29858300Y-9273100D02*
X29858300Y-9423100D01*
X29783300Y-9348100D02*
X29933300Y-9348100D01*
X29890316Y-12527918D02*
X29890316Y-12677918D01*
X29815316Y-12602918D02*
X29965316Y-12602918D01*
X30050851Y-12615760D02*
X30050851Y-12765760D01*
X29975851Y-12690760D02*
X30125851Y-12690760D01*
X30085286Y-12724477D02*
X30085286Y-12874477D01*
X30010286Y-12799477D02*
X30160286Y-12799477D01*
X30109800Y-6269500D02*
X30109800Y-6419500D01*
X30034800Y-6344500D02*
X30184800Y-6344500D01*
X30109800Y-10078032D02*
X30109800Y-10228032D01*
X30034800Y-10153032D02*
X30184800Y-10153032D01*
X30114900Y-9274600D02*
X30114900Y-9424600D01*
X30039900Y-9349600D02*
X30189900Y-9349600D01*
X30233100Y-8948500D02*
X30233100Y-9098500D01*
X30158100Y-9023500D02*
X30308100Y-9023500D01*
X30287600Y-6312800D02*
X30287600Y-6462800D01*
X30212600Y-6387800D02*
X30362600Y-6387800D01*
X30287600Y-10121332D02*
X30287600Y-10271332D01*
X30212600Y-10196332D02*
X30362600Y-10196332D01*
X30349000Y-6408900D02*
X30349000Y-6558900D01*
X30274000Y-6483900D02*
X30424000Y-6483900D01*
X30349000Y-10217432D02*
X30349000Y-10367432D01*
X30274000Y-10292432D02*
X30424000Y-10292432D01*
X30849699Y-13737962D02*
X30849699Y-13887962D01*
X30774699Y-13812962D02*
X30924699Y-13812962D01*
X30979298Y-13516490D02*
X30979298Y-13666490D01*
X30904298Y-13591490D02*
X31054298Y-13591490D01*
X31073010Y-14003376D02*
X31073010Y-14153376D01*
X30998010Y-14078376D02*
X31148010Y-14078376D01*
X31170540Y-13326450D02*
X31170540Y-13476450D01*
X31095540Y-13401450D02*
X31245540Y-13401450D01*
X31251100Y-5992000D02*
X31251100Y-6142000D01*
X31176100Y-6067000D02*
X31326100Y-6067000D01*
X31251100Y-6246000D02*
X31251100Y-6396000D01*
X31176100Y-6321000D02*
X31326100Y-6321000D01*
X31251100Y-6500000D02*
X31251100Y-6650000D01*
X31176100Y-6575000D02*
X31326100Y-6575000D01*
X31251100Y-6754000D02*
X31251100Y-6904000D01*
X31176100Y-6829000D02*
X31326100Y-6829000D01*
X31251100Y-7008000D02*
X31251100Y-7158000D01*
X31176100Y-7083000D02*
X31326100Y-7083000D01*
X31251100Y-7262000D02*
X31251100Y-7412000D01*
X31176100Y-7337000D02*
X31326100Y-7337000D01*
X31251100Y-7516000D02*
X31251100Y-7666000D01*
X31176100Y-7591000D02*
X31326100Y-7591000D01*
X31251100Y-7770000D02*
X31251100Y-7920000D01*
X31176100Y-7845000D02*
X31326100Y-7845000D01*
X31251100Y-8024000D02*
X31251100Y-8174000D01*
X31176100Y-8099000D02*
X31326100Y-8099000D01*
X31251100Y-8278000D02*
X31251100Y-8428000D01*
X31176100Y-8353000D02*
X31326100Y-8353000D01*
X31251100Y-8532000D02*
X31251100Y-8682000D01*
X31176100Y-8607000D02*
X31326100Y-8607000D01*
X31251100Y-8786000D02*
X31251100Y-8936000D01*
X31176100Y-8861000D02*
X31326100Y-8861000D01*
X31296939Y-13194120D02*
X31296939Y-13344120D01*
X31221939Y-13269120D02*
X31371939Y-13269120D01*
X31410864Y-13188996D02*
X31410864Y-13338996D01*
X31335864Y-13263996D02*
X31485864Y-13263996D01*
X31502200Y-9122500D02*
X31502200Y-9272500D01*
X31427200Y-9197500D02*
X31577200Y-9197500D01*
X31756200Y-9122500D02*
X31756200Y-9272500D01*
X31681200Y-9197500D02*
X31831200Y-9197500D01*
X32010200Y-9122500D02*
X32010200Y-9272500D01*
X31935200Y-9197500D02*
X32085200Y-9197500D01*
X32264200Y-9122500D02*
X32264200Y-9272500D01*
X32189200Y-9197500D02*
X32339200Y-9197500D01*
X32518200Y-9122500D02*
X32518200Y-9272500D01*
X32443200Y-9197500D02*
X32593200Y-9197500D01*
X32775100Y-5992000D02*
X32775100Y-6142000D01*
X32700100Y-6067000D02*
X32850100Y-6067000D01*
X32775100Y-6246000D02*
X32775100Y-6396000D01*
X32700100Y-6321000D02*
X32850100Y-6321000D01*
X32775100Y-6500000D02*
X32775100Y-6650000D01*
X32700100Y-6575000D02*
X32850100Y-6575000D01*
X32775100Y-6754000D02*
X32775100Y-6904000D01*
X32700100Y-6829000D02*
X32850100Y-6829000D01*
X32775100Y-7008000D02*
X32775100Y-7158000D01*
X32700100Y-7083000D02*
X32850100Y-7083000D01*
X32775100Y-7262000D02*
X32775100Y-7412000D01*
X32700100Y-7337000D02*
X32850100Y-7337000D01*
X32775100Y-7516000D02*
X32775100Y-7666000D01*
X32700100Y-7591000D02*
X32850100Y-7591000D01*
X32775100Y-7770000D02*
X32775100Y-7920000D01*
X32700100Y-7845000D02*
X32850100Y-7845000D01*
X32775100Y-8024000D02*
X32775100Y-8174000D01*
X32700100Y-8099000D02*
X32850100Y-8099000D01*
X32775100Y-8278000D02*
X32775100Y-8428000D01*
X32700100Y-8353000D02*
X32850100Y-8353000D01*
X32775100Y-8532000D02*
X32775100Y-8682000D01*
X32700100Y-8607000D02*
X32850100Y-8607000D01*
X32775100Y-8786000D02*
X32775100Y-8936000D01*
X32700100Y-8861000D02*
X32850100Y-8861000D01*
D14*
X23254840Y-7520540D02*
X23254840Y-7393260D01*
X23127560Y-7393260D01*
X23127560Y-7520540D01*
X23254840Y-7520540D01*
D12*
X3194300Y-5987000D02*
X3294300Y-5887000D01*
X3194300Y-5787000D01*
X3094300Y-5887000D01*
X3194300Y-5987000D01*
X3239621Y-9371000D02*
X3339621Y-9271000D01*
X3239621Y-9171000D01*
X3139621Y-9271000D01*
X3239621Y-9371000D01*
X3408000Y-13302000D02*
X3508000Y-13202000D01*
X3408000Y-13102000D01*
X3308000Y-13202000D01*
X3408000Y-13302000D01*
X5432022Y-6589000D02*
X5532022Y-6489000D01*
X5432022Y-6389000D01*
X5332022Y-6489000D01*
X5432022Y-6589000D01*
X5671000Y-13429000D02*
X5771000Y-13329000D01*
X5671000Y-13229000D01*
X5571000Y-13329000D01*
X5671000Y-13429000D01*
X9234143Y-6106000D02*
X9334143Y-6006000D01*
X9234143Y-5906000D01*
X9134143Y-6006000D01*
X9234143Y-6106000D01*
X9823690Y-11042000D02*
X9923690Y-10942000D01*
X9823690Y-10842000D01*
X9723690Y-10942000D01*
X9823690Y-11042000D01*
X13041800Y-7556900D02*
X13141800Y-7456900D01*
X13041800Y-7356900D01*
X12941800Y-7456900D01*
X13041800Y-7556900D01*
X13041800Y-10585717D02*
X13141800Y-10485717D01*
X13041800Y-10385717D01*
X12941800Y-10485717D01*
X13041800Y-10585717D01*
X14683000Y-8569600D02*
X14783000Y-8469600D01*
X14683000Y-8369600D01*
X14583000Y-8469600D01*
X14683000Y-8569600D01*
X14683000Y-10472600D02*
X14783000Y-10372600D01*
X14683000Y-10272600D01*
X14583000Y-10372600D01*
X14683000Y-10472600D01*
X16330000Y-8569600D02*
X16430000Y-8469600D01*
X16330000Y-8369600D01*
X16230000Y-8469600D01*
X16330000Y-8569600D01*
X16330000Y-10472600D02*
X16430000Y-10372600D01*
X16330000Y-10272600D01*
X16230000Y-10372600D01*
X16330000Y-10472600D01*
X19902621Y-8569600D02*
X20002621Y-8469600D01*
X19902621Y-8369600D01*
X19802621Y-8469600D01*
X19902621Y-8569600D01*
X19902621Y-10472600D02*
X20002621Y-10372600D01*
X19902621Y-10272600D01*
X19802621Y-10372600D01*
X19902621Y-10472600D01*
X21550000Y-8569600D02*
X21650000Y-8469600D01*
X21550000Y-8369600D01*
X21450000Y-8469600D01*
X21550000Y-8569600D01*
X21550000Y-10472600D02*
X21650000Y-10372600D01*
X21550000Y-10272600D01*
X21450000Y-10372600D01*
X21550000Y-10472600D01*
X23191200Y-10585717D02*
X23291200Y-10485717D01*
X23191200Y-10385717D01*
X23091200Y-10485717D01*
X23191200Y-10585717D01*
X26409310Y-11042000D02*
X26509310Y-10942000D01*
X26409310Y-10842000D01*
X26309310Y-10942000D01*
X26409310Y-11042000D01*
X26998500Y-6106000D02*
X27098500Y-6006000D01*
X26998500Y-5906000D01*
X26898500Y-6006000D01*
X26998500Y-6106000D01*
X30559000Y-13431000D02*
X30659000Y-13331000D01*
X30559000Y-13231000D01*
X30459000Y-13331000D01*
X30559000Y-13431000D01*
X30800621Y-6589000D02*
X30900621Y-6489000D01*
X30800621Y-6389000D01*
X30700621Y-6489000D01*
X30800621Y-6589000D01*
X32824642Y-13302000D02*
X32924642Y-13202000D01*
X32824642Y-13102000D01*
X32724642Y-13202000D01*
X32824642Y-13302000D01*
X32993000Y-9371000D02*
X33093000Y-9271000D01*
X32993000Y-9171000D01*
X32893000Y-9271000D01*
X32993000Y-9371000D01*
X33026721Y-5987000D02*
X33126721Y-5887000D01*
X33026721Y-5787000D01*
X32926721Y-5887000D01*
X33026721Y-5987000D01*
D15*
X7231854Y-6672429D02*
X7441854Y-6882429D01*
X7441854Y-6672429D02*
X7231854Y-6882429D01*
X7441854Y-6777429D02*
G75*
G02*
X7231854Y-6777429I-105000J0D01*
G01*
X7231854Y-6777429D02*
G75*
G02*
X7441854Y-6777429I105000J0D01*
G01*
X7231854Y-8572429D02*
X7441854Y-8782429D01*
X7441854Y-8572429D02*
X7231854Y-8782429D01*
X7441854Y-8677429D02*
G75*
G02*
X7231854Y-8677429I-105000J0D01*
G01*
X7231854Y-8677429D02*
G75*
G02*
X7441854Y-8677429I105000J0D01*
G01*
X28790461Y-6673460D02*
X29000461Y-6883460D01*
X29000461Y-6673460D02*
X28790461Y-6883460D01*
X29000461Y-6778460D02*
G75*
G02*
X28790461Y-6778460I-105000J0D01*
G01*
X28790461Y-6778460D02*
G75*
G02*
X29000461Y-6778460I105000J0D01*
G01*
X28790461Y-8573460D02*
X29000461Y-8783460D01*
X29000461Y-8573460D02*
X28790461Y-8783460D01*
X29000461Y-8678460D02*
G75*
G02*
X28790461Y-8678460I-105000J0D01*
G01*
X28790461Y-8678460D02*
G75*
G02*
X29000461Y-8678460I105000J0D01*
G01*
D12*
X3281782Y-15984810D02*
X3281782Y-15784810D01*
X3281782Y-15784810D02*
X3329401Y-15784810D01*
X3329401Y-15784810D02*
X3357972Y-15794333D01*
X3357972Y-15794333D02*
X3377020Y-15813381D01*
X3377020Y-15813381D02*
X3386544Y-15832429D01*
X3386544Y-15832429D02*
X3396067Y-15870524D01*
X3396067Y-15870524D02*
X3396067Y-15899095D01*
X3396067Y-15899095D02*
X3386544Y-15937190D01*
X3386544Y-15937190D02*
X3377020Y-15956238D01*
X3377020Y-15956238D02*
X3357972Y-15975286D01*
X3357972Y-15975286D02*
X3329401Y-15984810D01*
X3329401Y-15984810D02*
X3281782Y-15984810D01*
X3481782Y-15984810D02*
X3481782Y-15851476D01*
X3481782Y-15889571D02*
X3491305Y-15870524D01*
X3491305Y-15870524D02*
X3500829Y-15861000D01*
X3500829Y-15861000D02*
X3519877Y-15851476D01*
X3519877Y-15851476D02*
X3538925Y-15851476D01*
X3605591Y-15984810D02*
X3605591Y-15851476D01*
X3605591Y-15784810D02*
X3596067Y-15794333D01*
X3596067Y-15794333D02*
X3605591Y-15803857D01*
X3605591Y-15803857D02*
X3615115Y-15794333D01*
X3615115Y-15794333D02*
X3605591Y-15784810D01*
X3605591Y-15784810D02*
X3605591Y-15803857D01*
X3729401Y-15984810D02*
X3710353Y-15975286D01*
X3710353Y-15975286D02*
X3700829Y-15956238D01*
X3700829Y-15956238D02*
X3700829Y-15784810D01*
X3834163Y-15984810D02*
X3815115Y-15975286D01*
X3815115Y-15975286D02*
X3805591Y-15956238D01*
X3805591Y-15956238D02*
X3805591Y-15784810D01*
X4062734Y-15984810D02*
X4062734Y-15784810D01*
X4062734Y-15784810D02*
X4129401Y-15927667D01*
X4129401Y-15927667D02*
X4196067Y-15784810D01*
X4196067Y-15784810D02*
X4196067Y-15984810D01*
X4377020Y-15984810D02*
X4377020Y-15880048D01*
X4377020Y-15880048D02*
X4367496Y-15861000D01*
X4367496Y-15861000D02*
X4348448Y-15851476D01*
X4348448Y-15851476D02*
X4310353Y-15851476D01*
X4310353Y-15851476D02*
X4291306Y-15861000D01*
X4377020Y-15975286D02*
X4357972Y-15984810D01*
X4357972Y-15984810D02*
X4310353Y-15984810D01*
X4310353Y-15984810D02*
X4291306Y-15975286D01*
X4291306Y-15975286D02*
X4281782Y-15956238D01*
X4281782Y-15956238D02*
X4281782Y-15937190D01*
X4281782Y-15937190D02*
X4291306Y-15918143D01*
X4291306Y-15918143D02*
X4310353Y-15908619D01*
X4310353Y-15908619D02*
X4357972Y-15908619D01*
X4357972Y-15908619D02*
X4377020Y-15899095D01*
X4472258Y-15851476D02*
X4472258Y-16051476D01*
X4472258Y-15861000D02*
X4491306Y-15851476D01*
X4491306Y-15851476D02*
X4529401Y-15851476D01*
X4529401Y-15851476D02*
X4548448Y-15861000D01*
X4548448Y-15861000D02*
X4557972Y-15870524D01*
X4557972Y-15870524D02*
X4567496Y-15889571D01*
X4567496Y-15889571D02*
X4567496Y-15946714D01*
X4567496Y-15946714D02*
X4557972Y-15965762D01*
X4557972Y-15965762D02*
X4548448Y-15975286D01*
X4548448Y-15975286D02*
X4529401Y-15984810D01*
X4529401Y-15984810D02*
X4491306Y-15984810D01*
X4491306Y-15984810D02*
X4472258Y-15975286D01*
X4653210Y-15965762D02*
X4662734Y-15975286D01*
X4662734Y-15975286D02*
X4653210Y-15984810D01*
X4653210Y-15984810D02*
X4643687Y-15975286D01*
X4643687Y-15975286D02*
X4653210Y-15965762D01*
X4653210Y-15965762D02*
X4653210Y-15984810D01*
X4653210Y-15861000D02*
X4662734Y-15870524D01*
X4662734Y-15870524D02*
X4653210Y-15880048D01*
X4653210Y-15880048D02*
X4643687Y-15870524D01*
X4643687Y-15870524D02*
X4653210Y-15861000D01*
X4653210Y-15861000D02*
X4653210Y-15880048D01*
D11*
X2990525Y-16298086D02*
X3021005Y-16328566D01*
X3021005Y-16298086D02*
X2990525Y-16328566D01*
D12*
X3319877Y-16204810D02*
X3338925Y-16204810D01*
X3338925Y-16204810D02*
X3357972Y-16214333D01*
X3357972Y-16214333D02*
X3367496Y-16223857D01*
X3367496Y-16223857D02*
X3377020Y-16242905D01*
X3377020Y-16242905D02*
X3386544Y-16281000D01*
X3386544Y-16281000D02*
X3386544Y-16328619D01*
X3386544Y-16328619D02*
X3377020Y-16366714D01*
X3377020Y-16366714D02*
X3367496Y-16385762D01*
X3367496Y-16385762D02*
X3357972Y-16395286D01*
X3357972Y-16395286D02*
X3338925Y-16404810D01*
X3338925Y-16404810D02*
X3319877Y-16404810D01*
X3319877Y-16404810D02*
X3300829Y-16395286D01*
X3300829Y-16395286D02*
X3291305Y-16385762D01*
X3291305Y-16385762D02*
X3281782Y-16366714D01*
X3281782Y-16366714D02*
X3272258Y-16328619D01*
X3272258Y-16328619D02*
X3272258Y-16281000D01*
X3272258Y-16281000D02*
X3281782Y-16242905D01*
X3281782Y-16242905D02*
X3291305Y-16223857D01*
X3291305Y-16223857D02*
X3300829Y-16214333D01*
X3300829Y-16214333D02*
X3319877Y-16204810D01*
X3472258Y-16385762D02*
X3481782Y-16395286D01*
X3481782Y-16395286D02*
X3472258Y-16404810D01*
X3472258Y-16404810D02*
X3462734Y-16395286D01*
X3462734Y-16395286D02*
X3472258Y-16385762D01*
X3472258Y-16385762D02*
X3472258Y-16404810D01*
X3548448Y-16204810D02*
X3672258Y-16204810D01*
X3672258Y-16204810D02*
X3605591Y-16281000D01*
X3605591Y-16281000D02*
X3634163Y-16281000D01*
X3634163Y-16281000D02*
X3653210Y-16290524D01*
X3653210Y-16290524D02*
X3662734Y-16300048D01*
X3662734Y-16300048D02*
X3672258Y-16319095D01*
X3672258Y-16319095D02*
X3672258Y-16366714D01*
X3672258Y-16366714D02*
X3662734Y-16385762D01*
X3662734Y-16385762D02*
X3653210Y-16395286D01*
X3653210Y-16395286D02*
X3634163Y-16404810D01*
X3634163Y-16404810D02*
X3577020Y-16404810D01*
X3577020Y-16404810D02*
X3557972Y-16395286D01*
X3557972Y-16395286D02*
X3548448Y-16385762D01*
X3796067Y-16204810D02*
X3815115Y-16204810D01*
X3815115Y-16204810D02*
X3834163Y-16214333D01*
X3834163Y-16214333D02*
X3843686Y-16223857D01*
X3843686Y-16223857D02*
X3853210Y-16242905D01*
X3853210Y-16242905D02*
X3862734Y-16281000D01*
X3862734Y-16281000D02*
X3862734Y-16328619D01*
X3862734Y-16328619D02*
X3853210Y-16366714D01*
X3853210Y-16366714D02*
X3843686Y-16385762D01*
X3843686Y-16385762D02*
X3834163Y-16395286D01*
X3834163Y-16395286D02*
X3815115Y-16404810D01*
X3815115Y-16404810D02*
X3796067Y-16404810D01*
X3796067Y-16404810D02*
X3777020Y-16395286D01*
X3777020Y-16395286D02*
X3767496Y-16385762D01*
X3767496Y-16385762D02*
X3757972Y-16366714D01*
X3757972Y-16366714D02*
X3748448Y-16328619D01*
X3748448Y-16328619D02*
X3748448Y-16281000D01*
X3748448Y-16281000D02*
X3757972Y-16242905D01*
X3757972Y-16242905D02*
X3767496Y-16223857D01*
X3767496Y-16223857D02*
X3777020Y-16214333D01*
X3777020Y-16214333D02*
X3796067Y-16204810D01*
X4043686Y-16204810D02*
X3948448Y-16204810D01*
X3948448Y-16204810D02*
X3938925Y-16300048D01*
X3938925Y-16300048D02*
X3948448Y-16290524D01*
X3948448Y-16290524D02*
X3967496Y-16281000D01*
X3967496Y-16281000D02*
X4015115Y-16281000D01*
X4015115Y-16281000D02*
X4034163Y-16290524D01*
X4034163Y-16290524D02*
X4043686Y-16300048D01*
X4043686Y-16300048D02*
X4053210Y-16319095D01*
X4053210Y-16319095D02*
X4053210Y-16366714D01*
X4053210Y-16366714D02*
X4043686Y-16385762D01*
X4043686Y-16385762D02*
X4034163Y-16395286D01*
X4034163Y-16395286D02*
X4015115Y-16404810D01*
X4015115Y-16404810D02*
X3967496Y-16404810D01*
X3967496Y-16404810D02*
X3948448Y-16395286D01*
X3948448Y-16395286D02*
X3938925Y-16385762D01*
X4138925Y-16404810D02*
X4138925Y-16271476D01*
X4138925Y-16290524D02*
X4148448Y-16281000D01*
X4148448Y-16281000D02*
X4167496Y-16271476D01*
X4167496Y-16271476D02*
X4196068Y-16271476D01*
X4196068Y-16271476D02*
X4215115Y-16281000D01*
X4215115Y-16281000D02*
X4224639Y-16300048D01*
X4224639Y-16300048D02*
X4224639Y-16404810D01*
X4224639Y-16300048D02*
X4234163Y-16281000D01*
X4234163Y-16281000D02*
X4253210Y-16271476D01*
X4253210Y-16271476D02*
X4281782Y-16271476D01*
X4281782Y-16271476D02*
X4300829Y-16281000D01*
X4300829Y-16281000D02*
X4310353Y-16300048D01*
X4310353Y-16300048D02*
X4310353Y-16404810D01*
X4405591Y-16404810D02*
X4405591Y-16271476D01*
X4405591Y-16290524D02*
X4415115Y-16281000D01*
X4415115Y-16281000D02*
X4434163Y-16271476D01*
X4434163Y-16271476D02*
X4462734Y-16271476D01*
X4462734Y-16271476D02*
X4481782Y-16281000D01*
X4481782Y-16281000D02*
X4491306Y-16300048D01*
X4491306Y-16300048D02*
X4491306Y-16404810D01*
X4491306Y-16300048D02*
X4500829Y-16281000D01*
X4500829Y-16281000D02*
X4519877Y-16271476D01*
X4519877Y-16271476D02*
X4548448Y-16271476D01*
X4548448Y-16271476D02*
X4567496Y-16281000D01*
X4567496Y-16281000D02*
X4577020Y-16300048D01*
X4577020Y-16300048D02*
X4577020Y-16404810D01*
X4967496Y-16195286D02*
X4796068Y-16452429D01*
X5224639Y-16204810D02*
X5243687Y-16204810D01*
X5243687Y-16204810D02*
X5262734Y-16214333D01*
X5262734Y-16214333D02*
X5272258Y-16223857D01*
X5272258Y-16223857D02*
X5281782Y-16242905D01*
X5281782Y-16242905D02*
X5291306Y-16281000D01*
X5291306Y-16281000D02*
X5291306Y-16328619D01*
X5291306Y-16328619D02*
X5281782Y-16366714D01*
X5281782Y-16366714D02*
X5272258Y-16385762D01*
X5272258Y-16385762D02*
X5262734Y-16395286D01*
X5262734Y-16395286D02*
X5243687Y-16404810D01*
X5243687Y-16404810D02*
X5224639Y-16404810D01*
X5224639Y-16404810D02*
X5205591Y-16395286D01*
X5205591Y-16395286D02*
X5196068Y-16385762D01*
X5196068Y-16385762D02*
X5186544Y-16366714D01*
X5186544Y-16366714D02*
X5177020Y-16328619D01*
X5177020Y-16328619D02*
X5177020Y-16281000D01*
X5177020Y-16281000D02*
X5186544Y-16242905D01*
X5186544Y-16242905D02*
X5196068Y-16223857D01*
X5196068Y-16223857D02*
X5205591Y-16214333D01*
X5205591Y-16214333D02*
X5224639Y-16204810D01*
X5377020Y-16385762D02*
X5386544Y-16395286D01*
X5386544Y-16395286D02*
X5377020Y-16404810D01*
X5377020Y-16404810D02*
X5367496Y-16395286D01*
X5367496Y-16395286D02*
X5377020Y-16385762D01*
X5377020Y-16385762D02*
X5377020Y-16404810D01*
X5510353Y-16204810D02*
X5529401Y-16204810D01*
X5529401Y-16204810D02*
X5548449Y-16214333D01*
X5548449Y-16214333D02*
X5557972Y-16223857D01*
X5557972Y-16223857D02*
X5567496Y-16242905D01*
X5567496Y-16242905D02*
X5577020Y-16281000D01*
X5577020Y-16281000D02*
X5577020Y-16328619D01*
X5577020Y-16328619D02*
X5567496Y-16366714D01*
X5567496Y-16366714D02*
X5557972Y-16385762D01*
X5557972Y-16385762D02*
X5548449Y-16395286D01*
X5548449Y-16395286D02*
X5529401Y-16404810D01*
X5529401Y-16404810D02*
X5510353Y-16404810D01*
X5510353Y-16404810D02*
X5491306Y-16395286D01*
X5491306Y-16395286D02*
X5481782Y-16385762D01*
X5481782Y-16385762D02*
X5472258Y-16366714D01*
X5472258Y-16366714D02*
X5462734Y-16328619D01*
X5462734Y-16328619D02*
X5462734Y-16281000D01*
X5462734Y-16281000D02*
X5472258Y-16242905D01*
X5472258Y-16242905D02*
X5481782Y-16223857D01*
X5481782Y-16223857D02*
X5491306Y-16214333D01*
X5491306Y-16214333D02*
X5510353Y-16204810D01*
X5767496Y-16404810D02*
X5653210Y-16404810D01*
X5710353Y-16404810D02*
X5710353Y-16204810D01*
X5710353Y-16204810D02*
X5691306Y-16233381D01*
X5691306Y-16233381D02*
X5672258Y-16252429D01*
X5672258Y-16252429D02*
X5653210Y-16261952D01*
X5843687Y-16223857D02*
X5853210Y-16214333D01*
X5853210Y-16214333D02*
X5872258Y-16204810D01*
X5872258Y-16204810D02*
X5919877Y-16204810D01*
X5919877Y-16204810D02*
X5938925Y-16214333D01*
X5938925Y-16214333D02*
X5948449Y-16223857D01*
X5948449Y-16223857D02*
X5957972Y-16242905D01*
X5957972Y-16242905D02*
X5957972Y-16261952D01*
X5957972Y-16261952D02*
X5948449Y-16290524D01*
X5948449Y-16290524D02*
X5834163Y-16404810D01*
X5834163Y-16404810D02*
X5957972Y-16404810D01*
X6081782Y-16204810D02*
X6100830Y-16204810D01*
X6100830Y-16204810D02*
X6119877Y-16214333D01*
X6119877Y-16214333D02*
X6129401Y-16223857D01*
X6129401Y-16223857D02*
X6138925Y-16242905D01*
X6138925Y-16242905D02*
X6148449Y-16281000D01*
X6148449Y-16281000D02*
X6148449Y-16328619D01*
X6148449Y-16328619D02*
X6138925Y-16366714D01*
X6138925Y-16366714D02*
X6129401Y-16385762D01*
X6129401Y-16385762D02*
X6119877Y-16395286D01*
X6119877Y-16395286D02*
X6100830Y-16404810D01*
X6100830Y-16404810D02*
X6081782Y-16404810D01*
X6081782Y-16404810D02*
X6062734Y-16395286D01*
X6062734Y-16395286D02*
X6053210Y-16385762D01*
X6053210Y-16385762D02*
X6043687Y-16366714D01*
X6043687Y-16366714D02*
X6034163Y-16328619D01*
X6034163Y-16328619D02*
X6034163Y-16281000D01*
X6034163Y-16281000D02*
X6043687Y-16242905D01*
X6043687Y-16242905D02*
X6053210Y-16223857D01*
X6053210Y-16223857D02*
X6062734Y-16214333D01*
X6062734Y-16214333D02*
X6081782Y-16204810D01*
X6224639Y-16204810D02*
X6224639Y-16242905D01*
X6300830Y-16204810D02*
X6300830Y-16242905D01*
X6596068Y-16481000D02*
X6586544Y-16471476D01*
X6586544Y-16471476D02*
X6567496Y-16442905D01*
X6567496Y-16442905D02*
X6557972Y-16423857D01*
X6557972Y-16423857D02*
X6548449Y-16395286D01*
X6548449Y-16395286D02*
X6538925Y-16347667D01*
X6538925Y-16347667D02*
X6538925Y-16309571D01*
X6538925Y-16309571D02*
X6548449Y-16261952D01*
X6548449Y-16261952D02*
X6557972Y-16233381D01*
X6557972Y-16233381D02*
X6567496Y-16214333D01*
X6567496Y-16214333D02*
X6586544Y-16185762D01*
X6586544Y-16185762D02*
X6596068Y-16176238D01*
X6777020Y-16404810D02*
X6662734Y-16404810D01*
X6719877Y-16404810D02*
X6719877Y-16204810D01*
X6719877Y-16204810D02*
X6700830Y-16233381D01*
X6700830Y-16233381D02*
X6681782Y-16252429D01*
X6681782Y-16252429D02*
X6662734Y-16261952D01*
X7015115Y-16404810D02*
X7015115Y-16204810D01*
X7100830Y-16404810D02*
X7100830Y-16300048D01*
X7100830Y-16300048D02*
X7091306Y-16281000D01*
X7091306Y-16281000D02*
X7072258Y-16271476D01*
X7072258Y-16271476D02*
X7043687Y-16271476D01*
X7043687Y-16271476D02*
X7024639Y-16281000D01*
X7024639Y-16281000D02*
X7015115Y-16290524D01*
X7224639Y-16404810D02*
X7205592Y-16395286D01*
X7205592Y-16395286D02*
X7196068Y-16385762D01*
X7196068Y-16385762D02*
X7186544Y-16366714D01*
X7186544Y-16366714D02*
X7186544Y-16309571D01*
X7186544Y-16309571D02*
X7196068Y-16290524D01*
X7196068Y-16290524D02*
X7205592Y-16281000D01*
X7205592Y-16281000D02*
X7224639Y-16271476D01*
X7224639Y-16271476D02*
X7253211Y-16271476D01*
X7253211Y-16271476D02*
X7272258Y-16281000D01*
X7272258Y-16281000D02*
X7281782Y-16290524D01*
X7281782Y-16290524D02*
X7291306Y-16309571D01*
X7291306Y-16309571D02*
X7291306Y-16366714D01*
X7291306Y-16366714D02*
X7281782Y-16385762D01*
X7281782Y-16385762D02*
X7272258Y-16395286D01*
X7272258Y-16395286D02*
X7253211Y-16404810D01*
X7253211Y-16404810D02*
X7224639Y-16404810D01*
X7405592Y-16404810D02*
X7386544Y-16395286D01*
X7386544Y-16395286D02*
X7377020Y-16376238D01*
X7377020Y-16376238D02*
X7377020Y-16204810D01*
X7557973Y-16395286D02*
X7538925Y-16404810D01*
X7538925Y-16404810D02*
X7500830Y-16404810D01*
X7500830Y-16404810D02*
X7481782Y-16395286D01*
X7481782Y-16395286D02*
X7472258Y-16376238D01*
X7472258Y-16376238D02*
X7472258Y-16300048D01*
X7472258Y-16300048D02*
X7481782Y-16281000D01*
X7481782Y-16281000D02*
X7500830Y-16271476D01*
X7500830Y-16271476D02*
X7538925Y-16271476D01*
X7538925Y-16271476D02*
X7557973Y-16281000D01*
X7557973Y-16281000D02*
X7567496Y-16300048D01*
X7567496Y-16300048D02*
X7567496Y-16319095D01*
X7567496Y-16319095D02*
X7472258Y-16338143D01*
X7634163Y-16481000D02*
X7643687Y-16471476D01*
X7643687Y-16471476D02*
X7662734Y-16442905D01*
X7662734Y-16442905D02*
X7672258Y-16423857D01*
X7672258Y-16423857D02*
X7681782Y-16395286D01*
X7681782Y-16395286D02*
X7691306Y-16347667D01*
X7691306Y-16347667D02*
X7691306Y-16309571D01*
X7691306Y-16309571D02*
X7681782Y-16261952D01*
X7681782Y-16261952D02*
X7672258Y-16233381D01*
X7672258Y-16233381D02*
X7662734Y-16214333D01*
X7662734Y-16214333D02*
X7643687Y-16185762D01*
X7643687Y-16185762D02*
X7634163Y-16176238D01*
D11*
X3021005Y-16577326D02*
G75*
G02*
X2981005Y-16577326I-20000J0D01*
G01*
X2981005Y-16577326D02*
G75*
G02*
X3021005Y-16577326I20000J0D01*
G01*
D12*
X3319877Y-16468810D02*
X3338925Y-16468810D01*
X3338925Y-16468810D02*
X3357972Y-16478333D01*
X3357972Y-16478333D02*
X3367496Y-16487857D01*
X3367496Y-16487857D02*
X3377020Y-16506905D01*
X3377020Y-16506905D02*
X3386544Y-16545000D01*
X3386544Y-16545000D02*
X3386544Y-16592619D01*
X3386544Y-16592619D02*
X3377020Y-16630714D01*
X3377020Y-16630714D02*
X3367496Y-16649762D01*
X3367496Y-16649762D02*
X3357972Y-16659286D01*
X3357972Y-16659286D02*
X3338925Y-16668810D01*
X3338925Y-16668810D02*
X3319877Y-16668810D01*
X3319877Y-16668810D02*
X3300829Y-16659286D01*
X3300829Y-16659286D02*
X3291305Y-16649762D01*
X3291305Y-16649762D02*
X3281782Y-16630714D01*
X3281782Y-16630714D02*
X3272258Y-16592619D01*
X3272258Y-16592619D02*
X3272258Y-16545000D01*
X3272258Y-16545000D02*
X3281782Y-16506905D01*
X3281782Y-16506905D02*
X3291305Y-16487857D01*
X3291305Y-16487857D02*
X3300829Y-16478333D01*
X3300829Y-16478333D02*
X3319877Y-16468810D01*
X3472258Y-16649762D02*
X3481782Y-16659286D01*
X3481782Y-16659286D02*
X3472258Y-16668810D01*
X3472258Y-16668810D02*
X3462734Y-16659286D01*
X3462734Y-16659286D02*
X3472258Y-16649762D01*
X3472258Y-16649762D02*
X3472258Y-16668810D01*
X3653210Y-16535476D02*
X3653210Y-16668810D01*
X3605591Y-16459286D02*
X3557972Y-16602143D01*
X3557972Y-16602143D02*
X3681782Y-16602143D01*
X3796067Y-16468810D02*
X3815115Y-16468810D01*
X3815115Y-16468810D02*
X3834163Y-16478333D01*
X3834163Y-16478333D02*
X3843686Y-16487857D01*
X3843686Y-16487857D02*
X3853210Y-16506905D01*
X3853210Y-16506905D02*
X3862734Y-16545000D01*
X3862734Y-16545000D02*
X3862734Y-16592619D01*
X3862734Y-16592619D02*
X3853210Y-16630714D01*
X3853210Y-16630714D02*
X3843686Y-16649762D01*
X3843686Y-16649762D02*
X3834163Y-16659286D01*
X3834163Y-16659286D02*
X3815115Y-16668810D01*
X3815115Y-16668810D02*
X3796067Y-16668810D01*
X3796067Y-16668810D02*
X3777020Y-16659286D01*
X3777020Y-16659286D02*
X3767496Y-16649762D01*
X3767496Y-16649762D02*
X3757972Y-16630714D01*
X3757972Y-16630714D02*
X3748448Y-16592619D01*
X3748448Y-16592619D02*
X3748448Y-16545000D01*
X3748448Y-16545000D02*
X3757972Y-16506905D01*
X3757972Y-16506905D02*
X3767496Y-16487857D01*
X3767496Y-16487857D02*
X3777020Y-16478333D01*
X3777020Y-16478333D02*
X3796067Y-16468810D01*
X3986544Y-16468810D02*
X4005591Y-16468810D01*
X4005591Y-16468810D02*
X4024639Y-16478333D01*
X4024639Y-16478333D02*
X4034163Y-16487857D01*
X4034163Y-16487857D02*
X4043686Y-16506905D01*
X4043686Y-16506905D02*
X4053210Y-16545000D01*
X4053210Y-16545000D02*
X4053210Y-16592619D01*
X4053210Y-16592619D02*
X4043686Y-16630714D01*
X4043686Y-16630714D02*
X4034163Y-16649762D01*
X4034163Y-16649762D02*
X4024639Y-16659286D01*
X4024639Y-16659286D02*
X4005591Y-16668810D01*
X4005591Y-16668810D02*
X3986544Y-16668810D01*
X3986544Y-16668810D02*
X3967496Y-16659286D01*
X3967496Y-16659286D02*
X3957972Y-16649762D01*
X3957972Y-16649762D02*
X3948448Y-16630714D01*
X3948448Y-16630714D02*
X3938925Y-16592619D01*
X3938925Y-16592619D02*
X3938925Y-16545000D01*
X3938925Y-16545000D02*
X3948448Y-16506905D01*
X3948448Y-16506905D02*
X3957972Y-16487857D01*
X3957972Y-16487857D02*
X3967496Y-16478333D01*
X3967496Y-16478333D02*
X3986544Y-16468810D01*
X4138925Y-16668810D02*
X4138925Y-16535476D01*
X4138925Y-16554524D02*
X4148448Y-16545000D01*
X4148448Y-16545000D02*
X4167496Y-16535476D01*
X4167496Y-16535476D02*
X4196068Y-16535476D01*
X4196068Y-16535476D02*
X4215115Y-16545000D01*
X4215115Y-16545000D02*
X4224639Y-16564048D01*
X4224639Y-16564048D02*
X4224639Y-16668810D01*
X4224639Y-16564048D02*
X4234163Y-16545000D01*
X4234163Y-16545000D02*
X4253210Y-16535476D01*
X4253210Y-16535476D02*
X4281782Y-16535476D01*
X4281782Y-16535476D02*
X4300829Y-16545000D01*
X4300829Y-16545000D02*
X4310353Y-16564048D01*
X4310353Y-16564048D02*
X4310353Y-16668810D01*
X4405591Y-16668810D02*
X4405591Y-16535476D01*
X4405591Y-16554524D02*
X4415115Y-16545000D01*
X4415115Y-16545000D02*
X4434163Y-16535476D01*
X4434163Y-16535476D02*
X4462734Y-16535476D01*
X4462734Y-16535476D02*
X4481782Y-16545000D01*
X4481782Y-16545000D02*
X4491306Y-16564048D01*
X4491306Y-16564048D02*
X4491306Y-16668810D01*
X4491306Y-16564048D02*
X4500829Y-16545000D01*
X4500829Y-16545000D02*
X4519877Y-16535476D01*
X4519877Y-16535476D02*
X4548448Y-16535476D01*
X4548448Y-16535476D02*
X4567496Y-16545000D01*
X4567496Y-16545000D02*
X4577020Y-16564048D01*
X4577020Y-16564048D02*
X4577020Y-16668810D01*
X4967496Y-16459286D02*
X4796068Y-16716429D01*
X5224639Y-16468810D02*
X5243687Y-16468810D01*
X5243687Y-16468810D02*
X5262734Y-16478333D01*
X5262734Y-16478333D02*
X5272258Y-16487857D01*
X5272258Y-16487857D02*
X5281782Y-16506905D01*
X5281782Y-16506905D02*
X5291306Y-16545000D01*
X5291306Y-16545000D02*
X5291306Y-16592619D01*
X5291306Y-16592619D02*
X5281782Y-16630714D01*
X5281782Y-16630714D02*
X5272258Y-16649762D01*
X5272258Y-16649762D02*
X5262734Y-16659286D01*
X5262734Y-16659286D02*
X5243687Y-16668810D01*
X5243687Y-16668810D02*
X5224639Y-16668810D01*
X5224639Y-16668810D02*
X5205591Y-16659286D01*
X5205591Y-16659286D02*
X5196068Y-16649762D01*
X5196068Y-16649762D02*
X5186544Y-16630714D01*
X5186544Y-16630714D02*
X5177020Y-16592619D01*
X5177020Y-16592619D02*
X5177020Y-16545000D01*
X5177020Y-16545000D02*
X5186544Y-16506905D01*
X5186544Y-16506905D02*
X5196068Y-16487857D01*
X5196068Y-16487857D02*
X5205591Y-16478333D01*
X5205591Y-16478333D02*
X5224639Y-16468810D01*
X5377020Y-16649762D02*
X5386544Y-16659286D01*
X5386544Y-16659286D02*
X5377020Y-16668810D01*
X5377020Y-16668810D02*
X5367496Y-16659286D01*
X5367496Y-16659286D02*
X5377020Y-16649762D01*
X5377020Y-16649762D02*
X5377020Y-16668810D01*
X5510353Y-16468810D02*
X5529401Y-16468810D01*
X5529401Y-16468810D02*
X5548449Y-16478333D01*
X5548449Y-16478333D02*
X5557972Y-16487857D01*
X5557972Y-16487857D02*
X5567496Y-16506905D01*
X5567496Y-16506905D02*
X5577020Y-16545000D01*
X5577020Y-16545000D02*
X5577020Y-16592619D01*
X5577020Y-16592619D02*
X5567496Y-16630714D01*
X5567496Y-16630714D02*
X5557972Y-16649762D01*
X5557972Y-16649762D02*
X5548449Y-16659286D01*
X5548449Y-16659286D02*
X5529401Y-16668810D01*
X5529401Y-16668810D02*
X5510353Y-16668810D01*
X5510353Y-16668810D02*
X5491306Y-16659286D01*
X5491306Y-16659286D02*
X5481782Y-16649762D01*
X5481782Y-16649762D02*
X5472258Y-16630714D01*
X5472258Y-16630714D02*
X5462734Y-16592619D01*
X5462734Y-16592619D02*
X5462734Y-16545000D01*
X5462734Y-16545000D02*
X5472258Y-16506905D01*
X5472258Y-16506905D02*
X5481782Y-16487857D01*
X5481782Y-16487857D02*
X5491306Y-16478333D01*
X5491306Y-16478333D02*
X5510353Y-16468810D01*
X5767496Y-16668810D02*
X5653210Y-16668810D01*
X5710353Y-16668810D02*
X5710353Y-16468810D01*
X5710353Y-16468810D02*
X5691306Y-16497381D01*
X5691306Y-16497381D02*
X5672258Y-16516429D01*
X5672258Y-16516429D02*
X5653210Y-16525952D01*
X5948449Y-16468810D02*
X5853210Y-16468810D01*
X5853210Y-16468810D02*
X5843687Y-16564048D01*
X5843687Y-16564048D02*
X5853210Y-16554524D01*
X5853210Y-16554524D02*
X5872258Y-16545000D01*
X5872258Y-16545000D02*
X5919877Y-16545000D01*
X5919877Y-16545000D02*
X5938925Y-16554524D01*
X5938925Y-16554524D02*
X5948449Y-16564048D01*
X5948449Y-16564048D02*
X5957972Y-16583095D01*
X5957972Y-16583095D02*
X5957972Y-16630714D01*
X5957972Y-16630714D02*
X5948449Y-16649762D01*
X5948449Y-16649762D02*
X5938925Y-16659286D01*
X5938925Y-16659286D02*
X5919877Y-16668810D01*
X5919877Y-16668810D02*
X5872258Y-16668810D01*
X5872258Y-16668810D02*
X5853210Y-16659286D01*
X5853210Y-16659286D02*
X5843687Y-16649762D01*
X6024639Y-16468810D02*
X6157972Y-16468810D01*
X6157972Y-16468810D02*
X6072258Y-16668810D01*
X6224639Y-16468810D02*
X6224639Y-16506905D01*
X6300830Y-16468810D02*
X6300830Y-16506905D01*
X6596068Y-16745000D02*
X6586544Y-16735476D01*
X6586544Y-16735476D02*
X6567496Y-16706905D01*
X6567496Y-16706905D02*
X6557972Y-16687857D01*
X6557972Y-16687857D02*
X6548449Y-16659286D01*
X6548449Y-16659286D02*
X6538925Y-16611667D01*
X6538925Y-16611667D02*
X6538925Y-16573571D01*
X6538925Y-16573571D02*
X6548449Y-16525952D01*
X6548449Y-16525952D02*
X6557972Y-16497381D01*
X6557972Y-16497381D02*
X6567496Y-16478333D01*
X6567496Y-16478333D02*
X6586544Y-16449762D01*
X6586544Y-16449762D02*
X6596068Y-16440238D01*
X6777020Y-16668810D02*
X6662734Y-16668810D01*
X6719877Y-16668810D02*
X6719877Y-16468810D01*
X6719877Y-16468810D02*
X6700830Y-16497381D01*
X6700830Y-16497381D02*
X6681782Y-16516429D01*
X6681782Y-16516429D02*
X6662734Y-16525952D01*
X6872258Y-16668810D02*
X6910353Y-16668810D01*
X6910353Y-16668810D02*
X6929401Y-16659286D01*
X6929401Y-16659286D02*
X6938925Y-16649762D01*
X6938925Y-16649762D02*
X6957972Y-16621190D01*
X6957972Y-16621190D02*
X6967496Y-16583095D01*
X6967496Y-16583095D02*
X6967496Y-16506905D01*
X6967496Y-16506905D02*
X6957972Y-16487857D01*
X6957972Y-16487857D02*
X6948449Y-16478333D01*
X6948449Y-16478333D02*
X6929401Y-16468810D01*
X6929401Y-16468810D02*
X6891306Y-16468810D01*
X6891306Y-16468810D02*
X6872258Y-16478333D01*
X6872258Y-16478333D02*
X6862734Y-16487857D01*
X6862734Y-16487857D02*
X6853211Y-16506905D01*
X6853211Y-16506905D02*
X6853211Y-16554524D01*
X6853211Y-16554524D02*
X6862734Y-16573571D01*
X6862734Y-16573571D02*
X6872258Y-16583095D01*
X6872258Y-16583095D02*
X6891306Y-16592619D01*
X6891306Y-16592619D02*
X6929401Y-16592619D01*
X6929401Y-16592619D02*
X6948449Y-16583095D01*
X6948449Y-16583095D02*
X6957972Y-16573571D01*
X6957972Y-16573571D02*
X6967496Y-16554524D01*
X7148449Y-16468810D02*
X7053211Y-16468810D01*
X7053211Y-16468810D02*
X7043687Y-16564048D01*
X7043687Y-16564048D02*
X7053211Y-16554524D01*
X7053211Y-16554524D02*
X7072258Y-16545000D01*
X7072258Y-16545000D02*
X7119877Y-16545000D01*
X7119877Y-16545000D02*
X7138925Y-16554524D01*
X7138925Y-16554524D02*
X7148449Y-16564048D01*
X7148449Y-16564048D02*
X7157972Y-16583095D01*
X7157972Y-16583095D02*
X7157972Y-16630714D01*
X7157972Y-16630714D02*
X7148449Y-16649762D01*
X7148449Y-16649762D02*
X7138925Y-16659286D01*
X7138925Y-16659286D02*
X7119877Y-16668810D01*
X7119877Y-16668810D02*
X7072258Y-16668810D01*
X7072258Y-16668810D02*
X7053211Y-16659286D01*
X7053211Y-16659286D02*
X7043687Y-16649762D01*
X7396068Y-16668810D02*
X7396068Y-16468810D01*
X7481782Y-16668810D02*
X7481782Y-16564048D01*
X7481782Y-16564048D02*
X7472258Y-16545000D01*
X7472258Y-16545000D02*
X7453211Y-16535476D01*
X7453211Y-16535476D02*
X7424639Y-16535476D01*
X7424639Y-16535476D02*
X7405592Y-16545000D01*
X7405592Y-16545000D02*
X7396068Y-16554524D01*
X7605592Y-16668810D02*
X7586544Y-16659286D01*
X7586544Y-16659286D02*
X7577020Y-16649762D01*
X7577020Y-16649762D02*
X7567496Y-16630714D01*
X7567496Y-16630714D02*
X7567496Y-16573571D01*
X7567496Y-16573571D02*
X7577020Y-16554524D01*
X7577020Y-16554524D02*
X7586544Y-16545000D01*
X7586544Y-16545000D02*
X7605592Y-16535476D01*
X7605592Y-16535476D02*
X7634163Y-16535476D01*
X7634163Y-16535476D02*
X7653211Y-16545000D01*
X7653211Y-16545000D02*
X7662734Y-16554524D01*
X7662734Y-16554524D02*
X7672258Y-16573571D01*
X7672258Y-16573571D02*
X7672258Y-16630714D01*
X7672258Y-16630714D02*
X7662734Y-16649762D01*
X7662734Y-16649762D02*
X7653211Y-16659286D01*
X7653211Y-16659286D02*
X7634163Y-16668810D01*
X7634163Y-16668810D02*
X7605592Y-16668810D01*
X7786544Y-16668810D02*
X7767496Y-16659286D01*
X7767496Y-16659286D02*
X7757973Y-16640238D01*
X7757973Y-16640238D02*
X7757973Y-16468810D01*
X7938925Y-16659286D02*
X7919877Y-16668810D01*
X7919877Y-16668810D02*
X7881782Y-16668810D01*
X7881782Y-16668810D02*
X7862734Y-16659286D01*
X7862734Y-16659286D02*
X7853211Y-16640238D01*
X7853211Y-16640238D02*
X7853211Y-16564048D01*
X7853211Y-16564048D02*
X7862734Y-16545000D01*
X7862734Y-16545000D02*
X7881782Y-16535476D01*
X7881782Y-16535476D02*
X7919877Y-16535476D01*
X7919877Y-16535476D02*
X7938925Y-16545000D01*
X7938925Y-16545000D02*
X7948449Y-16564048D01*
X7948449Y-16564048D02*
X7948449Y-16583095D01*
X7948449Y-16583095D02*
X7853211Y-16602143D01*
X8024639Y-16659286D02*
X8043687Y-16668810D01*
X8043687Y-16668810D02*
X8081782Y-16668810D01*
X8081782Y-16668810D02*
X8100830Y-16659286D01*
X8100830Y-16659286D02*
X8110354Y-16640238D01*
X8110354Y-16640238D02*
X8110354Y-16630714D01*
X8110354Y-16630714D02*
X8100830Y-16611667D01*
X8100830Y-16611667D02*
X8081782Y-16602143D01*
X8081782Y-16602143D02*
X8053211Y-16602143D01*
X8053211Y-16602143D02*
X8034163Y-16592619D01*
X8034163Y-16592619D02*
X8024639Y-16573571D01*
X8024639Y-16573571D02*
X8024639Y-16564048D01*
X8024639Y-16564048D02*
X8034163Y-16545000D01*
X8034163Y-16545000D02*
X8053211Y-16535476D01*
X8053211Y-16535476D02*
X8081782Y-16535476D01*
X8081782Y-16535476D02*
X8100830Y-16545000D01*
X8177020Y-16745000D02*
X8186544Y-16735476D01*
X8186544Y-16735476D02*
X8205592Y-16706905D01*
X8205592Y-16706905D02*
X8215115Y-16687857D01*
X8215115Y-16687857D02*
X8224639Y-16659286D01*
X8224639Y-16659286D02*
X8234163Y-16611667D01*
X8234163Y-16611667D02*
X8234163Y-16573571D01*
X8234163Y-16573571D02*
X8224639Y-16525952D01*
X8224639Y-16525952D02*
X8215115Y-16497381D01*
X8215115Y-16497381D02*
X8205592Y-16478333D01*
X8205592Y-16478333D02*
X8186544Y-16449762D01*
X8186544Y-16449762D02*
X8177020Y-16440238D01*
D13*
X2946005Y-16766326D02*
X2946005Y-16916326D01*
X2871005Y-16841326D02*
X3021005Y-16841326D01*
D12*
X3386544Y-16932810D02*
X3272258Y-16932810D01*
X3329401Y-16932810D02*
X3329401Y-16732810D01*
X3329401Y-16732810D02*
X3310353Y-16761381D01*
X3310353Y-16761381D02*
X3291305Y-16780429D01*
X3291305Y-16780429D02*
X3272258Y-16789952D01*
X3472258Y-16913762D02*
X3481782Y-16923286D01*
X3481782Y-16923286D02*
X3472258Y-16932810D01*
X3472258Y-16932810D02*
X3462734Y-16923286D01*
X3462734Y-16923286D02*
X3472258Y-16913762D01*
X3472258Y-16913762D02*
X3472258Y-16932810D01*
X3662734Y-16732810D02*
X3567496Y-16732810D01*
X3567496Y-16732810D02*
X3557972Y-16828048D01*
X3557972Y-16828048D02*
X3567496Y-16818524D01*
X3567496Y-16818524D02*
X3586544Y-16809000D01*
X3586544Y-16809000D02*
X3634163Y-16809000D01*
X3634163Y-16809000D02*
X3653210Y-16818524D01*
X3653210Y-16818524D02*
X3662734Y-16828048D01*
X3662734Y-16828048D02*
X3672258Y-16847095D01*
X3672258Y-16847095D02*
X3672258Y-16894714D01*
X3672258Y-16894714D02*
X3662734Y-16913762D01*
X3662734Y-16913762D02*
X3653210Y-16923286D01*
X3653210Y-16923286D02*
X3634163Y-16932810D01*
X3634163Y-16932810D02*
X3586544Y-16932810D01*
X3586544Y-16932810D02*
X3567496Y-16923286D01*
X3567496Y-16923286D02*
X3557972Y-16913762D01*
X3796067Y-16732810D02*
X3815115Y-16732810D01*
X3815115Y-16732810D02*
X3834163Y-16742333D01*
X3834163Y-16742333D02*
X3843686Y-16751857D01*
X3843686Y-16751857D02*
X3853210Y-16770905D01*
X3853210Y-16770905D02*
X3862734Y-16809000D01*
X3862734Y-16809000D02*
X3862734Y-16856619D01*
X3862734Y-16856619D02*
X3853210Y-16894714D01*
X3853210Y-16894714D02*
X3843686Y-16913762D01*
X3843686Y-16913762D02*
X3834163Y-16923286D01*
X3834163Y-16923286D02*
X3815115Y-16932810D01*
X3815115Y-16932810D02*
X3796067Y-16932810D01*
X3796067Y-16932810D02*
X3777020Y-16923286D01*
X3777020Y-16923286D02*
X3767496Y-16913762D01*
X3767496Y-16913762D02*
X3757972Y-16894714D01*
X3757972Y-16894714D02*
X3748448Y-16856619D01*
X3748448Y-16856619D02*
X3748448Y-16809000D01*
X3748448Y-16809000D02*
X3757972Y-16770905D01*
X3757972Y-16770905D02*
X3767496Y-16751857D01*
X3767496Y-16751857D02*
X3777020Y-16742333D01*
X3777020Y-16742333D02*
X3796067Y-16732810D01*
X3986544Y-16732810D02*
X4005591Y-16732810D01*
X4005591Y-16732810D02*
X4024639Y-16742333D01*
X4024639Y-16742333D02*
X4034163Y-16751857D01*
X4034163Y-16751857D02*
X4043686Y-16770905D01*
X4043686Y-16770905D02*
X4053210Y-16809000D01*
X4053210Y-16809000D02*
X4053210Y-16856619D01*
X4053210Y-16856619D02*
X4043686Y-16894714D01*
X4043686Y-16894714D02*
X4034163Y-16913762D01*
X4034163Y-16913762D02*
X4024639Y-16923286D01*
X4024639Y-16923286D02*
X4005591Y-16932810D01*
X4005591Y-16932810D02*
X3986544Y-16932810D01*
X3986544Y-16932810D02*
X3967496Y-16923286D01*
X3967496Y-16923286D02*
X3957972Y-16913762D01*
X3957972Y-16913762D02*
X3948448Y-16894714D01*
X3948448Y-16894714D02*
X3938925Y-16856619D01*
X3938925Y-16856619D02*
X3938925Y-16809000D01*
X3938925Y-16809000D02*
X3948448Y-16770905D01*
X3948448Y-16770905D02*
X3957972Y-16751857D01*
X3957972Y-16751857D02*
X3967496Y-16742333D01*
X3967496Y-16742333D02*
X3986544Y-16732810D01*
X4138925Y-16932810D02*
X4138925Y-16799476D01*
X4138925Y-16818524D02*
X4148448Y-16809000D01*
X4148448Y-16809000D02*
X4167496Y-16799476D01*
X4167496Y-16799476D02*
X4196068Y-16799476D01*
X4196068Y-16799476D02*
X4215115Y-16809000D01*
X4215115Y-16809000D02*
X4224639Y-16828048D01*
X4224639Y-16828048D02*
X4224639Y-16932810D01*
X4224639Y-16828048D02*
X4234163Y-16809000D01*
X4234163Y-16809000D02*
X4253210Y-16799476D01*
X4253210Y-16799476D02*
X4281782Y-16799476D01*
X4281782Y-16799476D02*
X4300829Y-16809000D01*
X4300829Y-16809000D02*
X4310353Y-16828048D01*
X4310353Y-16828048D02*
X4310353Y-16932810D01*
X4405591Y-16932810D02*
X4405591Y-16799476D01*
X4405591Y-16818524D02*
X4415115Y-16809000D01*
X4415115Y-16809000D02*
X4434163Y-16799476D01*
X4434163Y-16799476D02*
X4462734Y-16799476D01*
X4462734Y-16799476D02*
X4481782Y-16809000D01*
X4481782Y-16809000D02*
X4491306Y-16828048D01*
X4491306Y-16828048D02*
X4491306Y-16932810D01*
X4491306Y-16828048D02*
X4500829Y-16809000D01*
X4500829Y-16809000D02*
X4519877Y-16799476D01*
X4519877Y-16799476D02*
X4548448Y-16799476D01*
X4548448Y-16799476D02*
X4567496Y-16809000D01*
X4567496Y-16809000D02*
X4577020Y-16828048D01*
X4577020Y-16828048D02*
X4577020Y-16932810D01*
X4967496Y-16723286D02*
X4796068Y-16980429D01*
X5224639Y-16732810D02*
X5243687Y-16732810D01*
X5243687Y-16732810D02*
X5262734Y-16742333D01*
X5262734Y-16742333D02*
X5272258Y-16751857D01*
X5272258Y-16751857D02*
X5281782Y-16770905D01*
X5281782Y-16770905D02*
X5291306Y-16809000D01*
X5291306Y-16809000D02*
X5291306Y-16856619D01*
X5291306Y-16856619D02*
X5281782Y-16894714D01*
X5281782Y-16894714D02*
X5272258Y-16913762D01*
X5272258Y-16913762D02*
X5262734Y-16923286D01*
X5262734Y-16923286D02*
X5243687Y-16932810D01*
X5243687Y-16932810D02*
X5224639Y-16932810D01*
X5224639Y-16932810D02*
X5205591Y-16923286D01*
X5205591Y-16923286D02*
X5196068Y-16913762D01*
X5196068Y-16913762D02*
X5186544Y-16894714D01*
X5186544Y-16894714D02*
X5177020Y-16856619D01*
X5177020Y-16856619D02*
X5177020Y-16809000D01*
X5177020Y-16809000D02*
X5186544Y-16770905D01*
X5186544Y-16770905D02*
X5196068Y-16751857D01*
X5196068Y-16751857D02*
X5205591Y-16742333D01*
X5205591Y-16742333D02*
X5224639Y-16732810D01*
X5377020Y-16913762D02*
X5386544Y-16923286D01*
X5386544Y-16923286D02*
X5377020Y-16932810D01*
X5377020Y-16932810D02*
X5367496Y-16923286D01*
X5367496Y-16923286D02*
X5377020Y-16913762D01*
X5377020Y-16913762D02*
X5377020Y-16932810D01*
X5510353Y-16732810D02*
X5529401Y-16732810D01*
X5529401Y-16732810D02*
X5548449Y-16742333D01*
X5548449Y-16742333D02*
X5557972Y-16751857D01*
X5557972Y-16751857D02*
X5567496Y-16770905D01*
X5567496Y-16770905D02*
X5577020Y-16809000D01*
X5577020Y-16809000D02*
X5577020Y-16856619D01*
X5577020Y-16856619D02*
X5567496Y-16894714D01*
X5567496Y-16894714D02*
X5557972Y-16913762D01*
X5557972Y-16913762D02*
X5548449Y-16923286D01*
X5548449Y-16923286D02*
X5529401Y-16932810D01*
X5529401Y-16932810D02*
X5510353Y-16932810D01*
X5510353Y-16932810D02*
X5491306Y-16923286D01*
X5491306Y-16923286D02*
X5481782Y-16913762D01*
X5481782Y-16913762D02*
X5472258Y-16894714D01*
X5472258Y-16894714D02*
X5462734Y-16856619D01*
X5462734Y-16856619D02*
X5462734Y-16809000D01*
X5462734Y-16809000D02*
X5472258Y-16770905D01*
X5472258Y-16770905D02*
X5481782Y-16751857D01*
X5481782Y-16751857D02*
X5491306Y-16742333D01*
X5491306Y-16742333D02*
X5510353Y-16732810D01*
X5757972Y-16732810D02*
X5662734Y-16732810D01*
X5662734Y-16732810D02*
X5653210Y-16828048D01*
X5653210Y-16828048D02*
X5662734Y-16818524D01*
X5662734Y-16818524D02*
X5681782Y-16809000D01*
X5681782Y-16809000D02*
X5729401Y-16809000D01*
X5729401Y-16809000D02*
X5748449Y-16818524D01*
X5748449Y-16818524D02*
X5757972Y-16828048D01*
X5757972Y-16828048D02*
X5767496Y-16847095D01*
X5767496Y-16847095D02*
X5767496Y-16894714D01*
X5767496Y-16894714D02*
X5757972Y-16913762D01*
X5757972Y-16913762D02*
X5748449Y-16923286D01*
X5748449Y-16923286D02*
X5729401Y-16932810D01*
X5729401Y-16932810D02*
X5681782Y-16932810D01*
X5681782Y-16932810D02*
X5662734Y-16923286D01*
X5662734Y-16923286D02*
X5653210Y-16913762D01*
X5862734Y-16932810D02*
X5900829Y-16932810D01*
X5900829Y-16932810D02*
X5919877Y-16923286D01*
X5919877Y-16923286D02*
X5929401Y-16913762D01*
X5929401Y-16913762D02*
X5948449Y-16885191D01*
X5948449Y-16885191D02*
X5957972Y-16847095D01*
X5957972Y-16847095D02*
X5957972Y-16770905D01*
X5957972Y-16770905D02*
X5948449Y-16751857D01*
X5948449Y-16751857D02*
X5938925Y-16742333D01*
X5938925Y-16742333D02*
X5919877Y-16732810D01*
X5919877Y-16732810D02*
X5881782Y-16732810D01*
X5881782Y-16732810D02*
X5862734Y-16742333D01*
X5862734Y-16742333D02*
X5853210Y-16751857D01*
X5853210Y-16751857D02*
X5843687Y-16770905D01*
X5843687Y-16770905D02*
X5843687Y-16818524D01*
X5843687Y-16818524D02*
X5853210Y-16837572D01*
X5853210Y-16837572D02*
X5862734Y-16847095D01*
X5862734Y-16847095D02*
X5881782Y-16856619D01*
X5881782Y-16856619D02*
X5919877Y-16856619D01*
X5919877Y-16856619D02*
X5938925Y-16847095D01*
X5938925Y-16847095D02*
X5948449Y-16837572D01*
X5948449Y-16837572D02*
X5957972Y-16818524D01*
X6148449Y-16932810D02*
X6034163Y-16932810D01*
X6091306Y-16932810D02*
X6091306Y-16732810D01*
X6091306Y-16732810D02*
X6072258Y-16761381D01*
X6072258Y-16761381D02*
X6053210Y-16780429D01*
X6053210Y-16780429D02*
X6034163Y-16789952D01*
X6224639Y-16732810D02*
X6224639Y-16770905D01*
X6300830Y-16732810D02*
X6300830Y-16770905D01*
X6596068Y-17009000D02*
X6586544Y-16999476D01*
X6586544Y-16999476D02*
X6567496Y-16970905D01*
X6567496Y-16970905D02*
X6557972Y-16951857D01*
X6557972Y-16951857D02*
X6548449Y-16923286D01*
X6548449Y-16923286D02*
X6538925Y-16875667D01*
X6538925Y-16875667D02*
X6538925Y-16837572D01*
X6538925Y-16837572D02*
X6548449Y-16789952D01*
X6548449Y-16789952D02*
X6557972Y-16761381D01*
X6557972Y-16761381D02*
X6567496Y-16742333D01*
X6567496Y-16742333D02*
X6586544Y-16713762D01*
X6586544Y-16713762D02*
X6596068Y-16704238D01*
X6653211Y-16732810D02*
X6777020Y-16732810D01*
X6777020Y-16732810D02*
X6710353Y-16809000D01*
X6710353Y-16809000D02*
X6738925Y-16809000D01*
X6738925Y-16809000D02*
X6757972Y-16818524D01*
X6757972Y-16818524D02*
X6767496Y-16828048D01*
X6767496Y-16828048D02*
X6777020Y-16847095D01*
X6777020Y-16847095D02*
X6777020Y-16894714D01*
X6777020Y-16894714D02*
X6767496Y-16913762D01*
X6767496Y-16913762D02*
X6757972Y-16923286D01*
X6757972Y-16923286D02*
X6738925Y-16932810D01*
X6738925Y-16932810D02*
X6681782Y-16932810D01*
X6681782Y-16932810D02*
X6662734Y-16923286D01*
X6662734Y-16923286D02*
X6653211Y-16913762D01*
X6967496Y-16932810D02*
X6853211Y-16932810D01*
X6910353Y-16932810D02*
X6910353Y-16732810D01*
X6910353Y-16732810D02*
X6891306Y-16761381D01*
X6891306Y-16761381D02*
X6872258Y-16780429D01*
X6872258Y-16780429D02*
X6853211Y-16789952D01*
X7091306Y-16732810D02*
X7110353Y-16732810D01*
X7110353Y-16732810D02*
X7129401Y-16742333D01*
X7129401Y-16742333D02*
X7138925Y-16751857D01*
X7138925Y-16751857D02*
X7148449Y-16770905D01*
X7148449Y-16770905D02*
X7157972Y-16809000D01*
X7157972Y-16809000D02*
X7157972Y-16856619D01*
X7157972Y-16856619D02*
X7148449Y-16894714D01*
X7148449Y-16894714D02*
X7138925Y-16913762D01*
X7138925Y-16913762D02*
X7129401Y-16923286D01*
X7129401Y-16923286D02*
X7110353Y-16932810D01*
X7110353Y-16932810D02*
X7091306Y-16932810D01*
X7091306Y-16932810D02*
X7072258Y-16923286D01*
X7072258Y-16923286D02*
X7062734Y-16913762D01*
X7062734Y-16913762D02*
X7053211Y-16894714D01*
X7053211Y-16894714D02*
X7043687Y-16856619D01*
X7043687Y-16856619D02*
X7043687Y-16809000D01*
X7043687Y-16809000D02*
X7053211Y-16770905D01*
X7053211Y-16770905D02*
X7062734Y-16751857D01*
X7062734Y-16751857D02*
X7072258Y-16742333D01*
X7072258Y-16742333D02*
X7091306Y-16732810D01*
X7396068Y-16932810D02*
X7396068Y-16732810D01*
X7481782Y-16932810D02*
X7481782Y-16828048D01*
X7481782Y-16828048D02*
X7472258Y-16809000D01*
X7472258Y-16809000D02*
X7453211Y-16799476D01*
X7453211Y-16799476D02*
X7424639Y-16799476D01*
X7424639Y-16799476D02*
X7405592Y-16809000D01*
X7405592Y-16809000D02*
X7396068Y-16818524D01*
X7605592Y-16932810D02*
X7586544Y-16923286D01*
X7586544Y-16923286D02*
X7577020Y-16913762D01*
X7577020Y-16913762D02*
X7567496Y-16894714D01*
X7567496Y-16894714D02*
X7567496Y-16837572D01*
X7567496Y-16837572D02*
X7577020Y-16818524D01*
X7577020Y-16818524D02*
X7586544Y-16809000D01*
X7586544Y-16809000D02*
X7605592Y-16799476D01*
X7605592Y-16799476D02*
X7634163Y-16799476D01*
X7634163Y-16799476D02*
X7653211Y-16809000D01*
X7653211Y-16809000D02*
X7662734Y-16818524D01*
X7662734Y-16818524D02*
X7672258Y-16837572D01*
X7672258Y-16837572D02*
X7672258Y-16894714D01*
X7672258Y-16894714D02*
X7662734Y-16913762D01*
X7662734Y-16913762D02*
X7653211Y-16923286D01*
X7653211Y-16923286D02*
X7634163Y-16932810D01*
X7634163Y-16932810D02*
X7605592Y-16932810D01*
X7786544Y-16932810D02*
X7767496Y-16923286D01*
X7767496Y-16923286D02*
X7757973Y-16904238D01*
X7757973Y-16904238D02*
X7757973Y-16732810D01*
X7938925Y-16923286D02*
X7919877Y-16932810D01*
X7919877Y-16932810D02*
X7881782Y-16932810D01*
X7881782Y-16932810D02*
X7862734Y-16923286D01*
X7862734Y-16923286D02*
X7853211Y-16904238D01*
X7853211Y-16904238D02*
X7853211Y-16828048D01*
X7853211Y-16828048D02*
X7862734Y-16809000D01*
X7862734Y-16809000D02*
X7881782Y-16799476D01*
X7881782Y-16799476D02*
X7919877Y-16799476D01*
X7919877Y-16799476D02*
X7938925Y-16809000D01*
X7938925Y-16809000D02*
X7948449Y-16828048D01*
X7948449Y-16828048D02*
X7948449Y-16847095D01*
X7948449Y-16847095D02*
X7853211Y-16866143D01*
X8024639Y-16923286D02*
X8043687Y-16932810D01*
X8043687Y-16932810D02*
X8081782Y-16932810D01*
X8081782Y-16932810D02*
X8100830Y-16923286D01*
X8100830Y-16923286D02*
X8110354Y-16904238D01*
X8110354Y-16904238D02*
X8110354Y-16894714D01*
X8110354Y-16894714D02*
X8100830Y-16875667D01*
X8100830Y-16875667D02*
X8081782Y-16866143D01*
X8081782Y-16866143D02*
X8053211Y-16866143D01*
X8053211Y-16866143D02*
X8034163Y-16856619D01*
X8034163Y-16856619D02*
X8024639Y-16837572D01*
X8024639Y-16837572D02*
X8024639Y-16828048D01*
X8024639Y-16828048D02*
X8034163Y-16809000D01*
X8034163Y-16809000D02*
X8053211Y-16799476D01*
X8053211Y-16799476D02*
X8081782Y-16799476D01*
X8081782Y-16799476D02*
X8100830Y-16809000D01*
X8177020Y-17009000D02*
X8186544Y-16999476D01*
X8186544Y-16999476D02*
X8205592Y-16970905D01*
X8205592Y-16970905D02*
X8215115Y-16951857D01*
X8215115Y-16951857D02*
X8224639Y-16923286D01*
X8224639Y-16923286D02*
X8234163Y-16875667D01*
X8234163Y-16875667D02*
X8234163Y-16837572D01*
X8234163Y-16837572D02*
X8224639Y-16789952D01*
X8224639Y-16789952D02*
X8215115Y-16761381D01*
X8215115Y-16761381D02*
X8205592Y-16742333D01*
X8205592Y-16742333D02*
X8186544Y-16713762D01*
X8186544Y-16713762D02*
X8177020Y-16704238D01*
D14*
X2994645Y-17174966D02*
X2994645Y-17047686D01*
X2867365Y-17047686D01*
X2867365Y-17174966D01*
X2994645Y-17174966D01*
D12*
X3386544Y-17202810D02*
X3272258Y-17202810D01*
X3329401Y-17202810D02*
X3329401Y-17002810D01*
X3329401Y-17002810D02*
X3310353Y-17031381D01*
X3310353Y-17031381D02*
X3291305Y-17050429D01*
X3291305Y-17050429D02*
X3272258Y-17059952D01*
X3472258Y-17183762D02*
X3481782Y-17193286D01*
X3481782Y-17193286D02*
X3472258Y-17202810D01*
X3472258Y-17202810D02*
X3462734Y-17193286D01*
X3462734Y-17193286D02*
X3472258Y-17183762D01*
X3472258Y-17183762D02*
X3472258Y-17202810D01*
X3596067Y-17088524D02*
X3577020Y-17079000D01*
X3577020Y-17079000D02*
X3567496Y-17069476D01*
X3567496Y-17069476D02*
X3557972Y-17050429D01*
X3557972Y-17050429D02*
X3557972Y-17040905D01*
X3557972Y-17040905D02*
X3567496Y-17021857D01*
X3567496Y-17021857D02*
X3577020Y-17012333D01*
X3577020Y-17012333D02*
X3596067Y-17002810D01*
X3596067Y-17002810D02*
X3634163Y-17002810D01*
X3634163Y-17002810D02*
X3653210Y-17012333D01*
X3653210Y-17012333D02*
X3662734Y-17021857D01*
X3662734Y-17021857D02*
X3672258Y-17040905D01*
X3672258Y-17040905D02*
X3672258Y-17050429D01*
X3672258Y-17050429D02*
X3662734Y-17069476D01*
X3662734Y-17069476D02*
X3653210Y-17079000D01*
X3653210Y-17079000D02*
X3634163Y-17088524D01*
X3634163Y-17088524D02*
X3596067Y-17088524D01*
X3596067Y-17088524D02*
X3577020Y-17098048D01*
X3577020Y-17098048D02*
X3567496Y-17107572D01*
X3567496Y-17107572D02*
X3557972Y-17126619D01*
X3557972Y-17126619D02*
X3557972Y-17164714D01*
X3557972Y-17164714D02*
X3567496Y-17183762D01*
X3567496Y-17183762D02*
X3577020Y-17193286D01*
X3577020Y-17193286D02*
X3596067Y-17202810D01*
X3596067Y-17202810D02*
X3634163Y-17202810D01*
X3634163Y-17202810D02*
X3653210Y-17193286D01*
X3653210Y-17193286D02*
X3662734Y-17183762D01*
X3662734Y-17183762D02*
X3672258Y-17164714D01*
X3672258Y-17164714D02*
X3672258Y-17126619D01*
X3672258Y-17126619D02*
X3662734Y-17107572D01*
X3662734Y-17107572D02*
X3653210Y-17098048D01*
X3653210Y-17098048D02*
X3634163Y-17088524D01*
X3796067Y-17002810D02*
X3815115Y-17002810D01*
X3815115Y-17002810D02*
X3834163Y-17012333D01*
X3834163Y-17012333D02*
X3843686Y-17021857D01*
X3843686Y-17021857D02*
X3853210Y-17040905D01*
X3853210Y-17040905D02*
X3862734Y-17079000D01*
X3862734Y-17079000D02*
X3862734Y-17126619D01*
X3862734Y-17126619D02*
X3853210Y-17164714D01*
X3853210Y-17164714D02*
X3843686Y-17183762D01*
X3843686Y-17183762D02*
X3834163Y-17193286D01*
X3834163Y-17193286D02*
X3815115Y-17202810D01*
X3815115Y-17202810D02*
X3796067Y-17202810D01*
X3796067Y-17202810D02*
X3777020Y-17193286D01*
X3777020Y-17193286D02*
X3767496Y-17183762D01*
X3767496Y-17183762D02*
X3757972Y-17164714D01*
X3757972Y-17164714D02*
X3748448Y-17126619D01*
X3748448Y-17126619D02*
X3748448Y-17079000D01*
X3748448Y-17079000D02*
X3757972Y-17040905D01*
X3757972Y-17040905D02*
X3767496Y-17021857D01*
X3767496Y-17021857D02*
X3777020Y-17012333D01*
X3777020Y-17012333D02*
X3796067Y-17002810D01*
X3986544Y-17002810D02*
X4005591Y-17002810D01*
X4005591Y-17002810D02*
X4024639Y-17012333D01*
X4024639Y-17012333D02*
X4034163Y-17021857D01*
X4034163Y-17021857D02*
X4043686Y-17040905D01*
X4043686Y-17040905D02*
X4053210Y-17079000D01*
X4053210Y-17079000D02*
X4053210Y-17126619D01*
X4053210Y-17126619D02*
X4043686Y-17164714D01*
X4043686Y-17164714D02*
X4034163Y-17183762D01*
X4034163Y-17183762D02*
X4024639Y-17193286D01*
X4024639Y-17193286D02*
X4005591Y-17202810D01*
X4005591Y-17202810D02*
X3986544Y-17202810D01*
X3986544Y-17202810D02*
X3967496Y-17193286D01*
X3967496Y-17193286D02*
X3957972Y-17183762D01*
X3957972Y-17183762D02*
X3948448Y-17164714D01*
X3948448Y-17164714D02*
X3938925Y-17126619D01*
X3938925Y-17126619D02*
X3938925Y-17079000D01*
X3938925Y-17079000D02*
X3948448Y-17040905D01*
X3948448Y-17040905D02*
X3957972Y-17021857D01*
X3957972Y-17021857D02*
X3967496Y-17012333D01*
X3967496Y-17012333D02*
X3986544Y-17002810D01*
X4138925Y-17202810D02*
X4138925Y-17069476D01*
X4138925Y-17088524D02*
X4148448Y-17079000D01*
X4148448Y-17079000D02*
X4167496Y-17069476D01*
X4167496Y-17069476D02*
X4196068Y-17069476D01*
X4196068Y-17069476D02*
X4215115Y-17079000D01*
X4215115Y-17079000D02*
X4224639Y-17098048D01*
X4224639Y-17098048D02*
X4224639Y-17202810D01*
X4224639Y-17098048D02*
X4234163Y-17079000D01*
X4234163Y-17079000D02*
X4253210Y-17069476D01*
X4253210Y-17069476D02*
X4281782Y-17069476D01*
X4281782Y-17069476D02*
X4300829Y-17079000D01*
X4300829Y-17079000D02*
X4310353Y-17098048D01*
X4310353Y-17098048D02*
X4310353Y-17202810D01*
X4405591Y-17202810D02*
X4405591Y-17069476D01*
X4405591Y-17088524D02*
X4415115Y-17079000D01*
X4415115Y-17079000D02*
X4434163Y-17069476D01*
X4434163Y-17069476D02*
X4462734Y-17069476D01*
X4462734Y-17069476D02*
X4481782Y-17079000D01*
X4481782Y-17079000D02*
X4491306Y-17098048D01*
X4491306Y-17098048D02*
X4491306Y-17202810D01*
X4491306Y-17098048D02*
X4500829Y-17079000D01*
X4500829Y-17079000D02*
X4519877Y-17069476D01*
X4519877Y-17069476D02*
X4548448Y-17069476D01*
X4548448Y-17069476D02*
X4567496Y-17079000D01*
X4567496Y-17079000D02*
X4577020Y-17098048D01*
X4577020Y-17098048D02*
X4577020Y-17202810D01*
X4967496Y-16993286D02*
X4796068Y-17250429D01*
X5224639Y-17002810D02*
X5243687Y-17002810D01*
X5243687Y-17002810D02*
X5262734Y-17012333D01*
X5262734Y-17012333D02*
X5272258Y-17021857D01*
X5272258Y-17021857D02*
X5281782Y-17040905D01*
X5281782Y-17040905D02*
X5291306Y-17079000D01*
X5291306Y-17079000D02*
X5291306Y-17126619D01*
X5291306Y-17126619D02*
X5281782Y-17164714D01*
X5281782Y-17164714D02*
X5272258Y-17183762D01*
X5272258Y-17183762D02*
X5262734Y-17193286D01*
X5262734Y-17193286D02*
X5243687Y-17202810D01*
X5243687Y-17202810D02*
X5224639Y-17202810D01*
X5224639Y-17202810D02*
X5205591Y-17193286D01*
X5205591Y-17193286D02*
X5196068Y-17183762D01*
X5196068Y-17183762D02*
X5186544Y-17164714D01*
X5186544Y-17164714D02*
X5177020Y-17126619D01*
X5177020Y-17126619D02*
X5177020Y-17079000D01*
X5177020Y-17079000D02*
X5186544Y-17040905D01*
X5186544Y-17040905D02*
X5196068Y-17021857D01*
X5196068Y-17021857D02*
X5205591Y-17012333D01*
X5205591Y-17012333D02*
X5224639Y-17002810D01*
X5377020Y-17183762D02*
X5386544Y-17193286D01*
X5386544Y-17193286D02*
X5377020Y-17202810D01*
X5377020Y-17202810D02*
X5367496Y-17193286D01*
X5367496Y-17193286D02*
X5377020Y-17183762D01*
X5377020Y-17183762D02*
X5377020Y-17202810D01*
X5510353Y-17002810D02*
X5529401Y-17002810D01*
X5529401Y-17002810D02*
X5548449Y-17012333D01*
X5548449Y-17012333D02*
X5557972Y-17021857D01*
X5557972Y-17021857D02*
X5567496Y-17040905D01*
X5567496Y-17040905D02*
X5577020Y-17079000D01*
X5577020Y-17079000D02*
X5577020Y-17126619D01*
X5577020Y-17126619D02*
X5567496Y-17164714D01*
X5567496Y-17164714D02*
X5557972Y-17183762D01*
X5557972Y-17183762D02*
X5548449Y-17193286D01*
X5548449Y-17193286D02*
X5529401Y-17202810D01*
X5529401Y-17202810D02*
X5510353Y-17202810D01*
X5510353Y-17202810D02*
X5491306Y-17193286D01*
X5491306Y-17193286D02*
X5481782Y-17183762D01*
X5481782Y-17183762D02*
X5472258Y-17164714D01*
X5472258Y-17164714D02*
X5462734Y-17126619D01*
X5462734Y-17126619D02*
X5462734Y-17079000D01*
X5462734Y-17079000D02*
X5472258Y-17040905D01*
X5472258Y-17040905D02*
X5481782Y-17021857D01*
X5481782Y-17021857D02*
X5491306Y-17012333D01*
X5491306Y-17012333D02*
X5510353Y-17002810D01*
X5643687Y-17002810D02*
X5777020Y-17002810D01*
X5777020Y-17002810D02*
X5691306Y-17202810D01*
X5891306Y-17002810D02*
X5910353Y-17002810D01*
X5910353Y-17002810D02*
X5929401Y-17012333D01*
X5929401Y-17012333D02*
X5938925Y-17021857D01*
X5938925Y-17021857D02*
X5948449Y-17040905D01*
X5948449Y-17040905D02*
X5957972Y-17079000D01*
X5957972Y-17079000D02*
X5957972Y-17126619D01*
X5957972Y-17126619D02*
X5948449Y-17164714D01*
X5948449Y-17164714D02*
X5938925Y-17183762D01*
X5938925Y-17183762D02*
X5929401Y-17193286D01*
X5929401Y-17193286D02*
X5910353Y-17202810D01*
X5910353Y-17202810D02*
X5891306Y-17202810D01*
X5891306Y-17202810D02*
X5872258Y-17193286D01*
X5872258Y-17193286D02*
X5862734Y-17183762D01*
X5862734Y-17183762D02*
X5853210Y-17164714D01*
X5853210Y-17164714D02*
X5843687Y-17126619D01*
X5843687Y-17126619D02*
X5843687Y-17079000D01*
X5843687Y-17079000D02*
X5853210Y-17040905D01*
X5853210Y-17040905D02*
X5862734Y-17021857D01*
X5862734Y-17021857D02*
X5872258Y-17012333D01*
X5872258Y-17012333D02*
X5891306Y-17002810D01*
X6053210Y-17202810D02*
X6091306Y-17202810D01*
X6091306Y-17202810D02*
X6110353Y-17193286D01*
X6110353Y-17193286D02*
X6119877Y-17183762D01*
X6119877Y-17183762D02*
X6138925Y-17155191D01*
X6138925Y-17155191D02*
X6148449Y-17117095D01*
X6148449Y-17117095D02*
X6148449Y-17040905D01*
X6148449Y-17040905D02*
X6138925Y-17021857D01*
X6138925Y-17021857D02*
X6129401Y-17012333D01*
X6129401Y-17012333D02*
X6110353Y-17002810D01*
X6110353Y-17002810D02*
X6072258Y-17002810D01*
X6072258Y-17002810D02*
X6053210Y-17012333D01*
X6053210Y-17012333D02*
X6043687Y-17021857D01*
X6043687Y-17021857D02*
X6034163Y-17040905D01*
X6034163Y-17040905D02*
X6034163Y-17088524D01*
X6034163Y-17088524D02*
X6043687Y-17107572D01*
X6043687Y-17107572D02*
X6053210Y-17117095D01*
X6053210Y-17117095D02*
X6072258Y-17126619D01*
X6072258Y-17126619D02*
X6110353Y-17126619D01*
X6110353Y-17126619D02*
X6129401Y-17117095D01*
X6129401Y-17117095D02*
X6138925Y-17107572D01*
X6138925Y-17107572D02*
X6148449Y-17088524D01*
X6224639Y-17002810D02*
X6224639Y-17040905D01*
X6300830Y-17002810D02*
X6300830Y-17040905D01*
X6596068Y-17279000D02*
X6586544Y-17269476D01*
X6586544Y-17269476D02*
X6567496Y-17240905D01*
X6567496Y-17240905D02*
X6557972Y-17221857D01*
X6557972Y-17221857D02*
X6548449Y-17193286D01*
X6548449Y-17193286D02*
X6538925Y-17145667D01*
X6538925Y-17145667D02*
X6538925Y-17107572D01*
X6538925Y-17107572D02*
X6548449Y-17059952D01*
X6548449Y-17059952D02*
X6557972Y-17031381D01*
X6557972Y-17031381D02*
X6567496Y-17012333D01*
X6567496Y-17012333D02*
X6586544Y-16983762D01*
X6586544Y-16983762D02*
X6596068Y-16974238D01*
X6777020Y-17202810D02*
X6662734Y-17202810D01*
X6719877Y-17202810D02*
X6719877Y-17002810D01*
X6719877Y-17002810D02*
X6700830Y-17031381D01*
X6700830Y-17031381D02*
X6681782Y-17050429D01*
X6681782Y-17050429D02*
X6662734Y-17059952D01*
X7015115Y-17202810D02*
X7015115Y-17002810D01*
X7100830Y-17202810D02*
X7100830Y-17098048D01*
X7100830Y-17098048D02*
X7091306Y-17079000D01*
X7091306Y-17079000D02*
X7072258Y-17069476D01*
X7072258Y-17069476D02*
X7043687Y-17069476D01*
X7043687Y-17069476D02*
X7024639Y-17079000D01*
X7024639Y-17079000D02*
X7015115Y-17088524D01*
X7224639Y-17202810D02*
X7205592Y-17193286D01*
X7205592Y-17193286D02*
X7196068Y-17183762D01*
X7196068Y-17183762D02*
X7186544Y-17164714D01*
X7186544Y-17164714D02*
X7186544Y-17107572D01*
X7186544Y-17107572D02*
X7196068Y-17088524D01*
X7196068Y-17088524D02*
X7205592Y-17079000D01*
X7205592Y-17079000D02*
X7224639Y-17069476D01*
X7224639Y-17069476D02*
X7253211Y-17069476D01*
X7253211Y-17069476D02*
X7272258Y-17079000D01*
X7272258Y-17079000D02*
X7281782Y-17088524D01*
X7281782Y-17088524D02*
X7291306Y-17107572D01*
X7291306Y-17107572D02*
X7291306Y-17164714D01*
X7291306Y-17164714D02*
X7281782Y-17183762D01*
X7281782Y-17183762D02*
X7272258Y-17193286D01*
X7272258Y-17193286D02*
X7253211Y-17202810D01*
X7253211Y-17202810D02*
X7224639Y-17202810D01*
X7405592Y-17202810D02*
X7386544Y-17193286D01*
X7386544Y-17193286D02*
X7377020Y-17174238D01*
X7377020Y-17174238D02*
X7377020Y-17002810D01*
X7557973Y-17193286D02*
X7538925Y-17202810D01*
X7538925Y-17202810D02*
X7500830Y-17202810D01*
X7500830Y-17202810D02*
X7481782Y-17193286D01*
X7481782Y-17193286D02*
X7472258Y-17174238D01*
X7472258Y-17174238D02*
X7472258Y-17098048D01*
X7472258Y-17098048D02*
X7481782Y-17079000D01*
X7481782Y-17079000D02*
X7500830Y-17069476D01*
X7500830Y-17069476D02*
X7538925Y-17069476D01*
X7538925Y-17069476D02*
X7557973Y-17079000D01*
X7557973Y-17079000D02*
X7567496Y-17098048D01*
X7567496Y-17098048D02*
X7567496Y-17117095D01*
X7567496Y-17117095D02*
X7472258Y-17136143D01*
X7634163Y-17279000D02*
X7643687Y-17269476D01*
X7643687Y-17269476D02*
X7662734Y-17240905D01*
X7662734Y-17240905D02*
X7672258Y-17221857D01*
X7672258Y-17221857D02*
X7681782Y-17193286D01*
X7681782Y-17193286D02*
X7691306Y-17145667D01*
X7691306Y-17145667D02*
X7691306Y-17107572D01*
X7691306Y-17107572D02*
X7681782Y-17059952D01*
X7681782Y-17059952D02*
X7672258Y-17031381D01*
X7672258Y-17031381D02*
X7662734Y-17012333D01*
X7662734Y-17012333D02*
X7643687Y-16983762D01*
X7643687Y-16983762D02*
X7634163Y-16974238D01*
X2921005Y-17511326D02*
X3021005Y-17411326D01*
X2921005Y-17311326D01*
X2821005Y-17411326D01*
X2921005Y-17511326D01*
X3272258Y-17321857D02*
X3281782Y-17312333D01*
X3281782Y-17312333D02*
X3300829Y-17302810D01*
X3300829Y-17302810D02*
X3348448Y-17302810D01*
X3348448Y-17302810D02*
X3367496Y-17312333D01*
X3367496Y-17312333D02*
X3377020Y-17321857D01*
X3377020Y-17321857D02*
X3386544Y-17340905D01*
X3386544Y-17340905D02*
X3386544Y-17359952D01*
X3386544Y-17359952D02*
X3377020Y-17388524D01*
X3377020Y-17388524D02*
X3262734Y-17502810D01*
X3262734Y-17502810D02*
X3386544Y-17502810D01*
X3472258Y-17483762D02*
X3481782Y-17493286D01*
X3481782Y-17493286D02*
X3472258Y-17502810D01*
X3472258Y-17502810D02*
X3462734Y-17493286D01*
X3462734Y-17493286D02*
X3472258Y-17483762D01*
X3472258Y-17483762D02*
X3472258Y-17502810D01*
X3605591Y-17302810D02*
X3624639Y-17302810D01*
X3624639Y-17302810D02*
X3643686Y-17312333D01*
X3643686Y-17312333D02*
X3653210Y-17321857D01*
X3653210Y-17321857D02*
X3662734Y-17340905D01*
X3662734Y-17340905D02*
X3672258Y-17379000D01*
X3672258Y-17379000D02*
X3672258Y-17426619D01*
X3672258Y-17426619D02*
X3662734Y-17464714D01*
X3662734Y-17464714D02*
X3653210Y-17483762D01*
X3653210Y-17483762D02*
X3643686Y-17493286D01*
X3643686Y-17493286D02*
X3624639Y-17502810D01*
X3624639Y-17502810D02*
X3605591Y-17502810D01*
X3605591Y-17502810D02*
X3586544Y-17493286D01*
X3586544Y-17493286D02*
X3577020Y-17483762D01*
X3577020Y-17483762D02*
X3567496Y-17464714D01*
X3567496Y-17464714D02*
X3557972Y-17426619D01*
X3557972Y-17426619D02*
X3557972Y-17379000D01*
X3557972Y-17379000D02*
X3567496Y-17340905D01*
X3567496Y-17340905D02*
X3577020Y-17321857D01*
X3577020Y-17321857D02*
X3586544Y-17312333D01*
X3586544Y-17312333D02*
X3605591Y-17302810D01*
X3796067Y-17302810D02*
X3815115Y-17302810D01*
X3815115Y-17302810D02*
X3834163Y-17312333D01*
X3834163Y-17312333D02*
X3843686Y-17321857D01*
X3843686Y-17321857D02*
X3853210Y-17340905D01*
X3853210Y-17340905D02*
X3862734Y-17379000D01*
X3862734Y-17379000D02*
X3862734Y-17426619D01*
X3862734Y-17426619D02*
X3853210Y-17464714D01*
X3853210Y-17464714D02*
X3843686Y-17483762D01*
X3843686Y-17483762D02*
X3834163Y-17493286D01*
X3834163Y-17493286D02*
X3815115Y-17502810D01*
X3815115Y-17502810D02*
X3796067Y-17502810D01*
X3796067Y-17502810D02*
X3777020Y-17493286D01*
X3777020Y-17493286D02*
X3767496Y-17483762D01*
X3767496Y-17483762D02*
X3757972Y-17464714D01*
X3757972Y-17464714D02*
X3748448Y-17426619D01*
X3748448Y-17426619D02*
X3748448Y-17379000D01*
X3748448Y-17379000D02*
X3757972Y-17340905D01*
X3757972Y-17340905D02*
X3767496Y-17321857D01*
X3767496Y-17321857D02*
X3777020Y-17312333D01*
X3777020Y-17312333D02*
X3796067Y-17302810D01*
X3986544Y-17302810D02*
X4005591Y-17302810D01*
X4005591Y-17302810D02*
X4024639Y-17312333D01*
X4024639Y-17312333D02*
X4034163Y-17321857D01*
X4034163Y-17321857D02*
X4043686Y-17340905D01*
X4043686Y-17340905D02*
X4053210Y-17379000D01*
X4053210Y-17379000D02*
X4053210Y-17426619D01*
X4053210Y-17426619D02*
X4043686Y-17464714D01*
X4043686Y-17464714D02*
X4034163Y-17483762D01*
X4034163Y-17483762D02*
X4024639Y-17493286D01*
X4024639Y-17493286D02*
X4005591Y-17502810D01*
X4005591Y-17502810D02*
X3986544Y-17502810D01*
X3986544Y-17502810D02*
X3967496Y-17493286D01*
X3967496Y-17493286D02*
X3957972Y-17483762D01*
X3957972Y-17483762D02*
X3948448Y-17464714D01*
X3948448Y-17464714D02*
X3938925Y-17426619D01*
X3938925Y-17426619D02*
X3938925Y-17379000D01*
X3938925Y-17379000D02*
X3948448Y-17340905D01*
X3948448Y-17340905D02*
X3957972Y-17321857D01*
X3957972Y-17321857D02*
X3967496Y-17312333D01*
X3967496Y-17312333D02*
X3986544Y-17302810D01*
X4138925Y-17502810D02*
X4138925Y-17369476D01*
X4138925Y-17388524D02*
X4148448Y-17379000D01*
X4148448Y-17379000D02*
X4167496Y-17369476D01*
X4167496Y-17369476D02*
X4196068Y-17369476D01*
X4196068Y-17369476D02*
X4215115Y-17379000D01*
X4215115Y-17379000D02*
X4224639Y-17398048D01*
X4224639Y-17398048D02*
X4224639Y-17502810D01*
X4224639Y-17398048D02*
X4234163Y-17379000D01*
X4234163Y-17379000D02*
X4253210Y-17369476D01*
X4253210Y-17369476D02*
X4281782Y-17369476D01*
X4281782Y-17369476D02*
X4300829Y-17379000D01*
X4300829Y-17379000D02*
X4310353Y-17398048D01*
X4310353Y-17398048D02*
X4310353Y-17502810D01*
X4405591Y-17502810D02*
X4405591Y-17369476D01*
X4405591Y-17388524D02*
X4415115Y-17379000D01*
X4415115Y-17379000D02*
X4434163Y-17369476D01*
X4434163Y-17369476D02*
X4462734Y-17369476D01*
X4462734Y-17369476D02*
X4481782Y-17379000D01*
X4481782Y-17379000D02*
X4491306Y-17398048D01*
X4491306Y-17398048D02*
X4491306Y-17502810D01*
X4491306Y-17398048D02*
X4500829Y-17379000D01*
X4500829Y-17379000D02*
X4519877Y-17369476D01*
X4519877Y-17369476D02*
X4548448Y-17369476D01*
X4548448Y-17369476D02*
X4567496Y-17379000D01*
X4567496Y-17379000D02*
X4577020Y-17398048D01*
X4577020Y-17398048D02*
X4577020Y-17502810D01*
X4967496Y-17293286D02*
X4796068Y-17550429D01*
X5224639Y-17302810D02*
X5243687Y-17302810D01*
X5243687Y-17302810D02*
X5262734Y-17312333D01*
X5262734Y-17312333D02*
X5272258Y-17321857D01*
X5272258Y-17321857D02*
X5281782Y-17340905D01*
X5281782Y-17340905D02*
X5291306Y-17379000D01*
X5291306Y-17379000D02*
X5291306Y-17426619D01*
X5291306Y-17426619D02*
X5281782Y-17464714D01*
X5281782Y-17464714D02*
X5272258Y-17483762D01*
X5272258Y-17483762D02*
X5262734Y-17493286D01*
X5262734Y-17493286D02*
X5243687Y-17502810D01*
X5243687Y-17502810D02*
X5224639Y-17502810D01*
X5224639Y-17502810D02*
X5205591Y-17493286D01*
X5205591Y-17493286D02*
X5196068Y-17483762D01*
X5196068Y-17483762D02*
X5186544Y-17464714D01*
X5186544Y-17464714D02*
X5177020Y-17426619D01*
X5177020Y-17426619D02*
X5177020Y-17379000D01*
X5177020Y-17379000D02*
X5186544Y-17340905D01*
X5186544Y-17340905D02*
X5196068Y-17321857D01*
X5196068Y-17321857D02*
X5205591Y-17312333D01*
X5205591Y-17312333D02*
X5224639Y-17302810D01*
X5377020Y-17483762D02*
X5386544Y-17493286D01*
X5386544Y-17493286D02*
X5377020Y-17502810D01*
X5377020Y-17502810D02*
X5367496Y-17493286D01*
X5367496Y-17493286D02*
X5377020Y-17483762D01*
X5377020Y-17483762D02*
X5377020Y-17502810D01*
X5510353Y-17302810D02*
X5529401Y-17302810D01*
X5529401Y-17302810D02*
X5548449Y-17312333D01*
X5548449Y-17312333D02*
X5557972Y-17321857D01*
X5557972Y-17321857D02*
X5567496Y-17340905D01*
X5567496Y-17340905D02*
X5577020Y-17379000D01*
X5577020Y-17379000D02*
X5577020Y-17426619D01*
X5577020Y-17426619D02*
X5567496Y-17464714D01*
X5567496Y-17464714D02*
X5557972Y-17483762D01*
X5557972Y-17483762D02*
X5548449Y-17493286D01*
X5548449Y-17493286D02*
X5529401Y-17502810D01*
X5529401Y-17502810D02*
X5510353Y-17502810D01*
X5510353Y-17502810D02*
X5491306Y-17493286D01*
X5491306Y-17493286D02*
X5481782Y-17483762D01*
X5481782Y-17483762D02*
X5472258Y-17464714D01*
X5472258Y-17464714D02*
X5462734Y-17426619D01*
X5462734Y-17426619D02*
X5462734Y-17379000D01*
X5462734Y-17379000D02*
X5472258Y-17340905D01*
X5472258Y-17340905D02*
X5481782Y-17321857D01*
X5481782Y-17321857D02*
X5491306Y-17312333D01*
X5491306Y-17312333D02*
X5510353Y-17302810D01*
X5643687Y-17302810D02*
X5777020Y-17302810D01*
X5777020Y-17302810D02*
X5691306Y-17502810D01*
X5881782Y-17388524D02*
X5862734Y-17379000D01*
X5862734Y-17379000D02*
X5853210Y-17369476D01*
X5853210Y-17369476D02*
X5843687Y-17350429D01*
X5843687Y-17350429D02*
X5843687Y-17340905D01*
X5843687Y-17340905D02*
X5853210Y-17321857D01*
X5853210Y-17321857D02*
X5862734Y-17312333D01*
X5862734Y-17312333D02*
X5881782Y-17302810D01*
X5881782Y-17302810D02*
X5919877Y-17302810D01*
X5919877Y-17302810D02*
X5938925Y-17312333D01*
X5938925Y-17312333D02*
X5948449Y-17321857D01*
X5948449Y-17321857D02*
X5957972Y-17340905D01*
X5957972Y-17340905D02*
X5957972Y-17350429D01*
X5957972Y-17350429D02*
X5948449Y-17369476D01*
X5948449Y-17369476D02*
X5938925Y-17379000D01*
X5938925Y-17379000D02*
X5919877Y-17388524D01*
X5919877Y-17388524D02*
X5881782Y-17388524D01*
X5881782Y-17388524D02*
X5862734Y-17398048D01*
X5862734Y-17398048D02*
X5853210Y-17407572D01*
X5853210Y-17407572D02*
X5843687Y-17426619D01*
X5843687Y-17426619D02*
X5843687Y-17464714D01*
X5843687Y-17464714D02*
X5853210Y-17483762D01*
X5853210Y-17483762D02*
X5862734Y-17493286D01*
X5862734Y-17493286D02*
X5881782Y-17502810D01*
X5881782Y-17502810D02*
X5919877Y-17502810D01*
X5919877Y-17502810D02*
X5938925Y-17493286D01*
X5938925Y-17493286D02*
X5948449Y-17483762D01*
X5948449Y-17483762D02*
X5957972Y-17464714D01*
X5957972Y-17464714D02*
X5957972Y-17426619D01*
X5957972Y-17426619D02*
X5948449Y-17407572D01*
X5948449Y-17407572D02*
X5938925Y-17398048D01*
X5938925Y-17398048D02*
X5919877Y-17388524D01*
X6024639Y-17302810D02*
X6157972Y-17302810D01*
X6157972Y-17302810D02*
X6072258Y-17502810D01*
X6224639Y-17302810D02*
X6224639Y-17340905D01*
X6300830Y-17302810D02*
X6300830Y-17340905D01*
X6596068Y-17579000D02*
X6586544Y-17569476D01*
X6586544Y-17569476D02*
X6567496Y-17540905D01*
X6567496Y-17540905D02*
X6557972Y-17521857D01*
X6557972Y-17521857D02*
X6548449Y-17493286D01*
X6548449Y-17493286D02*
X6538925Y-17445667D01*
X6538925Y-17445667D02*
X6538925Y-17407572D01*
X6538925Y-17407572D02*
X6548449Y-17359952D01*
X6548449Y-17359952D02*
X6557972Y-17331381D01*
X6557972Y-17331381D02*
X6567496Y-17312333D01*
X6567496Y-17312333D02*
X6586544Y-17283762D01*
X6586544Y-17283762D02*
X6596068Y-17274238D01*
X6662734Y-17321857D02*
X6672258Y-17312333D01*
X6672258Y-17312333D02*
X6691306Y-17302810D01*
X6691306Y-17302810D02*
X6738925Y-17302810D01*
X6738925Y-17302810D02*
X6757972Y-17312333D01*
X6757972Y-17312333D02*
X6767496Y-17321857D01*
X6767496Y-17321857D02*
X6777020Y-17340905D01*
X6777020Y-17340905D02*
X6777020Y-17359952D01*
X6777020Y-17359952D02*
X6767496Y-17388524D01*
X6767496Y-17388524D02*
X6653211Y-17502810D01*
X6653211Y-17502810D02*
X6777020Y-17502810D01*
X6957972Y-17302810D02*
X6862734Y-17302810D01*
X6862734Y-17302810D02*
X6853211Y-17398048D01*
X6853211Y-17398048D02*
X6862734Y-17388524D01*
X6862734Y-17388524D02*
X6881782Y-17379000D01*
X6881782Y-17379000D02*
X6929401Y-17379000D01*
X6929401Y-17379000D02*
X6948449Y-17388524D01*
X6948449Y-17388524D02*
X6957972Y-17398048D01*
X6957972Y-17398048D02*
X6967496Y-17417095D01*
X6967496Y-17417095D02*
X6967496Y-17464714D01*
X6967496Y-17464714D02*
X6957972Y-17483762D01*
X6957972Y-17483762D02*
X6948449Y-17493286D01*
X6948449Y-17493286D02*
X6929401Y-17502810D01*
X6929401Y-17502810D02*
X6881782Y-17502810D01*
X6881782Y-17502810D02*
X6862734Y-17493286D01*
X6862734Y-17493286D02*
X6853211Y-17483762D01*
X7205592Y-17502810D02*
X7205592Y-17302810D01*
X7291306Y-17502810D02*
X7291306Y-17398048D01*
X7291306Y-17398048D02*
X7281782Y-17379000D01*
X7281782Y-17379000D02*
X7262734Y-17369476D01*
X7262734Y-17369476D02*
X7234163Y-17369476D01*
X7234163Y-17369476D02*
X7215115Y-17379000D01*
X7215115Y-17379000D02*
X7205592Y-17388524D01*
X7415115Y-17502810D02*
X7396068Y-17493286D01*
X7396068Y-17493286D02*
X7386544Y-17483762D01*
X7386544Y-17483762D02*
X7377020Y-17464714D01*
X7377020Y-17464714D02*
X7377020Y-17407572D01*
X7377020Y-17407572D02*
X7386544Y-17388524D01*
X7386544Y-17388524D02*
X7396068Y-17379000D01*
X7396068Y-17379000D02*
X7415115Y-17369476D01*
X7415115Y-17369476D02*
X7443687Y-17369476D01*
X7443687Y-17369476D02*
X7462734Y-17379000D01*
X7462734Y-17379000D02*
X7472258Y-17388524D01*
X7472258Y-17388524D02*
X7481782Y-17407572D01*
X7481782Y-17407572D02*
X7481782Y-17464714D01*
X7481782Y-17464714D02*
X7472258Y-17483762D01*
X7472258Y-17483762D02*
X7462734Y-17493286D01*
X7462734Y-17493286D02*
X7443687Y-17502810D01*
X7443687Y-17502810D02*
X7415115Y-17502810D01*
X7596068Y-17502810D02*
X7577020Y-17493286D01*
X7577020Y-17493286D02*
X7567496Y-17474238D01*
X7567496Y-17474238D02*
X7567496Y-17302810D01*
X7748449Y-17493286D02*
X7729401Y-17502810D01*
X7729401Y-17502810D02*
X7691306Y-17502810D01*
X7691306Y-17502810D02*
X7672258Y-17493286D01*
X7672258Y-17493286D02*
X7662734Y-17474238D01*
X7662734Y-17474238D02*
X7662734Y-17398048D01*
X7662734Y-17398048D02*
X7672258Y-17379000D01*
X7672258Y-17379000D02*
X7691306Y-17369476D01*
X7691306Y-17369476D02*
X7729401Y-17369476D01*
X7729401Y-17369476D02*
X7748449Y-17379000D01*
X7748449Y-17379000D02*
X7757973Y-17398048D01*
X7757973Y-17398048D02*
X7757973Y-17417095D01*
X7757973Y-17417095D02*
X7662734Y-17436143D01*
X7834163Y-17493286D02*
X7853211Y-17502810D01*
X7853211Y-17502810D02*
X7891306Y-17502810D01*
X7891306Y-17502810D02*
X7910354Y-17493286D01*
X7910354Y-17493286D02*
X7919877Y-17474238D01*
X7919877Y-17474238D02*
X7919877Y-17464714D01*
X7919877Y-17464714D02*
X7910354Y-17445667D01*
X7910354Y-17445667D02*
X7891306Y-17436143D01*
X7891306Y-17436143D02*
X7862734Y-17436143D01*
X7862734Y-17436143D02*
X7843687Y-17426619D01*
X7843687Y-17426619D02*
X7834163Y-17407572D01*
X7834163Y-17407572D02*
X7834163Y-17398048D01*
X7834163Y-17398048D02*
X7843687Y-17379000D01*
X7843687Y-17379000D02*
X7862734Y-17369476D01*
X7862734Y-17369476D02*
X7891306Y-17369476D01*
X7891306Y-17369476D02*
X7910354Y-17379000D01*
X7986544Y-17579000D02*
X7996068Y-17569476D01*
X7996068Y-17569476D02*
X8015115Y-17540905D01*
X8015115Y-17540905D02*
X8024639Y-17521857D01*
X8024639Y-17521857D02*
X8034163Y-17493286D01*
X8034163Y-17493286D02*
X8043687Y-17445667D01*
X8043687Y-17445667D02*
X8043687Y-17407572D01*
X8043687Y-17407572D02*
X8034163Y-17359952D01*
X8034163Y-17359952D02*
X8024639Y-17331381D01*
X8024639Y-17331381D02*
X8015115Y-17312333D01*
X8015115Y-17312333D02*
X7996068Y-17283762D01*
X7996068Y-17283762D02*
X7986544Y-17274238D01*
X2821005Y-17631326D02*
X3021005Y-17831326D01*
X3021005Y-17631326D02*
X2821005Y-17831326D01*
X3021005Y-17731326D02*
G75*
G02*
X2821005Y-17731326I-100000J0D01*
G01*
X2821005Y-17731326D02*
G75*
G02*
X3021005Y-17731326I100000J0D01*
G01*
X3272258Y-17641857D02*
X3281782Y-17632333D01*
X3281782Y-17632333D02*
X3300829Y-17622810D01*
X3300829Y-17622810D02*
X3348448Y-17622810D01*
X3348448Y-17622810D02*
X3367496Y-17632333D01*
X3367496Y-17632333D02*
X3377020Y-17641857D01*
X3377020Y-17641857D02*
X3386544Y-17660905D01*
X3386544Y-17660905D02*
X3386544Y-17679952D01*
X3386544Y-17679952D02*
X3377020Y-17708524D01*
X3377020Y-17708524D02*
X3262734Y-17822810D01*
X3262734Y-17822810D02*
X3386544Y-17822810D01*
X3472258Y-17803762D02*
X3481782Y-17813286D01*
X3481782Y-17813286D02*
X3472258Y-17822810D01*
X3472258Y-17822810D02*
X3462734Y-17813286D01*
X3462734Y-17813286D02*
X3472258Y-17803762D01*
X3472258Y-17803762D02*
X3472258Y-17822810D01*
X3672258Y-17822810D02*
X3557972Y-17822810D01*
X3615115Y-17822810D02*
X3615115Y-17622810D01*
X3615115Y-17622810D02*
X3596067Y-17651381D01*
X3596067Y-17651381D02*
X3577020Y-17670429D01*
X3577020Y-17670429D02*
X3557972Y-17679952D01*
X3796067Y-17622810D02*
X3815115Y-17622810D01*
X3815115Y-17622810D02*
X3834163Y-17632333D01*
X3834163Y-17632333D02*
X3843686Y-17641857D01*
X3843686Y-17641857D02*
X3853210Y-17660905D01*
X3853210Y-17660905D02*
X3862734Y-17699000D01*
X3862734Y-17699000D02*
X3862734Y-17746619D01*
X3862734Y-17746619D02*
X3853210Y-17784714D01*
X3853210Y-17784714D02*
X3843686Y-17803762D01*
X3843686Y-17803762D02*
X3834163Y-17813286D01*
X3834163Y-17813286D02*
X3815115Y-17822810D01*
X3815115Y-17822810D02*
X3796067Y-17822810D01*
X3796067Y-17822810D02*
X3777020Y-17813286D01*
X3777020Y-17813286D02*
X3767496Y-17803762D01*
X3767496Y-17803762D02*
X3757972Y-17784714D01*
X3757972Y-17784714D02*
X3748448Y-17746619D01*
X3748448Y-17746619D02*
X3748448Y-17699000D01*
X3748448Y-17699000D02*
X3757972Y-17660905D01*
X3757972Y-17660905D02*
X3767496Y-17641857D01*
X3767496Y-17641857D02*
X3777020Y-17632333D01*
X3777020Y-17632333D02*
X3796067Y-17622810D01*
X3986544Y-17622810D02*
X4005591Y-17622810D01*
X4005591Y-17622810D02*
X4024639Y-17632333D01*
X4024639Y-17632333D02*
X4034163Y-17641857D01*
X4034163Y-17641857D02*
X4043686Y-17660905D01*
X4043686Y-17660905D02*
X4053210Y-17699000D01*
X4053210Y-17699000D02*
X4053210Y-17746619D01*
X4053210Y-17746619D02*
X4043686Y-17784714D01*
X4043686Y-17784714D02*
X4034163Y-17803762D01*
X4034163Y-17803762D02*
X4024639Y-17813286D01*
X4024639Y-17813286D02*
X4005591Y-17822810D01*
X4005591Y-17822810D02*
X3986544Y-17822810D01*
X3986544Y-17822810D02*
X3967496Y-17813286D01*
X3967496Y-17813286D02*
X3957972Y-17803762D01*
X3957972Y-17803762D02*
X3948448Y-17784714D01*
X3948448Y-17784714D02*
X3938925Y-17746619D01*
X3938925Y-17746619D02*
X3938925Y-17699000D01*
X3938925Y-17699000D02*
X3948448Y-17660905D01*
X3948448Y-17660905D02*
X3957972Y-17641857D01*
X3957972Y-17641857D02*
X3967496Y-17632333D01*
X3967496Y-17632333D02*
X3986544Y-17622810D01*
X4138925Y-17822810D02*
X4138925Y-17689476D01*
X4138925Y-17708524D02*
X4148448Y-17699000D01*
X4148448Y-17699000D02*
X4167496Y-17689476D01*
X4167496Y-17689476D02*
X4196068Y-17689476D01*
X4196068Y-17689476D02*
X4215115Y-17699000D01*
X4215115Y-17699000D02*
X4224639Y-17718048D01*
X4224639Y-17718048D02*
X4224639Y-17822810D01*
X4224639Y-17718048D02*
X4234163Y-17699000D01*
X4234163Y-17699000D02*
X4253210Y-17689476D01*
X4253210Y-17689476D02*
X4281782Y-17689476D01*
X4281782Y-17689476D02*
X4300829Y-17699000D01*
X4300829Y-17699000D02*
X4310353Y-17718048D01*
X4310353Y-17718048D02*
X4310353Y-17822810D01*
X4405591Y-17822810D02*
X4405591Y-17689476D01*
X4405591Y-17708524D02*
X4415115Y-17699000D01*
X4415115Y-17699000D02*
X4434163Y-17689476D01*
X4434163Y-17689476D02*
X4462734Y-17689476D01*
X4462734Y-17689476D02*
X4481782Y-17699000D01*
X4481782Y-17699000D02*
X4491306Y-17718048D01*
X4491306Y-17718048D02*
X4491306Y-17822810D01*
X4491306Y-17718048D02*
X4500829Y-17699000D01*
X4500829Y-17699000D02*
X4519877Y-17689476D01*
X4519877Y-17689476D02*
X4548448Y-17689476D01*
X4548448Y-17689476D02*
X4567496Y-17699000D01*
X4567496Y-17699000D02*
X4577020Y-17718048D01*
X4577020Y-17718048D02*
X4577020Y-17822810D01*
X4967496Y-17613286D02*
X4796068Y-17870429D01*
X5224639Y-17622810D02*
X5243687Y-17622810D01*
X5243687Y-17622810D02*
X5262734Y-17632333D01*
X5262734Y-17632333D02*
X5272258Y-17641857D01*
X5272258Y-17641857D02*
X5281782Y-17660905D01*
X5281782Y-17660905D02*
X5291306Y-17699000D01*
X5291306Y-17699000D02*
X5291306Y-17746619D01*
X5291306Y-17746619D02*
X5281782Y-17784714D01*
X5281782Y-17784714D02*
X5272258Y-17803762D01*
X5272258Y-17803762D02*
X5262734Y-17813286D01*
X5262734Y-17813286D02*
X5243687Y-17822810D01*
X5243687Y-17822810D02*
X5224639Y-17822810D01*
X5224639Y-17822810D02*
X5205591Y-17813286D01*
X5205591Y-17813286D02*
X5196068Y-17803762D01*
X5196068Y-17803762D02*
X5186544Y-17784714D01*
X5186544Y-17784714D02*
X5177020Y-17746619D01*
X5177020Y-17746619D02*
X5177020Y-17699000D01*
X5177020Y-17699000D02*
X5186544Y-17660905D01*
X5186544Y-17660905D02*
X5196068Y-17641857D01*
X5196068Y-17641857D02*
X5205591Y-17632333D01*
X5205591Y-17632333D02*
X5224639Y-17622810D01*
X5377020Y-17803762D02*
X5386544Y-17813286D01*
X5386544Y-17813286D02*
X5377020Y-17822810D01*
X5377020Y-17822810D02*
X5367496Y-17813286D01*
X5367496Y-17813286D02*
X5377020Y-17803762D01*
X5377020Y-17803762D02*
X5377020Y-17822810D01*
X5510353Y-17622810D02*
X5529401Y-17622810D01*
X5529401Y-17622810D02*
X5548449Y-17632333D01*
X5548449Y-17632333D02*
X5557972Y-17641857D01*
X5557972Y-17641857D02*
X5567496Y-17660905D01*
X5567496Y-17660905D02*
X5577020Y-17699000D01*
X5577020Y-17699000D02*
X5577020Y-17746619D01*
X5577020Y-17746619D02*
X5567496Y-17784714D01*
X5567496Y-17784714D02*
X5557972Y-17803762D01*
X5557972Y-17803762D02*
X5548449Y-17813286D01*
X5548449Y-17813286D02*
X5529401Y-17822810D01*
X5529401Y-17822810D02*
X5510353Y-17822810D01*
X5510353Y-17822810D02*
X5491306Y-17813286D01*
X5491306Y-17813286D02*
X5481782Y-17803762D01*
X5481782Y-17803762D02*
X5472258Y-17784714D01*
X5472258Y-17784714D02*
X5462734Y-17746619D01*
X5462734Y-17746619D02*
X5462734Y-17699000D01*
X5462734Y-17699000D02*
X5472258Y-17660905D01*
X5472258Y-17660905D02*
X5481782Y-17641857D01*
X5481782Y-17641857D02*
X5491306Y-17632333D01*
X5491306Y-17632333D02*
X5510353Y-17622810D01*
X5691306Y-17708524D02*
X5672258Y-17699000D01*
X5672258Y-17699000D02*
X5662734Y-17689476D01*
X5662734Y-17689476D02*
X5653210Y-17670429D01*
X5653210Y-17670429D02*
X5653210Y-17660905D01*
X5653210Y-17660905D02*
X5662734Y-17641857D01*
X5662734Y-17641857D02*
X5672258Y-17632333D01*
X5672258Y-17632333D02*
X5691306Y-17622810D01*
X5691306Y-17622810D02*
X5729401Y-17622810D01*
X5729401Y-17622810D02*
X5748449Y-17632333D01*
X5748449Y-17632333D02*
X5757972Y-17641857D01*
X5757972Y-17641857D02*
X5767496Y-17660905D01*
X5767496Y-17660905D02*
X5767496Y-17670429D01*
X5767496Y-17670429D02*
X5757972Y-17689476D01*
X5757972Y-17689476D02*
X5748449Y-17699000D01*
X5748449Y-17699000D02*
X5729401Y-17708524D01*
X5729401Y-17708524D02*
X5691306Y-17708524D01*
X5691306Y-17708524D02*
X5672258Y-17718048D01*
X5672258Y-17718048D02*
X5662734Y-17727572D01*
X5662734Y-17727572D02*
X5653210Y-17746619D01*
X5653210Y-17746619D02*
X5653210Y-17784714D01*
X5653210Y-17784714D02*
X5662734Y-17803762D01*
X5662734Y-17803762D02*
X5672258Y-17813286D01*
X5672258Y-17813286D02*
X5691306Y-17822810D01*
X5691306Y-17822810D02*
X5729401Y-17822810D01*
X5729401Y-17822810D02*
X5748449Y-17813286D01*
X5748449Y-17813286D02*
X5757972Y-17803762D01*
X5757972Y-17803762D02*
X5767496Y-17784714D01*
X5767496Y-17784714D02*
X5767496Y-17746619D01*
X5767496Y-17746619D02*
X5757972Y-17727572D01*
X5757972Y-17727572D02*
X5748449Y-17718048D01*
X5748449Y-17718048D02*
X5729401Y-17708524D01*
X5843687Y-17641857D02*
X5853210Y-17632333D01*
X5853210Y-17632333D02*
X5872258Y-17622810D01*
X5872258Y-17622810D02*
X5919877Y-17622810D01*
X5919877Y-17622810D02*
X5938925Y-17632333D01*
X5938925Y-17632333D02*
X5948449Y-17641857D01*
X5948449Y-17641857D02*
X5957972Y-17660905D01*
X5957972Y-17660905D02*
X5957972Y-17679952D01*
X5957972Y-17679952D02*
X5948449Y-17708524D01*
X5948449Y-17708524D02*
X5834163Y-17822810D01*
X5834163Y-17822810D02*
X5957972Y-17822810D01*
X6024639Y-17622810D02*
X6157972Y-17622810D01*
X6157972Y-17622810D02*
X6072258Y-17822810D01*
X6224639Y-17622810D02*
X6224639Y-17660905D01*
X6300830Y-17622810D02*
X6300830Y-17660905D01*
X6596068Y-17899000D02*
X6586544Y-17889476D01*
X6586544Y-17889476D02*
X6567496Y-17860905D01*
X6567496Y-17860905D02*
X6557972Y-17841857D01*
X6557972Y-17841857D02*
X6548449Y-17813286D01*
X6548449Y-17813286D02*
X6538925Y-17765667D01*
X6538925Y-17765667D02*
X6538925Y-17727572D01*
X6538925Y-17727572D02*
X6548449Y-17679952D01*
X6548449Y-17679952D02*
X6557972Y-17651381D01*
X6557972Y-17651381D02*
X6567496Y-17632333D01*
X6567496Y-17632333D02*
X6586544Y-17603762D01*
X6586544Y-17603762D02*
X6596068Y-17594238D01*
X6757972Y-17689476D02*
X6757972Y-17822810D01*
X6710353Y-17613286D02*
X6662734Y-17756143D01*
X6662734Y-17756143D02*
X6786544Y-17756143D01*
X7015115Y-17822810D02*
X7015115Y-17622810D01*
X7100830Y-17822810D02*
X7100830Y-17718048D01*
X7100830Y-17718048D02*
X7091306Y-17699000D01*
X7091306Y-17699000D02*
X7072258Y-17689476D01*
X7072258Y-17689476D02*
X7043687Y-17689476D01*
X7043687Y-17689476D02*
X7024639Y-17699000D01*
X7024639Y-17699000D02*
X7015115Y-17708524D01*
X7224639Y-17822810D02*
X7205592Y-17813286D01*
X7205592Y-17813286D02*
X7196068Y-17803762D01*
X7196068Y-17803762D02*
X7186544Y-17784714D01*
X7186544Y-17784714D02*
X7186544Y-17727572D01*
X7186544Y-17727572D02*
X7196068Y-17708524D01*
X7196068Y-17708524D02*
X7205592Y-17699000D01*
X7205592Y-17699000D02*
X7224639Y-17689476D01*
X7224639Y-17689476D02*
X7253211Y-17689476D01*
X7253211Y-17689476D02*
X7272258Y-17699000D01*
X7272258Y-17699000D02*
X7281782Y-17708524D01*
X7281782Y-17708524D02*
X7291306Y-17727572D01*
X7291306Y-17727572D02*
X7291306Y-17784714D01*
X7291306Y-17784714D02*
X7281782Y-17803762D01*
X7281782Y-17803762D02*
X7272258Y-17813286D01*
X7272258Y-17813286D02*
X7253211Y-17822810D01*
X7253211Y-17822810D02*
X7224639Y-17822810D01*
X7405592Y-17822810D02*
X7386544Y-17813286D01*
X7386544Y-17813286D02*
X7377020Y-17794238D01*
X7377020Y-17794238D02*
X7377020Y-17622810D01*
X7557973Y-17813286D02*
X7538925Y-17822810D01*
X7538925Y-17822810D02*
X7500830Y-17822810D01*
X7500830Y-17822810D02*
X7481782Y-17813286D01*
X7481782Y-17813286D02*
X7472258Y-17794238D01*
X7472258Y-17794238D02*
X7472258Y-17718048D01*
X7472258Y-17718048D02*
X7481782Y-17699000D01*
X7481782Y-17699000D02*
X7500830Y-17689476D01*
X7500830Y-17689476D02*
X7538925Y-17689476D01*
X7538925Y-17689476D02*
X7557973Y-17699000D01*
X7557973Y-17699000D02*
X7567496Y-17718048D01*
X7567496Y-17718048D02*
X7567496Y-17737095D01*
X7567496Y-17737095D02*
X7472258Y-17756143D01*
X7643687Y-17813286D02*
X7662734Y-17822810D01*
X7662734Y-17822810D02*
X7700830Y-17822810D01*
X7700830Y-17822810D02*
X7719877Y-17813286D01*
X7719877Y-17813286D02*
X7729401Y-17794238D01*
X7729401Y-17794238D02*
X7729401Y-17784714D01*
X7729401Y-17784714D02*
X7719877Y-17765667D01*
X7719877Y-17765667D02*
X7700830Y-17756143D01*
X7700830Y-17756143D02*
X7672258Y-17756143D01*
X7672258Y-17756143D02*
X7653211Y-17746619D01*
X7653211Y-17746619D02*
X7643687Y-17727572D01*
X7643687Y-17727572D02*
X7643687Y-17718048D01*
X7643687Y-17718048D02*
X7653211Y-17699000D01*
X7653211Y-17699000D02*
X7672258Y-17689476D01*
X7672258Y-17689476D02*
X7700830Y-17689476D01*
X7700830Y-17689476D02*
X7719877Y-17699000D01*
X7796068Y-17899000D02*
X7805592Y-17889476D01*
X7805592Y-17889476D02*
X7824639Y-17860905D01*
X7824639Y-17860905D02*
X7834163Y-17841857D01*
X7834163Y-17841857D02*
X7843687Y-17813286D01*
X7843687Y-17813286D02*
X7853211Y-17765667D01*
X7853211Y-17765667D02*
X7853211Y-17727572D01*
X7853211Y-17727572D02*
X7843687Y-17679952D01*
X7843687Y-17679952D02*
X7834163Y-17651381D01*
X7834163Y-17651381D02*
X7824639Y-17632333D01*
X7824639Y-17632333D02*
X7805592Y-17603762D01*
X7805592Y-17603762D02*
X7796068Y-17594238D01*
M02*
