G04 #@! TF.GenerationSoftware,KiCad,Pcbnew,10.0.1*
G04 #@! TF.CreationDate,2026-04-27T23:01:55+08:00*
G04 #@! TF.ProjectId,xavien-gateron-millmax,78617669-656e-42d6-9761-7465726f6e2d,rev?*
G04 #@! TF.SameCoordinates,Original*
G04 #@! TF.FileFunction,Copper,L1,Top*
G04 #@! TF.FilePolarity,Positive*
%FSLAX46Y46*%
G04 Gerber Fmt 4.6, Leading zero omitted, Abs format (unit mm)*
G04 Created by KiCad (PCBNEW 10.0.1) date 2026-04-27 23:01:55*
%MOMM*%
%LPD*%
G01*
G04 APERTURE LIST*
G04 #@! TA.AperFunction,ComponentPad*
%ADD10C,0.457200*%
G04 #@! TD*
G04 #@! TA.AperFunction,ComponentPad*
%ADD11C,2.500000*%
G04 #@! TD*
G04 #@! TA.AperFunction,ComponentPad*
%ADD12C,2.000000*%
G04 #@! TD*
G04 #@! TA.AperFunction,ComponentPad*
%ADD13O,2.100000X2.500000*%
G04 #@! TD*
G04 #@! TA.AperFunction,ViaPad*
%ADD14C,0.600000*%
G04 #@! TD*
G04 #@! TA.AperFunction,Conductor*
%ADD15C,0.250000*%
G04 #@! TD*
G04 #@! TA.AperFunction,Conductor*
%ADD16C,0.400000*%
G04 #@! TD*
G04 #@! TA.AperFunction,Conductor*
%ADD17C,0.380000*%
G04 #@! TD*
G04 #@! TA.AperFunction,Conductor*
%ADD18C,0.350000*%
G04 #@! TD*
G04 #@! TA.AperFunction,Profile*
%ADD19C,0.050000*%
G04 #@! TD*
G04 APERTURE END LIST*
D10*
X43780000Y-93360000D03*
D11*
X56710000Y-133290000D03*
X163300000Y-84696000D03*
X330267209Y-58870000D03*
D12*
X231880000Y-74569000D03*
D11*
X199026209Y-103726000D03*
D13*
X315022000Y-91975000D03*
X317562000Y-91975000D03*
X320102000Y-91975000D03*
X322642000Y-91975000D03*
X325182000Y-91975000D03*
D11*
X199026209Y-84696000D03*
X130418000Y-104857173D03*
D13*
X37135000Y-91975000D03*
X39675000Y-91975000D03*
X42215000Y-91975000D03*
X44755000Y-91975000D03*
X47295000Y-91975000D03*
D11*
X130418000Y-74569000D03*
X231912000Y-104857173D03*
X163300000Y-103726000D03*
X54320216Y-64890000D03*
X34625000Y-60670000D03*
X34625000Y-63210000D03*
X34625000Y-65750000D03*
X34625000Y-68290000D03*
X34625000Y-70830000D03*
X34625000Y-73370000D03*
X34625000Y-75910000D03*
X34625000Y-78450000D03*
X34625000Y-80990000D03*
X34625000Y-83530000D03*
X34625000Y-86070000D03*
X34625000Y-88610000D03*
X49865000Y-88610000D03*
X49865000Y-86070000D03*
X49865000Y-83530000D03*
X49865000Y-80990000D03*
X49865000Y-78450000D03*
X49865000Y-75910000D03*
X49865000Y-73370000D03*
X49865000Y-70830000D03*
X49865000Y-68290000D03*
X49865000Y-65750000D03*
X49865000Y-63210000D03*
X49865000Y-60670000D03*
X312511000Y-60670000D03*
X312511000Y-63210000D03*
X312511000Y-65750000D03*
X312511000Y-68290000D03*
X312511000Y-70830000D03*
X312511000Y-73370000D03*
X312511000Y-75910000D03*
X312511000Y-78450000D03*
X312511000Y-80990000D03*
X312511000Y-83530000D03*
X312511000Y-86070000D03*
X312511000Y-88610000D03*
X327751000Y-88610000D03*
X327751000Y-86070000D03*
X327751000Y-83530000D03*
X327751000Y-80990000D03*
X327751000Y-78450000D03*
X327751000Y-75910000D03*
X327751000Y-73370000D03*
X327751000Y-70830000D03*
X327751000Y-68290000D03*
X327751000Y-65750000D03*
X327751000Y-63210000D03*
X327751000Y-60670000D03*
X305590000Y-133310000D03*
X308006209Y-64890000D03*
D14*
X247439999Y-88240005D03*
X309315000Y-77550000D03*
X228489999Y-97740005D03*
X266639999Y-82290005D03*
X285639999Y-88840005D03*
X304539999Y-91240005D03*
X209389999Y-97640005D03*
X69989999Y-72190005D03*
X71717224Y-95098141D03*
X107989999Y-63190005D03*
X145989999Y-78690005D03*
X88989999Y-69690005D03*
X31445000Y-75910000D03*
X126989999Y-69190005D03*
X164989999Y-78690005D03*
X71214999Y-72190005D03*
X266639999Y-63140005D03*
X285689999Y-69690005D03*
X247589999Y-69090005D03*
X309315000Y-75910000D03*
X209489999Y-78740005D03*
X304739999Y-72190005D03*
X228539999Y-78690005D03*
X133910001Y-109609995D03*
X71275000Y-110190005D03*
X107989999Y-101190005D03*
X88989999Y-107690005D03*
X69989999Y-110190005D03*
X71017489Y-95117489D03*
X126989999Y-107190005D03*
X34232538Y-91860000D03*
X164989999Y-116690005D03*
X233294845Y-98250000D03*
X330607000Y-75757163D03*
X291819998Y-60489996D03*
X292700000Y-118400000D03*
X310207115Y-61520000D03*
X280050000Y-116650000D03*
X294250000Y-119375000D03*
X277507000Y-115290000D03*
X294250000Y-118625000D03*
X280050000Y-115150000D03*
X294250000Y-117875000D03*
X47129488Y-145836341D03*
X72115935Y-109546014D03*
X75700000Y-132767953D03*
X74151288Y-132237230D03*
X72767224Y-95067500D03*
X94375861Y-129695862D03*
X35800000Y-95115000D03*
X75278254Y-109665005D03*
X151935849Y-91666079D03*
X329651718Y-91401718D03*
X271390000Y-95850000D03*
X164989999Y-97690005D03*
X107989999Y-82190005D03*
X71214999Y-91190005D03*
X145989999Y-96625000D03*
X34472539Y-93715000D03*
X69989999Y-91190005D03*
X70287507Y-95105007D03*
X88989999Y-88690005D03*
X126989999Y-88190005D03*
X145989999Y-97690005D03*
X112835754Y-90032500D03*
X215278945Y-110714000D03*
X330267000Y-73309000D03*
X285539999Y-107890005D03*
X228389999Y-116740005D03*
X307665000Y-107560000D03*
X209489999Y-116740005D03*
X304699997Y-110430004D03*
X247589999Y-107340005D03*
X266589999Y-101340005D03*
X72439999Y-92595000D03*
X70350000Y-119600000D03*
X81900000Y-114700000D03*
X70350000Y-118850000D03*
X84400000Y-114875000D03*
X67626001Y-119421005D03*
X81900000Y-116200000D03*
X70350000Y-118100000D03*
X290439000Y-98000000D03*
X308050291Y-95722452D03*
X74753254Y-94800000D03*
X148066848Y-109554000D03*
X131866848Y-97906079D03*
X51650000Y-91750000D03*
X93798354Y-92000000D03*
X329901000Y-71288527D03*
X195210342Y-116950725D03*
X308735538Y-94683000D03*
X252339845Y-89100000D03*
X35522538Y-90610000D03*
X32625000Y-68340000D03*
X50269490Y-90760000D03*
X81900000Y-115450000D03*
X67626001Y-118171005D03*
X329450000Y-63210000D03*
X327575000Y-92475000D03*
X310495000Y-68290000D03*
X324100000Y-94325000D03*
X310015000Y-70830000D03*
X310015000Y-73200000D03*
X313540000Y-91285000D03*
X326650000Y-90218000D03*
X320999404Y-135323649D03*
X310950000Y-136000000D03*
X300007213Y-135376498D03*
X280204211Y-130794118D03*
X32145000Y-70830000D03*
X32145000Y-73370000D03*
X38970000Y-90310000D03*
X296914999Y-118163995D03*
X280050000Y-115900000D03*
X52070000Y-67400000D03*
X306275000Y-96320435D03*
X328956750Y-66955750D03*
D15*
X236205026Y-93530000D02*
X242525026Y-93530000D01*
X221902718Y-97740005D02*
X228489999Y-97740005D01*
X231995021Y-97740005D02*
X236205026Y-93530000D01*
X309490000Y-77725000D02*
X309490000Y-89710000D01*
X242525026Y-93530000D02*
X247439999Y-88615027D01*
X309490000Y-89710000D02*
X307950000Y-91250000D01*
X261580000Y-87370000D02*
X266639999Y-82310001D01*
X285639999Y-88840005D02*
X285714994Y-88915000D01*
X247439999Y-88240005D02*
X248310004Y-87370000D01*
X285714994Y-88915000D02*
X295818847Y-88915000D01*
X307950000Y-91250000D02*
X304549994Y-91250000D01*
X277055847Y-86750000D02*
X279145852Y-88840005D01*
X266639999Y-82310001D02*
X266639999Y-82290005D01*
X298143852Y-91240005D02*
X304539999Y-91240005D01*
X210980004Y-96050000D02*
X220212713Y-96050000D01*
X279145852Y-88840005D02*
X285639999Y-88840005D01*
X220212713Y-96050000D02*
X221902718Y-97740005D01*
X228489999Y-97740005D02*
X231995021Y-97740005D01*
X248310004Y-87370000D02*
X261580000Y-87370000D01*
X266639999Y-82290005D02*
X271099994Y-86750000D01*
X304549994Y-91250000D02*
X304539999Y-91240005D01*
X247439999Y-88615027D02*
X247439999Y-88240005D01*
X295818847Y-88915000D02*
X298143852Y-91240005D01*
X309315000Y-77550000D02*
X309490000Y-77725000D01*
X209389999Y-97640005D02*
X210980004Y-96050000D01*
X271099994Y-86750000D02*
X277055847Y-86750000D01*
D16*
X43745000Y-93360000D02*
X42215000Y-91830000D01*
X43780000Y-93360000D02*
X43745000Y-93360000D01*
D15*
X100809995Y-63190005D02*
X94309995Y-69690005D01*
X31600000Y-92140000D02*
X31600000Y-76065000D01*
X52980379Y-94590000D02*
X34050000Y-94590000D01*
X71214999Y-72190005D02*
X69989999Y-72190005D01*
X133938726Y-76436079D02*
X132650000Y-75147353D01*
X55455076Y-94590000D02*
X53135025Y-94590000D01*
X71717224Y-95098141D02*
X71717224Y-95232776D01*
X34050000Y-94590000D02*
X31600000Y-92140000D01*
X67884973Y-98250000D02*
X59115076Y-98250000D01*
X80564189Y-69690005D02*
X88989999Y-69690005D01*
X70900000Y-96050000D02*
X70084973Y-96050000D01*
X31600000Y-76065000D02*
X31445000Y-75910000D01*
X132650000Y-75147353D02*
X132650000Y-74000000D01*
X156430715Y-78690005D02*
X154540710Y-76800000D01*
X107989999Y-63190005D02*
X100809995Y-63190005D01*
X53135025Y-94590000D02*
X52980386Y-94590007D01*
X111665311Y-66865317D02*
X107989999Y-63190005D01*
X135122788Y-76436079D02*
X133938726Y-76436079D01*
X154540710Y-76800000D02*
X147880004Y-76800000D01*
X164989999Y-78690005D02*
X156430715Y-78690005D01*
X126989999Y-69190005D02*
X118416382Y-69190005D01*
X127840005Y-69190005D02*
X126989999Y-69190005D01*
X137376714Y-78690005D02*
X135122788Y-76436079D01*
X94309995Y-69690005D02*
X88989999Y-69690005D01*
X71214999Y-72190005D02*
X78064189Y-72190005D01*
X71717224Y-95232776D02*
X70900000Y-96050000D01*
X116091694Y-66865317D02*
X111665311Y-66865317D01*
X147880004Y-76800000D02*
X145989999Y-78690005D01*
X59115076Y-98250000D02*
X55455076Y-94590000D01*
X70084973Y-96050000D02*
X67884973Y-98250000D01*
X78064189Y-72190005D02*
X80564189Y-69690005D01*
X145989999Y-78690005D02*
X137376714Y-78690005D01*
X132650000Y-74000000D02*
X127840005Y-69190005D01*
X118416382Y-69190005D02*
X116091694Y-66865317D01*
X52980386Y-94590007D02*
X52980379Y-94590000D01*
X309140000Y-72890000D02*
X308440005Y-72190005D01*
X285689999Y-69690005D02*
X276940945Y-69690005D01*
X212400000Y-76700000D02*
X210359995Y-78740005D01*
X293695940Y-69855000D02*
X285854994Y-69855000D01*
X259759995Y-63140005D02*
X253809995Y-69090005D01*
X210359995Y-78740005D02*
X209489999Y-78740005D01*
X304739999Y-72190005D02*
X296030945Y-72190005D01*
X285854994Y-69855000D02*
X285689999Y-69690005D01*
X309315000Y-75910000D02*
X309490000Y-75735000D01*
X270894994Y-67395000D02*
X266639999Y-63140005D01*
X274645940Y-67395000D02*
X270894994Y-67395000D01*
X309490000Y-75735000D02*
X309490000Y-73912437D01*
X217783806Y-76700000D02*
X212400000Y-76700000D01*
X309490000Y-73912437D02*
X309140000Y-73562437D01*
X228539999Y-78690005D02*
X219773811Y-78690005D01*
X276940945Y-69690005D02*
X274645940Y-67395000D01*
X308440005Y-72190005D02*
X304739999Y-72190005D01*
X296030945Y-72190005D02*
X293695940Y-69855000D01*
X240759995Y-69090005D02*
X231159995Y-78690005D01*
X253809995Y-69090005D02*
X247589999Y-69090005D01*
X266639999Y-63140005D02*
X259759995Y-63140005D01*
X219773811Y-78690005D02*
X217783806Y-76700000D01*
X231159995Y-78690005D02*
X228539999Y-78690005D01*
X309140000Y-73562437D02*
X309140000Y-72890000D01*
X247589999Y-69090005D02*
X240759995Y-69090005D01*
X71017489Y-95117489D02*
X71017489Y-95376683D01*
X107949994Y-101150000D02*
X107989999Y-101190005D01*
X34071209Y-92021329D02*
X34232538Y-91860000D01*
X34255076Y-94240000D02*
X33947539Y-93932463D01*
X130221025Y-109609995D02*
X133910001Y-109609995D01*
X145965970Y-111950000D02*
X149220970Y-115205000D01*
X69989999Y-110190005D02*
X71275000Y-110190005D01*
X144781908Y-111950000D02*
X145965970Y-111950000D01*
X80172627Y-110190005D02*
X82672627Y-107690005D01*
X127801035Y-107190005D02*
X130221025Y-109609995D01*
X153050000Y-115100000D02*
X155000000Y-115100000D01*
X152945000Y-115205000D02*
X153050000Y-115100000D01*
X142441903Y-109609995D02*
X144781908Y-111950000D01*
X33947539Y-93932463D02*
X33947539Y-93497537D01*
X156590005Y-116690005D02*
X164989999Y-116690005D01*
X111849994Y-105050000D02*
X118305283Y-105050000D01*
X120445288Y-107190005D02*
X126989999Y-107190005D01*
X59260051Y-97900000D02*
X55600051Y-94240000D01*
X118305283Y-105050000D02*
X120445288Y-107190005D01*
X71275000Y-110190005D02*
X80172627Y-110190005D01*
X69989999Y-95650000D02*
X67739999Y-97900000D01*
X55600051Y-94240000D02*
X34255076Y-94240000D01*
X149220970Y-115205000D02*
X152945000Y-115205000D01*
X71017489Y-95376683D02*
X70744172Y-95650000D01*
X107989999Y-101190005D02*
X111849994Y-105050000D01*
X101767730Y-101150000D02*
X107949994Y-101150000D01*
X155000000Y-115100000D02*
X156590005Y-116690005D01*
X67739999Y-97900000D02*
X59260051Y-97900000D01*
X33947539Y-93497537D02*
X34071209Y-93373867D01*
X34071209Y-93373867D02*
X34071209Y-92021329D01*
X95227725Y-107690005D02*
X101767730Y-101150000D01*
X88989999Y-107690005D02*
X95227725Y-107690005D01*
X82672627Y-107690005D02*
X88989999Y-107690005D01*
X126989999Y-107190005D02*
X127801035Y-107190005D01*
X133910001Y-109609995D02*
X142441903Y-109609995D01*
X70744172Y-95650000D02*
X69989999Y-95650000D01*
X328100000Y-92458462D02*
X328100000Y-92769311D01*
X249119948Y-88420000D02*
X242959948Y-94580000D01*
X323882537Y-94850000D02*
X323182537Y-94150000D01*
X330432000Y-89878975D02*
X328967974Y-91343000D01*
X324317463Y-94850000D02*
X323882537Y-94850000D01*
X303602974Y-96765000D02*
X289799925Y-96765000D01*
X314003928Y-93950000D02*
X306417974Y-93950000D01*
X242959948Y-94580000D02*
X236639948Y-94580000D01*
X324567463Y-94600000D02*
X324317463Y-94850000D01*
X287824925Y-94790000D02*
X268790000Y-94790000D01*
X323182537Y-94150000D02*
X314203929Y-94150000D01*
X289799925Y-96765000D02*
X287824925Y-94790000D01*
X326269311Y-94600000D02*
X324567463Y-94600000D01*
X233294845Y-97925103D02*
X233294845Y-98250000D01*
X328100000Y-92769311D02*
X326269311Y-94600000D01*
X330432000Y-75932163D02*
X330432000Y-89878975D01*
X328967974Y-91343000D02*
X328967974Y-91590488D01*
X306417974Y-93950000D02*
X303602974Y-96765000D01*
X314203929Y-94150000D02*
X314003928Y-93950000D01*
X268790000Y-94790000D02*
X262420000Y-88420000D01*
X330607000Y-75757163D02*
X330432000Y-75932163D01*
X262420000Y-88420000D02*
X249119948Y-88420000D01*
X328967974Y-91590488D02*
X328100000Y-92458462D01*
X236639948Y-94580000D02*
X233294845Y-97925103D01*
X308370000Y-60370000D02*
X291939994Y-60370000D01*
X292700000Y-118400000D02*
X293250000Y-118400000D01*
X292700000Y-118400000D02*
X292525000Y-118225000D01*
X310207115Y-61520000D02*
X309520000Y-61520000D01*
X309520000Y-61520000D02*
X308370000Y-60370000D01*
X285255026Y-115850000D02*
X280850000Y-115850000D01*
X293250000Y-118400000D02*
X294225000Y-119375000D01*
X294225000Y-119375000D02*
X294250000Y-119375000D01*
X287630026Y-118225000D02*
X285255026Y-115850000D01*
X291939994Y-60370000D02*
X291819998Y-60489996D01*
X292525000Y-118225000D02*
X287630026Y-118225000D01*
X280850000Y-115850000D02*
X280050000Y-116650000D01*
X293857537Y-117525000D02*
X294032537Y-117350000D01*
X294775000Y-117657537D02*
X294775000Y-118092463D01*
X294467463Y-117350000D02*
X294775000Y-117657537D01*
X280900000Y-115150000D02*
X285544974Y-115150000D01*
X294767463Y-118100000D02*
X294775000Y-118100000D01*
X294775000Y-118100000D02*
X294250000Y-118625000D01*
X280375000Y-114625000D02*
X280900000Y-115150000D01*
X277507000Y-115290000D02*
X278172000Y-114625000D01*
X278172000Y-114625000D02*
X280375000Y-114625000D01*
X294775000Y-118092463D02*
X294767463Y-118100000D01*
X294032537Y-117350000D02*
X294467463Y-117350000D01*
X285544974Y-115150000D02*
X287919974Y-117525000D01*
X287919974Y-117525000D02*
X293857537Y-117525000D01*
X280050000Y-115150000D02*
X280400000Y-115500000D01*
X285400000Y-115500000D02*
X287775000Y-117875000D01*
X280400000Y-115500000D02*
X285400000Y-115500000D01*
X287775000Y-117875000D02*
X294250000Y-117875000D01*
X53125360Y-94940007D02*
X52983623Y-94940007D01*
X50313659Y-145836341D02*
X56950000Y-139200000D01*
X88744938Y-129695862D02*
X94375861Y-129695862D01*
X72234926Y-109665005D02*
X72115935Y-109546014D01*
X72377474Y-95067500D02*
X72242224Y-95202750D01*
X68029947Y-98600000D02*
X58970102Y-98600000D01*
X47129488Y-145836341D02*
X50313659Y-145836341D01*
X71934687Y-95623141D02*
X71821833Y-95623141D01*
X53125367Y-94940000D02*
X53125360Y-94940007D01*
X56950000Y-139200000D02*
X62403853Y-139200000D01*
X74682011Y-132767953D02*
X75700000Y-132767953D01*
X70229947Y-96400000D02*
X68029947Y-98600000D01*
X71044974Y-96400000D02*
X70229947Y-96400000D01*
X55310102Y-94940000D02*
X53125367Y-94940000D01*
X69366623Y-132237230D02*
X74151288Y-132237230D01*
X85672847Y-132767953D02*
X88744938Y-129695862D01*
X52835427Y-94940014D02*
X52835420Y-94940007D01*
X72767224Y-95067500D02*
X72377474Y-95067500D01*
X71821833Y-95623141D02*
X71044974Y-96400000D01*
X35975000Y-94940000D02*
X35800000Y-95115000D01*
X52983623Y-94940007D02*
X52835427Y-94940014D01*
X52835412Y-94940007D02*
X52835405Y-94940000D01*
X75700000Y-132767953D02*
X85672847Y-132767953D01*
X75278254Y-109665005D02*
X72234926Y-109665005D01*
X62403853Y-139200000D02*
X69366623Y-132237230D01*
X74151288Y-132237230D02*
X74682011Y-132767953D01*
X58970102Y-98600000D02*
X55310102Y-94940000D01*
X72242224Y-95202750D02*
X72242224Y-95315604D01*
X52835405Y-94940000D02*
X35975000Y-94940000D01*
X72242224Y-95315604D02*
X71934687Y-95623141D01*
X52835420Y-94940007D02*
X52835412Y-94940007D01*
X136031079Y-96081079D02*
X130396049Y-96081079D01*
X149155026Y-95600000D02*
X147605026Y-97150000D01*
X52740000Y-81885100D02*
X52390000Y-81535100D01*
X51340000Y-72305000D02*
X49865000Y-70830000D01*
X60155026Y-95800000D02*
X53250001Y-88894975D01*
X118010005Y-93645005D02*
X113522500Y-89157500D01*
X53090000Y-84280126D02*
X52740000Y-83930125D01*
X149725000Y-95425000D02*
X149550000Y-95600000D01*
X150065000Y-95088173D02*
X149728173Y-95425000D01*
X90885026Y-93120000D02*
X69550152Y-93120000D01*
X145700000Y-97150000D02*
X145200000Y-97650000D01*
X53250001Y-88894975D02*
X53250000Y-86485154D01*
X113522500Y-89157500D02*
X94847525Y-89157500D01*
X149550000Y-95600000D02*
X149155026Y-95600000D01*
X52390000Y-81535100D02*
X52390000Y-79490076D01*
X51340000Y-74350025D02*
X51340000Y-72305000D01*
X137600000Y-97650000D02*
X136031079Y-96081079D01*
X52740000Y-83930125D02*
X52740000Y-81885100D01*
X130396049Y-96081079D02*
X127959975Y-93645005D01*
X52040000Y-77095050D02*
X51690000Y-76745050D01*
X66870153Y-95800000D02*
X60155026Y-95800000D01*
X149728173Y-95425000D02*
X149725000Y-95425000D01*
X151935849Y-91666079D02*
X151935849Y-93214151D01*
X52390000Y-79490076D02*
X52040000Y-79140075D01*
X69550152Y-93120000D02*
X66870153Y-95800000D01*
X150065000Y-95085000D02*
X150065000Y-95088173D01*
X145200000Y-97650000D02*
X137600000Y-97650000D01*
X53089999Y-86325151D02*
X53090000Y-84280126D01*
X127959975Y-93645005D02*
X118010005Y-93645005D01*
X151935849Y-93214151D02*
X150065000Y-95085000D01*
X94847525Y-89157500D02*
X90885026Y-93120000D01*
X51690000Y-76745050D02*
X51690000Y-74700026D01*
X52040000Y-79140075D02*
X52040000Y-77095050D01*
X147605026Y-97150000D02*
X145700000Y-97150000D01*
X53250000Y-86485154D02*
X53089999Y-86325151D01*
X51690000Y-74700026D02*
X51340000Y-74350025D01*
X323737563Y-95200000D02*
X323037563Y-94500000D01*
X289509977Y-97465000D02*
X287534977Y-95490000D01*
X303893000Y-97465000D02*
X289509977Y-97465000D01*
X287534977Y-95490000D02*
X271750000Y-95490000D01*
X313858954Y-94300000D02*
X309861000Y-94300000D01*
X328450000Y-92603436D02*
X328450000Y-92914285D01*
X306708000Y-94650000D02*
X303893000Y-97465000D01*
X308458000Y-95208000D02*
X307900000Y-94650000D01*
X314058954Y-94500000D02*
X313858954Y-94300000D01*
X324712437Y-94950000D02*
X324462437Y-95200000D01*
X326414285Y-94950000D02*
X324712437Y-94950000D01*
X329651718Y-91401718D02*
X328450000Y-92603436D01*
X328450000Y-92914285D02*
X326414285Y-94950000D01*
X323037563Y-94500000D02*
X314058954Y-94500000D01*
X309861000Y-94300000D02*
X308952999Y-95208000D01*
X324462437Y-95200000D02*
X323737563Y-95200000D01*
X271750000Y-95490000D02*
X271390000Y-95850000D01*
X308952999Y-95208000D02*
X308458000Y-95208000D01*
X307900000Y-94650000D02*
X306708000Y-94650000D01*
X67595025Y-97550000D02*
X59405025Y-97550000D01*
X135790005Y-88190005D02*
X126989999Y-88190005D01*
X82671309Y-88690005D02*
X88989999Y-88690005D01*
X69989999Y-91190005D02*
X71214999Y-91190005D01*
X156385715Y-97690005D02*
X154645710Y-95950000D01*
X138200000Y-90600000D02*
X135790005Y-88190005D01*
X145989999Y-96625000D02*
X145662647Y-96625000D01*
X145662647Y-96625000D02*
X143350000Y-94312353D01*
X118215601Y-85905316D02*
X120500290Y-88190005D01*
X147559995Y-97690005D02*
X145989999Y-97690005D01*
X36910000Y-93890000D02*
X36735000Y-93715000D01*
X59405025Y-97550000D02*
X55745025Y-93890000D01*
X55745025Y-93890000D02*
X36910000Y-93890000D01*
X95157725Y-88690005D02*
X101657725Y-82190005D01*
X70287507Y-95105007D02*
X70040018Y-95105007D01*
X154645710Y-95950000D02*
X149300000Y-95950000D01*
X143350000Y-94312353D02*
X143350000Y-93047039D01*
X88989999Y-88690005D02*
X95157725Y-88690005D01*
X120500290Y-88190005D02*
X126989999Y-88190005D01*
X143350000Y-93047039D02*
X140902961Y-90600000D01*
X111705310Y-85905316D02*
X118215601Y-85905316D01*
X80171309Y-91190005D02*
X82671309Y-88690005D01*
X36735000Y-93715000D02*
X34472539Y-93715000D01*
X149300000Y-95950000D02*
X147559995Y-97690005D01*
X164989999Y-97690005D02*
X156385715Y-97690005D01*
X70040018Y-95105007D02*
X67595025Y-97550000D01*
X140902961Y-90600000D02*
X138200000Y-90600000D01*
X107989999Y-82190005D02*
X111705310Y-85905316D01*
X71214999Y-91190005D02*
X80171309Y-91190005D01*
X101657725Y-82190005D02*
X107989999Y-82190005D01*
X51340000Y-79430025D02*
X51340000Y-77385000D01*
X67160101Y-96500000D02*
X59850000Y-96500000D01*
X112695754Y-89892500D02*
X95107500Y-89892500D01*
X51690000Y-79780026D02*
X51340000Y-79430025D01*
X51340000Y-77385000D02*
X49865000Y-75910000D01*
X69817601Y-93842500D02*
X67160101Y-96500000D01*
X52040000Y-82175050D02*
X51690000Y-81825050D01*
X52390000Y-84570076D02*
X52040000Y-84220075D01*
X91157500Y-93842500D02*
X69817601Y-93842500D01*
X52550000Y-86775103D02*
X52390000Y-86615101D01*
X95107500Y-89892500D02*
X91157500Y-93842500D01*
X59850000Y-96500000D02*
X52550000Y-89200000D01*
X52040000Y-84220075D02*
X52040000Y-82175050D01*
X51690000Y-81825050D02*
X51690000Y-79780026D01*
X52550000Y-89200000D02*
X52550000Y-86775103D01*
X52390000Y-86615101D02*
X52390000Y-84570076D01*
X112835754Y-90032500D02*
X112695754Y-89892500D01*
X215278945Y-110366029D02*
X220054942Y-105590032D01*
X314348904Y-93800000D02*
X325937940Y-93800000D01*
X262602500Y-88070000D02*
X268955000Y-94422500D01*
X328617974Y-91445514D02*
X328617974Y-91198026D01*
X222850000Y-105590032D02*
X225134943Y-105590032D01*
X327050000Y-92257537D02*
X327357537Y-91950000D01*
X330082000Y-73494000D02*
X330267000Y-73309000D01*
X327357537Y-91950000D02*
X328113488Y-91950000D01*
X327050000Y-92687940D02*
X327050000Y-92257537D01*
X303458000Y-96415000D02*
X306273000Y-93600000D01*
X268955000Y-94422500D02*
X287960000Y-94422500D01*
X287960000Y-94422500D02*
X289952500Y-96415000D01*
X325937940Y-93800000D02*
X327050000Y-92687940D01*
X330082000Y-89734000D02*
X330082000Y-73494000D01*
X215278945Y-110714000D02*
X215278945Y-110366029D01*
X328113488Y-91950000D02*
X328617974Y-91445514D01*
X225134943Y-105590032D02*
X236494974Y-94230000D01*
X306273000Y-93600000D02*
X314148904Y-93600000D01*
X248974974Y-88070000D02*
X262602500Y-88070000D01*
X236494974Y-94230000D02*
X242814974Y-94230000D01*
X314148904Y-93600000D02*
X314348904Y-93800000D01*
X220054942Y-105590032D02*
X223078945Y-105590032D01*
X289952500Y-96415000D02*
X303458000Y-96415000D01*
X328617974Y-91198026D02*
X330082000Y-89734000D01*
X242814974Y-94230000D02*
X248974974Y-88070000D01*
X228389999Y-116740005D02*
X229150000Y-115980004D01*
X239188905Y-109210318D02*
X241059218Y-107340005D01*
X307570001Y-107560000D02*
X304699997Y-110430004D01*
X216608005Y-115129000D02*
X220243792Y-115129000D01*
X270799994Y-105550000D02*
X276854529Y-105550000D01*
X307665000Y-107560000D02*
X307570001Y-107560000D01*
X232500550Y-109210318D02*
X239188905Y-109210318D01*
X247589999Y-107340005D02*
X254119216Y-107340005D01*
X229150000Y-112560868D02*
X232500550Y-109210318D01*
X279194534Y-107890005D02*
X285539999Y-107890005D01*
X221854797Y-116740005D02*
X228389999Y-116740005D01*
X216492005Y-115245000D02*
X216608005Y-115129000D01*
X266589999Y-101340005D02*
X270799994Y-105550000D01*
X285539999Y-107890005D02*
X285590311Y-107940317D01*
X210985004Y-115245000D02*
X216492005Y-115245000D01*
X241059218Y-107340005D02*
X247589999Y-107340005D01*
X276854529Y-105550000D02*
X279194534Y-107890005D01*
X260119216Y-101340005D02*
X266589999Y-101340005D01*
X229150000Y-115980004D02*
X229150000Y-112560868D01*
X295819847Y-107940317D02*
X298309534Y-110430004D01*
X254119216Y-107340005D02*
X260119216Y-101340005D01*
X298309534Y-110430004D02*
X304699997Y-110430004D01*
X209489999Y-116740005D02*
X210985004Y-115245000D01*
X220243792Y-115129000D02*
X221854797Y-116740005D01*
X285590311Y-107940317D02*
X295819847Y-107940317D01*
X82425000Y-115225000D02*
X82425000Y-116417463D01*
X60300000Y-95450000D02*
X53600001Y-88750001D01*
X51690000Y-74205051D02*
X51690000Y-72160026D01*
X66725178Y-95450000D02*
X60300000Y-95450000D01*
X82425000Y-116417463D02*
X79942463Y-118900000D01*
X52040001Y-74555052D02*
X51690000Y-74205051D01*
X52090000Y-65230000D02*
X51340000Y-64480000D01*
X52040000Y-76600076D02*
X52040001Y-74555052D01*
X52740001Y-79345102D02*
X52390000Y-78995101D01*
X51340000Y-62599034D02*
X49865000Y-61124034D01*
X72439999Y-92595000D02*
X72264999Y-92770000D01*
X51340000Y-64480000D02*
X51340000Y-62599034D01*
X53600001Y-88750001D02*
X53600001Y-86340181D01*
X53090000Y-83785151D02*
X53090000Y-81740126D01*
X53440000Y-86180178D02*
X53440001Y-84135152D01*
X52595000Y-67182537D02*
X52090000Y-66677537D01*
X52390000Y-76950076D02*
X52040000Y-76600076D01*
X51340000Y-71810026D02*
X51340000Y-68872463D01*
X71050000Y-118900000D02*
X70350000Y-119600000D01*
X52740000Y-81390126D02*
X52740001Y-79345102D01*
X52390000Y-78995101D02*
X52390000Y-76950076D01*
X49865000Y-61124034D02*
X49865000Y-60670000D01*
X69405178Y-92770000D02*
X66725178Y-95450000D01*
X53600001Y-86340181D02*
X53440000Y-86180178D01*
X53090000Y-81740126D02*
X52740000Y-81390126D01*
X51340000Y-68872463D02*
X52595000Y-67617463D01*
X81900000Y-114700000D02*
X82425000Y-115225000D01*
X72264999Y-92770000D02*
X69405178Y-92770000D01*
X52595000Y-67617463D02*
X52595000Y-67182537D01*
X53440001Y-84135152D02*
X53090000Y-83785151D01*
X51690000Y-72160026D02*
X51340000Y-71810026D01*
X52090000Y-66677537D02*
X52090000Y-65230000D01*
X79942463Y-118900000D02*
X71050000Y-118900000D01*
X69825000Y-119817463D02*
X70132537Y-120125000D01*
X71194974Y-119250000D02*
X80087438Y-119250000D01*
X70875000Y-119569974D02*
X71194974Y-119250000D01*
X70875000Y-119817463D02*
X70875000Y-119569974D01*
X80087438Y-119250000D02*
X84400000Y-114937437D01*
X69825000Y-119375000D02*
X69825000Y-119817463D01*
X70350000Y-118850000D02*
X69825000Y-119375000D01*
X68197006Y-118850000D02*
X67626001Y-119421005D01*
X70350000Y-118850000D02*
X68197006Y-118850000D01*
X84400000Y-114937437D02*
X84400000Y-114875000D01*
X70132537Y-120125000D02*
X70567463Y-120125000D01*
X70567463Y-120125000D02*
X70875000Y-119817463D01*
X81900000Y-116200000D02*
X81900000Y-116447489D01*
X81900000Y-116447489D02*
X79797489Y-118550000D01*
X79797489Y-118550000D02*
X70800000Y-118550000D01*
X70800000Y-118550000D02*
X70350000Y-118100000D01*
X304032974Y-97820000D02*
X290619000Y-97820000D01*
X307677026Y-95225000D02*
X306627974Y-95225000D01*
X306627974Y-95225000D02*
X304032974Y-97820000D01*
X308050291Y-95598265D02*
X307677026Y-95225000D01*
X308050291Y-95722452D02*
X308050291Y-95598265D01*
X290619000Y-97820000D02*
X290439000Y-98000000D01*
X51690000Y-84860026D02*
X51340000Y-84510025D01*
X74495754Y-94542500D02*
X70107551Y-94542500D01*
X67450051Y-97200000D02*
X59550000Y-97200000D01*
X51690000Y-86905051D02*
X51690000Y-84860026D01*
X51340000Y-82465000D02*
X49865000Y-80990000D01*
X74753254Y-94800000D02*
X74495754Y-94542500D01*
X70107551Y-94542500D02*
X67450051Y-97200000D01*
X59550000Y-97200000D02*
X51850000Y-89500000D01*
X51850000Y-89500000D02*
X51850000Y-87065052D01*
X51850000Y-87065052D02*
X51690000Y-86905051D01*
X51340000Y-84510025D02*
X51340000Y-82465000D01*
X127695005Y-93995005D02*
X117865031Y-93995005D01*
X51340000Y-76890025D02*
X51340000Y-74845000D01*
X131866848Y-97906079D02*
X136510769Y-102550000D01*
X131606079Y-97906079D02*
X127695005Y-93995005D01*
X60000000Y-96150000D02*
X52900000Y-89050000D01*
X131866848Y-97906079D02*
X131606079Y-97906079D01*
X51690000Y-77240026D02*
X51340000Y-76890025D01*
X52040000Y-81680075D02*
X52040000Y-79635050D01*
X136510769Y-102550000D02*
X141062848Y-102550000D01*
X113377526Y-89507500D02*
X94992500Y-89507500D01*
X117865031Y-93995005D02*
X113377526Y-89507500D01*
X52740000Y-86470127D02*
X52740000Y-84425100D01*
X67015126Y-96150000D02*
X60000000Y-96150000D01*
X91030000Y-93470000D02*
X69695126Y-93470000D01*
X52900000Y-86630128D02*
X52740000Y-86470127D01*
X51340000Y-74845000D02*
X49865000Y-73370000D01*
X52040000Y-79635050D02*
X51690000Y-79285050D01*
X94992500Y-89507500D02*
X91030000Y-93470000D01*
X69695126Y-93470000D02*
X67015126Y-96150000D01*
X51690000Y-79285050D02*
X51690000Y-77240026D01*
X52740000Y-84425100D02*
X52390000Y-84075100D01*
X52390000Y-84075100D02*
X52390000Y-82030076D01*
X141062848Y-102550000D02*
X148066848Y-109554000D01*
X52390000Y-82030076D02*
X52040000Y-81680075D01*
X52900000Y-89050000D02*
X52900000Y-86630128D01*
X51340000Y-85005000D02*
X49865000Y-83530000D01*
X51650000Y-91750000D02*
X51500000Y-91600000D01*
X51500000Y-91600000D02*
X51500000Y-87210026D01*
X51340000Y-87050026D02*
X51340000Y-85005000D01*
X51500000Y-87210026D02*
X51340000Y-87050026D01*
X52040000Y-86760076D02*
X52040000Y-84715050D01*
X69962576Y-94192500D02*
X67305076Y-96850000D01*
X52200000Y-89350000D02*
X52200000Y-86920078D01*
X91307500Y-94192500D02*
X69962576Y-94192500D01*
X51340000Y-81970025D02*
X51340000Y-79925000D01*
X51690000Y-84365050D02*
X51690000Y-82320026D01*
X59700000Y-96850000D02*
X52200000Y-89350000D01*
X52040000Y-84715050D02*
X51690000Y-84365050D01*
X67305076Y-96850000D02*
X59700000Y-96850000D01*
X51690000Y-82320026D02*
X51340000Y-81970025D01*
X51340000Y-79925000D02*
X49865000Y-78450000D01*
X52200000Y-86920078D02*
X52040000Y-86760076D01*
X93500000Y-92000000D02*
X91307500Y-94192500D01*
X93798354Y-92000000D02*
X93500000Y-92000000D01*
X199600000Y-114850000D02*
X200825725Y-116075725D01*
X242670000Y-93880000D02*
X248830000Y-87720000D01*
X288087500Y-94037500D02*
X290115000Y-96065000D01*
X269090000Y-94037500D02*
X288087500Y-94037500D01*
X248830000Y-87720000D02*
X262772500Y-87720000D01*
X262772500Y-87720000D02*
X269090000Y-94037500D01*
X325792966Y-93450000D02*
X326700000Y-92542966D01*
X209450000Y-115050000D02*
X212500000Y-112000000D01*
X326700000Y-92112563D02*
X327212563Y-91600000D01*
X200825725Y-116075725D02*
X204480495Y-116075725D01*
X328267974Y-91300540D02*
X328267974Y-91053052D01*
X213150000Y-112000000D02*
X219909968Y-105240032D01*
X236350000Y-93880000D02*
X242670000Y-93880000D01*
X306125000Y-93250000D02*
X314293879Y-93250000D01*
X326700000Y-92542966D02*
X326700000Y-92112563D01*
X195210342Y-116950725D02*
X197311067Y-114850000D01*
X219909968Y-105240032D02*
X224989968Y-105240032D01*
X329728000Y-71461527D02*
X329901000Y-71288527D01*
X327968514Y-91600000D02*
X328267974Y-91300540D01*
X328267974Y-91053052D02*
X328675000Y-90646026D01*
X224989968Y-105240032D02*
X236350000Y-93880000D01*
X327212563Y-91600000D02*
X327968514Y-91600000D01*
X328675000Y-90646026D02*
X328675000Y-90643000D01*
X314293879Y-93250000D02*
X314493878Y-93450000D01*
X205506220Y-115050000D02*
X209450000Y-115050000D01*
X290115000Y-96065000D02*
X303310000Y-96065000D01*
X212500000Y-112000000D02*
X213150000Y-112000000D01*
X303310000Y-96065000D02*
X306125000Y-93250000D01*
X329728000Y-89590000D02*
X329728000Y-71461527D01*
X197311067Y-114850000D02*
X199600000Y-114850000D01*
X314493878Y-93450000D02*
X325792966Y-93450000D01*
X204480495Y-116075725D02*
X205506220Y-115050000D01*
X328675000Y-90643000D02*
X329728000Y-89590000D01*
X262275026Y-88770000D02*
X252669845Y-88770000D01*
X268645026Y-95140000D02*
X262275026Y-88770000D01*
X308352538Y-94300000D02*
X306562948Y-94300000D01*
X252669845Y-88770000D02*
X252339845Y-89100000D01*
X289654951Y-97115000D02*
X287679951Y-95140000D01*
X306562948Y-94300000D02*
X303747948Y-97115000D01*
X287679951Y-95140000D02*
X268645026Y-95140000D01*
X308735538Y-94683000D02*
X308352538Y-94300000D01*
X303747948Y-97115000D02*
X289654951Y-97115000D01*
D17*
X32735000Y-89392864D02*
X32735000Y-68450000D01*
X35522538Y-90610000D02*
X35482538Y-90570000D01*
X33912136Y-90570000D02*
X32735000Y-89392864D01*
D16*
X49786670Y-91242820D02*
X48754852Y-91242820D01*
X47937032Y-90425000D02*
X46305000Y-90425000D01*
D17*
X35482538Y-90570000D02*
X33912136Y-90570000D01*
D16*
X46305000Y-90425000D02*
X44755000Y-91975000D01*
X48754852Y-91242820D02*
X47937032Y-90425000D01*
X50269490Y-90760000D02*
X49786670Y-91242820D01*
D17*
X32735000Y-68450000D02*
X32625000Y-68340000D01*
D15*
X81378768Y-116421231D02*
X79600000Y-118200000D01*
X81375000Y-115982537D02*
X81375000Y-116417463D01*
X69975000Y-117575000D02*
X69378995Y-118171005D01*
X81900000Y-115457537D02*
X81375000Y-115982537D01*
X69378995Y-118171005D02*
X67626001Y-118171005D01*
X79600000Y-118200000D02*
X71192463Y-118200000D01*
X81900000Y-115450000D02*
X81900000Y-115457537D01*
X71192463Y-118200000D02*
X70567463Y-117575000D01*
X81375000Y-116417463D02*
X81378768Y-116421231D01*
X70567463Y-117575000D02*
X69975000Y-117575000D01*
D18*
X327503626Y-92546374D02*
X327503626Y-92800000D01*
X313162652Y-90610000D02*
X313332652Y-90440000D01*
D17*
X310605000Y-68400000D02*
X310495000Y-68290000D01*
D16*
X312511000Y-65750000D02*
X312511000Y-68290000D01*
D17*
X312413814Y-90500000D02*
X311703101Y-90500000D01*
D16*
X329450000Y-63210000D02*
X327751000Y-63210000D01*
D18*
X321107000Y-90440000D02*
X322642000Y-91975000D01*
X326103626Y-94200000D02*
X324225000Y-94200000D01*
X313332652Y-90440000D02*
X321107000Y-90440000D01*
X324225000Y-94200000D02*
X324100000Y-94325000D01*
X312523814Y-90610000D02*
X313162652Y-90610000D01*
D17*
X311703101Y-90500000D02*
X310605000Y-89401899D01*
D18*
X327503626Y-92800000D02*
X326103626Y-94200000D01*
D17*
X310605000Y-89401899D02*
X310605000Y-68400000D01*
D18*
X327575000Y-92475000D02*
X327503626Y-92546374D01*
D17*
X312523814Y-90610000D02*
X312413814Y-90500000D01*
D15*
X314338401Y-91975000D02*
X314173401Y-91810000D01*
X311956351Y-91279975D02*
X311401204Y-91279975D01*
X314173401Y-91810000D02*
X312486376Y-91810000D01*
X315022000Y-91975000D02*
X314338401Y-91975000D01*
X310010000Y-72462537D02*
X310010000Y-70835000D01*
X309840000Y-73767463D02*
X309490000Y-73417463D01*
X309840000Y-89718771D02*
X309840000Y-73767463D01*
X309490000Y-73417463D02*
X309490000Y-72982537D01*
X311401204Y-91279975D02*
X309840000Y-89718771D01*
X310010000Y-70835000D02*
X310015000Y-70830000D01*
X312486376Y-91810000D02*
X311956351Y-91279975D01*
X309490000Y-72982537D02*
X310010000Y-72462537D01*
X310190000Y-89573797D02*
X310190000Y-73375000D01*
X313535000Y-91290000D02*
X312461351Y-91290000D01*
X312086351Y-90915000D02*
X311531203Y-90915000D01*
X312461351Y-91290000D02*
X312086351Y-90915000D01*
X313540000Y-91285000D02*
X313535000Y-91290000D01*
X310190000Y-73375000D02*
X310015000Y-73200000D01*
X311531203Y-90915000D02*
X310190000Y-89573797D01*
D16*
X328472000Y-90218000D02*
X329301000Y-89389000D01*
X329301000Y-89389000D02*
X329301000Y-69840000D01*
X329301000Y-69840000D02*
X327751000Y-68290000D01*
X326650000Y-90218000D02*
X328472000Y-90218000D01*
X327751000Y-68290000D02*
X328187500Y-68290000D01*
D15*
X323144443Y-90040000D02*
X313166967Y-90040000D01*
X325079443Y-91975000D02*
X323144443Y-90040000D01*
X311875000Y-90085000D02*
X311020000Y-89230000D01*
X313166967Y-90040000D02*
X313121967Y-90085000D01*
X311020000Y-89230000D02*
X311020000Y-62161000D01*
X311020000Y-62161000D02*
X312511000Y-60670000D01*
X325182000Y-91975000D02*
X325079443Y-91975000D01*
X313121967Y-90085000D02*
X311875000Y-90085000D01*
X310977709Y-135972291D02*
X320350762Y-135972291D01*
X307622291Y-135972291D02*
X300603006Y-135972291D01*
X320350762Y-135972291D02*
X320999404Y-135323649D01*
X310950000Y-136000000D02*
X307650000Y-136000000D01*
X284700000Y-130781978D02*
X291562964Y-130781978D01*
X307650000Y-136000000D02*
X307622291Y-135972291D01*
X310950000Y-136000000D02*
X310977709Y-135972291D01*
X291562964Y-130781978D02*
X296157484Y-135376498D01*
X296157484Y-135376498D02*
X300007213Y-135376498D01*
X300603006Y-135972291D02*
X300007213Y-135376498D01*
X280204211Y-130794118D02*
X280216351Y-130781978D01*
X280216351Y-130781978D02*
X284700000Y-130781978D01*
X36034975Y-91335000D02*
X36610000Y-91335000D01*
X31970000Y-73937463D02*
X31970000Y-89709738D01*
X35010100Y-91335000D02*
X35160100Y-91485000D01*
X35160100Y-91485000D02*
X35884975Y-91485000D01*
X32320000Y-71005000D02*
X32320000Y-72452537D01*
X31620000Y-73152537D02*
X31620000Y-73587463D01*
X37135000Y-91975000D02*
X36422500Y-91262500D01*
X31620000Y-73587463D02*
X31970000Y-73937463D01*
X33595262Y-91335000D02*
X35010100Y-91335000D01*
X35884975Y-91485000D02*
X36034975Y-91335000D01*
X36610000Y-91335000D02*
X37135000Y-91860000D01*
X32320000Y-72452537D02*
X31620000Y-73152537D01*
X32145000Y-70830000D02*
X32320000Y-71005000D01*
X31970000Y-89709738D02*
X33595262Y-91335000D01*
X35740000Y-91135000D02*
X36375000Y-90500000D01*
X33740237Y-90985000D02*
X35155075Y-90985000D01*
X38315000Y-90500000D02*
X39675000Y-91860000D01*
X32320000Y-73545000D02*
X32320000Y-89564763D01*
X32145000Y-73370000D02*
X32320000Y-73545000D01*
X36375000Y-90500000D02*
X38315000Y-90500000D01*
X32320000Y-89564763D02*
X33740237Y-90985000D01*
X35305075Y-91135000D02*
X35740000Y-91135000D01*
X35155075Y-90985000D02*
X35305075Y-91135000D01*
X38970000Y-90310000D02*
X38745000Y-90085000D01*
X33150000Y-89220966D02*
X33150000Y-62145000D01*
X33150000Y-62145000D02*
X34625000Y-60670000D01*
X38745000Y-90085000D02*
X34014034Y-90085000D01*
X34014034Y-90085000D02*
X33150000Y-89220966D01*
X292132537Y-118575000D02*
X292482537Y-118925000D01*
X287485052Y-118575000D02*
X292132537Y-118575000D01*
X279832537Y-117175000D02*
X280267463Y-117175000D01*
X280267463Y-117175000D02*
X281242463Y-116200000D01*
X292482537Y-118925000D02*
X292925000Y-118925000D01*
X285110052Y-116200000D02*
X287485052Y-118575000D01*
X292925000Y-118925000D02*
X293900000Y-119900000D01*
X294600000Y-119900000D02*
X296336005Y-118163995D01*
X293900000Y-119900000D02*
X294600000Y-119900000D01*
X280050000Y-115900000D02*
X279525000Y-116425000D01*
X279525000Y-116867463D02*
X279832537Y-117175000D01*
X281242463Y-116200000D02*
X285110052Y-116200000D01*
X296336005Y-118163995D02*
X296914999Y-118163995D01*
X279525000Y-116425000D02*
X279525000Y-116867463D01*
X51515000Y-67400000D02*
X49865000Y-65750000D01*
X52070000Y-67400000D02*
X51515000Y-67400000D01*
X313713980Y-94650000D02*
X313913980Y-94850000D01*
X329270000Y-67269000D02*
X328956750Y-66955750D01*
X330810000Y-75217700D02*
X330810000Y-73109537D01*
X313913980Y-94850000D02*
X322892589Y-94850000D01*
X330782000Y-76324626D02*
X331132000Y-75974626D01*
X330440000Y-71085064D02*
X329730000Y-70375064D01*
X329730000Y-69667960D02*
X329270000Y-69207960D01*
X308408522Y-96247452D02*
X310005974Y-94650000D01*
X306275000Y-96320435D02*
X307899565Y-96320435D01*
X324857411Y-95300000D02*
X326559260Y-95300000D01*
X331132000Y-75974626D02*
X331132000Y-75539700D01*
X310005974Y-94650000D02*
X313713980Y-94650000D01*
X331132000Y-75539700D02*
X330810000Y-75217700D01*
X324607412Y-95550000D02*
X324857411Y-95300000D01*
X327209260Y-94650000D02*
X330782000Y-91077260D01*
X329730000Y-70375064D02*
X329730000Y-69667960D01*
X330782000Y-91077260D02*
X330782000Y-76324626D01*
X330810000Y-73109537D02*
X330440000Y-72739537D01*
X307899565Y-96320435D02*
X307972548Y-96247452D01*
X326559260Y-95300000D02*
X327209260Y-94650000D01*
X323592589Y-95550000D02*
X324607412Y-95550000D01*
X329270000Y-69207960D02*
X329270000Y-67269000D01*
X307972548Y-96247452D02*
X308408522Y-96247452D01*
X322892589Y-94850000D02*
X323592589Y-95550000D01*
X330440000Y-72739537D02*
X330440000Y-71085064D01*
D19*
X30236000Y-95779543D02*
X30236000Y-57198239D01*
X30236000Y-129669879D02*
X30236000Y-127952333D01*
X30236209Y-57198239D02*
G75*
G02*
X30601169Y-56836427I349791J12139D01*
G01*
X30565688Y-130911791D02*
G75*
G02*
X30236183Y-129669878I1907212J1170691D01*
G01*
X30601170Y-56836406D02*
X35895000Y-56836406D01*
X35895000Y-89882500D02*
X35895000Y-56836406D01*
X44895688Y-155661791D02*
X30565687Y-130911791D01*
X48005688Y-156311791D02*
G75*
G02*
X44895720Y-155661772I-1250688J1780891D01*
G01*
X48005688Y-156311791D02*
X62033662Y-148371408D01*
X48595000Y-89880000D02*
X35895000Y-89882500D01*
X48595000Y-89880000D02*
X48595000Y-56836406D01*
X52719768Y-95779543D02*
X30236000Y-95779543D01*
X52719768Y-95779543D02*
X52719768Y-116290000D01*
X52719768Y-116290000D02*
X66426001Y-116290000D01*
X52719768Y-121296005D02*
X52719768Y-127952333D01*
X52719768Y-121296005D02*
X66426001Y-121296005D01*
X52719768Y-127952333D02*
X30236000Y-127952333D01*
X62033662Y-148371408D02*
G75*
G02*
X114863815Y-135014522I53176388J-99169892D01*
G01*
X66426001Y-121296005D02*
X66426001Y-116296005D01*
X85600000Y-113000000D02*
X85600000Y-118000000D01*
X92141046Y-56836406D02*
X48595000Y-56836406D01*
X92474283Y-50490290D02*
X92474283Y-56510290D01*
X92474283Y-50490325D02*
G75*
G02*
X92600722Y-50366392I119817J4225D01*
G01*
X92474283Y-56510290D02*
G75*
G02*
X92141045Y-56836484I-329783J3590D01*
G01*
X97588354Y-112064291D02*
X132498544Y-112064291D01*
X97588354Y-113000000D02*
X85600000Y-113000000D01*
X97588354Y-113000000D02*
X97588354Y-112064291D01*
X97588354Y-118000000D02*
X85600000Y-118000000D01*
X97588354Y-133070000D02*
X97588354Y-118000000D01*
X111371463Y-50366406D02*
X92600721Y-50366406D01*
X111371463Y-50366406D02*
G75*
G02*
X111497872Y-50500288I2037J-124694D01*
G01*
X111497901Y-50500290D02*
X111497901Y-56034099D01*
X111831138Y-56366406D02*
G75*
G02*
X111497994Y-56034099I-338J332806D01*
G01*
X128088354Y-133070000D02*
X97588354Y-133070000D01*
X129000000Y-135014522D02*
X114863815Y-135014522D01*
X129800000Y-135005000D02*
X142924514Y-133580740D01*
X130296283Y-56366406D02*
X111831138Y-56366406D01*
X130296283Y-56366406D02*
G75*
G02*
X130552251Y-56628817I-1483J-257494D01*
G01*
X130552247Y-56628817D02*
X130552247Y-65423427D01*
X130970457Y-65863500D02*
G75*
G02*
X130552449Y-65423426I12043J430000D01*
G01*
X130970457Y-65863500D02*
X148814394Y-65863500D01*
X132498544Y-112064291D02*
X132498544Y-129050000D01*
X132498542Y-129050000D02*
G75*
G02*
X128088197Y-133069963I-4214342J194300D01*
G01*
X148814219Y-65863500D02*
G75*
G02*
X149081625Y-66150000I-17419J-284300D01*
G01*
X149081638Y-66150000D02*
X149081638Y-73841798D01*
X149081638Y-77420709D02*
X149081638Y-93051789D01*
X149081638Y-77420709D02*
G75*
G02*
X149910282Y-77410291I414362J2009D01*
G01*
X149081638Y-96600291D02*
X149081638Y-111407449D01*
X149081638Y-96600291D02*
G75*
G02*
X149910318Y-96600291I414340J-3178D01*
G01*
X149081638Y-115902655D02*
X149081638Y-122527707D01*
X149081638Y-115902655D02*
G75*
G02*
X149910283Y-115892238I414362J2055D01*
G01*
X149081638Y-122527707D02*
G75*
G02*
X129000002Y-135014533I-28233238J23014107D01*
G01*
X149910267Y-66079982D02*
G75*
G02*
X150114997Y-65863539I204533J11582D01*
G01*
X149910267Y-66150000D02*
X149910267Y-73841798D01*
X149910267Y-73841798D02*
G75*
G02*
X149081639Y-73841798I-414314J3119D01*
G01*
X149910267Y-77420709D02*
X149910267Y-93051789D01*
X149910267Y-93051789D02*
G75*
G02*
X149081639Y-93051789I-414314J3211D01*
G01*
X149910267Y-111407449D02*
G75*
G02*
X149081639Y-111407449I-414314J3170D01*
G01*
X149910318Y-96600291D02*
X149910267Y-111407449D01*
X149910318Y-115902655D02*
X149910318Y-122527707D01*
X149910318Y-122527707D02*
G75*
G02*
X129800000Y-135005000I-28233718J23060707D01*
G01*
X168535559Y-65863500D02*
X150114997Y-65863500D01*
X168535559Y-65863500D02*
G75*
G02*
X168865260Y-66180291I12841J-316600D01*
G01*
X168846932Y-77837358D02*
X168846932Y-110986868D01*
X168846932Y-110986868D02*
X169022618Y-110988698D01*
X168846932Y-115828698D02*
X168865284Y-123230291D01*
X168846932Y-115828698D02*
X169008004Y-115828698D01*
X168865284Y-66180291D02*
X168861643Y-73098698D01*
X168865284Y-123230291D02*
G75*
G02*
X142924525Y-133580722I-27963784J32401991D01*
G01*
X169008004Y-115828698D02*
X169226953Y-115829142D01*
X169022618Y-110988698D02*
X169338183Y-110988698D01*
X169226953Y-115829142D02*
X169475877Y-115857073D01*
X169338181Y-77845728D02*
X168846932Y-77837358D01*
X169343261Y-73095932D02*
X168861643Y-73098698D01*
X169345802Y-110988698D02*
X169569318Y-110969833D01*
X169475877Y-115857073D02*
X169707012Y-115928197D01*
X169559162Y-77866043D02*
X169338181Y-77845728D01*
X169569318Y-110969833D02*
X169780146Y-110903795D01*
X169707012Y-115928197D02*
X169917828Y-116045036D01*
X169772524Y-77932081D02*
X169559162Y-77866043D01*
X169780146Y-110903795D02*
X169975721Y-110799652D01*
X169917828Y-116045036D02*
X170105789Y-116199977D01*
X169968105Y-78033692D02*
X169772524Y-77932081D01*
X169975721Y-110799652D02*
X170145903Y-110657413D01*
X170105789Y-116199977D02*
X170255650Y-116387931D01*
X170140824Y-78175931D02*
X169968105Y-78033692D01*
X170145903Y-110657413D02*
X170288148Y-110484693D01*
X170255650Y-116387931D02*
X170369951Y-116601294D01*
X170283063Y-78346103D02*
X170140824Y-78175931D01*
X170288148Y-110484693D02*
X170392287Y-110289113D01*
X170369951Y-116601294D02*
X170438532Y-116832442D01*
X170387204Y-78541692D02*
X170283063Y-78346103D01*
X170392287Y-110289113D02*
X170455782Y-110078293D01*
X170438532Y-116832442D02*
X170461392Y-117066117D01*
X170453242Y-78752503D02*
X170387204Y-78541692D01*
X170455782Y-110078293D02*
X170476105Y-109854773D01*
X170461392Y-117066117D02*
X170461392Y-121815913D01*
X170461392Y-121815913D02*
X170481711Y-122039432D01*
X170476105Y-78976031D02*
X170453242Y-78752503D01*
X170476105Y-109854773D02*
X170476103Y-78981106D01*
X170481711Y-122039432D02*
X170547752Y-122250253D01*
X170547752Y-122250253D02*
X170651885Y-122448377D01*
X170577703Y-67109161D02*
X170577705Y-71858949D01*
X170577705Y-71858949D02*
G75*
G02*
X169343267Y-73095959I-1546305J308649D01*
G01*
X170598021Y-66885635D02*
X170577703Y-67109161D01*
X170651885Y-122448377D02*
X170791593Y-122618551D01*
X170664062Y-66674816D02*
X170598021Y-66885635D01*
X170768203Y-66476700D02*
X170664062Y-66674816D01*
X170791593Y-122618551D02*
X170961773Y-122760789D01*
X170907901Y-66306523D02*
X170768203Y-66476700D01*
X170961773Y-122760789D02*
X171157349Y-122864933D01*
X171078084Y-66164275D02*
X170907901Y-66306523D01*
X171157349Y-122864933D02*
X171370703Y-122930971D01*
X171273664Y-66060136D02*
X171078084Y-66164275D01*
X171370703Y-122930971D02*
X171589157Y-122939353D01*
X171480342Y-65997118D02*
X171273664Y-66063155D01*
X171484488Y-65997118D02*
X171693827Y-65997117D01*
X171693827Y-65997117D02*
X190720342Y-65997118D01*
X171810135Y-122933990D02*
X171589157Y-122939353D01*
X171810135Y-122933990D02*
X190614758Y-122938679D01*
X190720342Y-65997118D02*
X190932783Y-66062481D01*
X190835744Y-122933316D02*
X190614758Y-122938679D01*
X190932783Y-66062481D02*
X191128363Y-66166620D01*
X191050000Y-122867278D02*
X190836646Y-122933316D01*
X191128363Y-66166620D02*
X191298546Y-66308868D01*
X191244674Y-122763134D02*
X191049098Y-122867278D01*
X191298546Y-66308868D02*
X191438244Y-66479045D01*
X191414854Y-122620896D02*
X191244674Y-122763134D01*
X191438244Y-66479045D02*
X191542385Y-66677161D01*
X191542385Y-66677161D02*
X191600000Y-66860000D01*
X191554562Y-122450722D02*
X191414854Y-122620896D01*
X191600000Y-66860000D02*
X191628744Y-67010000D01*
X191628744Y-67010000D02*
X191628742Y-71861294D01*
X191658695Y-122252598D02*
X191554562Y-122450722D01*
X191724736Y-122041777D02*
X191658695Y-122252598D01*
X191730342Y-78978376D02*
X191753205Y-78754848D01*
X191730342Y-109857118D02*
X191730344Y-78983451D01*
X191745055Y-117068462D02*
X191745055Y-121818258D01*
X191745055Y-117068462D02*
G75*
G02*
X192969335Y-115828709I1260345J-20238D01*
G01*
X191745055Y-121818258D02*
X191724736Y-122041777D01*
X191750665Y-110080638D02*
X191730342Y-109857118D01*
X191753205Y-78754848D02*
X191819243Y-78544037D01*
X191814160Y-110291458D02*
X191750665Y-110080638D01*
X191819243Y-78544037D02*
X191923384Y-78348448D01*
X191918299Y-110487038D02*
X191814160Y-110291458D01*
X191923384Y-78348448D02*
X192065623Y-78178276D01*
X192060544Y-110659758D02*
X191918299Y-110487038D01*
X192065623Y-78178276D02*
X192238342Y-78036037D01*
X192230726Y-110801997D02*
X192060544Y-110659758D01*
X192238342Y-78036037D02*
X192433923Y-77934426D01*
X192426301Y-110906140D02*
X192230726Y-110801997D01*
X192433923Y-77934426D02*
X192647285Y-77868388D01*
X192637129Y-110972178D02*
X192426301Y-110906140D01*
X192647285Y-77868388D02*
X193464716Y-77837358D01*
X192853025Y-73100000D02*
G75*
G02*
X191628807Y-71861284I245875J1467300D01*
G01*
X192853025Y-73100000D02*
X193464716Y-73098698D01*
X192860645Y-110991043D02*
X192637129Y-110972178D01*
X193464716Y-66190501D02*
G75*
G02*
X193750301Y-65863477I299684J26501D01*
G01*
X193464716Y-73098698D02*
X193464716Y-66190501D01*
X193464716Y-110986868D02*
X192868264Y-110991043D01*
X193464716Y-110986868D02*
X193464716Y-77837358D01*
X193464716Y-115828698D02*
X192969335Y-115834023D01*
X193464716Y-123230291D02*
X193464716Y-115828698D01*
X212180342Y-65863500D02*
X193750302Y-65863500D01*
X212180342Y-65863500D02*
G75*
G02*
X212377925Y-66075782I-12042J-209300D01*
G01*
X212375308Y-77420709D02*
G75*
G02*
X213203988Y-77420709I414340J-3173D01*
G01*
X212375308Y-93051789D02*
X212375308Y-77417118D01*
X212375308Y-96600291D02*
G75*
G02*
X213203988Y-96600291I414340J-3152D01*
G01*
X212375308Y-111407449D02*
X212375308Y-96600291D01*
X212375308Y-115902655D02*
G75*
G02*
X213203988Y-115902655I414340J-3109D01*
G01*
X212375308Y-122527707D02*
X212375308Y-115892237D01*
X212379025Y-73841798D02*
X212378075Y-66066114D01*
X213203988Y-66160000D02*
G75*
G02*
X213471336Y-65863518I287312J9700D01*
G01*
X213203988Y-73841798D02*
G75*
G02*
X212379026Y-73841798I-412481J3046D01*
G01*
X213203988Y-73841798D02*
X213203988Y-66160000D01*
X213203988Y-93051789D02*
G75*
G02*
X212375308Y-93051789I-414340J3238D01*
G01*
X213203988Y-93051789D02*
X213203988Y-77427536D01*
X213203988Y-111407449D02*
G75*
G02*
X212375308Y-111407449I-414340J3198D01*
G01*
X213203988Y-111407449D02*
X213203988Y-96600291D01*
X213203988Y-122527707D02*
X213203988Y-115902655D01*
X213471232Y-65863500D02*
X231442994Y-65863500D01*
X219355770Y-133580740D02*
X232570042Y-135005000D01*
X219361100Y-133580740D02*
G75*
G02*
X193464703Y-123230307I2045200J42688140D01*
G01*
X229823354Y-129050000D02*
X229823354Y-112064291D01*
X229824810Y-112064291D02*
X264735000Y-112064291D01*
X231764208Y-56635644D02*
G75*
G02*
X232029349Y-56366382I265492J3744D01*
G01*
X231764208Y-65545626D02*
G75*
G02*
X231442994Y-65863505I-319308J1426D01*
G01*
X231764208Y-65545626D02*
X231764208Y-56635644D01*
X232570042Y-135005000D02*
G75*
G02*
X212375290Y-122527722I8081158J35661000D01*
G01*
X233370042Y-135014522D02*
G75*
G02*
X213203979Y-122527714I8109358J35623922D01*
G01*
X233740000Y-133070000D02*
G75*
G02*
X229823400Y-129050001I51700J3968300D01*
G01*
X247506227Y-135014522D02*
X233370042Y-135014522D01*
X247506227Y-135022114D02*
G75*
G02*
X300298871Y-148371428I-418127J-112717986D01*
G01*
X250494494Y-56366406D02*
X232029349Y-56366406D01*
X250827731Y-50507117D02*
G75*
G02*
X250954169Y-50366412I127469J12617D01*
G01*
X250827731Y-56040926D02*
G75*
G02*
X250494494Y-56366432I-329431J3926D01*
G01*
X250827731Y-56040926D02*
X250827731Y-50507117D01*
X264735168Y-112064291D02*
X264740000Y-133070000D01*
X264740000Y-133070000D02*
X233740000Y-133070000D01*
X264800000Y-113420000D02*
X276300000Y-113420000D01*
X264800000Y-118420000D02*
X276300000Y-118420000D01*
X269724911Y-50366406D02*
X250954169Y-50366406D01*
X269724911Y-50366406D02*
G75*
G02*
X269851412Y-50497156I3489J-123194D01*
G01*
X269851349Y-56517117D02*
X269851349Y-50497117D01*
X270184586Y-56836406D02*
G75*
G02*
X269851397Y-56517116I-6886J326306D01*
G01*
X276300000Y-118420000D02*
X276300000Y-113420000D01*
X298100000Y-116290000D02*
X298100000Y-121296005D01*
X300291970Y-148371408D02*
X314319820Y-156305075D01*
X309600000Y-116290000D02*
X298100000Y-116290000D01*
X309600000Y-121296005D02*
X298100000Y-121296005D01*
X309606448Y-127952333D02*
X309606448Y-95779543D01*
X313731425Y-56836406D02*
X270184586Y-56836406D01*
X313731425Y-56836406D02*
X313731425Y-89879710D01*
X317430736Y-155661791D02*
G75*
G02*
X314321675Y-156311846I-1857936J1126091D01*
G01*
X326431425Y-56836406D02*
X326431425Y-89882210D01*
X326431425Y-56836406D02*
X331725255Y-56836406D01*
X326431425Y-89882210D02*
X313731425Y-89879710D01*
X331725255Y-56836406D02*
G75*
G02*
X332090211Y-57198239I15145J-349694D01*
G01*
X331760738Y-130911791D02*
X317430737Y-155661791D01*
X332090000Y-127952333D02*
X309606448Y-127952333D01*
X332090216Y-57198239D02*
X332090216Y-95779543D01*
X332090216Y-95779543D02*
X309606448Y-95779543D01*
X332090216Y-127952333D02*
X332090216Y-129669879D01*
X332090216Y-129669879D02*
G75*
G02*
X331760728Y-130911785I-2236416J-71321D01*
G01*
M02*
