M48
; DRILL file KiCad 10.0.1 date 2026-04-27T23:01:58
; FORMAT={-:-/ absolute / metric / decimal}
; #@! TF.CreationDate,2026-04-27T23:01:58+08:00
; #@! TF.GenerationSoftware,Kicad,Pcbnew,10.0.1
; #@! TF.FileFunction,Plated,1,2,PTH
FMAT,2
METRIC
; #@! TA.AperFunction,Plated,PTH,ComponentDrill
T1C0.305
; #@! TA.AperFunction,Plated,PTH,ViaDrill
T2C0.400
; #@! TA.AperFunction,Plated,PTH,ComponentDrill
T3C1.500
; #@! TA.AperFunction,Plated,PTH,ComponentDrill
T4C1.800
; #@! TA.AperFunction,Plated,PTH,ComponentDrill
T5C2.000
%
G90
G05
T1
X43.78Y-93.36
T2
X31.445Y-75.91
X32.145Y-70.83
X32.145Y-73.37
X32.625Y-68.34
X34.233Y-91.86
X34.473Y-93.715
X35.523Y-90.61
X35.8Y-95.115
X38.97Y-90.31
X47.129Y-145.836
X50.269Y-90.76
X51.65Y-91.75
X52.07Y-67.4
X67.626Y-118.171
X67.626Y-119.421
X69.99Y-72.19
X69.99Y-91.19
X69.99Y-110.19
X70.288Y-95.105
X70.35Y-118.1
X70.35Y-118.85
X70.35Y-119.6
X71.017Y-95.117
X71.215Y-72.19
X71.215Y-91.19
X71.275Y-110.19
X71.717Y-95.098
X72.116Y-109.546
X72.44Y-92.595
X72.767Y-95.067
X74.151Y-132.237
X74.753Y-94.8
X75.278Y-109.665
X75.7Y-132.768
X81.9Y-114.7
X81.9Y-115.45
X81.9Y-116.2
X84.4Y-114.875
X88.99Y-69.69
X88.99Y-88.69
X88.99Y-107.69
X93.798Y-92.0
X94.376Y-129.696
X107.99Y-63.19
X107.99Y-82.19
X107.99Y-101.19
X112.836Y-90.032
X126.99Y-69.19
X126.99Y-88.19
X126.99Y-107.19
X131.867Y-97.906
X133.91Y-109.61
X145.99Y-78.69
X145.99Y-96.625
X145.99Y-97.69
X148.067Y-109.554
X151.936Y-91.666
X164.99Y-78.69
X164.99Y-97.69
X164.99Y-116.69
X195.21Y-116.951
X209.39Y-97.64
X209.49Y-78.74
X209.49Y-116.74
X215.279Y-110.714
X228.39Y-116.74
X228.49Y-97.74
X228.54Y-78.69
X233.295Y-98.25
X247.44Y-88.24
X247.59Y-69.09
X247.59Y-107.34
X252.34Y-89.1
X266.59Y-101.34
X266.64Y-63.14
X266.64Y-82.29
X271.39Y-95.85
X277.507Y-115.29
X280.05Y-115.15
X280.05Y-115.9
X280.05Y-116.65
X280.204Y-130.794
X285.54Y-107.89
X285.64Y-88.84
X285.69Y-69.69
X290.439Y-98.0
X291.82Y-60.49
X292.7Y-118.4
X294.25Y-117.875
X294.25Y-118.625
X294.25Y-119.375
X296.915Y-118.164
X300.007Y-135.376
X304.54Y-91.24
X304.7Y-110.43
X304.74Y-72.19
X306.275Y-96.32
X307.665Y-107.56
X308.05Y-95.722
X308.736Y-94.683
X309.315Y-75.91
X309.315Y-77.55
X310.015Y-70.83
X310.015Y-73.2
X310.207Y-61.52
X310.495Y-68.29
X310.95Y-136.0
X313.54Y-91.285
X320.999Y-135.324
X324.1Y-94.325
X326.65Y-90.218
X327.575Y-92.475
X328.957Y-66.956
X329.45Y-63.21
X329.652Y-91.402
X329.901Y-71.289
X330.267Y-73.309
X330.607Y-75.757
T3
X34.625Y-60.67
X34.625Y-63.21
X34.625Y-65.75
X34.625Y-68.29
X34.625Y-70.83
X34.625Y-73.37
X34.625Y-75.91
X34.625Y-78.45
X34.625Y-80.99
X34.625Y-83.53
X34.625Y-86.07
X34.625Y-88.61
X37.135Y-91.975
X39.675Y-91.975
X42.215Y-91.975
X44.755Y-91.975
X47.295Y-91.975
X49.865Y-60.67
X49.865Y-63.21
X49.865Y-65.75
X49.865Y-68.29
X49.865Y-70.83
X49.865Y-73.37
X49.865Y-75.91
X49.865Y-78.45
X49.865Y-80.99
X49.865Y-83.53
X49.865Y-86.07
X49.865Y-88.61
X312.511Y-60.67
X312.511Y-63.21
X312.511Y-65.75
X312.511Y-68.29
X312.511Y-70.83
X312.511Y-73.37
X312.511Y-75.91
X312.511Y-78.45
X312.511Y-80.99
X312.511Y-83.53
X312.511Y-86.07
X312.511Y-88.61
X315.022Y-91.975
X317.562Y-91.975
X320.102Y-91.975
X322.642Y-91.975
X325.182Y-91.975
X327.751Y-60.67
X327.751Y-63.21
X327.751Y-65.75
X327.751Y-68.29
X327.751Y-70.83
X327.751Y-73.37
X327.751Y-75.91
X327.751Y-78.45
X327.751Y-80.99
X327.751Y-83.53
X327.751Y-86.07
X327.751Y-88.61
T4
X231.88Y-74.569
T5
X54.32Y-64.89
X56.71Y-133.29
X130.418Y-74.569
X130.418Y-104.857
X163.3Y-84.696
X163.3Y-103.726
X199.026Y-84.696
X199.026Y-103.726
X231.912Y-104.857
X305.59Y-133.31
X308.006Y-64.89
X330.267Y-58.87
M30
