M48
; DRILL file {KiCad 8.0.3} date 2025-10-03T16:37:20+0800
; FORMAT={-:-/ absolute / inch / decimal}
; #@! TF.CreationDate,2025-10-03T16:37:20+08:00
; #@! TF.GenerationSoftware,Kicad,Pcbnew,8.0.3
; #@! TF.FileFunction,NonPlated,1,2,NPTH
FMAT,2
INCH
; #@! TA.AperFunction,NonPlated,NPTH,ComponentDrill
T1C0.0118
; #@! TA.AperFunction,NonPlated,NPTH,ComponentDrill
T2C0.0197
; #@! TA.AperFunction,NonPlated,NPTH,ComponentDrill
T3C0.0276
; #@! TA.AperFunction,NonPlated,NPTH,ComponentDrill
T4C0.0354
; #@! TA.AperFunction,NonPlated,NPTH,ComponentDrill
T5C0.0748
; #@! TA.AperFunction,NonPlated,NPTH,ComponentDrill
T6C0.1181
; #@! TA.AperFunction,NonPlated,NPTH,ComponentDrill
T7C0.2008
%
G90
G05
T1
X6.6551Y-2.9946
X6.6551Y-2.8778
X6.6551Y-2.9008
X6.6551Y-2.9245
X6.6551Y-2.9713
X6.6551Y-3.018
X6.6551Y-3.0648
X6.6551Y-3.0414
X6.6551Y-2.9479
X6.6555Y-4.4872
X6.6555Y-4.3703
X6.6555Y-4.3933
X6.6555Y-4.417
X6.6555Y-4.4638
X6.6555Y-4.5105
X6.6555Y-4.5573
X6.6555Y-4.5339
X6.6555Y-4.4404
X7.6067Y-4.4879
X7.6067Y-4.3711
X7.6067Y-4.3941
X7.6067Y-4.4178
X7.6067Y-4.4646
X7.6067Y-4.5113
X7.6067Y-4.5581
X7.6067Y-4.5347
X7.6067Y-4.4412
X7.6071Y-2.9942
X7.6071Y-2.8774
X7.6071Y-2.9004
X7.6071Y-2.9241
X7.6071Y-2.9709
X7.6071Y-3.0176
X7.6071Y-3.0644
X7.6071Y-3.041
X7.6071Y-2.9475
T2
X5.8854Y-3.7343
X5.8856Y-2.9472
X5.8856Y-2.9894
X5.8856Y-3.6976
X5.8856Y-4.4283
X5.8856Y-4.4705
X5.8856Y-4.513
X8.3781Y-3.7343
X8.3783Y-2.9472
X8.3783Y-2.9894
X8.3783Y-3.6976
X8.3783Y-4.4343
X8.3783Y-4.474
X8.3783Y-4.5146
T3
X2.1811Y-2.2951
X2.1811Y-2.4033
X12.0857Y-2.2951
X12.0857Y-2.4033
T4
X2.6283Y-2.3126
X2.6283Y-2.3126
X2.7465Y-2.3126
X2.7465Y-2.3126
X11.5185Y-2.3126
X11.5185Y-2.3126
X11.6366Y-2.3126
X11.6366Y-2.3126
T5
X1.769Y-5.2913
X1.969Y-5.6377
X2.3114Y-2.7
X2.3114Y-3.4504
X2.3114Y-4.1994
X2.4557Y-5.1828
X2.7114Y-2.7
X2.7114Y-3.4504
X2.7114Y-4.1994
X2.8421Y-5.0792
X3.0619Y-2.6031
X3.0619Y-3.3539
X3.0619Y-4.102
X3.2631Y-5.0051
X3.4619Y-2.6031
X3.4619Y-3.3539
X3.4619Y-4.102
X3.6616Y-4.9703
X3.8117Y-2.3457
X3.8117Y-3.0957
X3.8117Y-3.8465
X4.2117Y-2.3457
X4.2117Y-3.0957
X4.2117Y-3.8465
X4.5613Y-2.5823
X4.5613Y-3.3319
X4.5613Y-4.0821
X4.9613Y-2.5823
X4.9613Y-3.3319
X4.9613Y-4.0821
X5.3105Y-2.9591
X5.3105Y-3.7089
X5.3105Y-4.4588
X5.7105Y-2.9591
X5.7105Y-3.7089
X5.7105Y-4.4588
X6.0607Y-2.9591
X6.0607Y-3.7089
X6.0607Y-4.4587
X6.4607Y-2.9591
X6.4607Y-3.7089
X6.4607Y-4.4587
X7.8043Y-2.9591
X7.8043Y-3.7089
X7.8043Y-4.4587
X8.2043Y-2.9591
X8.2043Y-3.7089
X8.2043Y-4.4587
X8.5545Y-2.9591
X8.5545Y-3.7089
X8.5545Y-4.4588
X8.9545Y-2.9591
X8.9545Y-3.7089
X8.9545Y-4.4588
X9.3037Y-2.5823
X9.3037Y-3.3319
X9.3037Y-4.0821
X9.7037Y-2.5823
X9.7037Y-3.3319
X9.7037Y-4.0821
X10.0535Y-2.3457
X10.0535Y-3.0957
X10.0535Y-3.8465
X10.4535Y-2.3457
X10.4535Y-3.0957
X10.4535Y-3.8465
X10.6063Y-4.9703
X10.8035Y-2.6031
X10.8035Y-3.3539
X10.8035Y-4.102
X11.0048Y-5.0051
X11.2035Y-2.6031
X11.2035Y-3.3539
X11.2035Y-4.102
X11.4251Y-5.0792
X11.5535Y-3.4504
X11.5535Y-2.7
X11.5535Y-4.1994
X11.8114Y-5.1828
X11.9535Y-3.4504
X11.9535Y-2.7
X11.9535Y-4.1994
X12.2966Y-5.6377
X12.4966Y-5.2913
T6
X1.6226Y-5.4085
X1.7246Y-5.6679
X2.3398Y-2.8854
X2.3398Y-4.3849
X2.4075Y-3.2236
X2.5311Y-5.3545
X2.6154Y-2.9268
X2.6154Y-4.4262
X2.6831Y-3.265
X2.808Y-5.3231
X3.0903Y-2.7886
X3.0903Y-4.2874
X3.158Y-3.1271
X3.3075Y-5.1874
X3.3659Y-2.8299
X3.3659Y-4.3288
X3.4336Y-3.1685
X3.5856Y-5.2045
X3.8401Y-2.5311
X3.8401Y-3.2811
X3.8401Y-4.0319
X4.1157Y-2.5725
X4.1157Y-3.3225
X4.1157Y-4.0732
X4.5896Y-2.7677
X4.5896Y-3.5173
X4.5896Y-4.2675
X4.8652Y-2.8091
X4.8652Y-3.5587
X4.8652Y-4.3089
X5.3389Y-3.1445
X5.3389Y-3.8943
X5.4066Y-4.232
X5.6144Y-3.1859
X5.6144Y-3.9357
X5.6822Y-4.2734
X6.089Y-3.1445
X6.089Y-3.8943
X6.089Y-4.6441
X6.3646Y-3.1859
X6.3646Y-3.9357
X6.3646Y-4.6855
X7.8326Y-3.1445
X7.8326Y-3.8943
X7.8327Y-4.6441
X8.1082Y-3.1859
X8.1082Y-3.9357
X8.1083Y-4.6855
X8.5828Y-3.1445
X8.5828Y-3.8943
X8.6505Y-4.232
X8.8584Y-3.1859
X8.8584Y-3.9357
X8.9261Y-4.2734
X9.3321Y-2.7677
X9.3321Y-3.5173
X9.3321Y-4.2675
X9.6077Y-2.8091
X9.6077Y-3.5587
X9.6077Y-4.3089
X10.0819Y-2.5311
X10.0819Y-3.2811
X10.0819Y-4.0319
X10.3575Y-2.5725
X10.3575Y-3.3225
X10.3575Y-4.0732
X10.6184Y-5.1575
X10.8319Y-2.7886
X10.8319Y-4.2874
X10.8894Y-5.2227
X10.8996Y-3.1271
X11.1075Y-2.8299
X11.1075Y-4.3288
X11.1752Y-3.1685
X11.4044Y-5.2657
X11.5819Y-2.8854
X11.5819Y-4.3849
X11.6496Y-3.2236
X11.6599Y-5.3769
X11.8575Y-2.9268
X11.8575Y-4.4262
X11.9252Y-3.265
X12.4714Y-5.7058
X12.645Y-5.4878
T7
X1.8676Y-5.4632
X2.5096Y-2.7006
X2.5096Y-4.2
X2.5132Y-3.4498
X2.6473Y-5.132
X3.2602Y-2.6037
X3.2602Y-4.1026
X3.2637Y-3.3533
X3.4606Y-4.9884
X4.01Y-2.3463
X4.01Y-3.0963
X4.01Y-3.8471
X4.7595Y-2.5829
X4.7595Y-3.3325
X4.7595Y-4.0827
X5.5087Y-2.9597
X5.5087Y-3.7095
X5.5123Y-4.4582
X6.2589Y-2.9597
X6.2589Y-3.7095
X6.2589Y-4.4593
X8.0025Y-2.9597
X8.0025Y-3.7095
X8.0026Y-4.4593
X8.7527Y-2.9597
X8.7527Y-3.7095
X8.7563Y-4.4582
X9.502Y-2.5829
X9.502Y-3.3325
X9.502Y-4.0827
X10.2518Y-2.3463
X10.2518Y-3.0963
X10.2518Y-3.8471
X10.8038Y-4.9881
X11.0018Y-2.6037
X11.0018Y-4.1026
X11.0053Y-3.3533
X11.6164Y-5.1311
X11.7518Y-2.7006
X11.7518Y-4.2
X11.7553Y-3.4498
X12.3962Y-5.4663
M30
