G04 #@! TF.GenerationSoftware,KiCad,Pcbnew,8.0.3*
G04 #@! TF.CreationDate,2025-10-03T16:37:16+08:00*
G04 #@! TF.ProjectId,xavien-gateron-millmax,78617669-656e-42d6-9761-7465726f6e2d,rev?*
G04 #@! TF.SameCoordinates,Original*
G04 #@! TF.FileFunction,Legend,Top*
G04 #@! TF.FilePolarity,Positive*
%FSLAX46Y46*%
G04 Gerber Fmt 4.6, Leading zero omitted, Abs format (unit mm)*
G04 Created by KiCad (PCBNEW 8.0.3) date 2025-10-03 16:37:16*
%MOMM*%
%LPD*%
G01*
G04 APERTURE LIST*
%ADD10C,0.300000*%
%ADD11C,0.150000*%
%ADD12C,0.120000*%
G04 #@! TA.AperFunction,Profile*
%ADD13C,0.050000*%
G04 #@! TD*
G04 #@! TA.AperFunction,Profile*
%ADD14C,0.100000*%
G04 #@! TD*
G04 APERTURE END LIST*
D10*
G36*
X113002952Y-134825000D02*
G01*
X113477760Y-134058932D01*
X113002952Y-133324371D01*
X113361989Y-133324371D01*
X113670468Y-133849005D01*
X113977115Y-133324371D01*
X114337984Y-133324371D01*
X113863176Y-134056734D01*
X114337984Y-134825000D01*
X113978947Y-134825000D01*
X113670468Y-134305495D01*
X113361989Y-134825000D01*
X113002952Y-134825000D01*
G37*
G36*
X114978672Y-133678992D02*
G01*
X115054810Y-133687725D01*
X115133935Y-133705271D01*
X115211570Y-133735026D01*
X115253162Y-133758879D01*
X115313376Y-133811072D01*
X115353883Y-133874915D01*
X115374684Y-133950408D01*
X115377726Y-133997383D01*
X115377726Y-134620568D01*
X115383879Y-134696303D01*
X115392014Y-134723883D01*
X115440374Y-134775174D01*
X115440374Y-134825000D01*
X115129697Y-134825000D01*
X115105883Y-134761985D01*
X115096724Y-134687247D01*
X115049515Y-134748813D01*
X114992516Y-134798324D01*
X114949079Y-134824633D01*
X114876488Y-134853433D01*
X114802613Y-134868156D01*
X114736954Y-134871894D01*
X114660613Y-134866193D01*
X114585787Y-134846148D01*
X114516378Y-134806950D01*
X114487094Y-134780669D01*
X114440919Y-134715912D01*
X114413984Y-134644782D01*
X114401671Y-134571337D01*
X114399533Y-134520551D01*
X114400571Y-134506629D01*
X114684564Y-134506629D01*
X114703439Y-134577642D01*
X114724498Y-134602250D01*
X114792567Y-134633986D01*
X114832209Y-134637421D01*
X114909224Y-134629585D01*
X114979317Y-134603164D01*
X115022352Y-134571109D01*
X115067184Y-134509249D01*
X115088282Y-134437980D01*
X115091595Y-134390125D01*
X115091595Y-134287177D01*
X115018415Y-134315271D01*
X114947179Y-134335062D01*
X114923800Y-134340300D01*
X114852084Y-134355412D01*
X114825981Y-134361182D01*
X114755628Y-134387354D01*
X114715705Y-134415771D01*
X114685659Y-134485798D01*
X114684564Y-134506629D01*
X114400571Y-134506629D01*
X114405005Y-134447141D01*
X114424245Y-134375612D01*
X114461869Y-134309866D01*
X114487094Y-134282414D01*
X114553175Y-134235974D01*
X114622063Y-134206139D01*
X114694024Y-134185367D01*
X114776888Y-134169574D01*
X114849782Y-134159010D01*
X114897788Y-134152721D01*
X114971735Y-134138699D01*
X115040121Y-134111963D01*
X115086824Y-134050905D01*
X115087565Y-134040247D01*
X115071107Y-133968692D01*
X115045433Y-133940596D01*
X114975640Y-133915512D01*
X114905116Y-133910554D01*
X114829537Y-133918926D01*
X114766264Y-133948656D01*
X114723941Y-134012707D01*
X114718270Y-134057466D01*
X114718270Y-134074685D01*
X114439467Y-134074685D01*
X114439467Y-134053070D01*
X114445252Y-133979745D01*
X114466032Y-133904789D01*
X114501924Y-133839267D01*
X114552929Y-133783179D01*
X114560367Y-133776831D01*
X114626747Y-133732753D01*
X114704623Y-133701269D01*
X114782193Y-133684051D01*
X114855686Y-133676967D01*
X114894857Y-133676081D01*
X114978672Y-133678992D01*
G37*
G36*
X115912617Y-134825000D02*
G01*
X115511448Y-133699528D01*
X115841543Y-133699528D01*
X116070520Y-134506995D01*
X116300963Y-133699528D01*
X116616037Y-133699528D01*
X116217066Y-134825000D01*
X115912617Y-134825000D01*
G37*
G36*
X116755988Y-133582292D02*
G01*
X116755988Y-133300924D01*
X117054575Y-133300924D01*
X117054575Y-133582292D01*
X116755988Y-133582292D01*
G37*
G36*
X116755988Y-134825000D02*
G01*
X116755988Y-133699528D01*
X117054575Y-133699528D01*
X117054575Y-134825000D01*
X116755988Y-134825000D01*
G37*
G36*
X117861652Y-133679900D02*
G01*
X117946832Y-133694566D01*
X118023769Y-133720232D01*
X118092462Y-133756897D01*
X118152912Y-133804562D01*
X118180046Y-133832519D01*
X118227483Y-133895721D01*
X118265105Y-133968274D01*
X118292913Y-134050178D01*
X118308589Y-134125574D01*
X118317450Y-134207464D01*
X118319631Y-134277651D01*
X118318898Y-134325645D01*
X118316700Y-134356053D01*
X117572247Y-134356053D01*
X117581185Y-134429848D01*
X117605227Y-134502251D01*
X117636361Y-134549127D01*
X117696758Y-134593456D01*
X117770297Y-134612391D01*
X117803057Y-134613974D01*
X117876944Y-134605909D01*
X117929086Y-134585397D01*
X117985008Y-134534322D01*
X118007122Y-134496737D01*
X118304243Y-134496737D01*
X118280128Y-134570027D01*
X118247212Y-134636024D01*
X118198818Y-134702519D01*
X118138929Y-134759489D01*
X118122160Y-134772243D01*
X118059499Y-134811072D01*
X117991088Y-134840364D01*
X117916926Y-134860119D01*
X117837014Y-134870337D01*
X117788769Y-134871894D01*
X117715551Y-134867914D01*
X117634184Y-134852630D01*
X117559901Y-134825882D01*
X117492702Y-134787671D01*
X117432586Y-134737998D01*
X117405185Y-134708862D01*
X117357126Y-134643668D01*
X117319010Y-134570359D01*
X117290837Y-134488936D01*
X117274955Y-134414885D01*
X117265978Y-134335199D01*
X117263769Y-134267393D01*
X117267168Y-134184371D01*
X117269264Y-134168475D01*
X117572247Y-134168475D01*
X118011152Y-134168475D01*
X118000814Y-134090199D01*
X117970259Y-134018411D01*
X117951068Y-133994085D01*
X117888074Y-133950959D01*
X117816029Y-133934940D01*
X117790601Y-133934002D01*
X117713253Y-133945572D01*
X117647968Y-133983649D01*
X117637094Y-133994452D01*
X117597273Y-134057514D01*
X117576246Y-134134280D01*
X117572247Y-134168475D01*
X117269264Y-134168475D01*
X117277364Y-134107037D01*
X117294359Y-134035392D01*
X117323725Y-133956927D01*
X117362880Y-133886654D01*
X117402987Y-133834351D01*
X117458925Y-133780564D01*
X117522050Y-133737905D01*
X117592362Y-133706375D01*
X117669861Y-133685973D01*
X117754547Y-133676699D01*
X117784372Y-133676081D01*
X117861652Y-133679900D01*
G37*
G36*
X118515635Y-134825000D02*
G01*
X118515635Y-133699528D01*
X118807994Y-133699528D01*
X118807994Y-133841678D01*
X118858123Y-133785401D01*
X118919522Y-133737573D01*
X118955639Y-133717480D01*
X119027964Y-133690676D01*
X119100521Y-133678062D01*
X119145416Y-133676081D01*
X119221746Y-133680779D01*
X119298076Y-133697655D01*
X119370043Y-133731311D01*
X119421654Y-133774267D01*
X119466106Y-133837321D01*
X119493406Y-133906506D01*
X119509211Y-133988057D01*
X119513612Y-134069556D01*
X119513612Y-134825000D01*
X119215025Y-134825000D01*
X119215025Y-134155286D01*
X119210220Y-134081270D01*
X119190204Y-134010484D01*
X119174358Y-133984926D01*
X119112908Y-133943749D01*
X119042834Y-133934002D01*
X118969881Y-133942812D01*
X118900398Y-133975359D01*
X118875772Y-133996650D01*
X118833697Y-134060163D01*
X118815725Y-134134711D01*
X118814222Y-134167376D01*
X118814222Y-134825000D01*
X118515635Y-134825000D01*
G37*
G36*
X120640182Y-134825000D02*
G01*
X120239013Y-133699528D01*
X120569107Y-133699528D01*
X120798085Y-134506995D01*
X121028528Y-133699528D01*
X121343601Y-133699528D01*
X120944631Y-134825000D01*
X120640182Y-134825000D01*
G37*
G36*
X121864205Y-134825000D02*
G01*
X121864205Y-133816765D01*
X121513228Y-133816765D01*
X121513228Y-133605739D01*
X121535943Y-133605739D01*
X121614792Y-133602899D01*
X121692714Y-133592698D01*
X121764829Y-133572354D01*
X121815112Y-133546388D01*
X121870857Y-133490644D01*
X121904033Y-133419811D01*
X121918427Y-133347819D01*
X122153266Y-133347819D01*
X122153266Y-134825000D01*
X121864205Y-134825000D01*
G37*
G36*
X122679732Y-134825000D02*
G01*
X122679732Y-134520184D01*
X122988211Y-134520184D01*
X122988211Y-134825000D01*
X122679732Y-134825000D01*
G37*
G36*
X123808024Y-133352488D02*
G01*
X123881288Y-133366495D01*
X123960633Y-133395629D01*
X124030627Y-133438211D01*
X124091270Y-133494239D01*
X124126504Y-133539061D01*
X124164817Y-133603484D01*
X124196636Y-133677227D01*
X124221961Y-133760291D01*
X124237546Y-133833452D01*
X124248975Y-133912578D01*
X124256248Y-133997669D01*
X124259365Y-134088725D01*
X124259495Y-134112421D01*
X124257434Y-134205014D01*
X124251251Y-134291550D01*
X124240947Y-134372030D01*
X124226522Y-134446454D01*
X124202694Y-134530966D01*
X124172426Y-134606015D01*
X124135718Y-134671601D01*
X124127603Y-134683583D01*
X124073490Y-134747579D01*
X124009794Y-134798335D01*
X123936516Y-134835850D01*
X123853654Y-134860125D01*
X123777283Y-134870239D01*
X123728266Y-134871894D01*
X123648210Y-134867270D01*
X123574737Y-134853397D01*
X123495259Y-134824542D01*
X123425260Y-134782368D01*
X123364741Y-134726877D01*
X123329662Y-134682484D01*
X123291772Y-134618474D01*
X123260303Y-134545054D01*
X123235257Y-134462225D01*
X123219844Y-134389187D01*
X123208541Y-134310127D01*
X123201348Y-134225044D01*
X123198266Y-134133940D01*
X123198137Y-134110223D01*
X123198153Y-134109490D01*
X123502952Y-134109490D01*
X123504267Y-134188724D01*
X123509316Y-134274453D01*
X123518152Y-134349981D01*
X123533246Y-134425204D01*
X123556808Y-134494173D01*
X123596729Y-134557349D01*
X123661163Y-134602274D01*
X123728633Y-134613974D01*
X123801995Y-134599688D01*
X123864944Y-134551516D01*
X123900458Y-134493073D01*
X123924340Y-134423762D01*
X123939640Y-134348576D01*
X123948595Y-134273331D01*
X123953713Y-134188117D01*
X123955046Y-134109490D01*
X123953713Y-134030468D01*
X123948595Y-133944945D01*
X123939640Y-133869571D01*
X123924340Y-133794463D01*
X123900458Y-133725540D01*
X123860379Y-133662364D01*
X123795945Y-133617439D01*
X123728633Y-133605739D01*
X123655105Y-133619852D01*
X123592173Y-133667439D01*
X123556808Y-133725174D01*
X123530774Y-133803713D01*
X123516416Y-133880787D01*
X123508212Y-133957986D01*
X123503794Y-134045462D01*
X123502952Y-134109490D01*
X123198153Y-134109490D01*
X123200192Y-134017693D01*
X123206358Y-133931162D01*
X123216633Y-133850631D01*
X123231018Y-133776099D01*
X123254780Y-133691370D01*
X123284964Y-133616015D01*
X123321570Y-133550033D01*
X123329662Y-133537962D01*
X123383861Y-133473343D01*
X123447540Y-133422093D01*
X123520698Y-133384213D01*
X123603336Y-133359703D01*
X123679443Y-133349490D01*
X123728266Y-133347819D01*
X123808024Y-133352488D01*
G37*
G36*
X124466124Y-134825000D02*
G01*
X124466124Y-134520184D01*
X124774603Y-134520184D01*
X124774603Y-134825000D01*
X124466124Y-134825000D01*
G37*
G36*
X125594416Y-133352488D02*
G01*
X125667680Y-133366495D01*
X125747025Y-133395629D01*
X125817019Y-133438211D01*
X125877663Y-133494239D01*
X125912896Y-133539061D01*
X125951209Y-133603484D01*
X125983028Y-133677227D01*
X126008353Y-133760291D01*
X126023938Y-133833452D01*
X126035367Y-133912578D01*
X126042640Y-133997669D01*
X126045757Y-134088725D01*
X126045887Y-134112421D01*
X126043826Y-134205014D01*
X126037644Y-134291550D01*
X126027340Y-134372030D01*
X126012914Y-134446454D01*
X125989086Y-134530966D01*
X125958818Y-134606015D01*
X125922110Y-134671601D01*
X125913996Y-134683583D01*
X125859882Y-134747579D01*
X125796187Y-134798335D01*
X125722908Y-134835850D01*
X125640047Y-134860125D01*
X125563675Y-134870239D01*
X125514659Y-134871894D01*
X125434602Y-134867270D01*
X125361129Y-134853397D01*
X125281651Y-134824542D01*
X125211652Y-134782368D01*
X125151134Y-134726877D01*
X125116054Y-134682484D01*
X125078164Y-134618474D01*
X125046695Y-134545054D01*
X125021649Y-134462225D01*
X125006236Y-134389187D01*
X124994933Y-134310127D01*
X124987740Y-134225044D01*
X124984658Y-134133940D01*
X124984529Y-134110223D01*
X124984545Y-134109490D01*
X125289344Y-134109490D01*
X125290659Y-134188724D01*
X125295708Y-134274453D01*
X125304544Y-134349981D01*
X125319638Y-134425204D01*
X125343200Y-134494173D01*
X125383121Y-134557349D01*
X125447555Y-134602274D01*
X125515025Y-134613974D01*
X125588388Y-134599688D01*
X125651336Y-134551516D01*
X125686850Y-134493073D01*
X125710732Y-134423762D01*
X125726032Y-134348576D01*
X125734988Y-134273331D01*
X125740105Y-134188117D01*
X125741438Y-134109490D01*
X125740105Y-134030468D01*
X125734988Y-133944945D01*
X125726032Y-133869571D01*
X125710732Y-133794463D01*
X125686850Y-133725540D01*
X125646771Y-133662364D01*
X125582337Y-133617439D01*
X125515025Y-133605739D01*
X125441497Y-133619852D01*
X125378565Y-133667439D01*
X125343200Y-133725174D01*
X125317166Y-133803713D01*
X125302808Y-133880787D01*
X125294604Y-133957986D01*
X125290186Y-134045462D01*
X125289344Y-134109490D01*
X124984545Y-134109490D01*
X124986584Y-134017693D01*
X124992750Y-133931162D01*
X125003025Y-133850631D01*
X125017411Y-133776099D01*
X125041172Y-133691370D01*
X125071356Y-133616015D01*
X125107962Y-133550033D01*
X125116054Y-133537962D01*
X125170253Y-133473343D01*
X125233932Y-133422093D01*
X125307090Y-133384213D01*
X125389728Y-133359703D01*
X125465835Y-133349490D01*
X125514659Y-133347819D01*
X125594416Y-133352488D01*
G37*
G36*
X235732952Y-134775000D02*
G01*
X236207760Y-134008932D01*
X235732952Y-133274371D01*
X236091989Y-133274371D01*
X236400468Y-133799005D01*
X236707115Y-133274371D01*
X237067984Y-133274371D01*
X236593176Y-134006734D01*
X237067984Y-134775000D01*
X236708947Y-134775000D01*
X236400468Y-134255495D01*
X236091989Y-134775000D01*
X235732952Y-134775000D01*
G37*
G36*
X237708672Y-133628992D02*
G01*
X237784810Y-133637725D01*
X237863935Y-133655271D01*
X237941570Y-133685026D01*
X237983162Y-133708879D01*
X238043376Y-133761072D01*
X238083883Y-133824915D01*
X238104684Y-133900408D01*
X238107726Y-133947383D01*
X238107726Y-134570568D01*
X238113879Y-134646303D01*
X238122014Y-134673883D01*
X238170374Y-134725174D01*
X238170374Y-134775000D01*
X237859697Y-134775000D01*
X237835883Y-134711985D01*
X237826724Y-134637247D01*
X237779515Y-134698813D01*
X237722516Y-134748324D01*
X237679079Y-134774633D01*
X237606488Y-134803433D01*
X237532613Y-134818156D01*
X237466954Y-134821894D01*
X237390613Y-134816193D01*
X237315787Y-134796148D01*
X237246378Y-134756950D01*
X237217094Y-134730669D01*
X237170919Y-134665912D01*
X237143984Y-134594782D01*
X237131671Y-134521337D01*
X237129533Y-134470551D01*
X237130571Y-134456629D01*
X237414564Y-134456629D01*
X237433439Y-134527642D01*
X237454498Y-134552250D01*
X237522567Y-134583986D01*
X237562209Y-134587421D01*
X237639224Y-134579585D01*
X237709317Y-134553164D01*
X237752352Y-134521109D01*
X237797184Y-134459249D01*
X237818282Y-134387980D01*
X237821595Y-134340125D01*
X237821595Y-134237177D01*
X237748415Y-134265271D01*
X237677179Y-134285062D01*
X237653800Y-134290300D01*
X237582084Y-134305412D01*
X237555981Y-134311182D01*
X237485628Y-134337354D01*
X237445705Y-134365771D01*
X237415659Y-134435798D01*
X237414564Y-134456629D01*
X237130571Y-134456629D01*
X237135005Y-134397141D01*
X237154245Y-134325612D01*
X237191869Y-134259866D01*
X237217094Y-134232414D01*
X237283175Y-134185974D01*
X237352063Y-134156139D01*
X237424024Y-134135367D01*
X237506888Y-134119574D01*
X237579782Y-134109010D01*
X237627788Y-134102721D01*
X237701735Y-134088699D01*
X237770121Y-134061963D01*
X237816824Y-134000905D01*
X237817565Y-133990247D01*
X237801107Y-133918692D01*
X237775433Y-133890596D01*
X237705640Y-133865512D01*
X237635116Y-133860554D01*
X237559537Y-133868926D01*
X237496264Y-133898656D01*
X237453941Y-133962707D01*
X237448270Y-134007466D01*
X237448270Y-134024685D01*
X237169467Y-134024685D01*
X237169467Y-134003070D01*
X237175252Y-133929745D01*
X237196032Y-133854789D01*
X237231924Y-133789267D01*
X237282929Y-133733179D01*
X237290367Y-133726831D01*
X237356747Y-133682753D01*
X237434623Y-133651269D01*
X237512193Y-133634051D01*
X237585686Y-133626967D01*
X237624857Y-133626081D01*
X237708672Y-133628992D01*
G37*
G36*
X238642617Y-134775000D02*
G01*
X238241448Y-133649528D01*
X238571543Y-133649528D01*
X238800520Y-134456995D01*
X239030963Y-133649528D01*
X239346037Y-133649528D01*
X238947066Y-134775000D01*
X238642617Y-134775000D01*
G37*
G36*
X239485988Y-133532292D02*
G01*
X239485988Y-133250924D01*
X239784575Y-133250924D01*
X239784575Y-133532292D01*
X239485988Y-133532292D01*
G37*
G36*
X239485988Y-134775000D02*
G01*
X239485988Y-133649528D01*
X239784575Y-133649528D01*
X239784575Y-134775000D01*
X239485988Y-134775000D01*
G37*
G36*
X240591652Y-133629900D02*
G01*
X240676832Y-133644566D01*
X240753769Y-133670232D01*
X240822462Y-133706897D01*
X240882912Y-133754562D01*
X240910046Y-133782519D01*
X240957483Y-133845721D01*
X240995105Y-133918274D01*
X241022913Y-134000178D01*
X241038589Y-134075574D01*
X241047450Y-134157464D01*
X241049631Y-134227651D01*
X241048898Y-134275645D01*
X241046700Y-134306053D01*
X240302247Y-134306053D01*
X240311185Y-134379848D01*
X240335227Y-134452251D01*
X240366361Y-134499127D01*
X240426758Y-134543456D01*
X240500297Y-134562391D01*
X240533057Y-134563974D01*
X240606944Y-134555909D01*
X240659086Y-134535397D01*
X240715008Y-134484322D01*
X240737122Y-134446737D01*
X241034243Y-134446737D01*
X241010128Y-134520027D01*
X240977212Y-134586024D01*
X240928818Y-134652519D01*
X240868929Y-134709489D01*
X240852160Y-134722243D01*
X240789499Y-134761072D01*
X240721088Y-134790364D01*
X240646926Y-134810119D01*
X240567014Y-134820337D01*
X240518769Y-134821894D01*
X240445551Y-134817914D01*
X240364184Y-134802630D01*
X240289901Y-134775882D01*
X240222702Y-134737671D01*
X240162586Y-134687998D01*
X240135185Y-134658862D01*
X240087126Y-134593668D01*
X240049010Y-134520359D01*
X240020837Y-134438936D01*
X240004955Y-134364885D01*
X239995978Y-134285199D01*
X239993769Y-134217393D01*
X239997168Y-134134371D01*
X239999264Y-134118475D01*
X240302247Y-134118475D01*
X240741152Y-134118475D01*
X240730814Y-134040199D01*
X240700259Y-133968411D01*
X240681068Y-133944085D01*
X240618074Y-133900959D01*
X240546029Y-133884940D01*
X240520601Y-133884002D01*
X240443253Y-133895572D01*
X240377968Y-133933649D01*
X240367094Y-133944452D01*
X240327273Y-134007514D01*
X240306246Y-134084280D01*
X240302247Y-134118475D01*
X239999264Y-134118475D01*
X240007364Y-134057037D01*
X240024359Y-133985392D01*
X240053725Y-133906927D01*
X240092880Y-133836654D01*
X240132987Y-133784351D01*
X240188925Y-133730564D01*
X240252050Y-133687905D01*
X240322362Y-133656375D01*
X240399861Y-133635973D01*
X240484547Y-133626699D01*
X240514372Y-133626081D01*
X240591652Y-133629900D01*
G37*
G36*
X241245635Y-134775000D02*
G01*
X241245635Y-133649528D01*
X241537994Y-133649528D01*
X241537994Y-133791678D01*
X241588123Y-133735401D01*
X241649522Y-133687573D01*
X241685639Y-133667480D01*
X241757964Y-133640676D01*
X241830521Y-133628062D01*
X241875416Y-133626081D01*
X241951746Y-133630779D01*
X242028076Y-133647655D01*
X242100043Y-133681311D01*
X242151654Y-133724267D01*
X242196106Y-133787321D01*
X242223406Y-133856506D01*
X242239211Y-133938057D01*
X242243612Y-134019556D01*
X242243612Y-134775000D01*
X241945025Y-134775000D01*
X241945025Y-134105286D01*
X241940220Y-134031270D01*
X241920204Y-133960484D01*
X241904358Y-133934926D01*
X241842908Y-133893749D01*
X241772834Y-133884002D01*
X241699881Y-133892812D01*
X241630398Y-133925359D01*
X241605772Y-133946650D01*
X241563697Y-134010163D01*
X241545725Y-134084711D01*
X241544222Y-134117376D01*
X241544222Y-134775000D01*
X241245635Y-134775000D01*
G37*
G36*
X243370182Y-134775000D02*
G01*
X242969013Y-133649528D01*
X243299107Y-133649528D01*
X243528085Y-134456995D01*
X243758528Y-133649528D01*
X244073601Y-133649528D01*
X243674631Y-134775000D01*
X243370182Y-134775000D01*
G37*
G36*
X244594205Y-134775000D02*
G01*
X244594205Y-133766765D01*
X244243228Y-133766765D01*
X244243228Y-133555739D01*
X244265943Y-133555739D01*
X244344792Y-133552899D01*
X244422714Y-133542698D01*
X244494829Y-133522354D01*
X244545112Y-133496388D01*
X244600857Y-133440644D01*
X244634033Y-133369811D01*
X244648427Y-133297819D01*
X244883266Y-133297819D01*
X244883266Y-134775000D01*
X244594205Y-134775000D01*
G37*
G36*
X245409732Y-134775000D02*
G01*
X245409732Y-134470184D01*
X245718211Y-134470184D01*
X245718211Y-134775000D01*
X245409732Y-134775000D01*
G37*
G36*
X246538024Y-133302488D02*
G01*
X246611288Y-133316495D01*
X246690633Y-133345629D01*
X246760627Y-133388211D01*
X246821270Y-133444239D01*
X246856504Y-133489061D01*
X246894817Y-133553484D01*
X246926636Y-133627227D01*
X246951961Y-133710291D01*
X246967546Y-133783452D01*
X246978975Y-133862578D01*
X246986248Y-133947669D01*
X246989365Y-134038725D01*
X246989495Y-134062421D01*
X246987434Y-134155014D01*
X246981251Y-134241550D01*
X246970947Y-134322030D01*
X246956522Y-134396454D01*
X246932694Y-134480966D01*
X246902426Y-134556015D01*
X246865718Y-134621601D01*
X246857603Y-134633583D01*
X246803490Y-134697579D01*
X246739794Y-134748335D01*
X246666516Y-134785850D01*
X246583654Y-134810125D01*
X246507283Y-134820239D01*
X246458266Y-134821894D01*
X246378210Y-134817270D01*
X246304737Y-134803397D01*
X246225259Y-134774542D01*
X246155260Y-134732368D01*
X246094741Y-134676877D01*
X246059662Y-134632484D01*
X246021772Y-134568474D01*
X245990303Y-134495054D01*
X245965257Y-134412225D01*
X245949844Y-134339187D01*
X245938541Y-134260127D01*
X245931348Y-134175044D01*
X245928266Y-134083940D01*
X245928137Y-134060223D01*
X245928153Y-134059490D01*
X246232952Y-134059490D01*
X246234267Y-134138724D01*
X246239316Y-134224453D01*
X246248152Y-134299981D01*
X246263246Y-134375204D01*
X246286808Y-134444173D01*
X246326729Y-134507349D01*
X246391163Y-134552274D01*
X246458633Y-134563974D01*
X246531995Y-134549688D01*
X246594944Y-134501516D01*
X246630458Y-134443073D01*
X246654340Y-134373762D01*
X246669640Y-134298576D01*
X246678595Y-134223331D01*
X246683713Y-134138117D01*
X246685046Y-134059490D01*
X246683713Y-133980468D01*
X246678595Y-133894945D01*
X246669640Y-133819571D01*
X246654340Y-133744463D01*
X246630458Y-133675540D01*
X246590379Y-133612364D01*
X246525945Y-133567439D01*
X246458633Y-133555739D01*
X246385105Y-133569852D01*
X246322173Y-133617439D01*
X246286808Y-133675174D01*
X246260774Y-133753713D01*
X246246416Y-133830787D01*
X246238212Y-133907986D01*
X246233794Y-133995462D01*
X246232952Y-134059490D01*
X245928153Y-134059490D01*
X245930192Y-133967693D01*
X245936358Y-133881162D01*
X245946633Y-133800631D01*
X245961018Y-133726099D01*
X245984780Y-133641370D01*
X246014964Y-133566015D01*
X246051570Y-133500033D01*
X246059662Y-133487962D01*
X246113861Y-133423343D01*
X246177540Y-133372093D01*
X246250698Y-133334213D01*
X246333336Y-133309703D01*
X246409443Y-133299490D01*
X246458266Y-133297819D01*
X246538024Y-133302488D01*
G37*
G36*
X247196124Y-134775000D02*
G01*
X247196124Y-134470184D01*
X247504603Y-134470184D01*
X247504603Y-134775000D01*
X247196124Y-134775000D01*
G37*
G36*
X248324416Y-133302488D02*
G01*
X248397680Y-133316495D01*
X248477025Y-133345629D01*
X248547019Y-133388211D01*
X248607663Y-133444239D01*
X248642896Y-133489061D01*
X248681209Y-133553484D01*
X248713028Y-133627227D01*
X248738353Y-133710291D01*
X248753938Y-133783452D01*
X248765367Y-133862578D01*
X248772640Y-133947669D01*
X248775757Y-134038725D01*
X248775887Y-134062421D01*
X248773826Y-134155014D01*
X248767644Y-134241550D01*
X248757340Y-134322030D01*
X248742914Y-134396454D01*
X248719086Y-134480966D01*
X248688818Y-134556015D01*
X248652110Y-134621601D01*
X248643996Y-134633583D01*
X248589882Y-134697579D01*
X248526187Y-134748335D01*
X248452908Y-134785850D01*
X248370047Y-134810125D01*
X248293675Y-134820239D01*
X248244659Y-134821894D01*
X248164602Y-134817270D01*
X248091129Y-134803397D01*
X248011651Y-134774542D01*
X247941652Y-134732368D01*
X247881134Y-134676877D01*
X247846054Y-134632484D01*
X247808164Y-134568474D01*
X247776695Y-134495054D01*
X247751649Y-134412225D01*
X247736236Y-134339187D01*
X247724933Y-134260127D01*
X247717740Y-134175044D01*
X247714658Y-134083940D01*
X247714529Y-134060223D01*
X247714545Y-134059490D01*
X248019344Y-134059490D01*
X248020659Y-134138724D01*
X248025708Y-134224453D01*
X248034544Y-134299981D01*
X248049638Y-134375204D01*
X248073200Y-134444173D01*
X248113121Y-134507349D01*
X248177555Y-134552274D01*
X248245025Y-134563974D01*
X248318388Y-134549688D01*
X248381336Y-134501516D01*
X248416850Y-134443073D01*
X248440732Y-134373762D01*
X248456032Y-134298576D01*
X248464988Y-134223331D01*
X248470105Y-134138117D01*
X248471438Y-134059490D01*
X248470105Y-133980468D01*
X248464988Y-133894945D01*
X248456032Y-133819571D01*
X248440732Y-133744463D01*
X248416850Y-133675540D01*
X248376771Y-133612364D01*
X248312337Y-133567439D01*
X248245025Y-133555739D01*
X248171497Y-133569852D01*
X248108565Y-133617439D01*
X248073200Y-133675174D01*
X248047166Y-133753713D01*
X248032808Y-133830787D01*
X248024604Y-133907986D01*
X248020186Y-133995462D01*
X248019344Y-134059490D01*
X247714545Y-134059490D01*
X247716584Y-133967693D01*
X247722750Y-133881162D01*
X247733025Y-133800631D01*
X247747411Y-133726099D01*
X247771172Y-133641370D01*
X247801356Y-133566015D01*
X247837962Y-133500033D01*
X247846054Y-133487962D01*
X247900253Y-133423343D01*
X247963932Y-133372093D01*
X248037090Y-133334213D01*
X248119728Y-133309703D01*
X248195835Y-133299490D01*
X248244659Y-133297819D01*
X248324416Y-133302488D01*
G37*
D11*
X53250207Y-118003280D02*
X53202588Y-118146137D01*
X53202588Y-118146137D02*
X53154969Y-118193756D01*
X53154969Y-118193756D02*
X53059731Y-118241375D01*
X53059731Y-118241375D02*
X52916874Y-118241375D01*
X52916874Y-118241375D02*
X52821636Y-118193756D01*
X52821636Y-118193756D02*
X52774017Y-118146137D01*
X52774017Y-118146137D02*
X52726397Y-118050899D01*
X52726397Y-118050899D02*
X52726397Y-117669947D01*
X52726397Y-117669947D02*
X53726397Y-117669947D01*
X53726397Y-117669947D02*
X53726397Y-118003280D01*
X53726397Y-118003280D02*
X53678778Y-118098518D01*
X53678778Y-118098518D02*
X53631159Y-118146137D01*
X53631159Y-118146137D02*
X53535921Y-118193756D01*
X53535921Y-118193756D02*
X53440683Y-118193756D01*
X53440683Y-118193756D02*
X53345445Y-118146137D01*
X53345445Y-118146137D02*
X53297826Y-118098518D01*
X53297826Y-118098518D02*
X53250207Y-118003280D01*
X53250207Y-118003280D02*
X53250207Y-117669947D01*
X53726397Y-118527090D02*
X53726397Y-119098518D01*
X52726397Y-118812804D02*
X53726397Y-118812804D01*
X53726397Y-119336614D02*
X53726397Y-119955661D01*
X53726397Y-119955661D02*
X53345445Y-119622328D01*
X53345445Y-119622328D02*
X53345445Y-119765185D01*
X53345445Y-119765185D02*
X53297826Y-119860423D01*
X53297826Y-119860423D02*
X53250207Y-119908042D01*
X53250207Y-119908042D02*
X53154969Y-119955661D01*
X53154969Y-119955661D02*
X52916874Y-119955661D01*
X52916874Y-119955661D02*
X52821636Y-119908042D01*
X52821636Y-119908042D02*
X52774017Y-119860423D01*
X52774017Y-119860423D02*
X52726397Y-119765185D01*
X52726397Y-119765185D02*
X52726397Y-119479471D01*
X52726397Y-119479471D02*
X52774017Y-119384233D01*
X52774017Y-119384233D02*
X52821636Y-119336614D01*
X72056639Y-93689110D02*
X72056639Y-94498633D01*
X72056639Y-94498633D02*
X72104258Y-94593871D01*
X72104258Y-94593871D02*
X72151877Y-94641491D01*
X72151877Y-94641491D02*
X72247115Y-94689110D01*
X72247115Y-94689110D02*
X72437591Y-94689110D01*
X72437591Y-94689110D02*
X72532829Y-94641491D01*
X72532829Y-94641491D02*
X72580448Y-94593871D01*
X72580448Y-94593871D02*
X72628067Y-94498633D01*
X72628067Y-94498633D02*
X72628067Y-93689110D01*
X73247115Y-94117681D02*
X73151877Y-94070062D01*
X73151877Y-94070062D02*
X73104258Y-94022443D01*
X73104258Y-94022443D02*
X73056639Y-93927205D01*
X73056639Y-93927205D02*
X73056639Y-93879586D01*
X73056639Y-93879586D02*
X73104258Y-93784348D01*
X73104258Y-93784348D02*
X73151877Y-93736729D01*
X73151877Y-93736729D02*
X73247115Y-93689110D01*
X73247115Y-93689110D02*
X73437591Y-93689110D01*
X73437591Y-93689110D02*
X73532829Y-93736729D01*
X73532829Y-93736729D02*
X73580448Y-93784348D01*
X73580448Y-93784348D02*
X73628067Y-93879586D01*
X73628067Y-93879586D02*
X73628067Y-93927205D01*
X73628067Y-93927205D02*
X73580448Y-94022443D01*
X73580448Y-94022443D02*
X73532829Y-94070062D01*
X73532829Y-94070062D02*
X73437591Y-94117681D01*
X73437591Y-94117681D02*
X73247115Y-94117681D01*
X73247115Y-94117681D02*
X73151877Y-94165300D01*
X73151877Y-94165300D02*
X73104258Y-94212919D01*
X73104258Y-94212919D02*
X73056639Y-94308157D01*
X73056639Y-94308157D02*
X73056639Y-94498633D01*
X73056639Y-94498633D02*
X73104258Y-94593871D01*
X73104258Y-94593871D02*
X73151877Y-94641491D01*
X73151877Y-94641491D02*
X73247115Y-94689110D01*
X73247115Y-94689110D02*
X73437591Y-94689110D01*
X73437591Y-94689110D02*
X73532829Y-94641491D01*
X73532829Y-94641491D02*
X73580448Y-94593871D01*
X73580448Y-94593871D02*
X73628067Y-94498633D01*
X73628067Y-94498633D02*
X73628067Y-94308157D01*
X73628067Y-94308157D02*
X73580448Y-94212919D01*
X73580448Y-94212919D02*
X73532829Y-94165300D01*
X73532829Y-94165300D02*
X73437591Y-94117681D01*
X118008360Y-110597630D02*
X118722645Y-110597630D01*
X118722645Y-110597630D02*
X118865502Y-110645249D01*
X118865502Y-110645249D02*
X118960741Y-110740487D01*
X118960741Y-110740487D02*
X119008360Y-110883344D01*
X119008360Y-110883344D02*
X119008360Y-110978582D01*
X118008360Y-109645249D02*
X118008360Y-110121439D01*
X118008360Y-110121439D02*
X118484550Y-110169058D01*
X118484550Y-110169058D02*
X118436931Y-110121439D01*
X118436931Y-110121439D02*
X118389312Y-110026201D01*
X118389312Y-110026201D02*
X118389312Y-109788106D01*
X118389312Y-109788106D02*
X118436931Y-109692868D01*
X118436931Y-109692868D02*
X118484550Y-109645249D01*
X118484550Y-109645249D02*
X118579788Y-109597630D01*
X118579788Y-109597630D02*
X118817883Y-109597630D01*
X118817883Y-109597630D02*
X118913121Y-109645249D01*
X118913121Y-109645249D02*
X118960741Y-109692868D01*
X118960741Y-109692868D02*
X119008360Y-109788106D01*
X119008360Y-109788106D02*
X119008360Y-110026201D01*
X119008360Y-110026201D02*
X118960741Y-110121439D01*
X118960741Y-110121439D02*
X118913121Y-110169058D01*
X95685020Y-126705636D02*
X95685020Y-127419921D01*
X95685020Y-127419921D02*
X95637401Y-127562778D01*
X95637401Y-127562778D02*
X95542163Y-127658017D01*
X95542163Y-127658017D02*
X95399306Y-127705636D01*
X95399306Y-127705636D02*
X95304068Y-127705636D01*
X96304068Y-127134207D02*
X96208830Y-127086588D01*
X96208830Y-127086588D02*
X96161211Y-127038969D01*
X96161211Y-127038969D02*
X96113592Y-126943731D01*
X96113592Y-126943731D02*
X96113592Y-126896112D01*
X96113592Y-126896112D02*
X96161211Y-126800874D01*
X96161211Y-126800874D02*
X96208830Y-126753255D01*
X96208830Y-126753255D02*
X96304068Y-126705636D01*
X96304068Y-126705636D02*
X96494544Y-126705636D01*
X96494544Y-126705636D02*
X96589782Y-126753255D01*
X96589782Y-126753255D02*
X96637401Y-126800874D01*
X96637401Y-126800874D02*
X96685020Y-126896112D01*
X96685020Y-126896112D02*
X96685020Y-126943731D01*
X96685020Y-126943731D02*
X96637401Y-127038969D01*
X96637401Y-127038969D02*
X96589782Y-127086588D01*
X96589782Y-127086588D02*
X96494544Y-127134207D01*
X96494544Y-127134207D02*
X96304068Y-127134207D01*
X96304068Y-127134207D02*
X96208830Y-127181826D01*
X96208830Y-127181826D02*
X96161211Y-127229445D01*
X96161211Y-127229445D02*
X96113592Y-127324683D01*
X96113592Y-127324683D02*
X96113592Y-127515159D01*
X96113592Y-127515159D02*
X96161211Y-127610397D01*
X96161211Y-127610397D02*
X96208830Y-127658017D01*
X96208830Y-127658017D02*
X96304068Y-127705636D01*
X96304068Y-127705636D02*
X96494544Y-127705636D01*
X96494544Y-127705636D02*
X96589782Y-127658017D01*
X96589782Y-127658017D02*
X96637401Y-127610397D01*
X96637401Y-127610397D02*
X96685020Y-127515159D01*
X96685020Y-127515159D02*
X96685020Y-127324683D01*
X96685020Y-127324683D02*
X96637401Y-127229445D01*
X96637401Y-127229445D02*
X96589782Y-127181826D01*
X96589782Y-127181826D02*
X96494544Y-127134207D01*
D12*
X326452000Y-93275000D02*
X313752000Y-93275000D01*
X313752000Y-90675000D01*
X326451999Y-90675000D01*
X326452000Y-93275000D01*
X48565000Y-93275000D02*
X35865000Y-93275000D01*
X35865000Y-90675000D01*
X48564999Y-90675000D01*
X48565000Y-93275000D01*
D11*
X33355000Y-59400000D02*
X35895000Y-59400000D01*
X33355000Y-89880000D02*
X33355000Y-59400000D01*
X35895000Y-59400000D02*
X51135000Y-59400000D01*
X35895000Y-89880000D02*
X33355000Y-89880000D01*
X51135000Y-89880000D02*
X35895000Y-89880000D01*
X51135000Y-89880000D02*
X51135000Y-59400000D01*
X311241000Y-59400000D02*
X313781000Y-59400000D01*
X311241000Y-89880000D02*
X311241000Y-59400000D01*
X313781000Y-59400000D02*
X329021000Y-59400000D01*
X313781000Y-89880000D02*
X311241000Y-89880000D01*
X329021000Y-89880000D02*
X313781000Y-89880000D01*
X329021000Y-89880000D02*
X329021000Y-59400000D01*
D13*
X295880000Y-116290000D02*
X295880000Y-121296005D01*
X171810135Y-122933990D02*
X171589157Y-122939353D01*
X213203988Y-73841798D02*
X213203988Y-66160000D01*
X212180342Y-65863500D02*
X193750302Y-65863500D01*
X168846932Y-115828698D02*
X169008004Y-115828698D01*
X309606448Y-127952333D02*
X309606448Y-95779543D01*
X212375308Y-93051789D02*
X212375308Y-77417118D01*
X170651885Y-122448377D02*
X170791593Y-122618551D01*
X286523000Y-118420000D02*
X286523000Y-113420000D01*
X191750665Y-110080638D02*
X191730342Y-109857118D01*
X231764208Y-56635644D02*
G75*
G02*
X232029349Y-56366382I265492J3744D01*
G01*
X275023000Y-118420000D02*
G75*
G02*
X274523000Y-117920000I0J500000D01*
G01*
X149910318Y-96600291D02*
X149910267Y-111407449D01*
X170288148Y-110484693D02*
X170392287Y-110289113D01*
X149081638Y-66150000D02*
X149081638Y-73841798D01*
X193464716Y-66190501D02*
G75*
G02*
X193750301Y-65863477I299684J26501D01*
G01*
X193464716Y-73098698D02*
X193464716Y-66190501D01*
X192065623Y-78178276D02*
X192238342Y-78036037D01*
X233370042Y-135014522D02*
G75*
G02*
X213203979Y-122527714I8109358J35623922D01*
G01*
X191542385Y-66677161D02*
X191600000Y-66860000D01*
X317430736Y-155661791D02*
G75*
G02*
X314321675Y-156311846I-1857936J1126091D01*
G01*
X191730342Y-109857118D02*
X191730344Y-78983451D01*
X97588354Y-133070000D02*
X97588354Y-112064291D01*
X66426001Y-121296005D02*
X66426001Y-116296005D01*
X92474283Y-56510290D02*
G75*
G02*
X92141045Y-56836484I-329783J3590D01*
G01*
X326431425Y-89882210D02*
X313731425Y-89879710D01*
X192647285Y-77868388D02*
X193464716Y-77837358D01*
X148814219Y-65863500D02*
G75*
G02*
X149081625Y-66150000I-17419J-284300D01*
G01*
X168865284Y-66180291D02*
X168861643Y-73098698D01*
X213203988Y-73841798D02*
G75*
G02*
X212379026Y-73841798I-412481J3046D01*
G01*
X212375308Y-122527707D02*
X212375308Y-115892237D01*
X132498544Y-112064291D02*
X132498544Y-129050000D01*
X212375308Y-96600291D02*
G75*
G02*
X213203988Y-96600291I414340J-3152D01*
G01*
X130970457Y-65863500D02*
G75*
G02*
X130552449Y-65423426I12043J430000D01*
G01*
X169569318Y-110969833D02*
X169780146Y-110903795D01*
X54926001Y-121296005D02*
X66426001Y-121296005D01*
X191753205Y-78754848D02*
X191819243Y-78544037D01*
X130970457Y-65863500D02*
X148814394Y-65863500D01*
X149910318Y-122527707D02*
G75*
G02*
X129800000Y-135005000I-28233718J23060707D01*
G01*
X130296283Y-56366406D02*
G75*
G02*
X130552251Y-56628817I-1483J-257494D01*
G01*
X171273664Y-66060136D02*
X171078084Y-66164275D01*
X264740000Y-133070000D02*
X233740000Y-133070000D01*
X169968105Y-78033692D02*
X169772524Y-77932081D01*
X191050000Y-122867278D02*
X190836646Y-122933316D01*
X48005688Y-156311791D02*
X62033662Y-148371408D01*
X231764208Y-65545626D02*
G75*
G02*
X231442994Y-65863505I-319308J1426D01*
G01*
X75807500Y-113420000D02*
X75807500Y-118420000D01*
X170547752Y-122250253D02*
X170651885Y-122448377D01*
X191414854Y-122620896D02*
X191244674Y-122763134D01*
X192230726Y-110801997D02*
X192060544Y-110659758D01*
X192060544Y-110659758D02*
X191918299Y-110487038D01*
X192853025Y-73100000D02*
G75*
G02*
X191628807Y-71861284I245875J1467300D01*
G01*
X171484488Y-65997118D02*
X171693827Y-65997117D01*
X250827731Y-50507117D02*
G75*
G02*
X250954169Y-50366412I127469J12617D01*
G01*
X307880000Y-120790000D02*
G75*
G02*
X307380000Y-121296000I-503000J-3000D01*
G01*
X30236000Y-95779543D02*
X30236000Y-57198239D01*
X247506227Y-135014522D02*
X233370042Y-135014522D01*
X332090216Y-129669879D02*
G75*
G02*
X331760728Y-130911785I-2236416J-71321D01*
G01*
X171810135Y-122933990D02*
X190614758Y-122938679D01*
X169345802Y-110988698D02*
X169569318Y-110969833D01*
X169475877Y-115857073D02*
X169707012Y-115928197D01*
X190835744Y-122933316D02*
X190614758Y-122938679D01*
X191745055Y-117068462D02*
G75*
G02*
X192969335Y-115828709I1260345J-20238D01*
G01*
X97588354Y-112064291D02*
X132498544Y-112064291D01*
X307880000Y-120790000D02*
X307880000Y-116790000D01*
X170577705Y-71858949D02*
G75*
G02*
X169343267Y-73095959I-1546305J308649D01*
G01*
X229823354Y-129050000D02*
X229823354Y-112064291D01*
X169707012Y-115928197D02*
X169917828Y-116045036D01*
X149081638Y-122527707D02*
G75*
G02*
X129000002Y-135014533I-28233238J23014107D01*
G01*
X168846932Y-110986868D02*
X169022618Y-110988698D01*
X213203988Y-66160000D02*
G75*
G02*
X213471336Y-65863518I287312J9700D01*
G01*
X149910267Y-66150000D02*
X149910267Y-73841798D01*
X213203988Y-111407449D02*
X213203988Y-96600291D01*
X44895688Y-155661791D02*
X30565687Y-130911791D01*
X87807500Y-117920000D02*
G75*
G02*
X87307500Y-118420000I-500000J0D01*
G01*
X169780146Y-110903795D02*
X169975721Y-110799652D01*
X170961773Y-122760789D02*
X171157349Y-122864933D01*
X92141046Y-56836406D02*
X48595000Y-56836406D01*
X270184586Y-56836406D02*
G75*
G02*
X269851397Y-56517116I-6886J326306D01*
G01*
X170140824Y-78175931D02*
X169968105Y-78033692D01*
X171370703Y-122930971D02*
X171589157Y-122939353D01*
X170369951Y-116601294D02*
X170438532Y-116832442D01*
X307380000Y-116290000D02*
X295880000Y-116290000D01*
X191745055Y-117068462D02*
X191745055Y-121818258D01*
X52719768Y-95779543D02*
X52719768Y-127952333D01*
X169338181Y-77845728D02*
X168846932Y-77837358D01*
X193464716Y-110986868D02*
X192868264Y-110991043D01*
X213203988Y-93051789D02*
X213203988Y-77427536D01*
X170387204Y-78541692D02*
X170283063Y-78346103D01*
X193464716Y-123230291D02*
X193464716Y-115828698D01*
X149910267Y-93051789D02*
G75*
G02*
X149081639Y-93051789I-414314J3211D01*
G01*
X170283063Y-78346103D02*
X170140824Y-78175931D01*
X170255650Y-116387931D02*
X170369951Y-116601294D01*
X130552247Y-56628817D02*
X130552247Y-65423427D01*
X191730342Y-78978376D02*
X191753205Y-78754848D01*
X171078084Y-66164275D02*
X170907901Y-66306523D01*
X149081638Y-77420709D02*
G75*
G02*
X149910282Y-77410291I414362J2009D01*
G01*
X111371463Y-50366406D02*
G75*
G02*
X111497872Y-50500288I2037J-124694D01*
G01*
X192860645Y-110991043D02*
X192637129Y-110972178D01*
X169226953Y-115829142D02*
X169475877Y-115857073D01*
X191814160Y-110291458D02*
X191750665Y-110080638D01*
X169022618Y-110988698D02*
X169338183Y-110988698D01*
X275023000Y-113420000D02*
X286523000Y-113420000D01*
X191298546Y-66308868D02*
X191438244Y-66479045D01*
X192853025Y-73100000D02*
X193464716Y-73098698D01*
X54926001Y-121296005D02*
G75*
G02*
X54425995Y-120796005I-1J500005D01*
G01*
X170476105Y-78976031D02*
X170453242Y-78752503D01*
X168535559Y-65863500D02*
X150114997Y-65863500D01*
X149910318Y-115902655D02*
X149910318Y-122527707D01*
X130296283Y-56366406D02*
X111831138Y-56366406D01*
X191600000Y-66860000D02*
X191628744Y-67010000D01*
X191438244Y-66479045D02*
X191542385Y-66677161D01*
X269724911Y-50366406D02*
X250954169Y-50366406D01*
X111497901Y-50500290D02*
X111497901Y-56034099D01*
X128088354Y-133070000D02*
X97588354Y-133070000D01*
X149081638Y-115902655D02*
X149081638Y-122527707D01*
X307380000Y-121296005D02*
X295880000Y-121296005D01*
X212375308Y-111407449D02*
X212375308Y-96600291D01*
X250827731Y-56040926D02*
G75*
G02*
X250494494Y-56366432I-329431J3926D01*
G01*
X190932783Y-66062481D02*
X191128363Y-66166620D01*
X213203988Y-93051789D02*
G75*
G02*
X212375308Y-93051789I-414340J3238D01*
G01*
X269851349Y-56517117D02*
X269851349Y-50497117D01*
X231764208Y-65545626D02*
X231764208Y-56635644D01*
X212180342Y-65863500D02*
G75*
G02*
X212377925Y-66075782I-12042J-209300D01*
G01*
X149910267Y-111407449D02*
G75*
G02*
X149081639Y-111407449I-414314J3170D01*
G01*
X168535559Y-65863500D02*
G75*
G02*
X168865260Y-66180291I12841J-316600D01*
G01*
X191745055Y-121818258D02*
X191724736Y-122041777D01*
X191724736Y-122041777D02*
X191658695Y-122252598D01*
X111371463Y-50366406D02*
X92600721Y-50366406D01*
X326431425Y-56836406D02*
X326431425Y-89882210D01*
X149081638Y-115902655D02*
G75*
G02*
X149910283Y-115892238I414362J2055D01*
G01*
X169772524Y-77932081D02*
X169559162Y-77866043D01*
X170392287Y-110289113D02*
X170455782Y-110078293D01*
X191923384Y-78348448D02*
X192065623Y-78178276D01*
X170907901Y-66306523D02*
X170768203Y-66476700D01*
X87307500Y-113420000D02*
X75807500Y-113420000D01*
X191244674Y-122763134D02*
X191049098Y-122867278D01*
X250494494Y-56366406D02*
X232029349Y-56366406D01*
X307380000Y-116290000D02*
G75*
G02*
X307880000Y-116790000I0J-500000D01*
G01*
X170438532Y-116832442D02*
X170461392Y-117066117D01*
X213203988Y-111407449D02*
G75*
G02*
X212375308Y-111407449I-414340J3198D01*
G01*
X193464716Y-110986868D02*
X193464716Y-77837358D01*
X219361100Y-133580740D02*
G75*
G02*
X193464703Y-123230307I2045200J42688140D01*
G01*
X171157349Y-122864933D02*
X171370703Y-122930971D01*
X192426301Y-110906140D02*
X192230726Y-110801997D01*
X129800000Y-135005000D02*
X142924514Y-133580740D01*
X168846932Y-77837358D02*
X168846932Y-110986868D01*
X191819243Y-78544037D02*
X191923384Y-78348448D01*
X212375308Y-77420709D02*
G75*
G02*
X213203988Y-77420709I414340J-3173D01*
G01*
X274523000Y-113920000D02*
G75*
G02*
X275023000Y-113420000I500000J0D01*
G01*
X168865284Y-123230291D02*
G75*
G02*
X142924525Y-133580722I-27963784J32401991D01*
G01*
X219355770Y-133580740D02*
X232570042Y-135005000D01*
X169343261Y-73095932D02*
X168861643Y-73098698D01*
X233740000Y-133070000D02*
G75*
G02*
X229823400Y-129050001I51700J3968300D01*
G01*
X170145903Y-110657413D02*
X170288148Y-110484693D01*
X52719768Y-127952333D02*
X30236000Y-127952333D01*
X149081638Y-96600291D02*
G75*
G02*
X149910318Y-96600291I414340J-3178D01*
G01*
X170577703Y-67109161D02*
X170577705Y-71858949D01*
X326431425Y-56836406D02*
X331725255Y-56836406D01*
X193464716Y-115828698D02*
X192969335Y-115834023D01*
X191658695Y-122252598D02*
X191554562Y-122450722D01*
X170791593Y-122618551D02*
X170961773Y-122760789D01*
X192433923Y-77934426D02*
X192647285Y-77868388D01*
X169559162Y-77866043D02*
X169338181Y-77845728D01*
X30601170Y-56836406D02*
X35895000Y-56836406D01*
X92474283Y-50490290D02*
X92474283Y-56510290D01*
X191628744Y-67010000D02*
X191628742Y-71861294D01*
X274523000Y-113920000D02*
X274523000Y-117920000D01*
X129000000Y-135014522D02*
X114863815Y-135014522D01*
X170598021Y-66885635D02*
X170577703Y-67109161D01*
X171480342Y-65997118D02*
X171273664Y-66063155D01*
X149910267Y-73841798D02*
G75*
G02*
X149081639Y-73841798I-414314J3119D01*
G01*
X191554562Y-122450722D02*
X191414854Y-122620896D01*
X190720342Y-65997118D02*
X190932783Y-66062481D01*
X332090216Y-95779543D02*
X309606448Y-95779543D01*
X52719768Y-95779543D02*
X30236000Y-95779543D01*
X168846932Y-115828698D02*
X168865284Y-123230291D01*
X170453242Y-78752503D02*
X170387204Y-78541692D01*
X269724911Y-50366406D02*
G75*
G02*
X269851412Y-50497156I3489J-123194D01*
G01*
X332090216Y-127952333D02*
X332090216Y-129669879D01*
X62033662Y-148371408D02*
G75*
G02*
X114863815Y-135014522I53176388J-99169892D01*
G01*
X170481711Y-122039432D02*
X170547752Y-122250253D01*
X30236000Y-129669879D02*
X30236000Y-127952333D01*
X87807500Y-117920000D02*
X87807500Y-113920000D01*
X192238342Y-78036037D02*
X192433923Y-77934426D01*
X171693827Y-65997117D02*
X190720342Y-65997118D01*
X132498542Y-129050000D02*
G75*
G02*
X128088197Y-133069963I-4214342J194300D01*
G01*
X92474283Y-50490325D02*
G75*
G02*
X92600722Y-50366392I119817J4225D01*
G01*
X313731425Y-56836406D02*
X313731425Y-89879710D01*
X332090216Y-57198239D02*
X332090216Y-95779543D01*
X264735168Y-112064291D02*
X264740000Y-133070000D01*
X300291970Y-148371408D02*
X314319820Y-156305075D01*
X170455782Y-110078293D02*
X170476105Y-109854773D01*
X331760738Y-130911791D02*
X317430737Y-155661791D01*
X232570042Y-135005000D02*
G75*
G02*
X212375290Y-122527722I8081158J35661000D01*
G01*
X212375308Y-115902655D02*
G75*
G02*
X213203988Y-115902655I414340J-3109D01*
G01*
X54926001Y-116290000D02*
X66426001Y-116290000D01*
X48005688Y-156311791D02*
G75*
G02*
X44895720Y-155661772I-1250688J1780891D01*
G01*
X313731425Y-56836406D02*
X270184586Y-56836406D01*
X48595000Y-89880000D02*
X35895000Y-89882500D01*
X149910267Y-66079982D02*
G75*
G02*
X150114997Y-65863539I204533J11582D01*
G01*
X170476105Y-109854773D02*
X170476103Y-78981106D01*
X169917828Y-116045036D02*
X170105789Y-116199977D01*
X250827731Y-56040926D02*
X250827731Y-50507117D01*
X191128363Y-66166620D02*
X191298546Y-66308868D01*
X170105789Y-116199977D02*
X170255650Y-116387931D01*
X48595000Y-89880000D02*
X48595000Y-56836406D01*
X149081638Y-77420709D02*
X149081638Y-93051789D01*
X192637129Y-110972178D02*
X192426301Y-110906140D01*
X35895000Y-89882500D02*
X35895000Y-56836406D01*
X111831138Y-56366406D02*
G75*
G02*
X111497994Y-56034099I-338J332806D01*
G01*
X169008004Y-115828698D02*
X169226953Y-115829142D01*
X170461392Y-117066117D02*
X170461392Y-121815913D01*
X170768203Y-66476700D02*
X170664062Y-66674816D01*
X149910267Y-77420709D02*
X149910267Y-93051789D01*
X191918299Y-110487038D02*
X191814160Y-110291458D01*
X169975721Y-110799652D02*
X170145903Y-110657413D01*
X229824810Y-112064291D02*
X264735000Y-112064291D01*
X54426001Y-116796005D02*
G75*
G02*
X54926001Y-116296001I499999J5D01*
G01*
X170461392Y-121815913D02*
X170481711Y-122039432D01*
X213471232Y-65863500D02*
X231442994Y-65863500D01*
X149081638Y-96600291D02*
X149081638Y-111407449D01*
X87307500Y-113420000D02*
G75*
G02*
X87807500Y-113920000I0J-500000D01*
G01*
X30565688Y-130911791D02*
G75*
G02*
X30236183Y-129669878I1907212J1170691D01*
G01*
X170664062Y-66674816D02*
X170598021Y-66885635D01*
X87307500Y-118420000D02*
X75807500Y-118420000D01*
X332090000Y-127952333D02*
X309606448Y-127952333D01*
X54426001Y-116796005D02*
X54426001Y-120796005D01*
X30236209Y-57198239D02*
G75*
G02*
X30601169Y-56836427I349791J12139D01*
G01*
X213203988Y-122527707D02*
X213203988Y-115902655D01*
X247506227Y-135022114D02*
G75*
G02*
X300298871Y-148371428I-418127J-112717986D01*
G01*
X331725255Y-56836406D02*
G75*
G02*
X332090211Y-57198239I15145J-349694D01*
G01*
X275023000Y-118420000D02*
X286523000Y-118420000D01*
X212379025Y-73841798D02*
X212378075Y-66066114D01*
D14*
X76968543Y-77274291D02*
G75*
G02*
X69768545Y-77274291I-3599999J0D01*
G01*
X69768545Y-77274291D02*
G75*
G02*
X76968543Y-77274291I3599999J0D01*
G01*
X292554605Y-77284596D02*
G75*
G02*
X285354607Y-77284596I-3599999J0D01*
G01*
X285354607Y-77284596D02*
G75*
G02*
X292554605Y-77284596I3599999J0D01*
G01*
M02*
